<svg width="160" height="80" viewBox="0 0 160 80" fill="none" xmlns="http://www.w3.org/2000/svg">
<path d="M14.8136 50.3275C14.3305 50.7171 13.8474 51.0911 13.3644 51.4807C13.1618 51.6365 12.9904 51.8546 12.7566 51.9326C12.4917 52.0105 12.1801 51.9637 11.884 51.9793C11.9151 51.73 11.8372 51.4183 11.9775 51.2469C12.6475 50.3743 13.3176 49.486 14.1124 48.7069C14.9227 47.9121 15.2343 46.6499 14.6578 45.637C13.9565 44.4215 13.2553 43.206 12.5385 42.0062C12.367 41.7101 12.1489 41.3984 12.4761 41.1179C12.819 40.8218 13.2241 40.8218 13.5825 41.1491C13.9254 41.4763 14.2838 41.8036 14.6422 42.1152L14.8603 42.0529L14.6422 35.695C14.2059 35.9755 13.8942 36.1937 13.5514 36.3962C13.2241 36.5832 12.8501 37.0352 12.4761 36.63C12.0866 36.2093 12.5696 35.882 12.819 35.5859C13.3955 34.9003 14.0344 34.277 14.5954 33.5757C14.8292 33.2796 15.0006 32.8901 15.1097 32.5161C15.4369 31.4408 15.0629 30.6149 14.2526 29.8358C13.3332 28.9475 12.5229 27.9346 11.6814 26.9685C11.4944 26.7503 11.0892 26.4854 11.4632 26.2205C11.7126 26.0491 12.1645 26.0179 12.4761 26.1114C12.7878 26.1893 13.0371 26.5166 13.3332 26.7036C13.8942 27.0464 14.4708 27.3892 15.0629 27.6697C15.8421 28.0281 16.0758 27.9502 16.6524 27.3269C17.6809 26.1893 18.834 25.2076 20.2521 24.5843C20.8754 24.3194 21.5143 24.0545 22.1532 23.8363C22.5584 23.7116 22.7765 23.4779 22.8856 23.0883C23.057 22.5585 23.244 22.0131 23.4622 21.4988C23.5557 21.2807 23.7115 21.0469 23.8985 20.9067C24.3504 20.5794 24.7088 20.7197 24.8958 21.2495C25.0673 21.7326 25.2075 22.2157 25.4101 22.6676C25.5503 23.0104 25.8308 23.1195 26.2204 23.0883C26.8437 23.026 27.467 23.0104 28.0748 23.0571C28.5423 23.0883 28.8384 22.9636 29.1344 22.6208C29.9448 21.7014 30.7707 20.7976 31.6277 19.9094C31.955 19.5821 32.329 19.286 32.7341 19.0679C32.9211 18.9588 33.2951 18.99 33.4665 19.099C33.5912 19.1925 33.5756 19.5665 33.5133 19.7847C33.2172 20.8911 32.89 21.9819 32.5783 23.0727C32.4536 23.4935 32.6095 23.696 32.9834 23.8986C34.308 24.5999 35.6014 25.3323 36.8948 26.0958C37.222 26.2984 37.4402 26.2828 37.7051 26.0335C38.0479 25.7063 38.4064 25.3479 38.8115 25.0985C39.3102 24.8024 39.6063 25.0206 39.5283 25.5972C39.4504 26.1893 39.279 26.7815 39.2634 27.3737C39.2634 27.7944 39.3881 28.2463 39.5128 28.6515C39.7777 29.4929 40.1205 30.3189 40.3698 31.1759C40.5412 31.7681 40.6503 31.8616 41.1178 31.472C41.71 30.9733 42.271 30.4279 42.8631 29.9293C43.0501 29.7734 43.2839 29.6176 43.502 29.5864C43.9539 29.5085 44.1409 29.7734 44.0163 30.2098C43.4864 32.0642 42.645 33.7627 41.3827 35.2275C40.9931 35.6638 40.8217 36.1158 40.8529 36.7079C40.9152 37.5961 40.9152 38.5 40.962 39.3882C40.9776 39.9804 41.1801 40.105 41.7411 39.8713C42.006 39.7622 42.2554 39.5752 42.5359 39.5284C42.7229 39.4973 43.0034 39.5752 43.1436 39.7154C43.2215 39.7778 43.1436 40.1362 43.0189 40.2608C42.5515 40.7283 42.084 41.2114 41.5541 41.5854C41.0866 41.9127 40.8685 42.2866 40.9152 42.8476C40.9464 43.1749 40.9152 43.5021 40.9152 43.845C40.8997 44.2657 41.1022 44.4059 41.5074 44.3124C41.6476 44.2813 41.7723 44.2189 41.9125 44.2345C42.0528 44.2345 42.271 44.2969 42.3021 44.3904C42.3489 44.515 42.3333 44.7488 42.2398 44.8579C41.9749 45.1851 41.6476 45.4812 41.3516 45.7773C40.6971 46.4317 40.6036 47.881 41.2581 48.5355C41.9125 49.1899 42.6917 49.7354 43.3929 50.3431C43.6111 50.5301 43.9228 50.8262 43.8916 51.0132C43.8137 51.4495 43.3618 51.4027 43.0189 51.3404C42.5203 51.2625 42.0372 51.1067 41.5386 50.9976C40.962 50.8729 40.8529 50.982 41.0087 51.5274C41.1957 52.2131 41.0399 52.4312 40.3387 52.478C40.1984 52.478 40.0582 52.478 39.9335 52.478C31.8303 52.478 23.7115 52.478 15.6083 52.4936C15.4525 52.4936 15.2967 52.4936 15.1408 52.4936C14.7513 52.4468 14.5954 52.2442 14.7045 51.8547C14.8448 51.3872 14.9383 50.9041 15.0629 50.4366L14.8292 50.3119L14.8136 50.3275ZM27.5917 51.8391C28.215 51.8391 28.8384 51.8391 29.4617 51.8391C29.8513 51.8391 30.0227 51.6988 30.0227 51.2937C30.0227 47.7563 30.0227 44.2034 29.9915 40.666C29.9915 40.4478 29.7578 40.1206 29.5552 40.0271C28.6046 39.5908 27.8722 38.9051 27.2956 38.0636C26.3295 36.6456 26.0646 35.0717 26.2516 33.3887C26.4853 31.2538 27.4826 29.5397 29.4617 28.6515C30.3343 28.2619 30.5992 27.7944 30.459 26.9529C30.459 26.875 30.459 26.7971 30.459 26.7192C30.2876 25.7998 30.1629 24.8804 29.4461 24.1791C29.1656 23.9142 28.9007 23.8519 28.6358 24.1012C27.6852 24.9894 26.61 25.7842 25.8308 26.8127C24.1946 28.9475 24.0232 31.5187 24.1478 34.09C24.3193 37.3001 24.553 40.4946 24.7556 43.6891C24.9114 46.2447 25.0828 48.816 25.2231 51.3716C25.2387 51.7144 25.3789 51.8702 25.7217 51.8547C26.3451 51.8547 26.9684 51.8547 27.5917 51.8547V51.8391ZM24.0388 22.7922C23.9297 23.5558 23.6336 24.0233 22.9947 24.1947C22.7142 24.2726 22.4493 24.3817 22.1688 24.4752C20.3923 25.0362 18.8029 25.8933 17.6341 27.4048C17.4783 27.6074 17.3225 27.8256 17.1043 27.9502C16.7147 28.1684 16.294 28.3866 15.8577 28.4489C15.3902 28.5112 14.9071 28.3866 14.2838 28.3242C14.6889 28.7761 15.0162 29.1813 15.3746 29.5397C16.107 30.2565 16.6368 31.0201 16.1693 32.1109C16.107 32.2512 16.107 32.4226 16.1382 32.5784C16.2005 33.1082 15.9512 33.451 15.5616 33.7783C15.1564 34.1055 14.8136 34.5107 14.3305 34.9782C15.6862 34.7912 15.9512 35.0561 15.8265 36.2404C15.7953 36.5677 15.7486 36.8949 15.7642 37.2221C15.7953 38.8584 15.8577 40.4946 15.8888 42.1308C15.9044 43.2528 15.8888 43.2528 14.798 43.58C14.9071 43.767 15.0162 43.954 15.1253 44.1255C15.7174 45.076 16.2161 46.0266 16.107 47.2265C16.0447 47.8186 15.9044 48.255 15.4057 48.5978C14.9694 48.8939 14.5954 49.3146 14.1903 49.673L14.2993 49.7977C14.5643 49.6886 14.8292 49.5795 15.0941 49.486C15.733 49.2523 16.1226 49.5016 16.1226 50.2028C16.1226 50.5457 16.0602 50.9041 15.9823 51.2313C15.8732 51.6209 15.9044 51.8391 16.3719 51.8391C17.2913 51.8391 18.2107 51.8391 19.1145 51.8391C19.4729 51.8391 19.6132 51.6677 19.582 51.3404C19.582 51.1534 19.582 50.9508 19.5508 50.7638C19.4262 49.1588 19.2236 47.5537 19.1613 45.9331C19.0366 41.9594 18.9431 37.9857 18.9275 34.0276C18.9275 32.8121 19.1145 31.5811 19.4262 30.3968C20.1274 27.6697 21.7325 25.5816 24.1634 24.148C24.3348 24.0389 24.5063 23.9142 24.6933 23.7895L24.0232 22.8078L24.0388 22.7922ZM27.9969 23.8363L27.9034 23.6649C26.9528 23.5558 26.0178 23.5402 25.1452 24.0233C21.7325 25.9244 20.2832 29.041 20.1274 32.7498C19.8625 38.874 20.2521 45.0137 20.5482 51.1378C20.5793 51.6365 20.7819 51.8391 21.265 51.8235C21.9506 51.8079 22.6363 51.7923 23.3064 51.8235C23.8674 51.8547 24.0855 51.6677 24.0232 51.0911C23.9141 49.8756 23.8518 48.6445 23.7894 47.4291C23.6959 45.5435 23.6336 43.658 23.5245 41.7724C23.4154 39.8713 23.1817 37.9701 23.1505 36.069C23.1194 34.1835 23.1349 32.2979 23.3375 30.4279C23.5713 28.2931 24.6933 26.5633 26.3295 25.192C26.8749 24.7401 27.4203 24.2726 27.9657 23.8207L27.9969 23.8363ZM31.8771 20.8911L31.7991 20.7976C31.1446 21.5767 30.4746 22.3559 29.8357 23.1662C29.7422 23.2753 29.7578 23.6181 29.8668 23.7116C30.9732 24.7713 31.4875 26.0647 31.4407 27.5918C31.4407 27.9346 31.5966 28.1216 31.955 28.1684C33.6068 28.371 34.8067 29.2904 35.6326 30.6617C36.5676 32.1888 36.926 33.825 36.5208 35.6327C36.0689 37.7052 34.9937 39.2479 33.0302 40.0583C32.438 40.3076 32.2822 40.5725 32.2822 41.1647C32.329 43.8761 32.329 46.572 32.3445 49.2834C32.3445 49.9379 32.3134 50.608 32.3134 51.2625C32.3134 51.6053 32.438 51.8235 32.8276 51.8235C34.0431 51.8235 35.243 51.8235 36.4585 51.7923C36.6143 51.7923 36.8792 51.5274 36.9104 51.356C37.0195 50.8418 37.0506 50.3119 37.0818 49.7977C37.1753 47.8342 37.1909 45.8708 37.3623 43.9073C37.6116 40.9465 37.5805 38.0013 37.409 35.0405C37.3155 33.4978 37.1285 31.9862 36.552 30.537C35.5547 28.0126 34.0119 25.9244 31.7991 24.335C31.5966 24.1791 31.394 23.8207 31.4251 23.5714C31.5342 22.6676 31.7368 21.7793 31.9082 20.8911H31.8771ZM35.4456 33.825C35.5235 32.9212 35.2274 32.0018 34.7443 31.1448C33.1081 28.3242 29.7733 28.0281 27.7164 30.537C26.1892 32.3914 26.2204 35.8508 27.9813 37.6273C29.8201 39.4973 32.3134 39.5129 34.1054 37.5961C35.0716 36.5677 35.4767 35.321 35.4456 33.8095V33.825ZM42.4891 31.3006C42.4891 31.3006 42.3333 31.3941 42.2554 31.4564C41.71 31.8927 41.1801 32.3602 40.6036 32.7498C39.9647 33.1706 39.653 32.9524 39.4816 32.2512C39.2167 31.1448 38.8739 30.0539 38.4531 28.9943C38.2661 28.5112 38.0012 28.1216 38.157 27.5762C38.2194 27.3425 38.157 27.062 38.157 26.8127L38.0791 26.6568C37.3311 27.7009 36.7078 27.1867 36.0533 26.688C35.6482 26.3763 35.1962 26.1114 34.7755 25.8153C35.0092 26.314 35.3365 26.7036 35.6482 27.1087C37.6116 29.6644 38.4219 32.6251 38.4375 35.7885C38.4687 39.7778 38.3284 43.767 38.2505 47.7563C38.2194 48.925 38.1103 50.0938 38.0791 51.2469C38.0791 51.4339 38.2505 51.7767 38.3908 51.8079C38.8115 51.8858 39.2634 51.8391 39.6218 51.8391C39.7465 51.2937 39.7153 50.6859 40.0114 50.421C40.2919 50.1561 40.8841 50.2496 41.3983 50.1717C39.4348 48.7069 38.9985 47.0551 40.8062 45.1383C40.1621 45.076 39.8452 44.7228 39.8556 44.0787C39.8556 43.6268 39.8556 43.1749 39.8556 42.7386C39.8556 42.1776 40.0582 41.7724 40.5568 41.4919C40.8841 41.3205 41.149 41.0556 41.4451 40.8374L41.3827 40.6504C41.1801 40.6504 40.9776 40.6504 40.7594 40.6504C40.027 40.6504 39.9647 40.5881 39.9335 39.8557C39.8868 38.9051 39.8868 37.939 39.7777 37.004C39.6998 36.3027 39.8712 35.7729 40.3387 35.2587C41.336 34.1367 42.084 32.8433 42.4891 31.3317V31.3006Z" fill="#06225D"/>
<path d="M60.0046 49.9379C59.7085 50.1249 59.5215 50.1717 59.4124 50.2963C57.4801 52.6182 52.9922 52.3845 50.7794 50.795C48.7224 49.3302 47.6005 47.3511 47.3511 44.8578C47.1174 42.349 47.6472 40.0582 49.3458 38.1104C51.7144 35.3833 56.2802 34.5574 59.3189 37.113C59.4748 37.2377 59.6617 37.3312 59.8643 37.4559C59.9578 37.3312 60.0669 37.2377 60.0513 37.1754C59.9111 36.1469 60.5032 36.069 61.3136 36.1157C62.4044 36.1781 63.4952 36.1469 64.586 36.1313C65.1002 36.1313 65.3496 36.2716 65.334 36.8325C65.334 41.5386 65.3184 46.2447 65.334 50.9508C65.334 51.4651 65.147 51.6365 64.6483 51.6209C63.4329 51.6053 62.2018 51.5897 60.9863 51.6209C60.3318 51.6521 59.989 51.4806 60.0981 50.7638C60.1292 50.5457 60.0513 50.3119 60.0202 49.9379H60.0046ZM52.8208 43.7982C52.665 45.5902 54.1453 47.4914 56.4516 47.5693C58.4619 47.6316 60.1916 45.9019 60.1916 43.8761C60.1916 41.8191 58.5554 40.1673 56.514 40.1206C54.6284 40.0738 52.6494 41.7568 52.8208 43.8138V43.7982Z" fill="#06225D"/>
<path d="M132.403 41.8191C132.403 43.1437 132.403 44.4682 132.403 45.7928C132.388 49.1276 131.079 50.9352 127.869 51.8079C124.908 52.6026 121.932 52.5403 119.08 51.356C117.085 50.5301 115.917 48.9717 115.854 46.7901C115.745 43.4398 115.776 40.0894 115.745 36.739C115.745 36.1936 115.994 36.0066 116.509 36.0222C117.802 36.0222 119.111 36.0222 120.404 36.0066C121.028 35.991 121.215 36.256 121.215 36.8481C121.199 39.1388 121.215 41.414 121.215 43.7047C121.215 44.0631 121.215 44.4371 121.215 44.7955C121.277 47.2264 123.163 48.4575 125.422 47.5069C126.233 47.1641 126.716 46.5408 126.762 45.6526C126.825 44.6708 126.809 43.6735 126.825 42.6918C126.856 40.7439 126.887 38.796 126.887 36.8481C126.887 36.256 127.105 36.0066 127.713 36.0222C129.006 36.0378 130.315 36.0378 131.609 36.0222C132.232 36.0066 132.419 36.2715 132.419 36.8637C132.403 38.5311 132.419 40.1829 132.419 41.8503L132.403 41.8191Z" fill="#06225D"/>
<path d="M147.799 36.0689C148.625 36.2715 148.657 36.4429 148.251 37.2064C147.862 37.9388 147.472 38.6712 147.098 39.4192C146.88 39.84 146.631 39.8867 146.148 39.7621C145.259 39.5283 144.324 39.3725 143.405 39.3102C142.782 39.2634 142.19 39.5439 142.096 40.2763C142.018 41.0243 142.61 41.2113 143.187 41.3671C143.919 41.5697 144.652 41.7255 145.384 41.9125C147.332 42.4423 148.797 43.502 149.077 45.6525C149.358 47.8341 148.625 49.6729 146.755 50.9195C144.761 52.2597 142.47 52.5713 140.164 52.1818C138.746 51.948 137.406 51.3247 136.034 50.8572C135.489 50.6702 135.411 50.3118 135.676 49.8131C136.128 48.9717 136.58 48.1146 137 47.2575C137.25 46.7433 137.499 46.6809 138.029 46.9459C138.964 47.3978 139.93 47.8029 140.927 48.0523C141.488 48.1925 142.19 48.1146 142.735 47.912C143.078 47.7873 143.499 47.2419 143.483 46.8991C143.483 46.5563 143.031 46.0732 142.673 45.933C141.909 45.6213 141.068 45.4966 140.273 45.2785C139.852 45.1694 139.416 45.0447 139.011 44.8733C136.346 43.7513 135.66 40.1828 137.639 37.7674C138.855 36.287 140.507 35.6793 142.345 35.4767C142.782 35.43 143.234 35.4611 143.67 35.4767C145.462 35.539 146.444 35.7884 147.799 36.1156V36.0689Z" fill="#06225D"/>
<path d="M74.7307 39.0142C74.7307 42.9099 74.7151 46.8057 74.7463 50.7015C74.7463 51.465 74.5125 51.6832 73.7801 51.652C72.6114 51.5897 71.4427 51.6053 70.2739 51.6209C69.713 51.6209 69.4948 51.4806 69.4948 50.8729C69.4948 42.9723 69.4948 35.0716 69.4636 27.1866C69.4636 26.5945 69.635 26.3451 70.2584 26.3607C71.4583 26.3919 72.6582 26.4075 73.8425 26.3607C74.5125 26.3295 74.7463 26.5321 74.7307 27.2334C74.6995 31.1603 74.7307 35.0716 74.7307 38.9986V39.0142Z" fill="#06225D"/>
<path d="M104.65 46.0888C104.65 44.5305 104.634 42.9722 104.65 41.4139C104.65 40.7282 104.447 40.3542 103.715 40.4633C102.936 40.5724 102.733 40.1984 102.764 39.4816C102.811 38.6089 102.78 37.7207 102.764 36.8324C102.764 36.3182 102.92 36.0845 103.466 36.0845C104.619 36.0689 104.619 36.0377 104.619 34.9001C104.619 33.934 104.619 32.9834 104.619 32.0173C104.619 31.5498 104.79 31.3628 105.258 31.3628C106.582 31.3784 107.907 31.394 109.231 31.3628C109.792 31.3628 109.933 31.6121 109.933 32.1264C109.917 33.1393 109.948 34.1522 109.917 35.1651C109.886 35.8819 110.198 36.178 110.883 36.1C110.961 36.1 111.039 36.1 111.117 36.1C112.457 36.1 113.127 36.7597 113.127 38.0791C113.127 38.5466 113.127 39.0141 113.127 39.4816C113.127 40.1464 112.774 40.4789 112.068 40.4789C111.647 40.4789 111.242 40.4945 110.821 40.4789C110.135 40.4321 109.917 40.7438 109.917 41.3983C109.933 44.4837 109.902 47.5692 109.933 50.6702C109.933 51.4494 109.746 51.7299 108.935 51.6831C107.751 51.6208 106.551 51.6364 105.351 51.6831C104.79 51.6831 104.634 51.4805 104.634 50.9507C104.65 49.3457 104.634 47.725 104.634 46.12L104.65 46.0888Z" fill="#06225D"/>
<path d="M100.318 40.8218C97.9808 39.731 95.9861 39.5752 94.3655 41.5386C93.3214 42.8165 93.2903 44.9046 94.3187 46.198C95.9394 48.2394 97.9652 48.0056 100.147 46.9927C100.194 47.242 100.256 47.429 100.271 47.616C100.271 48.2861 100.287 48.9718 100.271 49.6418C100.225 51.3404 100.645 51.169 98.7287 51.7456C95.1914 52.8208 91.0619 51.3092 89.1296 48.177C86.122 43.3307 88.927 36.8637 94.5369 35.7417C96.2978 35.3833 97.9808 35.4457 99.6637 36.0846C100.147 36.2716 100.349 36.5521 100.334 37.0819C100.303 38.2662 100.334 39.4505 100.334 40.8218H100.318Z" fill="#06225D"/>
<path d="M84.5323 43.8448C84.5323 46.1511 84.5167 48.473 84.5323 50.7793C84.5323 51.4494 84.3453 51.7143 83.6441 51.6831C82.3974 51.6364 81.1508 51.652 79.9041 51.6831C79.3432 51.6831 79.1094 51.4961 79.125 50.9196C79.1562 46.1979 79.1873 41.4762 79.2029 36.739C79.2029 36.2715 79.3899 36.1001 79.8418 36.1001C81.1352 36.1001 82.4442 36.1001 83.7376 36.0689C84.3142 36.0533 84.5012 36.2715 84.5012 36.8325C84.47 39.1699 84.5012 41.5074 84.5012 43.8448H84.5323V43.8448Z" fill="#06225D"/>
<path d="M84.7971 29.9447C84.7971 31.6277 83.457 32.9679 81.7896 32.9367C80.1534 32.9055 78.8288 31.581 78.7976 29.9603C78.7665 28.3085 80.1222 26.9684 81.8052 26.9684C83.5349 26.9684 84.7971 28.215 84.7971 29.9447Z" fill="#06225D"/>
<path d="M32.5156 32.2979C31.8144 32.5784 31.5807 32.9056 31.7988 33.3575C31.9858 33.7315 32.4066 33.7471 33.0143 33.4043C33.0766 34.0743 32.578 34.7911 31.9235 34.9781C31.082 35.1963 30.2094 34.8223 29.9133 34.0899C29.5704 33.2484 29.8509 32.4069 30.6145 31.9862C31.2846 31.6122 32.0949 31.7525 32.5156 32.3134V32.2979Z" fill="#06225D"/>
<path d="M32.329 29.9137C33.6692 30.3967 34.4327 31.4096 34.8067 32.703C35.2275 34.1522 34.9937 35.5547 34.1522 36.817C33.077 38.4532 31.02 38.983 29.3994 38.0636C29.3215 38.0168 29.2747 37.9545 29.2124 37.861C30.3032 38.3285 31.3629 38.3597 32.4069 37.7831C33.7159 37.0507 34.386 35.882 34.5262 34.4327C34.7132 32.4849 33.9964 30.9577 32.3134 29.8981L32.329 29.9137Z" fill="#06225D"/>
</svg>
