<?xml version="1.0" encoding="utf-8"?>
<!-- Generator: Adobe Illustrator 24.2.1, SVG Export Plug-In . SVG Version: 6.00 Build 0)  -->
<svg version="1.1" id="Layer_1" xmlns="http://www.w3.org/2000/svg" xmlns:xlink="http://www.w3.org/1999/xlink" x="0px" y="0px"
	 viewBox="0 0 178.3 100" style="enable-background:new 0 0 178.3 100;" xml:space="preserve">
<style type="text/css">
	.st0{fill:#32DE84;}
</style>
<path class="st0" d="M132.7,30.1l14.8-25.6c0.8-1.4,0.3-3.3-1.1-4.1c-1.4-0.8-3.3-0.3-4.1,1.1l-15,26c-11.4-5.2-24.3-8.1-38.1-8.1
	S62.5,22.2,51,27.4l-15-26c-0.8-1.4-2.7-1.9-4.1-1.1c-1.4,0.8-1.9,2.7-1.1,4.1l14.8,25.6C20.1,44,2.9,69.8,0,100h178.3
	C175.5,69.8,158.2,44,132.7,30.1L132.7,30.1z M48.2,75c-4.1,0-7.5-3.4-7.5-7.5c0-4.1,3.4-7.5,7.5-7.5c4.1,0,7.5,3.4,7.5,7.5
	C55.7,71.6,52.4,75,48.2,75z M130.1,75c-4.1,0-7.5-3.4-7.5-7.5c0-4.1,3.4-7.5,7.5-7.5c4.1,0,7.5,3.4,7.5,7.5
	C137.6,71.6,134.2,75,130.1,75z"/>
</svg>
