<?xml version="1.0" encoding="utf-8"?>
<!-- Generator: Adobe Illustrator 24.2.1, SVG Export Plug-In . SVG Version: 6.00 Build 0)  -->
<svg version="1.1" id="Layer_1" xmlns="http://www.w3.org/2000/svg" xmlns:xlink="http://www.w3.org/1999/xlink" x="0px" y="0px"
	 viewBox="0 0 100 100" style="enable-background:new 0 0 100 100;" xml:space="preserve">
<style type="text/css">
	.st0{fill:#FFFFFF;}
	.st1{fill:#D6D6D6;}
	.st2{fill:url(#SVGID_1_);}
	.st3{fill:url(#SVGID_2_);}
	.st4{fill:url(#SVGID_3_);}
</style>
<g>
	<path class="st0" d="M20,99.6C9.2,99.6,0.4,90.8,0.4,80V20C0.4,9.2,9.2,0.4,20,0.4h60c10.8,0,19.6,8.8,19.6,19.6v60
		c0,10.8-8.8,19.6-19.6,19.6H20z"/>
	<path class="st1" d="M80,0.8c10.6,0,19.2,8.6,19.2,19.2v60c0,10.6-8.6,19.2-19.2,19.2H20C9.4,99.2,0.8,90.6,0.8,80V20
		C0.8,9.4,9.4,0.8,20,0.8H80 M80,0H20C9,0,0,9,0,20v60c0,11,9,20,20,20h60c11,0,20-9,20-20V20C100,9,91,0,80,0L80,0z"/>
</g>
<g id="market-appstore-icon">
	<linearGradient id="SVGID_1_" gradientUnits="userSpaceOnUse" x1="69.5475" y1="7.2229" x2="69.5475" y2="95.7849">
		<stop  offset="0" style="stop-color:#0ED4FC"/>
		<stop  offset="1" style="stop-color:#0C57EF"/>
	</linearGradient>
	<path class="st2" d="M54.8,50c3.8,6.4,9.4,16.2,16.8,29.2c1.2,2.2,4,3,6.2,1.6c2.2-1.2,3-4,1.6-6.2L75,66.8h6.6
		c2.6,0,4.6-2,4.6-4.6s-2-4.6-4.6-4.6H69.8c-6-10.4-10.4-18-13.4-23.2C53.6,36.8,51,43.4,54.8,50z"/>
	<linearGradient id="SVGID_2_" gradientUnits="userSpaceOnUse" x1="25.5962" y1="7.2229" x2="25.5962" y2="95.7849">
		<stop  offset="0" style="stop-color:#0ED4FC"/>
		<stop  offset="1" style="stop-color:#0C57EF"/>
	</linearGradient>
	<path class="st3" d="M23,69l-3.2,5.6c-1.2,2.2-0.6,5,1.6,6.2s5,0.6,6.2-1.6l4.4-7.6C29.8,68.8,26.8,67.8,23,69z"/>
	<linearGradient id="SVGID_3_" gradientUnits="userSpaceOnUse" x1="36.9038" y1="7.2229" x2="36.9038" y2="95.7849">
		<stop  offset="0" style="stop-color:#0ED4FC"/>
		<stop  offset="1" style="stop-color:#0C57EF"/>
	</linearGradient>
	<path class="st4" d="M18,66.8h41.4c2-3.8-0.6-9-5.2-9H40L59.6,24c1.2-2.2,0.6-5-1.6-6.2s-5-0.6-6.2,1.6l-2,3.6l-2-3.6
		c-1.2-2.2-4-3-6.2-1.6c-2.2,1.2-3,4-1.6,6.2l4.6,8L29.8,57.8H18.2c-2.6,0-4.6,2-4.6,4.6C13.6,65,15.4,66.8,18,66.8z"/>
</g>
</svg>
