<?xml version="1.0" encoding="utf-8"?>
<!-- Generator: Adobe Illustrator 24.2.1, SVG Export Plug-In . SVG Version: 6.00 Build 0)  -->
<svg version="1.1" id="Layer_1" xmlns="http://www.w3.org/2000/svg" xmlns:xlink="http://www.w3.org/1999/xlink" x="0px" y="0px"
	 viewBox="0 0 99.8 100" style="enable-background:new 0 0 99.8 100;" xml:space="preserve">
<style type="text/css">
	.st0{fill:#00ACD2;}
	.st1{fill:#C8E9EB;}
	.st2{fill:#662D91;}
</style>
<g>
	<path class="st0" d="M78.6,9.9C66.6-0.5,40.1-5.6,20.2,9.3C1.5,21.8,0.6,44.7,0.6,44.7c3.2,12.5,15.8,24.5,40.1,18.7
		C37.8,46.5,43.5,3.9,78.6,9.9L78.6,9.9z"/>
	<path class="st1" d="M66.1,50.6C53,61.5,13,78.1,0.6,44.7c-3,15.6,5.3,41.5,28.1,51.3c20.2,9.9,41.2-1.6,41.2-1.6
		C79.1,85.4,83.4,68.7,66.1,50.6"/>
	<path class="st2" d="M42.4,35.3c16,5.9,50.2,31.6,27.5,59.1c15-5.2,32.5-25.2,29.6-49.8C98,22.1,78.6,9.9,78.6,9.9
		C66.2,6.4,49.5,11.3,42.4,35.3"/>
</g>
</svg>
