<?xml version="1.0" encoding="utf-8"?>
<!-- Generator: Adobe Illustrator 24.2.1, SVG Export Plug-In . SVG Version: 6.00 Build 0)  -->
<svg version="1.1" id="Layer_1" xmlns="http://www.w3.org/2000/svg" xmlns:xlink="http://www.w3.org/1999/xlink" x="0px" y="0px"
	 viewBox="0 0 61 61" style="enable-background:new 0 0 61 61;" xml:space="preserve">
<style type="text/css">
	.st0{fill:#A3AAAE;}
</style>
<path class="st0" d="M52.1,45.3c-0.8,1.9-1.8,3.6-2.9,5.1c-1.5,2.1-2.7,3.6-3.7,4.4c-1.5,1.3-3.1,2-4.8,2.1c-1.2,0-2.7-0.3-4.4-1
	c-1.7-0.7-3.3-1-4.7-1c-1.5,0-3.1,0.3-4.9,1C25,56.6,23.6,57,22.5,57c-1.6,0.1-3.2-0.6-4.9-2.1c-1-0.9-2.3-2.4-3.9-4.6
	c-1.7-2.3-3-5-4.1-8.1C8.6,38.9,8,35.7,8,32.6c0-3.6,0.8-6.6,2.3-9.2c1.2-2.1,2.8-3.7,4.9-4.9c2-1.2,4.2-1.8,6.6-1.8
	c1.3,0,3,0.4,5.1,1.2c2.1,0.8,3.4,1.2,4,1.2c0.4,0,1.9-0.5,4.5-1.4c2.4-0.9,4.4-1.2,6.1-1.1c4.5,0.4,7.9,2.1,10.1,5.3
	c-4,2.4-6,5.8-6,10.1c0,3.4,1.3,6.2,3.7,8.4c1.1,1,2.3,1.8,3.7,2.4C52.7,43.7,52.4,44.5,52.1,45.3z M41.7,5.1c0,2.7-1,5.1-2.9,7.4
	c-2.3,2.7-5.2,4.3-8.3,4c0-0.3-0.1-0.7-0.1-1c0-2.5,1.1-5.3,3.1-7.5c1-1.1,2.2-2.1,3.8-2.8c1.5-0.7,3-1.1,4.3-1.2
	C41.7,4.4,41.7,4.7,41.7,5.1L41.7,5.1z"/>
</svg>
