<?xml version="1.0" encoding="utf-8"?>
<!-- Generator: Adobe Illustrator 26.0.1, SVG Export Plug-In . SVG Version: 6.00 Build 0)  -->
<svg version="1.1" id="Layer_1" xmlns="http://www.w3.org/2000/svg" xmlns:xlink="http://www.w3.org/1999/xlink" x="0px" y="0px"
	 viewBox="0 0 47 41" style="enable-background:new 0 0 47 41;" xml:space="preserve">
<style type="text/css">
	.st0{fill:none;stroke:#B7B7C0;stroke-width:2;stroke-linecap:round;stroke-linejoin:round;}
	.st1{fill:#00CCFF;}
	.st2{fill:none;stroke:#FFFFFF;stroke-width:2;stroke-linecap:round;}
</style>
<g>
	<path class="st0" d="M14.1,19.49C8.86,14.25,34.04,2.04,37.81,5.82s-8.79,28.59-13.74,23.64L14.1,19.49z"/>
	<line class="st0" x1="28.71" y1="6.56" x2="36.93" y2="14.79"/>
	<circle class="st0" cx="27.94" cy="15.51" r="3.17"/>
	<polygon class="st0" points="14.1,19.49 11.55,23.63 19.82,31.9 24.07,29.46 	"/>
	<path class="st0" d="M22.01,9.58c0,0-9.79-2.22-14.2,4.92c0,0,4.89-2.17,6.77,0.58C14.58,15.08,16.15,12.54,22.01,9.58z"/>
	<path class="st0" d="M34.23,21c0,0,2.22,9.79-4.92,14.2c0,0,2.2-4.87-0.55-6.75C28.76,28.45,31.28,26.85,34.23,21z"/>
	<path class="st0" d="M15.03,33.86c-4.35,4.35-8.31,2.87-8.31,2.87s-1.08-4.27,2.91-8.26c0,0-1.69,2.56,0.55,4.8
		S15.03,33.86,15.03,33.86z"/>
</g>
<ellipse class="st1" cx="38.82" cy="28.58" rx="8" ry="8"/>
<path class="st2" d="M42.28,25.78l-5.01,5.01l-2.54-2.54"/>
</svg>
