<?xml version="1.0" encoding="utf-8"?>
<!-- Generator: Adobe Illustrator 24.2.1, SVG Export Plug-In . SVG Version: 6.00 Build 0)  -->
<svg version="1.1" id="Layer_2_1_" xmlns="http://www.w3.org/2000/svg" xmlns:xlink="http://www.w3.org/1999/xlink" x="0px" y="0px"
	 viewBox="0 0 60 60" style="enable-background:new 0 0 60 60;" xml:space="preserve">
<style type="text/css">
	.st0{fill:#3079CD;}
</style>
<g id="arAkVS.tif">
	<g>
		<path class="st0" d="M10.5,38.5c1.2,0.2,2.4,0.4,3.5,0.5c1.3,0.2,2.7,0.4,4,0.6c1.2,0.2,2.4,0.4,3.5,0.6c1.1,0.2,2.3,0.3,3.4,0.5
			c1.3,0.2,2.7,0.4,4,0.6c1.2,0.2,2.3,0.3,3.5,0.5c1.1,0.2,2.2,0.4,3.3,0.5c1.1,0.2,2.1,0.3,3.2,0.5c1.1,0.2,2.1,0.3,3.2,0.5
			c0.6,0.1,0.6,0.1,0.6-0.5c0-8,0-16,0-24c0-0.6,0-1.2,0-1.9c0-0.3,0.1-0.4,0.4-0.5c1.1-0.2,2.3-0.4,3.4-0.6
			c1.2-0.2,2.5-0.4,3.7-0.7c1.2-0.2,2.3-0.4,3.5-0.7c0.8-0.2,0.8-0.2,0.8,0.6c0,9.5,0,18.9,0,28.4c0,0.5-0.1,0.9-0.5,1.2
			c-3.7,3.2-7.5,6.3-11.2,9.5c-0.3,0.3-0.6,0.3-1,0.2c-3.2-1.1-6.5-2.3-9.7-3.4c-2.6-0.9-5.3-1.8-7.9-2.8c-0.5-0.2-0.6-0.1-0.6,0.4
			c0,1.7,0,3.5,0,5.2c0,0.2-0.1,0.3-0.1,0.5c-0.1-0.1-0.2-0.2-0.3-0.3c-1.8-2.1-3.6-4.3-5.3-6.4c-1.9-2.2-3.8-4.5-5.6-6.7
			c-0.6-0.7-1.1-1.3-1.7-2C10.7,38.9,10.6,38.7,10.5,38.5z"/>
		<path class="st0" d="M5.4,30.6c0-2.1,0-4.3,0-6.4c0-0.4,0.1-0.7,0.3-1c1.4-1.8,2.8-3.6,4.1-5.4c0.4-0.5,0.8-0.7,1.3-0.9
			c4.2-1.7,8.4-3.3,12.6-4.9c1-0.4,2-0.8,3-1.2c0.4-0.1,0.5-0.4,0.5-0.8c0-1.4,0-2.8,0-4.2c0-0.1,0-0.2,0.1-0.4
			c0.1,0.1,0.3,0.1,0.4,0.2c3.5,2.6,7,5.1,10.4,7.7c1.3,1,2.7,2,4,2.9c0.1,0.1,0.2,0.2,0.3,0.3c-0.1,0-0.3,0.1-0.4,0.1
			c-0.9,0.2-1.8,0.4-2.8,0.5c-1.4,0.3-2.7,0.5-4.1,0.7c-1.2,0.2-2.5,0.5-3.7,0.7c-0.9,0.2-1.9,0.3-2.8,0.5c-1.4,0.3-2.8,0.5-4.2,0.8
			c-1,0.2-1.9,0.3-2.9,0.5c-1.2,0.2-2.4,0.5-3.6,0.7c-1.1,0.2-2.2,0.4-3.3,0.6c-1.3,0.2-2.5,0.5-3.8,0.7c-0.7,0.1-0.7,0.2-0.7,0.9
			c0,4.8,0,9.7,0,14.5c0,0.5,0,0.5-0.5,0.5c-1.1-0.1-2.2-0.3-3.3-0.5c-0.1,0-0.1,0-0.2,0c-0.9-0.1-0.9-0.1-0.9-1.1
			C5.4,34.7,5.4,32.7,5.4,30.6z"/>
	</g>
</g>
</svg>
