<?xml version="1.0" encoding="utf-8"?>
<!-- Generator: Adobe Illustrator 24.2.1, SVG Export Plug-In . SVG Version: 6.00 Build 0)  -->
<svg version="1.1" id="Layer_1" xmlns="http://www.w3.org/2000/svg" xmlns:xlink="http://www.w3.org/1999/xlink" x="0px" y="0px"
	 viewBox="0 0 111.1 100" style="enable-background:new 0 0 111.1 100;" xml:space="preserve">
<style type="text/css">
	.st0{fill:none;}
	.st1{fill:#2684FF;}
	.st2{fill:url(#SVGID_1_);}
</style>
<g>
	<polygon class="st0" points="44,66.4 67.3,66.4 72.8,33.6 37.9,33.6 	"/>
	<path class="st1" d="M3.6,0C1.6,0,0,1.6,0,3.6c0,0.2,0,0.4,0,0.5l15.1,91.6c0.4,2.3,2.3,4.1,4.8,4.1h72.4c1.8,0,3.2-1.2,3.6-3
		L111,4.1c0.4-2-1.1-3.7-3-4.1c-0.2,0-0.4,0-0.5,0L3.6,0z M67.3,66.4H44.1l-6.2-32.7H73L67.3,66.4z"/>
	
		<linearGradient id="SVGID_1_" gradientUnits="userSpaceOnUse" x1="113.9831" y1="1069.2942" x2="58.7874" y2="1112.3726" gradientTransform="matrix(1 0 0 1 0 -1026.5197)">
		<stop  offset="0.18" style="stop-color:#0052CC"/>
		<stop  offset="1" style="stop-color:#2684FF"/>
	</linearGradient>
	<path class="st2" d="M106.2,33.6H72.8l-5.7,32.7H44L16.7,98.8c0.9,0.7,2,1.2,3.2,1.2h72.4c1.8,0,3.2-1.2,3.6-3L106.2,33.6z"/>
</g>
</svg>
