<svg width="47" height="41" viewBox="0 0 47 41" fill="none" xmlns="http://www.w3.org/2000/svg">
<path fill="#B7B7C0" d="M34,30.1H7.3c-2.4,0-4.3-1.9-4.3-4.3V9.1c0-2.4,2-4.3,4.4-4.3H34c1.2,0,2.4,0.5,3.2,1.4C38,7,38.4,8,38.3,9.2
	v16.6C38.3,28.2,36.4,30.1,34,30.1z M7.4,6.8C6.1,6.8,5,7.8,5,9.1v16.7c0,1.2,1.1,2.3,2.3,2.3H34c1.2,0,2.3-1.1,2.3-2.3V9.1
	c0-0.6-0.2-1.2-0.6-1.6C35.3,7,34.6,6.8,34,6.8L7.4,6.8z"/>
<path fill="#B7B7C0" d="M27.3,36.8H14c-0.6,0-1-0.4-1-1s0.4-1,1-1h13.3c0.6,0,1,0.4,1,1S27.9,36.8,27.3,36.8z"/>
<path fill="#B7B7C0" d="M37.3,23.5H4c-0.6,0-1-0.4-1-1s0.4-1,1-1h33.3c0.6,0,1,0.4,1,1S37.9,23.5,37.3,23.5z"/>
<path fill="#B7B7C0" d="M20.7,36.8c-0.6,0-1-0.4-1-1v-6.7c0-0.6,0.4-1,1-1s1,0.4,1,1v6.7C21.7,36.4,21.3,36.8,20.7,36.8z"/>
<ellipse fill="#00CCFF" cx="39" cy="28.8" rx="8" ry="8"/>
<path fill="#FFFFFF" d="M37.5,32.4l-3.2-3.2c-0.4-0.4-0.4-1,0-1.4s1-0.4,1.4,0l1.8,1.8l4.3-4.3c0.4-0.4,1-0.4,1.4,0s0.4,1,0,1.4
	L37.5,32.4z"/>
</svg>
