<?xml version="1.0" encoding="utf-8"?>
<!-- Generator: Adobe Illustrator 26.3.1, SVG Export Plug-In . SVG Version: 6.00 Build 0)  -->
<svg version="1.1" id="Layer_1" xmlns="http://www.w3.org/2000/svg" xmlns:xlink="http://www.w3.org/1999/xlink" x="0px" y="0px"
	 viewBox="0 0 160 80" style="enable-background:new 0 0 160 80;" xml:space="preserve">
<style type="text/css">
	.st0{fill:#06225D;}
</style>
<g>
	<path class="st0" d="M108.3,36.6c0,2.5-0.1,5.1,0,7.6c0.1,2,1,3.7,2.6,5c0.9,0.7,2,1.1,3.2,1.2c1.6,0.2,3.3,0.1,4.8-0.5
		c1.2-0.5,2.2-1.4,2.8-2.6c0.9-1.8,1.2-3.7,1.2-5.6c0-4.1,0-8.2,0-12.4c0-0.2,0-0.4,0-0.6c0-0.1,0-0.2,0-0.3c0.3-0.5,1-0.4,1.5-0.3
		c0.5,0,0.5,0.3,0.6,0.6c0,0.2,0,0.4,0,0.6c0,4,0,7.9,0,11.9c0,1.2-0.1,2.5-0.2,3.7c-0.4,2.7-1.8,4.9-4.3,6.2
		c-1.3,0.7-2.7,1.1-4.2,1.3c-0.4,0-1,0.1-1.4,0.1c-2-0.1-4-0.4-5.8-1.3c-1.6-0.8-2.9-2.1-3.5-3.9c-0.6-1.7-0.9-3.5-0.9-5.3
		c0-4.3,0-8.6,0-12.9c0-0.7,0.1-0.8,0.9-0.8c0.6,0,1.2,0,1.9,0c0.7,0,0.8,0.1,0.8,0.8C108.2,31.5,108.2,34,108.3,36.6
		C108.3,36.6,108.3,36.6,108.3,36.6z"/>
	<path class="st0" d="M59.7,51.5c-0.8,0-1.6,0-2.3,0c-0.6,0-0.8-0.5-1-1c-0.2-0.4-0.3-0.8-0.5-1.3c-0.5-1.3-1-2.6-1.5-3.8
		c-0.4-0.9-0.8-1.9-1.2-2.8c-0.2-0.4-0.6-0.4-1-0.4c-1.7,0-3.5,0-5.2,0c-0.6,0-1.2,0-1.7,0c-0.2,0-0.4,0.1-0.5,0.3
		c-0.2,0.4-0.5,0.8-0.6,1.3c-0.6,1.5-1.2,3-1.7,4.6c-0.3,0.8-0.6,1.5-0.8,2.3c-0.2,0.6-0.5,0.8-1.1,0.9c-0.4,0-0.8,0.1-1.1,0.1
		c-0.2,0-0.5,0-0.5-0.1c-0.1-0.2-0.1-0.4,0-0.6c0.5-1.2,1.1-2.3,1.6-3.4c0.5-1.1,1-2.2,1.5-3.4c0.3-0.7,0.6-1.4,0.9-2
		c0.5-1.1,1-2.2,1.5-3.3c0.3-0.7,0.6-1.4,1-2.2c0.2-0.5,0.4-1,0.7-1.5c0.5-1.1,1.1-2.3,1.6-3.4c0.5-1.1,0.9-2.1,1.4-3.2
		c0.1-0.3,0.4-0.5,0.7-0.6c0.1,0,0.5,0.3,0.6,0.5c0.4,0.8,0.8,1.7,1.2,2.5c0.5,1.1,0.9,2.2,1.4,3.2c0.5,1.2,1,2.3,1.6,3.5
		c0.5,1.2,1.1,2.4,1.6,3.7c0.3,0.6,0.5,1.3,0.8,1.9c0.5,1.1,1,2.3,1.5,3.4c0.3,0.8,0.7,1.6,1,2.3c0.3,0.6,0.6,1.3,0.9,1.9
		c0.1,0.2,0.1,0.5,0.1,0.7C60.2,51.5,59.7,51.5,59.7,51.5z M48.8,40.6C48.8,40.6,48.8,40.6,48.8,40.6c0.8,0,1.6,0,2.5,0
		c0.7,0,1-0.4,0.7-1c-0.9-2.1-1.7-4.2-2.6-6.4c-0.1-0.1-0.4-0.3-0.5-0.2c-0.2,0.1-0.4,0.3-0.5,0.5c-0.3,0.7-0.5,1.4-0.8,2.1
		c-0.2,0.6-0.5,1.2-0.8,1.8c-0.3,0.7-0.7,1.5-1,2.2c-0.2,0.6,0,1,0.7,1C47.2,40.6,48,40.6,48.8,40.6z"/>
	<path class="st0" d="M137.4,27.5c1.3-0.1,2.6,0.2,3.7,0.7c0.4,0.2,0.8,0.4,1.1,0.7c0.2,0.2,0.3,0.5,0.2,0.8c-0.1,0.5-0.4,1-0.6,1.5
		c0,0.1-0.1,0.2-0.1,0.3c-0.1,0.2-0.3,0.3-0.5,0.4c-0.1-0.1-0.3-0.3-0.4-0.5c-1.2-2-3.3-2.8-5.5-2c-2,0.8-3,2.7-2.3,5
		c0.3,0.9,1.1,1.7,1.9,2.1c1.4,0.7,2.8,1.3,4.2,1.9c1.7,0.7,3.2,1.6,3.9,3.3c0.4,1,0.8,2.2,0.5,3.3c-0.2,0.9-0.3,1.7-0.8,2.5
		c-0.7,1.2-1.6,2.2-2.7,3c-1.1,0.8-2.3,1.5-3.7,1.6c-0.4,0.1-0.9,0.1-1.3,0c-1-0.2-1.9-0.4-2.9-0.7c-0.7-0.2-1.4-0.7-2.1-1
		c-0.6-0.3-0.6-0.7-0.5-1.3c0.1-0.6,0.1-1.1,0.2-1.7c0-0.2,0.2-0.6,0.3-0.6c0.3,0,0.6,0.1,0.8,0.3c0.7,1,1.5,1.9,2.6,2.4
		c1,0.6,2.1,0.5,3.2,0.4c2.6-0.3,4.2-2.8,3.7-5.2c-0.3-1.8-1.3-2.8-2.9-3.5c-1.7-0.7-3.4-1.5-5.1-2.5c-1.5-0.9-2.3-2.3-2.5-4
		c-0.2-1.7,0.3-3.3,1.2-4.7c0.6-0.9,1.5-1.5,2.5-2C134.8,27.7,136.1,27.3,137.4,27.5z"/>
	<path class="st0" d="M36.3,48.4c0.6,0.6,0.4,1.7-0.3,2c-1.2,0.5-2.2,1-3.2,1.5c-2,0.9-4.4,0.6-6,0.4c-0.4-0.1-1.1-0.3-1.5-0.4
		c-2.5-0.7-4.7-2-6.3-4c-1-1.3-1.7-2.7-2.2-4.3c-0.5-1.7-0.6-3.4-0.4-5.2c0.4-2.6,1.4-4.9,3.3-6.8c1.2-1.3,2.7-2.2,4.4-2.8
		c1.4-0.5,2.8-0.9,4.3-0.8c1.5,0,3.1,0,4.6,0.2c1.3,0.2,2.6,0.5,3.8,1.1c0.5,0.3,0.4,0.7,0.3,1c-0.2,0.5-0.4,1-0.6,1.6
		c-0.1,0.3-0.3,0.2-0.5,0.1c-0.5-0.3-0.9-0.7-1.4-1c-2-1.3-4.1-1.9-6.5-1.6c-2.3,0.3-4.2,1.3-5.7,3.1c-1.7,2-2.4,4.4-2.4,7
		c0,1.8,0.2,3.6,0.8,5.2c0.7,2,2,3.7,4,4.8c2.5,1.3,5.1,1.4,7.8,0.7C33.9,49.8,35.1,49.2,36.3,48.4z"/>
	<path class="st0" d="M80.8,48.4c0.6,0.6,0.4,1.7-0.3,2c-1.2,0.5-2.2,1-3.2,1.5c-2,0.9-4.4,0.6-6,0.4c-0.4-0.1-1.1-0.3-1.5-0.4
		c-2.5-0.7-4.7-2-6.3-4c-1-1.3-1.7-2.7-2.2-4.3c-0.5-1.7-0.6-3.4-0.4-5.2c0.4-2.6,1.4-4.9,3.3-6.8c1.2-1.3,2.7-2.2,4.4-2.8
		c1.4-0.5,2.8-0.9,4.3-0.8c1.5,0,3.1,0,4.6,0.2c1.3,0.2,2.6,0.5,3.8,1.1c0.5,0.3,0.4,0.7,0.3,1c-0.2,0.5-0.4,1-0.6,1.6
		c-0.1,0.3-0.3,0.2-0.5,0.1c-0.5-0.3-0.9-0.7-1.4-1c-2-1.3-4.1-1.9-6.5-1.6c-2.3,0.3-4.2,1.3-5.7,3.1c-1.7,2-2.4,4.4-2.4,7
		c0,1.8,0.2,3.6,0.8,5.2c0.7,2,2,3.7,4,4.8c2.5,1.3,5.1,1.4,7.8,0.7C78.4,49.8,79.7,49.2,80.8,48.4z"/>
	<path class="st0" d="M91.6,40.6c0-3.3,0-6.6,0-9.9c0-0.7-0.3-1.1-1.1-1c-1.8,0.2-3.5,0.4-5.3,0.6c-0.2,0-0.5,0.1-0.6,0
		c-0.2-0.1-0.4-0.3-0.5-0.5C84,29.4,84,28.9,84,28.5c0-0.1,0.2-0.3,0.3-0.4c0.2-0.1,0.5-0.1,0.8-0.1c5.2,0,10.5,0,15.7,0
		c0.2,0,0.4,0,0.7,0c0.4,0.1,0.6,0.3,0.5,0.7c0,0.4,0,0.7,0,1.1c0,0.3-0.2,0.5-0.6,0.5c-0.2,0-0.5,0-0.7,0c-1.8-0.2-3.5-0.4-5.3-0.6
		c-0.6-0.1-0.9,0.3-0.9,0.9c0,6.4,0,12.9,0,19.3c0,0.2,0,0.5,0,0.7c0,0.6-0.3,0.9-0.9,0.9c-0.4,0-0.8,0-1.3,0
		c-0.6,0-0.9-0.2-0.9-0.8C91.6,47.3,91.6,43.9,91.6,40.6C91.6,40.6,91.6,40.6,91.6,40.6z"/>
</g>
</svg>
