<?xml version="1.0" standalone="yes"?>
<svg xmlns="http://www.w3.org/2000/svg" width="1024" height="1024">
<path style="fill:#010101; stroke:none;" d="M0 0L0 1024L1024 1024L1024 0L0 0z"/>
<path style="fill:#56b3ff; stroke:none;" d="M511 124.176C502.148 127.225 492.571 141.429 486 148L426 208L213 421L146 488C141.16 492.84 124.207 504.891 124.207 512C124.207 518.47 138.651 528.651 143 533L199 589L426 816L491 881C495.169 885.169 507.513 902.059 514 899.824C522.852 896.775 532.429 882.571 539 876L599 816L812 603L879 536C883.84 531.16 900.793 519.109 900.793 512C900.793 505.529 886.349 495.349 882 491L826 435L599 208L534 143C529.831 138.831 517.487 121.941 511 124.176z"/>
<path style="fill:#85ceff; stroke:none;" d="M511 212L287 436L231 492C226.816 496.184 213.207 505.746 213.207 512C213.207 518.254 226.816 527.817 231 532L285 586L436 737L485 786C493.647 794.647 501.996 804.953 512 812C505.211 802.363 495.329 794.329 487 786L439 738L290 589L234 533C229.713 528.713 215.056 518.337 215.056 512C215.056 506.092 228.042 496.958 232 493L284 441L450 275L494 231C499.024 225.976 509.307 218.983 511 212z"/>
<path style="fill:#fefeff; stroke:none;" d="M512 212L441 283C434.7 289.3 418.202 300.472 419 310C412.6 309.096 408.17 315.83 404 320L371 353L257 467L226 498C222.628 501.372 215.542 506.202 214.346 511C213.001 516.395 224.624 524.624 228 528L257 557C260.149 560.149 264.513 566.521 269 567.654C272.256 568.477 274.962 564.965 277 563L271 570L271 571L324 624C329.775 629.776 337.784 641.597 346 643C349.667 656.064 369.49 669.49 379 679L380 679L390 669C387.876 672.016 382.207 676.128 382.207 680C382.207 685.125 391.661 691.661 395 695L433 733C437.349 737.349 447.529 751.793 454 751.793C460.499 751.793 470.6 737.4 475 733L475 732L473 729L480 728L477 732L477 733L480 736C470.883 732.824 460.892 748.108 455 754L455 755L496 796C499.798 799.797 506.372 809.415 512 810.079C518.569 810.854 529.693 795.307 534 791L589 736C593.017 731.983 606.81 722.202 606.079 716C605.662 712.467 601.328 709.333 599 707L580 688C555.249 663.249 530.406 638.54 505.334 614.112C498.214 607.174 491.118 600.185 484.17 593.076C481.958 590.813 478.842 586.168 475.134 586.955C468.259 588.416 459.516 601.236 454.576 606.119C437.241 623.251 419.898 640.432 403 658L403 659L462 718C445.766 706.565 432.045 689.045 418 675C409.874 666.874 405.073 657.568 394 665L400 659L400 658C390.49 648.49 377.064 628.667 364 625C364.109 617.695 353.877 610.877 349 606L309 566C304.941 561.941 298.726 552.773 293 551.346C287.877 550.069 280.897 560.255 277 563C280.432 559.568 288.478 554.087 289.079 549C289.665 544.03 281.101 538.101 278 535L241 498C255.037 507.888 266.859 522.859 279 535C283.269 539.269 288.447 547.486 295 545L293 548L293 549L346 602C350.183 606.183 359.746 619.793 366 619.793C372.254 619.793 381.817 606.183 386 602L439 549L439 548C420.86 529.427 402.606 510.841 383.91 492.826C378.198 487.323 370.798 474.726 362 478C374.047 463.154 389.455 446.174 405 435L403 438L403 439L539 575L573 609C577.149 613.149 581.775 620.093 588 620C587.375 627.457 596.15 633.15 601 638L586 626.207L576 634L552 658L552 659L592 699C596.059 703.059 602.274 712.227 608 713.654C613.558 715.04 622.493 702.507 626 699L667 658C671.959 653.041 680.257 647.728 679 640C687.684 643.294 703.093 621.95 708.999 616C712.456 612.518 715.885 609.969 714 605C722.76 606.425 730.386 594.614 736 589L791 534C795.513 529.487 810.793 518.685 810.793 512C810.793 508.497 806.222 505.227 804 503L783 482C776.094 475.094 762.317 455.136 752 456C753.286 446.9 736.037 435.037 730 429L669 368C663.849 362.849 653.454 347.801 646 346.921C641.177 346.352 626.141 361.169 627.346 366C628.214 369.484 632.579 372.578 635 375C642.16 382.164 651.06 395.21 661 398L663 405C655.853 400.564 648.78 412.22 644 417L601 460C597.583 463.417 587.283 470.588 587.921 476C588.741 482.943 602.231 492.231 607 497C617.971 507.971 628.697 519.277 639.996 529.911C647.482 536.956 656.656 544.152 662 553L660 551L659 551L625 585L625 586L631 592C626.598 589.046 624.252 586.945 619 589C622.978 582.599 615.525 578.386 611.211 574C600.57 563.183 590.084 552.226 579.199 541.65C545.197 508.617 511.805 474.805 478.576 441.003C469.487 431.758 460.128 422.802 451.003 413.6C447.845 410.415 441.436 405.942 439.832 401.739C438.4 397.987 445.745 393.244 448 390.999C454.686 384.345 471.566 372.778 472 363C479.941 367.236 485.785 375.643 492.015 382.001C503.887 394.118 516.005 406.005 528 418C532.349 422.349 542.529 436.793 549 436.793C553.634 436.793 559.015 428.985 562 426L595 393C607.179 380.821 619.819 369.103 632 356.999C634.989 354.029 642.793 348.623 642.793 344C642.793 340.188 637.424 336.425 635 334L612 311L547 246C535.812 234.812 524.938 221.114 512 212z"/>
<path style="fill:#c3e5fe; stroke:none;" d="M498 240C505.959 253.403 521.957 264.957 533 276C536.479 279.479 545.459 285.622 546.218 290.714C546.989 295.897 532.486 306.514 529 310C511.781 327.219 490.014 344.105 476 364C496.084 350.435 512.524 328.058 529.911 311.17C534.083 307.116 542.93 294.056 549 294.056C555.123 294.056 564.877 307.877 569 312C585.901 328.901 602.471 350.244 622 364C608.244 344.471 586.901 327.901 570 311C565.877 306.877 552.056 297.123 552.056 291C552.056 284.66 565.375 276.146 569 271L549 287.944L535 276L498 240M569 269L569 271L571 271L569 269M416 308L419 310L418 307L416 308M419 310L445 337L472 363L454.003 343.801L419 310M382 342L381 344L383 344L382 342M383 344L410 372L438 399L413.015 373.004L383 344M644 344L624 365L646 345L644 344M472 363L472 366L473 366L474 363L472 363z"/>
<path style="fill:#85ceff; stroke:none;" d="M474 364L438 400L438 401L623 586L624 586L635 574L624 585L623 585L592 553L531 492L471 432L439 401L439 400C451.217 391.394 465.394 377.217 474 365L475 365C489.272 385.261 511.464 402.464 529 420C533.183 424.183 542.746 437.793 549 437.793C555.254 437.793 564.817 424.183 569 420C586.853 402.147 609.47 384.627 624 364C603.739 378.272 586.536 400.464 569 418C564.877 422.123 555.123 435.944 549 435.944C542.877 435.944 533.123 422.123 529 418C511.464 400.464 494.261 378.272 474 364z"/>
<path style="fill:#c3e5fe; stroke:none;" d="M475 364L476 365L475 364M622 364L623 365L622 364z"/>
<path style="fill:#56b3ff; stroke:none;" d="M474 365L439 400L439 401L623 585L624 585L659 551C655.351 543.176 647.051 537.051 641 531L605 495C600.244 490.244 588.961 482.608 587.207 476.001C585.789 470.659 599.859 460.467 603.425 456.846C622.022 437.959 641.261 419.739 660 401L660 400L635 375C632.383 372.383 628.101 366.207 624 366.207C618.641 366.207 611.511 376.489 608 380L566 422C562.375 425.625 554.47 436.944 549 436.944C542.877 436.944 533.123 423.123 529 419C511.464 401.464 494.261 379.272 474 365z"/>
<path style="fill:#c3e5fe; stroke:none;" d="M476 365L477 366L476 365z"/>
<path style="fill:#85ceff; stroke:none;" d="M625 365L626 366L625 365z"/>
<path style="fill:#c3e5fe; stroke:none;" d="M626 366L627 367L626 366M627 367L628 368L627 367M479 368L480 369L479 368M628 368L629 369L628 368M480 369L481 370L480 369M629 369L630 370L629 369M630 370L631 371L630 370M631 371L632 372L631 371M483 372L484 373L483 372M632 372L633 373L632 372M633 373L634 374L633 373M634 374L635 375L634 374M486 375L487 376L486 375M635 375L636 376L635 375M636 376L637 377L636 376M637 377L638 378L637 377M638 378L639 379L638 378M639 379L640 380L639 379M679 379L680 380L679 379M344 380L343 382L345 382L344 380M640 380L641 381L640 380M678 380L661 398C666.441 394.167 676.403 386.59 678 380M680 380L681 381L680 380M641 381L642 382L641 381M345 382L372 410L400 437L376.039 412.011L345 382M642 382L643 383L642 382M643 383L644 384L643 383M644 384L645 385L644 384M645 385L646 386L645 385M646 386L647 387L646 386M647 387L648 388L647 387M648 388L649 389L648 388M649 389L650 390L649 389M650 390L651 391L650 390M651 391L652 392L651 391M652 392L653 393L652 392M653 393L654 394L653 393M654 394L655 395L654 394M655 395L656 396L655 395M656 396L657 397L656 396M657 397L658 398L657 397M439 398L440 399L439 398M658 398L663 405L661 398L658 398M438 399L439 400L438 399M438 401L439 402L438 401M437 402L405 435L429.65 411.576L437 402M439 402L440 403L439 402M658 402L659 403L658 402M656 404L657 405L656 404M442 405L443 406L442 405M655 405L656 406L655 405M663 405C676.241 423.797 696.733 439.733 713 456C716.958 459.958 729.944 469.092 729.944 475C729.944 481.123 716.123 490.877 712 495C695.099 511.901 673.756 528.471 660 548C667.651 543.62 674.331 535.052 680.464 528.701C691.138 517.645 702.134 506.868 713.001 496.001C717.079 491.922 727.059 478.056 733 478.056C737.783 478.056 743.886 486.886 747 490C758.823 501.823 770.33 516.37 784 526C777.381 511.807 759.057 499.052 748 488C745.064 485.065 735.687 478.818 736.502 474.075C737.599 467.696 748.289 461.268 752 456C746.869 459.614 740.222 470.552 734 471.369C728.453 472.097 718.836 459.256 715 455.474C703.934 444.562 692.832 433.658 681.884 422.63C676.136 416.839 670.245 408.8 663 405M654 406L655 407L654 406M653 407L654 408L653 407M652 408L653 409L652 408M446 409L447 410L446 409M651 409L652 410L651 409M650 410L651 411L650 410M649 411L650 412L649 411M449 412L450 413L449 412M648 412L649 413L648 412M450 413L451 414L450 413M647 413L648 414L647 413M646 414L647 415L646 414M309 415L308 417L310 417L309 415M645 415L646 416L645 415M453 416L454 417L453 416M644 416L645 417L644 416M310 417L337 445L365 472L333.985 439.961L310 417M454 417L455 418L454 417M643 417L644 418L643 417M642 418L643 419L642 418M641 419L642 420L641 419M457 420L458 421L457 420z"/>
<path style="fill:#85ceff; stroke:none;" d="M639 420L640 421L639 420z"/>
<path style="fill:#c3e5fe; stroke:none;" d="M640 420L641 421L640 420M639 421L640 422L639 421z"/>
<path style="fill:#85ceff; stroke:none;" d="M637 422L638 423L637 422z"/>
<path style="fill:#c3e5fe; stroke:none;" d="M638 422L639 423L638 422M637 423L638 424L637 423M636 424L637 425L636 424z"/>
<path style="fill:#85ceff; stroke:none;" d="M634 425L635 426L634 425z"/>
<path style="fill:#c3e5fe; stroke:none;" d="M635 425L636 426L635 425M634 426L635 427L634 426M464 427L465 428L464 427M633 427L634 428L633 427M465 428L466 429L465 428M632 428L633 429L632 428M631 429L632 430L631 429z"/>
<path style="fill:#85ceff; stroke:none;" d="M629 430L630 431L629 430z"/>
<path style="fill:#c3e5fe; stroke:none;" d="M630 430L631 431L630 430M468 431L469 432L468 431M629 431L630 432L629 431M628 432L629 433L628 432M627 433L628 434L627 433z"/>
<path style="fill:#85ceff; stroke:none;" d="M625 434L626 435L625 434z"/>
<path style="fill:#c3e5fe; stroke:none;" d="M626 434L627 435L626 434M404 435L400 437L400 438L404 435M472 435L473 436L472 435M625 435L626 436L625 435M624 436L625 437L624 436z"/>
<path style="fill:#85ceff; stroke:none;" d="M622 437L621 439L622 437z"/>
<path style="fill:#c3e5fe; stroke:none;" d="M623 437L624 438L623 437z"/>
<path style="fill:#85ceff; stroke:none;" d="M365 473L365 474L416 525L439 550L415.35 572.4L365 622L401 659L402 659L456 605C460.123 600.877 469.877 587.056 476 587.056C482.123 587.056 491.877 600.877 496 605L550 659L577 633L585.093 622.09L574.449 610.119L545.349 581L439.211 474.881L412.961 447.999L402 438.921L391 447L365 473z"/>
<path style="fill:#c3e5fe; stroke:none;" d="M475 438L476 439L475 438M622 438L623 439L622 438M621 439L622 440L621 439z"/>
<path style="fill:#85ceff; stroke:none;" d="M619 440L620 441L619 440z"/>
<path style="fill:#c3e5fe; stroke:none;" d="M620 440L621 441L620 440M619 441L620 442L619 441M479 442L480 443L479 442M618 442L619 443L618 442z"/>
<path style="fill:#85ceff; stroke:none;" d="M616 443L617 444L616 443z"/>
<path style="fill:#c3e5fe; stroke:none;" d="M617 443L618 444L617 443M616 444L617 445L616 444M482 445L483 446L482 445z"/>
<path style="fill:#85ceff; stroke:none;" d="M614 445L613 447L614 445z"/>
<path style="fill:#c3e5fe; stroke:none;" d="M615 445L616 446L615 445M483 446L484 447L483 446M614 446L615 447L614 446M613 447L614 448L613 447z"/>
<path style="fill:#85ceff; stroke:none;" d="M611 448L610 450L611 448z"/>
<path style="fill:#c3e5fe; stroke:none;" d="M612 448L613 449L612 448M611 449L612 450L611 449M610 450L611 451L610 450z"/>
<path style="fill:#85ceff; stroke:none;" d="M608 451L606 454L608 451z"/>
<path style="fill:#c3e5fe; stroke:none;" d="M609 451L610 452L609 451M608 452L609 453L608 452M417 453L418 454L417 453M490 453L491 454L490 453M607 453L608 454L607 453M753 453L752 456C754.158 455.022 754.501 454.812 753 453M418 454L419 455L418 454M606 454L607 455L606 454z"/>
<path style="fill:#85ceff; stroke:none;" d="M604 455L603 457L604 455z"/>
<path style="fill:#c3e5fe; stroke:none;" d="M605 455L606 456L605 455M420 456L421 457L420 456M604 456L605 457L604 456M421 457L422 458L421 457M494 457L495 458L494 457M603 457L604 458L603 457z"/>
<path style="fill:#85ceff; stroke:none;" d="M601 458L602 459L601 458z"/>
<path style="fill:#c3e5fe; stroke:none;" d="M602 458L603 459L602 458M423 459L424 460L423 459M601 459L602 460L601 459M424 460L425 461L424 460M497 460L498 461L497 460z"/>
<path style="fill:#85ceff; stroke:none;" d="M599 460L598 462L599 460z"/>
<path style="fill:#c3e5fe; stroke:none;" d="M600 460L601 461L600 460M425 461L426 462L425 461M498 461L499 462L498 461M599 461L600 462L599 461M598 462L599 463L598 462M427 463L428 464L427 463z"/>
<path style="fill:#85ceff; stroke:none;" d="M596 463L595 465L596 463z"/>
<path style="fill:#c3e5fe; stroke:none;" d="M597 463L598 464L597 463M428 464L429 465L428 464M501 464L502 465L501 464M596 464L597 465L596 464M595 465L596 466L595 465z"/>
<path style="fill:#85ceff; stroke:none;" d="M593 466L592 468L593 466z"/>
<path style="fill:#c3e5fe; stroke:none;" d="M594 466L595 467L594 466M431 467L432 468L431 467M593 467L594 468L593 467M432 468L433 469L432 468M505 468L506 469L505 468M592 468L593 469L592 468z"/>
<path style="fill:#85ceff; stroke:none;" d="M590 469L586 477L587 477L590 469z"/>
<path style="fill:#c3e5fe; stroke:none;" d="M591 469L592 470L591 469M590 470L591 471L590 470M435 471L436 472L435 471M508 471L509 472L508 471M589 471L590 472L589 471M365 472L366 473L365 472M436 472L437 473L436 472M588 472L589 473L588 472M587 473L588 474L587 473M365 474L362 478L367 475L365 474M438 474L439 475L438 474M586.333 474.667L586.667 475.333L586.333 474.667M439 475L440 476L439 475M512 475L513 476L512 475M367 476L368 477L367 476z"/>
<path style="fill:#85ceff; stroke:none;" d="M587 477L588 478L587 477z"/>
<path style="fill:#c3e5fe; stroke:none;" d="M361 478C339.655 499.345 312.367 520.345 295 545C302.326 541.575 307.847 533.75 313.424 528.001C324.02 517.079 334.891 506.41 345.65 495.651C349.882 491.419 360.614 484.138 361 478M369 478L370 479L369 478M442 478L443 479L442 478z"/>
<path style="fill:#85ceff; stroke:none;" d="M588 478L589 479L588 478z"/>
<path style="fill:#c3e5fe; stroke:none;" d="M370 479L371 480L370 479M443 479L444 480L443 479M516 479L517 480L516 479z"/>
<path style="fill:#85ceff; stroke:none;" d="M589 479L590 480L589 479M590 480L591 481L590 480z"/>
<path style="fill:#c3e5fe; stroke:none;" d="M372 481L373 482L372 481z"/>
<path style="fill:#85ceff; stroke:none;" d="M591 481L592 482L591 481z"/>
<path style="fill:#c3e5fe; stroke:none;" d="M373 482L374 483L373 482M446 482L447 483L446 482z"/>
<path style="fill:#85ceff; stroke:none;" d="M592 482L593 483L592 482z"/>
<path style="fill:#c3e5fe; stroke:none;" d="M374 483L375 484L374 483M447 483L448 484L447 483z"/>
<path style="fill:#85ceff; stroke:none;" d="M593 483L594 484L593 483z"/>
<path style="fill:#c3e5fe; stroke:none;" d="M375 484L376 485L375 484z"/>
<path style="fill:#85ceff; stroke:none;" d="M594 484L595 485L594 484z"/>
<path style="fill:#c3e5fe; stroke:none;" d="M376 485L377 486L376 485M449 485L450 486L449 485z"/>
<path style="fill:#85ceff; stroke:none;" d="M595 485L596 486L595 485z"/>
<path style="fill:#c3e5fe; stroke:none;" d="M377 486L378 487L377 486M450 486L451 487L450 486M523 486L524 487L523 486z"/>
<path style="fill:#85ceff; stroke:none;" d="M596 486L597 487L596 486z"/>
<path style="fill:#c3e5fe; stroke:none;" d="M378 487L379 488L378 487M451 487L452 488L451 487z"/>
<path style="fill:#85ceff; stroke:none;" d="M597 487L598 488L597 487z"/>
<path style="fill:#c3e5fe; stroke:none;" d="M379 488L380 489L379 488z"/>
<path style="fill:#85ceff; stroke:none;" d="M598 488L599 489L598 488z"/>
<path style="fill:#c3e5fe; stroke:none;" d="M380 489L381 490L380 489M453 489L454 490L453 489M526 489L527 490L526 489z"/>
<path style="fill:#85ceff; stroke:none;" d="M599 489L600 490L599 489z"/>
<path style="fill:#c3e5fe; stroke:none;" d="M381 490L382 491L381 490M454 490L455 491L454 490M527 490L528 491L527 490z"/>
<path style="fill:#85ceff; stroke:none;" d="M600 490L601 491L600 490z"/>
<path style="fill:#c3e5fe; stroke:none;" d="M382 491L383 492L382 491z"/>
<path style="fill:#85ceff; stroke:none;" d="M601 491L602 492L601 491z"/>
<path style="fill:#c3e5fe; stroke:none;" d="M383 492L384 493L383 492M456 492L457 493L456 492z"/>
<path style="fill:#85ceff; stroke:none;" d="M602 492L603 493L602 492z"/>
<path style="fill:#c3e5fe; stroke:none;" d="M384 493L385 494L384 493M457 493L458 494L457 493M530 493L531 494L530 493z"/>
<path style="fill:#85ceff; stroke:none;" d="M603 493L604 494L603 493z"/>
<path style="fill:#c3e5fe; stroke:none;" d="M385 494L386 495L385 494M458 494L459 495L458 494M531 494L532 495L531 494z"/>
<path style="fill:#85ceff; stroke:none;" d="M604 494L605 495L604 494M605 495L606 496L605 495z"/>
<path style="fill:#c3e5fe; stroke:none;" d="M387 496L388 497L387 496M460 496L461 497L460 496z"/>
<path style="fill:#85ceff; stroke:none;" d="M606 496L607 497L606 496z"/>
<path style="fill:#c3e5fe; stroke:none;" d="M388 497L389 498L388 497M461 497L462 498L461 497M534 497L535 498L534 497z"/>
<path style="fill:#85ceff; stroke:none;" d="M607 497L608 498L607 497z"/>
<path style="fill:#c3e5fe; stroke:none;" d="M241 498L277 535L288.369 549L277 563C281.711 560.803 286.904 552.056 292 552.056C298.123 552.056 307.877 565.877 312 570L347 605C352.768 610.768 358.539 618.521 366 622L330 585L293 549L293 548L295 545C287.987 546.003 282.54 537.54 278 533C267.22 522.22 254.844 504.456 241 498z"/>
<path style="fill:#85ceff; stroke:none;" d="M608 498L609 499L608 498z"/>
<path style="fill:#c3e5fe; stroke:none;" d="M390 499L391 500L390 499z"/>
<path style="fill:#85ceff; stroke:none;" d="M609 499L610 500L609 499z"/>
<path style="fill:#c3e5fe; stroke:none;" d="M391 500L392 501L391 500M464 500L465 501L464 500z"/>
<path style="fill:#85ceff; stroke:none;" d="M610 500L611 501L610 500z"/>
<path style="fill:#c3e5fe; stroke:none;" d="M392 501L393 502L392 501M465 501L466 502L465 501z"/>
<path style="fill:#85ceff; stroke:none;" d="M611 501L612 502L611 501z"/>
<path style="fill:#c3e5fe; stroke:none;" d="M393 502L394 503L393 502z"/>
<path style="fill:#85ceff; stroke:none;" d="M612 502L613 503L612 502z"/>
<path style="fill:#c3e5fe; stroke:none;" d="M394 503L395 504L394 503z"/>
<path style="fill:#85ceff; stroke:none;" d="M613 503L614 504L613 503z"/>
<path style="fill:#c3e5fe; stroke:none;" d="M395 504L396 505L395 504M468 504L469 505L468 504M541 504L542 505L541 504z"/>
<path style="fill:#85ceff; stroke:none;" d="M614 504L615 505L614 504z"/>
<path style="fill:#c3e5fe; stroke:none;" d="M396 505L397 506L396 505M469 505L470 506L469 505M542 505L543 506L542 505z"/>
<path style="fill:#85ceff; stroke:none;" d="M615 505L616 506L615 505M616 506L617 507L616 506z"/>
<path style="fill:#c3e5fe; stroke:none;" d="M398 507L399 508L398 507M471 507L472 508L471 507z"/>
<path style="fill:#85ceff; stroke:none;" d="M617 507L618 508L617 507z"/>
<path style="fill:#c3e5fe; stroke:none;" d="M399 508L400 509L399 508M472 508L473 509L472 508M545 508L546 509L545 508z"/>
<path style="fill:#85ceff; stroke:none;" d="M618 508L619 509L618 508z"/>
<path style="fill:#c3e5fe; stroke:none;" d="M400 509L401 510L400 509z"/>
<path style="fill:#85ceff; stroke:none;" d="M619 509L620 510L619 509M620 510L621 511L620 510z"/>
<path style="fill:#c3e5fe; stroke:none;" d="M402 511L403 512L402 511M475 511L476 512L475 511z"/>
<path style="fill:#85ceff; stroke:none;" d="M621 511L622 512L621 511z"/>
<path style="fill:#c3e5fe; stroke:none;" d="M403 512L404 513L403 512M476 512L477 513L476 512M549 512L550 513L549 512z"/>
<path style="fill:#85ceff; stroke:none;" d="M622 512L623 513L622 512M623 513L624 514L623 513z"/>
<path style="fill:#c3e5fe; stroke:none;" d="M405 514L406 515L405 514z"/>
<path style="fill:#85ceff; stroke:none;" d="M624 514L625 515L624 514z"/>
<path style="fill:#c3e5fe; stroke:none;" d="M406 515L407 516L406 515M479 515L480 516L479 515M552 515L553 516L552 515z"/>
<path style="fill:#85ceff; stroke:none;" d="M625 515L626 516L625 515z"/>
<path style="fill:#c3e5fe; stroke:none;" d="M407 516L408 517L407 516M480 516L481 517L480 516z"/>
<path style="fill:#85ceff; stroke:none;" d="M626 516L627 517L626 516z"/>
<path style="fill:#c3e5fe; stroke:none;" d="M408 517L409 518L408 517z"/>
<path style="fill:#85ceff; stroke:none;" d="M627 517L628 518L627 517z"/>
<path style="fill:#c3e5fe; stroke:none;" d="M409 518L410 519L409 518M482 518L483 519L482 518z"/>
<path style="fill:#85ceff; stroke:none;" d="M628 518L629 519L628 518z"/>
<path style="fill:#c3e5fe; stroke:none;" d="M410 519L411 520L410 519M483 519L484 520L483 519M556 519L557 520L556 519z"/>
<path style="fill:#85ceff; stroke:none;" d="M629 519L630 520L629 519z"/>
<path style="fill:#c3e5fe; stroke:none;" d="M411 520L412 521L411 520M484 520L485 521L484 520z"/>
<path style="fill:#85ceff; stroke:none;" d="M630 520L631 521L630 520M631 521L632 522L631 521z"/>
<path style="fill:#c3e5fe; stroke:none;" d="M413 522L414 523L413 522M486 522L487 523L486 522z"/>
<path style="fill:#85ceff; stroke:none;" d="M632 522L633 523L632 522z"/>
<path style="fill:#c3e5fe; stroke:none;" d="M414 523L415 524L414 523M487 523L488 524L487 523M560 523L561 524L560 523z"/>
<path style="fill:#85ceff; stroke:none;" d="M633 523L634 524L633 523M634 524L635 525L634 524z"/>
<path style="fill:#c3e5fe; stroke:none;" d="M416 525L417 526L416 525M489 525L490 526L489 525z"/>
<path style="fill:#85ceff; stroke:none;" d="M635 525L636 526L635 525z"/>
<path style="fill:#c3e5fe; stroke:none;" d="M417 526L418 527L417 526M490 526L491 527L490 526z"/>
<path style="fill:#85ceff; stroke:none;" d="M636 526L637 527L636 526z"/>
<path style="fill:#c3e5fe; stroke:none;" d="M418 527L419 528L418 527M491 527L492 528L491 527M564 527L565 528L564 527z"/>
<path style="fill:#85ceff; stroke:none;" d="M637 527L638 528L637 527M638 528L639 529L638 528z"/>
<path style="fill:#c3e5fe; stroke:none;" d="M420 529L421 530L420 529z"/>
<path style="fill:#85ceff; stroke:none;" d="M639 529L640 530L639 529z"/>
<path style="fill:#c3e5fe; stroke:none;" d="M421 530L422 531L421 530M494 530L495 531L494 530M567 530L568 531L567 530z"/>
<path style="fill:#85ceff; stroke:none;" d="M640 530L641 531L640 530z"/>
<path style="fill:#c3e5fe; stroke:none;" d="M422 531L423 532L422 531M495 531L496 532L495 531z"/>
<path style="fill:#85ceff; stroke:none;" d="M641 531L642 532L641 531z"/>
<path style="fill:#c3e5fe; stroke:none;" d="M423 532L424 533L423 532z"/>
<path style="fill:#85ceff; stroke:none;" d="M642 532L643 533L642 532z"/>
<path style="fill:#c3e5fe; stroke:none;" d="M424 533L425 534L424 533M497 533L498 534L497 533z"/>
<path style="fill:#85ceff; stroke:none;" d="M643 533L646 536L643 533z"/>
<path style="fill:#c3e5fe; stroke:none;" d="M644 533L645 534L644 533M425 534L426 535L425 534M498 534L499 535L498 534M571 534L572 535L571 534M645 534L646 535L645 534M426 535L427 536L426 535M427 536L428 537L427 536M500 536L501 537L500 536z"/>
<path style="fill:#85ceff; stroke:none;" d="M646 536L647 537L646 536z"/>
<path style="fill:#c3e5fe; stroke:none;" d="M428 537L429 538L428 537M501 537L502 538L501 537M574 537L575 538L574 537z"/>
<path style="fill:#85ceff; stroke:none;" d="M647 537L650 540L647 537z"/>
<path style="fill:#c3e5fe; stroke:none;" d="M648 537L649 538L648 537M429 538L430 539L429 538M502 538L503 539L502 538M575 538L576 539L575 538M649 538L650 539L649 538M431 540L432 541L431 540z"/>
<path style="fill:#85ceff; stroke:none;" d="M650 540L653 543L650 540z"/>
<path style="fill:#c3e5fe; stroke:none;" d="M651 540L652 541L651 540M432 541L433 542L432 541M505 541L506 542L505 541M578 541L579 542L578 541M652 541L653 542L652 541M434 543L435 544L434 543z"/>
<path style="fill:#85ceff; stroke:none;" d="M653 543L654 544L653 543z"/>
<path style="fill:#c3e5fe; stroke:none;" d="M435 544L436 545L435 544M508 544L509 545L508 544z"/>
<path style="fill:#85ceff; stroke:none;" d="M654 544L655 545L654 544z"/>
<path style="fill:#c3e5fe; stroke:none;" d="M436 545L437 546L436 545M509 545L510 546L509 545M582 545L583 546L582 545z"/>
<path style="fill:#85ceff; stroke:none;" d="M655 545L656 546L655 545z"/>
<path style="fill:#c3e5fe; stroke:none;" d="M437 546L438 547L437 546M510 546L511 547L510 546z"/>
<path style="fill:#85ceff; stroke:none;" d="M656 546L657 547L656 546z"/>
<path style="fill:#c3e5fe; stroke:none;" d="M438 547L439 548L438 547z"/>
<path style="fill:#85ceff; stroke:none;" d="M657 547L658 548L657 547z"/>
<path style="fill:#c3e5fe; stroke:none;" d="M512 548L513 549L512 548M585 548L586 549L585 548z"/>
<path style="fill:#85ceff; stroke:none;" d="M658 548L660 550L658 548z"/>
<path style="fill:#c3e5fe; stroke:none;" d="M659 548L660 549L659 548M438 549L439 550L438 549M513 549L514 550L513 549M586 549L587 550L586 549M659 550L662 553L659 550M515 551L516 552L515 551M658 551L659 552L658 551M435 552L436 553L435 552M516 552L517 553L516 552M589 552L590 553L589 552z"/>
<path style="fill:#85ceff; stroke:none;" d="M656 552L655 554L656 552z"/>
<path style="fill:#c3e5fe; stroke:none;" d="M657 552L658 553L657 552M434 553L435 554L434 553M656 553L657 554L656 553M662 553L688 580L714 605L697 586.576L662 553M655 554L656 555L655 554M432 555L433 556L432 555M519 555L520 556L519 555M654 555L655 556L654 555M431 556L432 557L431 556M520 556L521 557L520 556M593 556L594 557L593 556z"/>
<path style="fill:#85ceff; stroke:none;" d="M652 556L651 558L652 556z"/>
<path style="fill:#c3e5fe; stroke:none;" d="M653 556L654 557L653 556M652 557L653 558L652 557M429 558L430 559L429 558M651 558L652 559L651 558M428 559L429 560L428 559M523 559L524 560L523 559z"/>
<path style="fill:#85ceff; stroke:none;" d="M649 559L647 562L649 559z"/>
<path style="fill:#c3e5fe; stroke:none;" d="M650 559L651 560L650 559M524 560L525 561L524 560M649 560L650 561L649 560M648 561L649 562L648 561M526 562L527 563L526 562M647 562L648 563L647 562M276 563L270 570C273.158 568.511 276.08 566.717 276 563M424 563L425 564L424 563M527 563L528 564L527 563M600 563L601 564L600 563z"/>
<path style="fill:#85ceff; stroke:none;" d="M645 563L644 565L645 563z"/>
<path style="fill:#c3e5fe; stroke:none;" d="M646 563L647 564L646 563M423 564L424 565L423 564M528 564L529 565L528 564M645 564L646 565L645 564M644 565L645 566L644 565M421 566L422 567L421 566M530 566L531 567L530 566z"/>
<path style="fill:#85ceff; stroke:none;" d="M642 566L636 573L642 566z"/>
<path style="fill:#c3e5fe; stroke:none;" d="M643 566L644 567L643 566M420 567L421 568L420 567M531 567L532 568L531 567M604 567L605 568L604 567M642 567L643 568L642 567M641 568L642 569L641 568M533 569L534 570L533 569M640 569L641 570L640 569M417 570L418 571L417 570M534 570L535 571L534 570M607 570L608 571L607 570M639 570L640 571L639 570M416 571L417 572L416 571M535 571L536 572L535 571M608 571L609 572L608 571M638 571L639 572L638 571M637 572L638 573L637 572M414 573L415 574L414 573M610 573L611 574L610 573M636 573L637 574L636 573M413 574L414 575L413 574M538 574L539 575L538 574M611 574L612 575L611 574M635 574L636 575L635 574M412 575L413 576L412 575M539 575L540 576L539 575M612 575L613 576L612 575M634 575L635 576L634 575M633 576L634 577L633 576M410 577L411 578L410 577M541 577L542 578L541 577M614 577L615 578L614 577M632 577L633 578L632 577M409 578L410 579L409 578M542 578L543 579L542 578M615 578L616 579L615 578M631 578L632 579L631 578M408 579L409 580L408 579M616 579L617 580L616 579M630 579L631 580L630 579M629 580L630 581L629 580M406 581L407 582L406 581M545 581L546 582L545 581M618 581L619 582L618 581M628 581L629 582L628 581M405 582L406 583L405 582M546 582L547 583L546 582M619 582L620 583L619 582M627 582L628 583L627 582M626 583L627 584L626 583M403 584L404 585L403 584M548 584L549 585L548 584M621 584L622 585L621 584M625 584L626 585L625 584M402 585L403 586L402 585M475.667 585.333L476.333 585.667L475.667 585.333M549 585L550 586L549 585M619 589L631 592C627.522 587.127 623.528 583.387 619 589M401 586L402 587L401 586M474 586L475 587L474 586M477 586L478 587L477 586M399 588L400 589L399 588M472 588L473 589L472 588M479 588L480 589L479 588M552 588L553 589L552 588M398 589L399 590L398 589M471 589L472 590L471 589M480 589L481 590L480 589M553 589L554 590L553 589M618 589L588 620L610.536 598.665L618 589M397 590L398 591L397 590M554 590L555 591L554 590M396 591L397 592L396 591M469 591L470 592L469 591M482 591L483 592L482 591M395 592L396 593L395 592M468 592L469 593L468 592M483 592L484 593L483 592M556 592L557 593L556 592M631 592C634.43 599.088 641.593 604.277 647.195 609.65C656.814 618.876 667.024 634.188 679 640C667.435 623.582 647.418 603.565 631 592M394 593L395 594L394 593M467 593L468 594L467 593M484 593L485 594L484 593M557 593L558 594L557 593M393 594L394 595L393 594M485 594L486 595L485 594M465 595L466 596L465 595M486 595L487 596L486 595M559 595L560 596L559 595M391 596L392 597L391 596M464 596L465 597L464 596M487 596L488 597L487 596M560 596L561 597L560 596M390 597L391 598L390 597M463 597L464 598L463 597M488 597L489 598L488 597M561 597L562 598L561 597M388 599L389 600L388 599M461 599L462 600L461 599M490 599L491 600L490 599M563 599L564 600L563 599M387 600L388 601L387 600M460 600L461 601L460 600M491 600L492 601L491 600M564 600L565 601L564 600M385 602L386 603L385 602M493 602L494 603L493 602M384 603L385 604L384 603M457 603L458 604L457 603M494 603L495 604L494 603M567 603L568 604L567 603M383 604L384 605L383 604M456 604L457 605L456 604M495 604L496 605L495 604M568 604L569 605L568 604M382 605L383 606L382 605M496 605L497 606L496 605M714 605L718 607L714 605M381 606L382 607L381 606M454 606L455 607L454 606M497 606L498 607L497 606M380 607L381 608L380 607M453 607L454 608L453 607M498 607L499 608L498 607M571 607L572 608L571 607M379 608L380 609L379 608M499 608L500 609L499 608M572 608L573 609L572 608M500 609L501 610L500 609M377 610L378 611L377 610M450 610L451 611L450 610M501 610L502 611L501 610M574 610L575 611L574 610M376 611L377 612L376 611M449 611L450 612L449 611M502 611L503 612L502 611M575 611L576 612L575 611M375 612L376 613L375 612M503 612L504 613L503 612M447 613L448 614L447 613M373 614L374 615L373 614M446 614L447 615L446 614M505 614L506 615L505 614M372 615L373 616L372 615M445 615L446 616L445 615M506 615L507 616L506 615M579 615L580 616L579 615M370 617L371 618L370 617M508 617L509 618L508 617M369 618L370 619L369 618M442 618L443 619L442 618M509 618L510 619L509 618M582 618L583 619L582 618M367 620L368 621L367 620M511 620L512 621L511 620M587 620L585 625L601 638L587 620M439 621L440 622L439 621M512 621L513 622L512 621M438 622L439 623L438 622M513 622L514 623L513 622M364 625L367 625L366 623L364 625M514 623L515 624L514 623M515 624L516 625L515 624M363 625L346 643C351.546 639.749 361.526 631.363 363 625M367 625L368 626L367 625M435 625L436 626L435 625M516 625L517 626L516 625M584 625L585 626L584 625M368 626L369 627L368 626M434 626L435 627L434 626M517 626L518 627L517 626M583 626L584 627L583 626M369 627L370 628L369 627M518 627L519 628L518 627M582 627L583 628L582 627M370 628L371 629L370 628M432 628L433 629L432 628M519 628L520 629L519 628M581 628L582 629L581 628M371 629L372 630L371 629M431 629L432 630L431 629M520 629L521 630L520 629M580 629L581 630L580 629M372 630L373 631L372 630M430 630L431 631L430 630M521 630L522 631L521 630M579 630L580 631L579 630M373 631L374 632L373 631M578 631L579 632L578 631M374 632L375 633L374 632M428 632L429 633L428 632M523 632L524 633L523 632M577 632L578 633L577 632M375 633L376 634L375 633M427 633L428 634L427 633M524 633L525 634L524 633M576 633L577 634L576 633M376 634L377 635L376 634M575 634L576 635L575 634M377 635L378 636L377 635M526 635L527 636L526 635M574 635L575 636L574 635M378 636L379 637L378 636M424 636L425 637L424 636M527 636L528 637L527 636M573 636L574 637L573 636M379 637L380 638L379 637M423 637L424 638L423 637M528 637L529 638L528 637M572 637L573 638L572 637M380 638L381 639L380 638M529 638L530 639L529 638M571 638L572 639L571 638M601 638L612.575 651.271L643 680C632.8 665.52 615.48 648.2 601 638M381 639L382 640L381 639M421 639L422 640L421 639M530 639L531 640L530 639M570 639L571 640L570 639M382 640L383 641L382 640M420 640L421 641L420 640M531 640L532 641L531 640M569 640L570 641L569 640M679 640L681 644L679 640M383 641L384 642L383 641M419 641L420 642L419 641M532 641L533 642L532 641M568 641L569 642L568 641M384 642L385 643L384 642M567 642L568 643L567 642M345.333 643.667L345.667 644.333L345.333 643.667M385 643L386 644L385 643M417 643L418 644L417 643M534 643L535 644L534 643M566 643L567 644L566 643M386 644L387 645L386 644M416 644L417 645L416 644M535 644L536 645L535 644M565 644L566 645L565 644M387 645L388 646L387 645M536 645L537 646L536 645M564 645L565 646L564 645M388 646L389 647L388 646M414 646L415 647L414 646M537 646L538 647L537 646M563 646L564 647L563 646M389 647L390 648L389 647M413 647L414 648L413 647M538 647L539 648L538 647M562 647L563 648L562 647M390 648L391 649L390 648M412 648L413 649L412 648M539 648L540 649L539 648M561 648L562 649L561 648M391 649L392 650L391 649M540 649L541 650L540 649M560 649L561 650L560 649M392 650L393 651L392 650M410 650L411 651L410 650M541 650L542 651L541 650M559 650L560 651L559 650M393 651L394 652L393 651M409 651L410 652L409 651M542 651L543 652L542 651M558 651L559 652L558 651M394 652L395 653L394 652M408 652L409 653L408 652M543 652L544 653L543 652M557 652L558 653L557 652M395 653L396 654L395 653M544 653L545 654L544 653M556 653L557 654L556 653M396 654L397 655L396 654M406 654L407 655L406 654M545 654L546 655L545 654M555 654L556 655L555 654M397 655L398 656L397 655M405 655L406 656L405 655M546 655L547 656L546 655M554 655L555 656L554 655M398 656L399 657L398 656M404 656L405 657L404 656M547 656L548 657L547 656M553 656L554 657L553 656M399 657L400 658L399 657M403 657L404 658L403 657M548 657L549 658L548 657M552 657L553 658L552 657M394 665C406.09 659.547 410.293 668.293 419 677C431.435 689.435 446.055 710.564 462 718C451.08 702.498 434.411 689.411 421 676C415.926 670.926 409.837 662.077 403.17 659.202C399.132 657.461 395.971 662.23 394 665M549 658L550 659L549 658M550 659L608 717C606.796 709.947 597.931 703.931 593 699L552 658L550 659M548 659C526.02 680.98 497.883 702.613 480 728C488.018 724.261 493.77 715.883 499.884 709.665C510.788 698.576 521.994 687.781 532.883 676.665C536.77 672.698 548.213 664.744 548 659M393 665L390 669L393 665M389 669L380 680C383.595 677.468 389.1 673.716 389 669M643 680L644 681L643 680M642 681L643 682L642 681M462 718L473 729L462 718M479 728L473 729L475 732L475 733L454 754C462.926 749.838 469.381 734.325 480 736L477 733L477 732L479 728M480 736C486.089 747.898 500.91 758.211 510.35 767.65C515.455 772.755 520.554 779.681 527 783C515.663 766.905 496.095 747.337 480 736M512 811L513 812L512 811z"/>
</svg>
