<?xml version="1.0" encoding="utf-8"?>
<!-- Generator: Adobe Illustrator 24.2.1, SVG Export Plug-In . SVG Version: 6.00 Build 0)  -->
<svg version="1.1" id="Layer_1" xmlns="http://www.w3.org/2000/svg" xmlns:xlink="http://www.w3.org/1999/xlink" x="0px" y="0px"
	 viewBox="0 0 100 100" style="enable-background:new 0 0 100 100;" xml:space="preserve">
<style type="text/css">
	.st0{fill:#FA2A00;}
	.st1{fill:#FFFFFF;}
</style>
<path class="st0" d="M100,100H0V0h100V100z"/>
<path class="st1" d="M63,53.3c-1.5,8.2-8.6,15-19.5,15c-13,0-20.9-9.6-20.9-20.5c0-10.7,7.5-20.5,20.8-20.5
	c11.4,0,18.5,7.2,19.6,16.2h-9.4c-0.8-4.6-4.3-8-10-8c-7.5,0-11.7,5.9-11.7,12.4c0,6.9,4.7,12.4,11.8,12.4c5.2,0,8.7-3,9.8-6.9H63
	L63,53.3z M74,28.1l-5.8,2.5l7.2,16.9l-7.2,16.9l5.8,2.5l4.8-11.4l0,0.1l3.3-8L74,28.1z"/>
</svg>
