<svg width="160" height="80" viewBox="0 0 160 80" fill="none" xmlns="http://www.w3.org/2000/svg">
<path d="M98.7318 36.6365H59.5843C59.3616 36.6365 59.148 36.5481 58.9905 36.3906C58.833 36.2331 58.7445 36.0195 58.7445 35.7967C58.7445 35.574 58.833 35.3604 58.9905 35.2029C59.148 35.0454 59.3616 34.9569 59.5843 34.9569H98.7318C98.9545 34.9569 99.1681 35.0454 99.3256 35.2029C99.4831 35.3604 99.5716 35.574 99.5716 35.7967C99.5716 36.0195 99.4831 36.2331 99.3256 36.3906C99.1681 36.5481 98.9545 36.6365 98.7318 36.6365Z" fill="#06225D"/>
<path d="M98.7318 33.2815H59.5843C59.3616 33.2815 59.148 33.193 58.9905 33.0355C58.833 32.878 58.7445 32.6644 58.7445 32.4417C58.7445 32.219 58.833 32.0054 58.9905 31.8479C59.148 31.6904 59.3616 31.6019 59.5843 31.6019H98.7318C98.9545 31.6019 99.1681 31.6904 99.3256 31.8479C99.4831 32.0054 99.5716 32.219 99.5716 32.4417C99.5716 32.6644 99.4831 32.878 99.3256 33.0355C99.1681 33.193 98.9545 33.2815 98.7318 33.2815Z" fill="#06225D"/>
<path d="M98.7318 40.0042H59.5843C59.3616 40.0042 59.148 39.9157 58.9905 39.7582C58.833 39.6007 58.7445 39.3871 58.7445 39.1644C58.7445 38.9416 58.833 38.728 58.9905 38.5705C59.148 38.413 59.3616 38.3246 59.5843 38.3246H98.7318C98.9545 38.3246 99.1681 38.413 99.3256 38.5705C99.4831 38.728 99.5716 38.9416 99.5716 39.1644C99.5716 39.3871 99.4831 39.6007 99.3256 39.7582C99.1681 39.9157 98.9545 40.0042 98.7318 40.0042Z" fill="#06225D"/>
<path d="M71.2996 46.6344V46.5966C71.3706 45.2501 71.9544 43.9818 72.931 43.052C73.9076 42.1222 75.2031 41.6015 76.5515 41.5966C77.8999 41.5918 79.1991 42.1032 80.1823 43.026C81.1656 43.9487 81.7584 45.2128 81.8391 46.5588V46.5966C81.8436 47.2925 81.7098 47.9823 81.4454 48.626C81.1811 49.2696 80.7914 49.8544 80.2992 50.3462C79.807 50.8381 79.2219 51.2272 78.578 51.4911C77.9341 51.7549 77.2442 51.8882 76.5484 51.8832C75.8567 51.8917 75.1704 51.7617 74.5298 51.5009C73.8892 51.2401 73.3072 50.8538 72.8181 50.3647C72.329 49.8756 71.9427 49.2936 71.6819 48.653C71.4211 48.0124 71.2911 47.326 71.2996 46.6344ZM80.3065 46.6344V46.5966C80.3233 46.0892 80.239 45.5835 80.0585 45.1089C79.8781 44.6343 79.605 44.2004 79.2553 43.8323C78.9056 43.4642 78.4862 43.1694 78.0215 42.9649C77.5567 42.7604 77.056 42.6503 76.5484 42.6411C74.3523 42.6411 72.8448 44.4215 72.8448 46.5588V46.5966C72.824 47.1027 72.9051 47.6077 73.0833 48.0818C73.2615 48.5559 73.5331 48.9893 73.8821 49.3563C74.2311 49.7233 74.6503 50.0165 75.1149 50.2183C75.5794 50.4201 76.0797 50.5265 76.5861 50.5311C78.778 50.5311 80.3065 48.7717 80.3065 46.6344Z" fill="#06225D"/>
<path d="M83.3213 42.1919C83.3136 42.0881 83.3273 41.984 83.3617 41.8858C83.396 41.7876 83.4503 41.6976 83.521 41.6214C83.5918 41.5452 83.6775 41.4844 83.7728 41.4428C83.8682 41.4012 83.971 41.3797 84.075 41.3797C84.179 41.3797 84.2819 41.4012 84.3772 41.4428C84.4726 41.4844 84.5583 41.5452 84.629 41.6214C84.6998 41.6976 84.754 41.7876 84.7884 41.8858C84.8228 41.984 84.8365 42.0881 84.8288 42.1919V43.229C85.4922 42.2338 86.395 41.3101 88.0956 41.3101C88.7761 41.286 89.4484 41.4648 90.0271 41.8237C90.6058 42.1826 91.0647 42.7053 91.3456 43.3256C91.706 42.7021 92.2266 42.1864 92.8534 41.832C93.4803 41.4776 94.1906 41.2974 94.9106 41.3101C97.2411 41.3101 98.6897 42.8763 98.6897 45.3831V50.9804C98.6975 51.0841 98.6837 51.1883 98.6494 51.2865C98.615 51.3846 98.5608 51.4746 98.49 51.5509C98.4193 51.6271 98.3335 51.6879 98.2382 51.7295C98.1429 51.7711 98.04 51.7925 97.936 51.7925C97.832 51.7925 97.7291 51.7711 97.6338 51.7295C97.5385 51.6879 97.4528 51.6271 97.382 51.5509C97.3113 51.4746 97.257 51.3846 97.2226 51.2865C97.1883 51.1883 97.1745 51.0841 97.1823 50.9804V45.7358C97.1823 43.7791 96.2039 42.6789 94.5579 42.6789C93.0295 42.6789 91.7781 43.8169 91.7781 45.8114V50.9804C91.7859 51.0841 91.7722 51.1883 91.7378 51.2865C91.7034 51.3846 91.6492 51.4746 91.5784 51.5509C91.5077 51.6271 91.422 51.6879 91.3266 51.7295C91.2313 51.7711 91.1284 51.7925 91.0244 51.7925C90.9204 51.7925 90.8175 51.7711 90.7222 51.7295C90.6269 51.6879 90.5412 51.6271 90.4704 51.5509C90.3997 51.4746 90.3454 51.3846 90.3111 51.2865C90.2767 51.1883 90.2629 51.0841 90.2707 50.9804V45.698C90.2707 43.7959 89.2713 42.6789 87.6673 42.6789C86.0633 42.6789 84.8498 44.0142 84.8498 45.8744V50.9804C84.8532 51.0803 84.8363 51.1798 84.8002 51.2729C84.764 51.3661 84.7094 51.451 84.6395 51.5224C84.5696 51.5938 84.486 51.6504 84.3937 51.6885C84.3014 51.7267 84.2022 51.7458 84.1023 51.7446C84.0019 51.7458 83.9022 51.7267 83.8092 51.6887C83.7162 51.6506 83.6317 51.5943 83.5609 51.5231C83.49 51.4518 83.4342 51.3671 83.3966 51.2739C83.3591 51.1807 83.3406 51.0809 83.3423 50.9804L83.3213 42.1919Z" fill="#06225D"/>
<path d="M101.675 42.8595H100.835C100.67 42.8463 100.516 42.7713 100.404 42.6495C100.291 42.5277 100.229 42.3681 100.229 42.2023C100.229 42.0366 100.291 41.8769 100.404 41.7552C100.516 41.6334 100.67 41.5584 100.835 41.5452H101.675V31.8412C101.675 30.6865 101.986 29.8089 102.557 29.2379C102.849 28.9698 103.191 28.7626 103.564 28.6285C103.937 28.4944 104.332 28.436 104.728 28.4568C105.272 28.4503 105.816 28.4896 106.353 28.5744C106.508 28.603 106.648 28.685 106.748 28.8063C106.849 28.9276 106.904 29.0803 106.903 29.2379C106.901 29.3267 106.88 29.4141 106.842 29.4947C106.805 29.5753 106.751 29.6473 106.684 29.7063C106.618 29.7653 106.54 29.8101 106.456 29.8379C106.371 29.8656 106.282 29.8758 106.193 29.8677C105.776 29.8113 105.355 29.7776 104.934 29.7669C103.758 29.7669 103.17 30.4724 103.17 31.921V41.5788H105.773C105.86 41.5754 105.946 41.5895 106.026 41.6203C106.107 41.6511 106.181 41.698 106.243 41.758C106.305 41.8181 106.354 41.8901 106.387 41.9697C106.421 42.0493 106.438 42.1349 106.437 42.2212C106.433 42.3935 106.36 42.5571 106.236 42.6766C106.112 42.796 105.946 42.8617 105.773 42.8595H103.17V50.9804C103.172 51.0796 103.155 51.1783 103.118 51.2706C103.082 51.363 103.028 51.4472 102.959 51.5183C102.889 51.5894 102.807 51.6461 102.716 51.6849C102.624 51.7238 102.526 51.7441 102.427 51.7446C102.224 51.7446 102.03 51.6641 101.886 51.5208C101.743 51.3775 101.663 51.1831 101.663 50.9804L101.675 42.8595Z" fill="#06225D"/>
<path d="M117.632 42.2548C117.625 42.3829 117.598 42.509 117.552 42.6285L113.6 52.0637C113.463 52.3906 113.309 52.7102 113.139 53.0211L110.901 58.1019C110.132 59.4708 109.221 59.9999 107.961 59.9999C107.388 60.0042 106.819 59.9046 106.282 59.7059C106.15 59.6552 106.037 59.5651 105.958 59.4479C105.879 59.3307 105.838 59.1921 105.841 59.0509C105.842 58.8797 105.91 58.7159 106.031 58.5949C106.152 58.4738 106.316 58.4053 106.487 58.4042C106.614 58.4109 106.739 58.4378 106.857 58.484C107.208 58.6094 107.58 58.6692 107.953 58.6604C108.692 58.6604 109.183 58.3119 109.632 57.577L111.87 52.4962C112.008 52.266 112.131 52.0276 112.24 51.7824L112.316 51.6228L108.079 42.6747C108.017 42.5432 107.982 42.4002 107.978 42.2548C107.979 42.155 107.999 42.0563 108.038 41.9645C108.077 41.8727 108.134 41.7896 108.206 41.72C108.277 41.6505 108.362 41.5958 108.455 41.5593C108.547 41.5228 108.647 41.5051 108.746 41.5074C108.921 41.5102 109.089 41.5694 109.227 41.6762C109.365 41.7829 109.464 41.9314 109.511 42.0994L113.034 50.044L116.166 42.0658C116.206 41.9041 116.299 41.7602 116.43 41.6568C116.56 41.5534 116.722 41.4964 116.888 41.4948C116.987 41.4948 117.085 41.5145 117.177 41.5529C117.268 41.5913 117.351 41.6476 117.42 41.7184C117.489 41.7892 117.544 41.8731 117.58 41.9652C117.616 42.0573 117.634 42.1558 117.632 42.2548Z" fill="#06225D"/>
<path d="M69.9643 46.836C69.9619 46.943 69.9384 47.0486 69.8952 47.1466C69.8519 47.2446 69.7898 47.3331 69.7123 47.407C66.034 50.8208 62.4942 52.2821 57.8753 52.2821C49.0363 52.2821 42.3683 45.3789 42.3683 36.2292V36.1368C42.3683 27.088 49.2211 20 57.9677 20C63.5398 20 66.7856 22.0995 69.4394 24.3712C69.5432 24.4579 69.6275 24.5656 69.6868 24.6872C69.7461 24.8087 69.7792 24.9414 69.7837 25.0766C69.7678 25.3035 69.6669 25.5161 69.5011 25.6718C69.3353 25.8275 69.1168 25.9149 68.8893 25.9164C68.6708 25.9189 68.4599 25.836 68.3014 25.6855C65.0976 22.763 61.8937 21.4613 57.9047 21.4613C50.1995 21.4613 44.1529 27.8648 44.1529 36.0487V36.1368C44.1529 44.3711 50.2205 50.8334 57.9677 50.8334C62.0953 50.8334 65.274 49.4813 68.587 46.3153C68.6594 46.2314 68.7481 46.1633 68.8477 46.1149C68.9474 46.0665 69.0558 46.039 69.1664 46.0339C69.3748 46.0441 69.5718 46.1314 69.7193 46.2789C69.8668 46.4264 69.9541 46.6234 69.9643 46.8318" fill="#06225D"/>
</svg>
