<?xml version="1.0" encoding="utf-8"?>
<!-- Generator: Adobe Illustrator 24.2.1, SVG Export Plug-In . SVG Version: 6.00 Build 0)  -->
<svg version="1.1" id="Layer_1" xmlns="http://www.w3.org/2000/svg" xmlns:xlink="http://www.w3.org/1999/xlink" x="0px" y="0px"
	 viewBox="0 0 104.8 100" style="enable-background:new 0 0 104.8 100;" xml:space="preserve">
<style type="text/css">
	.st0{fill:#444444;}
</style>
<g>
	<path class="st0" d="M95.2,100h-17l1.2-14.3h-8.3L69.9,100H34.8l-1.2-14.3h-8.3l1.2,14.3h-17L0,38.1L23.8,0H81l23.8,38.1L95.2,100z
		 M76.2,19H60.9l1,7.1h-19l1-7.1H28.6l-9.5,19l4.8,38.1H81l4.8-38.1L76.2,19z M67.9,63.5c-1.3,0-2.4-4-2.4-8.9
		c0-4.9,1.1-8.9,2.4-8.9c1.3,0,2.4,4,2.4,8.9C70.2,59.6,69.2,63.5,67.9,63.5z M37.8,64.3c-1.3,0-2.4-4-2.4-8.9
		c0-4.9,1.1-8.9,2.4-8.9c1.3,0,2.4,4,2.4,8.9C40.2,60.3,39.1,64.3,37.8,64.3z"/>
</g>
</svg>
