<?xml version="1.0" encoding="utf-8"?>
<!-- Generator: Adobe Illustrator 24.2.1, SVG Export Plug-In . SVG Version: 6.00 Build 0)  -->
<svg version="1.1" id="Layer_1" xmlns="http://www.w3.org/2000/svg" xmlns:xlink="http://www.w3.org/1999/xlink" x="0px" y="0px"
	 viewBox="0 0 139.3 100" style="enable-background:new 0 0 139.3 100;" xml:space="preserve">
<style type="text/css">
	.st0{fill:#DBE1E2;}
	.st1{fill:#344C59;}
	.st2{fill:#CF4D40;}
</style>
<g>
	<g id="text_2_">
		<g id="text_1_">
			<path class="st0" d="M72.5,90c-0.5,3-0.9,6.1-1.3,9c-0.1,0.4-0.2,0.5-0.6,0.5c-1.8,0-3.5,0-5.4,0c-0.3,0-0.4-0.1-0.3-0.4
				c1-6.7,2.1-13.5,3.1-20.1c0.1-0.6,0.2-1.2,0.3-1.8c0-0.5,0.2-0.7,0.8-0.7c2.7,0.1,5.6-0.2,8.3,0.2c4.2,0.6,5.9,2.8,5.3,7.1
				c-0.4,2.7-1.6,5-4.4,6.1c-0.3,0.1-0.1,0.2-0.1,0.4c1,2.9,1.9,6,2.9,8.9c0.1,0.3,0.1,0.4-0.3,0.4c-2,0-3.9,0-6,0
				c-0.4,0-0.5-0.1-0.5-0.4C73.7,96.1,73.1,93,72.5,90z M76.3,83.5c0-1.3-0.7-2-2.2-2.1c-0.2,0-0.3,0-0.3,0.3
				c-0.2,1.6-0.5,3.2-0.8,4.9c-0.1,0.6,0.1,0.6,0.6,0.6C75.2,86.9,76.3,85.4,76.3,83.5z"/>
			<path class="st0" d="M15.7,90.4C16,86,17.1,82,20.2,78.8c2.1-2.1,4.8-3,7.8-2.5c3.1,0.5,5.1,2.7,5.6,6.8
				c0.6,5.4-0.6,10.2-4.4,14.2c-2,2.1-4.6,3-7.5,2.6c-2.9-0.3-5.1-2.6-5.8-6.1C15.8,92.6,15.7,91.5,15.7,90.4z M27.4,85.4
				c0-0.4,0-0.9-0.1-1.4c-0.1-0.9-0.3-1.8-1.3-2.1c-1.1-0.3-1.7,0.5-2.2,1.3c-0.1,0.2-0.2,0.4-0.3,0.6c-1,2.5-1.5,5.3-1.3,8
				c0.1,0.9,0.3,1.8,1.3,2.1c1.1,0.3,1.7-0.5,2.2-1.3c0.2-0.4,0.4-0.8,0.6-1.2C27,89.5,27.2,87.6,27.4,85.4z"/>
			<path class="st0" d="M98.8,88.1c0.2,3.7,0.4,7.4,0.6,11.1c0,0.3,0,0.4-0.3,0.4c-1.9,0-3.8,0-5.8,0c-0.3,0-0.3-0.1-0.3-0.3
				c0-0.8,0-1.5,0-2.3c0-0.2-0.1-0.3-0.3-0.3c-1.2,0-2.4,0-3.6,0c-0.2,0-0.3,0.1-0.3,0.3c0,0,0,0,0,0.1c-0.3,0.9-0.3,2.1-0.9,2.5
				s-1.8,0.1-2.7,0.1c-1.1,0-2.1,0-3.2,0c-0.3,0-0.4-0.1-0.2-0.3c2.5-6.4,5.1-12.8,7.6-19.2c0.4-1,0.8-2.1,1.2-3.1
				c0.1-0.2,0.2-0.3,0.4-0.3c2.3,0,4.7,0,7,0c0.2,0,0.3,0,0.3,0.3C98.4,80.5,98.6,84.2,98.8,88.1L98.8,88.1z M93.3,82.2
				c-0.8,2.6-1.6,5.5-2.5,8.3c-0.3,0.9-0.3,1.3,0.8,1.1c0.4-0.1,0.8,0,1.2,0c0.2,0,0.3-0.1,0.3-0.3C93.1,88.3,93.2,85.1,93.3,82.2z"
				/>
			<path class="st0" d="M41.5,91.4c0.6-2.1,1.2-4.3,1.9-6.4c0.9-2.7,1.8-5.5,2.7-8.2c0.1-0.2,0.1-0.3,0.4-0.3c2,0,4.2,0,6.2,0
				c0.2,0,0.3,0,0.2,0.3c-3.1,7.4-6.4,14.9-9.6,22.4c-0.1,0.2-0.2,0.3-0.4,0.3c-1.9,0-3.8,0-5.8,0c-0.2,0-0.3-0.1-0.3-0.3
				c-0.5-7.5-1.1-15-1.7-22.5c0-0.2,0-0.3,0.2-0.3c2,0,4,0,6,0c0.3,0,0.3,0.1,0.3,0.3C41.7,81.7,41.8,86.5,41.5,91.4z"/>
			<path class="st0" d="M59.7,76.4c1.8,0,3.6,0,5.5,0c0.3,0,0.3,0.1,0.3,0.3c-0.2,1.5-0.5,3.1-0.7,4.7c0,0.3-0.1,0.4-0.5,0.4
				c-1.5,0-3,0-4.6,0c-0.3,0-0.4,0-0.4,0.4c-0.1,0.8-0.3,1.7-0.4,2.5c0,0.2,0,0.3,0.2,0.3c1.4,0,2.8,0,4.3,0c0.2,0,0.3,0,0.2,0.3
				c-0.3,1.6-0.5,3.2-0.7,4.9c0,0.2-0.2,0.3-0.4,0.3c-1.4,0-2.7,0-4.2,0c-0.3,0-0.4,0.1-0.4,0.4c-0.1,0.9-0.3,1.9-0.4,2.8
				c0,0.3,0,0.3,0.3,0.3c1.6,0,3.1,0,4.8,0c0.3,0,0.3,0.1,0.3,0.3c-0.2,1.5-0.5,3.1-0.7,4.7c-0.1,0.4-0.2,0.5-0.6,0.5
				c-3.5,0-7.2,0-10.7,0c-0.3,0-0.4-0.1-0.3-0.4c1.1-6.9,2.1-13.7,3.2-20.5c0.1-0.3,0.2-0.7,0.1-1c-0.1-1,0.4-1.2,1.3-1.1
				C56.7,76.5,58.2,76.4,59.7,76.4z"/>
			<path class="st0" d="M125.7,91.7c0.4,0.7,0.8,1.2,1.3,1.6c0.7,0.6,1.6,1,2.6,0.8c0.7-0.1,1.4-0.4,1.6-1.2c0.3-0.8-0.1-1.4-0.7-2
				c-0.6-0.6-1.2-1.1-1.8-1.7c-2.3-2.4-2.6-5.3-0.9-8.6c2.2-4.3,7-5.8,11.2-3.6c0.2,0.1,0.3,0.2,0.2,0.5c-0.3,2.2-0.7,4.5-1,6.7
				c-0.6-1-1.2-1.7-2.2-2.2c-0.8-0.4-1.6-0.4-2.3,0.2c-0.5,0.3-0.7,0.8-0.6,1.4c0.1,0.7,0.6,1.1,1.1,1.5c1.1,0.9,2.3,1.7,2.9,3.1
				c1.2,2.7,0.5,5.3-1,7.6c-2.7,4.3-7.4,4.9-11.5,3.1c-0.2-0.1-0.2-0.2-0.1-0.3C125,96.5,125.3,94.1,125.7,91.7z"/>
			<path class="st0" d="M13.7,92.7c-0.4,2.1-0.9,4.2-1.3,6.3c0,0.1-0.1,0.1-0.1,0.2c-3.1,1.4-8.2,1.2-10.4-2.8
				c-1.2-2.1-1.3-4.4-1.1-6.7c0.3-3.5,1.3-7,3.7-9.7c2.9-3.1,6.7-4.5,10.9-3.4c0.4,0.1,0.5,0.2,0.5,0.7c-0.3,1.9-0.6,3.8-0.9,5.8
				c0,0.1-0.1,0.2-0.1,0.3c-0.1,0-0.1-0.1-0.2-0.1c-1.6-1.5-3.8-1.6-5.3,0.1c-2.3,2.6-2.8,5.8-1.9,9c0.5,1.8,2.5,2.5,4.6,1.5
				C12.6,93.4,13.1,93,13.7,92.7z"/>
			<path class="st0" d="M106,99.5c-1.7,0-3.4,0-5.2,0c-0.2,0-0.3,0-0.3-0.3c1.2-7.5,2.3-14.9,3.4-22.4c0-0.3,0.1-0.3,0.4-0.3
				c1.8,0,3.7,0,5.6,0c0.3,0,0.4,0,0.3,0.3c-0.9,5.7-1.7,11.3-2.6,16.9c0,0.2,0,0.3,0.2,0.3c1.3,0,2.7,0,4,0c0.2,0,0.3,0,0.3,0.3
				c-0.3,1.6-0.5,3.3-0.7,5c0,0.3-0.2,0.2-0.4,0.2C109.4,99.5,107.7,99.5,106,99.5L106,99.5z"/>
			<path class="st0" d="M118.1,99.5c-1.7,0-3.4,0-5.1,0c-0.3,0-0.4,0-0.3-0.3c1.2-7.5,2.3-14.9,3.4-22.4c0-0.2,0.1-0.3,0.4-0.3
				c1.8,0,3.7,0,5.6,0c0.3,0,0.4,0,0.3,0.4c-0.9,5.7-1.7,11.2-2.6,16.9c0,0.2,0,0.3,0.3,0.3c1.3,0,2.7,0,4,0c0.2,0,0.3,0,0.3,0.3
				c-0.3,1.6-0.5,3.2-0.7,5c0,0.3-0.2,0.2-0.3,0.2C121.6,99.5,119.8,99.5,118.1,99.5L118.1,99.5z"/>
		</g>
		<g id="text">
			<path class="st1" d="M71.7,89c-0.5,3-0.9,6.1-1.3,9c-0.1,0.4-0.2,0.5-0.6,0.5c-1.8,0-3.5,0-5.4,0c-0.3,0-0.4-0.1-0.3-0.4
				c1-6.7,2.1-13.5,3.1-20.1c0.1-0.6,0.2-1.2,0.3-1.8c0-0.5,0.2-0.7,0.8-0.7c2.7,0.1,5.6-0.2,8.3,0.2c4.2,0.6,5.9,2.8,5.3,7.1
				c-0.4,2.7-1.6,5-4.4,6.1c-0.3,0.1-0.1,0.2-0.1,0.4c1,2.9,1.9,6,2.9,8.9c0.1,0.3,0.1,0.4-0.3,0.4c-2,0-3.9,0-6,0
				c-0.4,0-0.5-0.1-0.5-0.4C73.1,95.1,72.4,92,71.7,89z M75.7,82.5c0-1.3-0.7-2-2.2-2.1c-0.2,0-0.3,0-0.3,0.3
				c-0.2,1.6-0.5,3.2-0.8,4.9c-0.1,0.6,0.1,0.6,0.6,0.6C74.5,85.8,75.7,84.4,75.7,82.5z"/>
			<path class="st1" d="M15,89.4c0.3-4.4,1.4-8.4,4.6-11.6c2.1-2.1,4.8-3,7.8-2.5c3.1,0.5,5.1,2.7,5.6,6.8
				c0.6,5.4-0.6,10.2-4.4,14.2c-2,2.1-4.6,3-7.5,2.6c-2.9-0.3-5.1-2.6-5.8-6.1C15.1,91.6,15,90.5,15,89.4z M26.7,84.4
				c0-0.4,0-0.9-0.1-1.4c-0.1-0.9-0.3-1.8-1.3-2.1c-1.1-0.3-1.7,0.5-2.2,1.3c-0.1,0.2-0.2,0.4-0.3,0.6c-1,2.5-1.5,5.3-1.3,8
				c0.1,0.9,0.3,1.8,1.3,2.1c1.1,0.3,1.7-0.5,2.2-1.3c0.2-0.4,0.4-0.8,0.6-1.2C26.3,88.5,26.6,86.5,26.7,84.4z"/>
			<path class="st1" d="M98.1,87.1c0.2,3.7,0.4,7.4,0.6,11.1c0,0.3,0,0.4-0.3,0.4c-1.9,0-3.8,0-5.8,0c-0.3,0-0.3-0.1-0.3-0.3
				c0-0.8,0-1.5,0-2.3c0-0.2-0.1-0.3-0.3-0.3c-1.2,0-2.4,0-3.6,0c-0.2,0-0.3,0.1-0.3,0.3c0,0,0,0,0,0.1c-0.3,0.9-0.3,2.1-0.9,2.5
				c-0.6,0.4-1.8,0.1-2.7,0.1c-1.1,0-2.1,0-3.2,0c-0.3,0-0.4-0.1-0.2-0.3c2.5-6.4,5.1-12.8,7.6-19.2c0.4-1,0.8-2.1,1.2-3.1
				c0.1-0.2,0.2-0.3,0.4-0.3c2.3,0,4.7,0,7,0c0.2,0,0.3,0,0.3,0.3C97.7,79.5,97.9,83.2,98.1,87.1C98.1,87,98.1,87,98.1,87.1z
				 M92.6,81.2c-0.8,2.6-1.6,5.5-2.5,8.3c-0.3,0.9-0.3,1.3,0.8,1.1c0.4-0.1,0.8,0,1.2,0c0.2,0,0.3-0.1,0.3-0.3
				C92.4,87.3,92.5,84.1,92.6,81.2z"/>
			<path class="st1" d="M40.9,90.4c0.6-2.1,1.2-4.3,1.9-6.4c0.9-2.7,1.8-5.5,2.7-8.2c0.1-0.2,0.1-0.3,0.4-0.3c2,0,4.2,0,6.2,0
				c0.2,0,0.3,0,0.2,0.3c-3.2,7.5-6.4,15-9.6,22.5c-0.1,0.2-0.2,0.3-0.4,0.3c-1.9,0-3.8,0-5.8,0c-0.2,0-0.3-0.1-0.3-0.3
				c-0.5-7.5-1.1-15-1.7-22.5c0-0.2,0-0.3,0.2-0.3c2,0,4,0,6,0c0.3,0,0.3,0.1,0.3,0.3C41,80.7,41.1,85.5,40.9,90.4z"/>
			<path class="st1" d="M59,75.4c1.8,0,3.6,0,5.5,0c0.3,0,0.3,0.1,0.3,0.3c-0.2,1.5-0.5,3.1-0.7,4.7c0,0.3-0.1,0.4-0.5,0.4
				c-1.5,0-3,0-4.6,0c-0.3,0-0.4,0-0.4,0.4c-0.1,0.8-0.3,1.7-0.4,2.5c0,0.2,0,0.3,0.2,0.3c1.4,0,2.8,0,4.3,0c0.2,0,0.3,0,0.2,0.3
				c-0.3,1.6-0.5,3.2-0.7,4.9c0,0.2-0.2,0.3-0.4,0.3c-1.4,0-2.7,0-4.2,0c-0.3,0-0.4,0.1-0.4,0.4c-0.1,0.9-0.3,1.9-0.4,2.8
				c0,0.3,0,0.3,0.3,0.3c1.6,0,3.1,0,4.8,0c0.3,0,0.3,0.1,0.3,0.3c-0.2,1.5-0.5,3.1-0.7,4.7c-0.1,0.4-0.2,0.5-0.6,0.5
				c-3.5,0-7.2,0-10.7,0c-0.3,0-0.4-0.1-0.3-0.4c1.1-6.9,2.1-13.7,3.2-20.5c0.1-0.3,0.2-0.7,0.1-1c-0.1-1,0.4-1.2,1.3-1.1
				C56,75.5,57.5,75.4,59,75.4z"/>
			<path class="st1" d="M125,90.7c0.4,0.7,0.8,1.2,1.3,1.6c0.7,0.6,1.6,1,2.6,0.8c0.7-0.1,1.4-0.4,1.6-1.2c0.3-0.8-0.1-1.4-0.7-2
				c-0.6-0.6-1.2-1.1-1.8-1.7c-2.3-2.4-2.6-5.3-0.9-8.6c2.2-4.3,7-5.8,11.2-3.6c0.2,0.1,0.3,0.2,0.2,0.5c-0.3,2.2-0.7,4.5-1,6.7
				c-0.6-1-1.2-1.7-2.2-2.2c-0.8-0.4-1.6-0.4-2.3,0.2c-0.5,0.3-0.7,0.8-0.6,1.4c0.1,0.7,0.6,1.1,1.1,1.5c1.1,0.9,2.3,1.7,2.9,3.1
				c1.2,2.7,0.5,5.3-1,7.6c-2.7,4.3-7.4,4.9-11.5,3.1c-0.2-0.1-0.2-0.2-0.1-0.3C124.3,95.5,124.6,93.1,125,90.7z"/>
			<path class="st1" d="M13.1,91.7c-0.4,2.1-0.9,4.2-1.3,6.3c0,0.1-0.1,0.1-0.1,0.2c-3.1,1.4-8.2,1.2-10.4-2.8
				c-1.3-2.2-1.4-4.5-1.2-6.8c0.3-3.5,1.3-7,3.7-9.7c2.9-3.1,6.7-4.5,10.9-3.4c0.4,0.1,0.5,0.2,0.5,0.7C15,78,14.7,80,14.4,81.9
				c0,0.1-0.1,0.2-0.1,0.3c-0.1,0-0.1-0.1-0.2-0.1c-1.6-1.5-3.8-1.6-5.3,0.1c-2.3,2.6-2.8,5.8-1.9,9c0.5,1.8,2.5,2.5,4.6,1.5
				C11.9,92.4,12.5,92,13.1,91.7z"/>
			<path class="st1" d="M105.4,98.5c-1.7,0-3.4,0-5.2,0c-0.2,0-0.3,0-0.3-0.3c1.2-7.5,2.3-14.9,3.4-22.4c0-0.3,0.1-0.3,0.4-0.3
				c1.8,0,3.7,0,5.6,0c0.3,0,0.4,0,0.3,0.3c-0.9,5.7-1.7,11.3-2.6,16.9c0,0.2,0,0.3,0.2,0.3c1.3,0,2.7,0,4,0c0.2,0,0.3,0,0.3,0.3
				c-0.3,1.6-0.5,3.3-0.7,5c0,0.3-0.2,0.2-0.4,0.2C108.7,98.5,107,98.5,105.4,98.5L105.4,98.5z"/>
			<path class="st1" d="M117.4,98.5c-1.7,0-3.4,0-5.1,0c-0.3,0-0.4,0-0.3-0.3c1.2-7.5,2.3-14.9,3.4-22.4c0-0.2,0.1-0.3,0.4-0.3
				c1.8,0,3.7,0,5.6,0c0.3,0,0.4,0,0.3,0.4c-0.9,5.7-1.7,11.2-2.6,16.9c0,0.2,0,0.3,0.3,0.3c1.3,0,2.7,0,4,0c0.2,0,0.3,0,0.3,0.3
				c-0.3,1.6-0.5,3.2-0.7,5c0,0.3-0.2,0.2-0.3,0.2C120.8,98.5,119.1,98.5,117.4,98.5L117.4,98.5z"/>
		</g>
	</g>
	<g id="star">
		<polygon class="st0" points="102.6,25.8 77.7,25.8 70,2.1 62.3,25.8 37.3,25.8 57.5,40.4 49.8,64.2 70,49.5 90.3,64.2 82.5,40.4 
					"/>
		<polygon class="st2" points="101.9,23.7 77,23.7 69.3,0 61.6,23.7 36.6,23.7 56.9,38.4 49.1,62.2 69.3,47.4 89.6,62.2 81.8,38.4 
					"/>
	</g>
</g>
</svg>
