<?xml version="1.0" encoding="utf-8"?>
<!-- Generator: Adobe Illustrator 25.2.3, SVG Export Plug-In . SVG Version: 6.00 Build 0)  -->
<svg version="1.1" id="Layer_1" xmlns="http://www.w3.org/2000/svg" xmlns:xlink="http://www.w3.org/1999/xlink" x="0px" y="0px"
	 viewBox="0 0 100 50" style="enable-background:new 0 0 100 50;" xml:space="preserve">
<style type="text/css">
	.st0{fill:#06225D;}
</style>
<g transform="translate(0.000000,552.000000) scale(0.100000,-0.100000)">
	<path class="st0" d="M319.49,5372.88c-12.26-1.78-21.52-6.39-30.61-15.08c-12.95-12.31-18.93-29.06-18.87-52.48
		c0.06-10.99,1.04-18.64,3.4-26.18c3.22-10.24,7.14-17.09,13.81-24.11c7.19-7.6,15.71-12.54,26.47-15.42
		c5.18-1.32,6.79-1.5,16.11-1.5c8.4-0.06,11.39,0.17,15.82,1.15c10.7,2.3,18.82,6.68,25.61,13.7c6.21,6.44,9.95,13.75,11.05,21.46
		l0.35,2.42h-6.73h-6.68l-0.63-1.55c-0.35-0.92-1.67-3.74-2.93-6.33c-5.41-11.39-16.4-17.9-32.11-18.93
		c-9.38-0.63-18.7,1.44-25.72,5.64c-7.65,4.6-14.56,12.95-17.95,21.64c-5.06,13.18-6.04,34.01-2.3,49.31
		c4.03,16.57,14.04,28.14,28.43,32.91c4.2,1.38,5.41,1.55,13.52,1.55c8.06,0,9.44-0.17,14.1-1.61c6.67-2.01,10.07-3.91,14.39-7.88
		c3.91-3.68,6.73-8.06,8.63-13.35l1.32-3.57l6.79-0.17c3.68-0.06,6.96,0.06,7.25,0.35c0.75,0.75-2.24,10.3-4.55,14.5
		c-2.65,4.95-6.33,9.32-10.59,12.77c-4.14,3.28-12.54,7.48-17.61,8.8C339.86,5373.29,327.72,5374.09,319.49,5372.88z"/>
	<path class="st0" d="M485.04,5359.19c-0.58-0.58-2.01-2.65-3.22-4.6c-2.65-4.2-6.1-6.79-10.3-7.6c-5.24-0.98-9.38,0.29-14.21,4.32
		c-3.16,2.65-6.27,2.88-8.06,0.58c-2.01-2.59-1.61-4.66,1.55-7.65c5.7-5.52,13.58-8.11,21.06-6.96c2.24,0.35,5.7,1.38,7.6,2.3
		c6.73,3.28,14.16,12.89,13.12,16.98C491.77,5359.76,487.11,5361.43,485.04,5359.19z"/>
	<path class="st0" d="M512.6,5352.69c-0.46-0.46-0.69-3.4-0.69-9.49v-8.8h-7.42c-5.64,0-7.54-0.17-8.06-0.81
		c-0.46-0.52-0.63-2.59-0.52-5.64l0.17-4.78l7.88-0.17l7.88-0.17l0.23-31.48c0.17-27.62,0.35-31.94,1.21-35.33
		c1.9-7.25,6.67-12.83,13.12-15.25c2.99-1.09,21.46-1.73,22.9-0.81c0.63,0.46,0.86,1.67,0.86,4.49c0,6.16,0.35,5.93-8.23,5.93
		c-8.4,0-11.85,0.81-14.33,3.51c-3.34,3.45-3.28,3.22-3.51,37.52l-0.17,31.48h12.66c11.97,0,12.72,0.06,13.29,1.09
		c0.92,1.73,0.69,7.65-0.35,9.15c-0.86,1.27-1.09,1.27-13.23,1.27H524v8.8c0,6.1-0.23,9.03-0.69,9.49
		C522.38,5353.61,513.52,5353.61,512.6,5352.69z"/>
	<path class="st0" d="M589.59,5335.19c-10.36-1.84-15.82-4.43-21.92-10.59c-5.01-5.06-8.29-10.93-10.42-18.7
		c-1.09-4.09-1.27-6.1-1.27-18.7c-0.06-12.77,0.06-14.56,1.21-19.1c1.5-5.75,4.83-12.72,8.06-16.75
		c7.31-9.03,17.38-13.23,31.82-13.12c13,0.06,20.89,2.99,28.48,10.65c8.92,8.98,12.37,19.62,12.37,38.04
		c0,12.72-1.44,20.08-5.52,28.43c-4.66,9.44-12.72,15.94-23.54,18.82C605.53,5335.02,592.64,5335.77,589.59,5335.19z
		 M603.12,5324.32c10.88-2.3,17.72-8.57,21.41-19.51c1.5-4.49,1.55-5.12,1.61-17.61c0-14.04-0.4-16.8-3.51-23.36
		c-3.22-6.79-11.11-13-18.53-14.56c-4.26-0.86-11.22-0.75-15.59,0.23c-10.65,2.53-18.3,11.22-20.54,23.31
		c-1.21,6.33-0.86,26.18,0.52,31.02C573.02,5319.48,586.95,5327.71,603.12,5324.32z"/>
	<path class="st0" d="M684.77,5333.81c-5.01-1.32-11.97-4.72-16.75-8.29c-1.96-1.44-3.68-2.42-3.8-2.19
		c-0.17,0.23-0.46,1.96-0.69,3.8c-0.75,6.1-0.69,6.1-6.21,6.1c-2.93,0-5.06-0.29-5.47-0.69c-0.52-0.52-0.69-11.51-0.69-45.98
		c0-40.45,0.12-45.4,0.92-46.21c1.15-1.21,10.13-1.32,11.05-0.17c0.4,0.46,0.69,10.65,0.86,30.04c0.17,25.84,0.35,29.75,1.21,32.74
		c3.4,11.51,11.68,19.33,22.15,21c7.31,1.15,16.05-1.27,21.23-5.93c1.27-1.15,3.22-3.86,4.37-6.04c3.91-7.42,3.91-7.88,4.2-41.49
		c0.23-22.1,0.46-30.33,0.92-30.61c0.4-0.23,2.82-0.46,5.41-0.46c3.51,0,4.95,0.23,5.58,0.92c0.81,0.81,0.92,4.26,0.92,29.46
		c0,28.02-0.29,33.03-2.01,40.11c-3.05,12.26-12.95,22.44-23.82,24.46C699.16,5335.31,689.37,5335.02,684.77,5333.81z"/>
	<path class="st0" d="M396.6,5333.47c-0.81-0.81-0.92-5.81-0.92-46.78c0-53.17-0.75-47.82,6.5-47.82c7.37,0,6.73-2.93,6.73,32.4
		c0,31.36,0.23,34.35,2.65,39.07c1.44,2.82,5.29,6.67,8.57,8.52c5.58,3.22,8.98,4.03,16.51,4.03c6.04,0,6.91,0.11,7.94,1.15
		c1.44,1.44,1.61,7.14,0.23,9.09c-0.81,1.15-1.32,1.27-7.08,1.27c-9.61,0-18.93-2.99-25.38-8.06c-1.96-1.55-3.45-2.19-3.45-1.5
		c0,1.61-1.96,8.75-2.47,9.09c-0.4,0.23-2.53,0.46-4.83,0.46C398.61,5334.39,397.23,5334.16,396.6,5333.47z"/>
	<path class="st0" d="M463.86,5307.11c-5.41-1.38-9.21-4.32-12.2-9.44l-1.61-2.7l-0.29-52.54c-0.17-28.83-0.52-52.54-0.75-52.54
		c-0.46-0.06-7.94,4.95-24.17,16.11c-9.26,6.39-12.54,7.77-18.53,7.77c-5.98-0.06-10.13-1.61-14.33-5.47
		c-3.63-3.28-5.18-6.73-5.18-11.16c0.06-6.44-0.58-5.64,26.7-34.53c5.01-5.29,35.22-37.63,39.42-42.24
		c4.32-4.66,11.85-9.84,18.24-12.43c4.09-1.67,5.93-1.84,6.44-0.52c0.52,1.32,0.4,7.88-0.17,8.75c-0.23,0.4-2.19,1.67-4.26,2.7
		c-7.31,3.74-9.61,5.87-27.16,24.74c-4.14,4.43-11.51,12.31-16.4,17.55c-4.89,5.24-12.31,13.12-16.4,17.55
		c-4.14,4.37-9.21,9.84-11.39,12.08c-2.13,2.19-4.03,4.66-4.26,5.41c-1.21,4.6,7.83,8.8,13.06,6.1c0.92-0.46,9.67-6.39,19.39-13.12
		c24.97-17.32,24.63-17.09,25.89-17.09c0.75,0,1.78,0.86,2.7,2.3l1.5,2.3v55.82c0,39.65,0.17,56.62,0.63,58.46
		c0.81,3.11,3.4,5.35,6.73,5.81c2.65,0.35,5.06-0.75,7.25-3.28l1.5-1.84v-48.74c0-37.12,0.17-48.91,0.69-49.43
		c0.4-0.4,2.42-0.69,5.12-0.69c3.51,0,4.49,0.17,4.78,0.92c0.17,0.52,0.35,8.34,0.35,17.38c0,15.36,0.06,16.63,1.15,18.36
		c2.3,3.8,8.17,4.89,11.45,2.13c3.22-2.65,3.22-2.7,3.51-21.23l0.29-17.26h4.89h4.89l0.29,10.65c0.29,11.39,0.46,12.08,3.51,14.62
		c3.34,2.82,9.49,1.55,11.51-2.36c0.58-1.15,0.86-4.66,1.09-12.26l0.29-10.65l4.83-0.17c3.51-0.11,5.01,0.06,5.29,0.58
		c0.29,0.4,0.52,2.24,0.52,4.14c0,4.03,1.38,6.67,4.26,8.06c3.86,1.84,8.06,0.69,10.13-2.7c1.09-1.78,1.15-3.17,1.15-40.74
		c0-29.46,0.17-39.01,0.69-39.53c0.81-0.81,8.4-0.92,9.55-0.23c0.58,0.4,0.69,8.63,0.58,41.03l-0.17,40.51l-1.55,2.88
		c-4.14,7.94-13.35,12.14-21.29,9.84c-1.78-0.52-3.34-0.92-3.51-0.92s-0.63,0.98-1.04,2.19c-0.35,1.15-1.44,3.22-2.3,4.55
		c-4.6,6.68-13.58,9.84-20.72,7.37c-1.32-0.52-2.65-0.69-2.82-0.46c-0.23,0.29-0.86,1.73-1.38,3.22c-1.32,3.45-5.75,8.06-9.38,9.72
		c-2.99,1.32-10.24,1.78-13.81,0.81l-1.84-0.46l-0.17,25.2l-0.17,25.26l-1.5,3.17c-2.13,4.55-4.66,7.19-8.75,9.15
		C472.44,5307.63,467.89,5308.15,463.86,5307.11z"/>
</g>
</svg>
