<?xml version="1.0" encoding="utf-8"?>
<!-- Generator: Adobe Illustrator 26.2.1, SVG Export Plug-In . SVG Version: 6.00 Build 0)  -->
<svg version="1.1" id="Layer_1" xmlns="http://www.w3.org/2000/svg" xmlns:xlink="http://www.w3.org/1999/xlink" x="0px" y="0px"
	 viewBox="0 0 216 234.4" style="enable-background:new 0 0 216 234.4;" xml:space="preserve">
<style type="text/css">
	.st0{fill:#C7D8ED;}
	.st1{fill:#F6F6FC;}
	.st2{fill:#ECF0FB;}
	.st3{fill:#D3E2F5;}
	.st4{fill:#B5E6FE;}
	.st5{fill:#B6E6FE;}
	.st6{fill:#5E6D7D;}
	.st7{fill:#627383;}
	.st8{fill:#3D4A56;}
	.st9{fill:#5A6978;}
	.st10{fill:#485563;}
	.st11{fill:#505E6C;}
	.st12{fill:#414D5A;}
	.st13{fill:#5D6C7B;}
	.st14{fill:#AFE2FD;}
	.st15{fill:#C8D8ED;}
	.st16{fill:#4C5967;}
	.st17{fill:#566473;}
	.st18{fill:#617080;}
	.st19{fill:#515F6E;}
	.st20{fill:#536170;}
	.st21{fill:#43505D;}
	.st22{fill:#5A6877;}
	.st23{fill:#44515F;}
	.st24{fill:#C8D9ED;}
	.st25{fill:#4A5765;}
	.st26{fill:#4C5968;}
	.st27{fill:#576675;}
	.st28{fill:#556473;}
	.st29{fill:#475563;}
	.st30{fill:#596777;}
	.st31{fill:#445260;}
	.st32{fill:#52606F;}
	.st33{fill:#4F5D6C;}
	.st34{fill:#4A5866;}
	.st35{fill:#4C5A68;}
	.st36{fill:#5A6A7A;}
	.st37{fill:#01BAF5;}
	.st38{fill:#00CEF7;}
	.st39{fill:#00D0F8;}
	.st40{fill:#00C4F7;}
	.st41{fill:#00BFF6;}
	.st42{fill:#00CBF9;}
	.st43{fill:#01C1FA;}
	.st44{fill:#00C1FA;}
	.st45{fill:#00CAF8;}
	.st46{fill:#01CAF8;}
	.st47{fill:#374551;}
	.st48{fill:#404C59;}
	.st49{fill:#414E5C;}
	.st50{fill:#3A4753;}
	.st51{fill:#505F6D;}
	.st52{fill:#475462;}
	.st53{fill:#495765;}
	.st54{fill:#E4EBFD;}
	.st55{fill:#AEDDFE;}
	.st56{fill:#536271;}
	.st57{fill:#ABDDFE;}
	.st58{fill:#5D6C7C;}
	.st59{fill:#5B6978;}
	.st60{fill:#00DFEC;}
	.st61{fill:#00CEF5;}
	.st62{fill:#00B6F8;}
	.st63{fill:#00E6F5;}
	.st64{fill:#5B6A79;}
	.st65{fill:#00C3FE;}
	.st66{fill:#00D7FE;}
	.st67{fill:#00D2FE;}
	.st68{fill:#00CFFE;}
	.st69{fill:#00CBFE;}
	.st70{fill:#00C8FE;}
	.st71{fill:#00D5FD;}
	.st72{fill:#00D9FB;}
	.st73{fill:#00CFFD;}
	.st74{fill:#00DBFC;}
	.st75{fill:#00AEEE;}
	.st76{fill:#00A8E8;}
	.st77{fill:#00CCFD;}
	.st78{fill:#00D8FE;}
	.st79{fill:#02E2F2;}
	.st80{fill:#00D3FE;}
	.st81{fill:#00C3FA;}
	.st82{fill:#02BDF8;}
	.st83{fill:#60707F;}
	.st84{fill:#627382;}
	.st85{fill:#00EBF6;}
	.st86{fill:#00DBF7;}
	.st87{fill:#01D5E7;}
	.st88{fill:#00DEFE;}
	.st89{fill:#00E2FE;}
	.st90{fill:#226989;}
	.st91{fill:#00E8FE;}
	.st92{fill:#00EDFE;}
	.st93{fill:#00E3FE;}
	.st94{fill:#00F2FD;}
	.st95{fill:#04B2C6;}
	.st96{fill:#00E5FE;}
	.st97{fill:#00ECFE;}
	.st98{fill:#00F0FE;}
	.st99{fill:#00F1FE;}
	.st100{fill:#00F4FD;}
	.st101{fill:#00F9FD;}
</style>
<g id="mAMdFk.tif">
	<g>
		<path class="st0" d="M184.5,232.4c-1.2,1.1-2.8,1.4-4.3,2c-0.8,0-1.5,0-2.3,0c-0.5-0.4-1.4-0.3-1.8-1c0.4-0.4,1-0.3,1.6-0.3
			c3.8,0,6.7-3.1,7.4-6.2c0.1-0.5,0.1-1,0.6-1.3c1.3-0.1,2.5,0.3,3.7,0.8c0.4,0.3,0.2,0.7,0,1c-1.2,1.7-2.5,3.3-4,4.6
			C185.2,232.3,184.8,232.2,184.5,232.4z"/>
		<path class="st1" d="M124.5,79.1c-3.9-0.2-7.8-0.5-11.7-0.9c-5.1-0.6-10-1.4-15-2.6c-4.8-1.1-9.6-2.7-14.1-4.8
			c-3.2-1.5-6.3-3.4-8.9-5.9c-3.7-3.6-5.8-8-5.7-13.3c0-0.9,0.4-1.8-0.3-2.7c-0.2-1.7,0.3-3.3,0.3-5c0.3-1.2,0-2.4,0.5-3.5
			c0.3-0.7,0.2-1.5,0.5-2.2c0.5-1,0.4-2.1,0.8-3c0.6-0.9,0.6-2.1,1-3c0.6-0.9,0.6-2.1,1.3-3.1c0.8-1,1-2.3,1.8-3.3
			c0.3-0.4,0.5-0.9,1-1.2c1.2-1.1,1.9-2.6,3-3.9c3.3-3.9,7.1-7.3,11.4-10C97,6.5,104.2,3.8,111.7,2c4-0.9,8.1-1.6,12.3-1.8
			c1.5-0.1,3-0.2,4.5-0.2c0.1,0.2,0,0.4-0.2,0.6c-3.8,4-5.5,9-7.1,14.1c-1.3,4.3-2.1,8.7-2.8,13.1c-0.2,1.1-0.6,1.7-1.8,1.7
			c-4,0.1-8-0.6-11.9-0.9c-4.6-0.4-9.2-1.1-13.8,0.2c-2.8,0.8-5.1,2.4-6.6,5c-2.4,4.4-3.6,8.9-1.2,13.7c1.3,2.4,3.4,3.9,5.7,5.1
			c1.7,0.9,3.5,1.6,5.4,2.1c1.5,0.5,3,0.8,4.6,1.1c1,0.2,2,0.4,3,0.5c1.4,0.2,2.8,0.4,4.2,0.5c0.4,0,0.9,0,1.3,0.1
			c0.5,0.2,1.1,0.2,1.7,0.2c1.3-0.1,2.6,0.3,3.9,0.2c1.1,0.1,2.2-0.3,3.3,0.4c1,1.3,0.6,2.8,0.8,4.3c0.6,4,1.4,8,3.2,11.6
			c0.9,1.8,2,3.3,3.5,4.6C124.2,78.3,124.6,78.5,124.5,79.1z"/>
		<path class="st1" d="M143.4,84.9c3.5,0.3,7,0.1,10.4,0.3c4.1,0.2,8.2,0.2,12.3,0.5c6,0.4,12,0.6,17.9,2.2c0.5,0.1,1-0.1,1.4,0.3
			c-1.7,0.6-3.4,1.3-4.7,2.6c-2.9,2.7-5.2,6-7.1,9.5c-3.8,7-6.3,14.4-7.2,22.2c-0.8,6.3-0.4,12.5,2.1,18.5c0.1,0.4,0.3,0.7,0.3,1.1
			c-1.6,5.4-3.4,10.7-5.6,15.8c-1.4,3.4-3,6.7-4.6,10c-0.3,0.5-0.5,1.1-1.2,1.2c-0.4-0.1-0.7-0.4-1-0.7c-4.6-5-10-9-15.2-13.3
			c-0.9-0.8-1.8-1.6-2.6-2.4c-1.1-1.1-1.6-2.5-1.3-4.1c0.7-3.6,2.3-6.8,3.9-10c2.1-4.5,4.4-8.8,6.4-13.4c1.1-2.6,1.7-5.3,1.3-8.1
			c-0.5-3.3-2.3-5.7-5.1-7.3c-2.3-1.3-4.8-2.1-7.4-2.5c-0.4-0.1-0.7-0.1-1.1-0.2c-0.9-0.1-1.1-0.7-0.9-1.5
			c1.6-7.1,4.4-13.6,8.3-19.7C142.8,85.4,143.1,85.1,143.4,84.9z"/>
		<path class="st1" d="M102.7,188.6c-1-1.5-1.6-3.2-2.3-4.9c-2.2-4.7-4.3-9.4-6.4-14.1c-0.2-0.5-0.9-0.5-0.9-1.1
			c-0.2-2.9,1.4-5.1,3.2-7c2.5-2.7,5.2-5.3,8.1-7.7c1.1-1,2.2-2,3-3.2c0.8-1,1-2.2,0.9-3.5c-0.4-2.8-1.5-5.3-2.7-7.8
			c-2-4.3-4-8.6-6.1-12.8c-1.5-2.9-2.4-6-2.2-9.4c0.2-2.6,1.2-4.7,3.3-6.3c2.7-2,5.8-2.8,9.1-3.3c4.9-0.7,9.9-0.5,14.8-0.5
			c4.9-0.1,9.9,0.1,14.7,1.4c1.7,0.4,3.3,1.1,4.8,2c3.3,2,4.9,5.7,4.4,9.6c-0.4,2.6-1.2,5-2.4,7.3c-2.6,5.4-5.5,10.6-7.9,16
			c-0.8,1.9-1.6,3.8-1.6,5.9c0,1.3,0.5,2.3,1.4,3.3c2.9,3.1,6.2,5.6,9.4,8.3c3.2,2.6,6.2,5.3,9,8.4c0.3,0.3,0.6,0.7,0.8,1.1
			c0,0.1,0.1,0.3,0,0.4c-1.2,3-2.9,5.8-4.6,8.6c-1.4,2.4-2.9,4.9-4.4,7.2c-0.3,0.5-0.6,1.1-1.4,1.1c-1.3-0.6-2.4-1.6-3.6-2.4
			c-4.7-3.2-10-5.2-15.7-5.7c-8.8-0.7-16.6,1.8-23.1,7.9C103.9,187.9,103.5,188.6,102.7,188.6z"/>
		<path class="st1" d="M92.6,166.3c-1.3-2.2-2.2-4.7-3.2-7.1c-2.1-4.8-4.3-9.5-6.3-14.4c-1.7-4.1-3.5-8.2-5-12.4
			c-0.3-0.8-0.6-1.5-0.9-2.2c-0.3-0.3-0.5-0.7-0.6-1.1c-2-6.1-3.4-12.4-3.2-18.9c0.1-5.2,1.1-10.2,4.4-14.4c1.3-1.7,2.8-3.2,4.6-4.5
			c0.1-0.1,0.2-0.1,0.3-0.2c0.7-0.3,1.5-0.7,2.2-1.2c3.7-1.7,7.5-2.9,11.4-3.5c2.9-0.5,5.7-0.7,8.6-0.8c1.3,0,2.7-0.3,4-0.2
			c1,1.5,1.4,3.3,1.9,5c1.3,4.5,2.5,9,3,13.6c0,0.4,0,0.8,0.1,1.1c0,0.9-0.4,1.4-1.3,1.4c-2.8,0.3-5.5,0.6-8.2,1.7
			c-2.2,0.9-4.3,1.9-5.8,3.9c-1.7,2.2-2.2,4.7-1.8,7.4c0.4,3.1,1.9,5.8,3.1,8.5c2.5,5.4,5.2,10.6,7.1,16.2c0.2,0.6,0.4,1.2,0.5,1.8
			c0.6,2.1-0.1,3.9-1.5,5.5c-1.5,1.6-3.3,3.1-4.9,4.5c-2,1.7-3.8,3.6-5.6,5.5c-1,1.1-1.9,2.4-2.3,3.9
			C93,165.8,92.8,166.1,92.6,166.3z"/>
		<path class="st1" d="M22.9,105.2c1.8-1.8,3.9-3.4,6.4-4.3c0.1,0,0.1-0.2,0.2-0.3c1,0.2,1.6,1.2,2.5,1.7c2,1.2,3.9,1.1,5.8-0.1
			c1.5,0.3,2.8,1,3.5,2.5c-0.3,1-1.1,1.8-1.3,2.9c-0.3,1.6-0.3,3.2,0.2,4.8c1,3.7,2.7,6.9,6,9.1c1.7,1.1,3.5,1.5,5.5,0.8
			c0.3-0.1,0.6-0.2,1-0.1c0.8,0.6,0.8,1.6,1,2.4c1.3,4.9,1.6,9.8,0.4,14.8c-1.6,6.6-5.8,11.1-11.9,13.9c-0.9,0.4-1.7,0.9-2.7,0.9
			c-7.6-3.6-12.5-9.7-15.8-17.3c-0.9-2.2-1.7-4.4-2.5-6.6c-0.1-0.6,0.3-1,0.6-1.4c0.4-0.6,0.8-1.3,1-2c0.3-1.4-0.2-2.4-1.3-3.3
			c-0.7-0.5-1.6-0.5-2.1-1.3c-0.5-3-0.2-6.1,0-9.1c0.3-0.5,0.8-0.5,1.3-0.6c2.8-0.8,3.7-2.8,2.7-5.5
			C23.2,106.4,22.6,105.9,22.9,105.2z"/>
		<path class="st1" d="M169.6,72.5c-3.2,1.4-6.6,2.2-9.9,3c-4.1,1-8.4,1.7-12.6,2.2c-2.9,0.4-5.9,0.6-8.9,0.8
			c-3.9,0.2-7.8,0.4-11.7,0.5c-1.5-0.5-2.6-1.4-3.6-2.7c-2.9-3.7-4-8.2-4.8-12.7c-0.2-1.2-0.4-2.4-0.5-3.6c-0.1-0.8-0.3-1.7,0.3-2.4
			c0.5-0.3,1-0.2,1.5-0.2c0.5,0,0.9,0,1.4,0c4.6,0.3,9.2,0.3,13.8,0.3c0.5,0,1.1,0,1.6-0.1c2.4-0.2,4.8-0.2,7.2-0.4
			c6.4-0.5,12.7-1.3,18.8-3.5c2.5-0.9,4.8-2,6.9-3.6c0.5-0.4,0.9-0.9,1.7-0.7c0.5,0.5,0.4,1.1,0.4,1.7c0.2,6.7-0.3,13.4-1.2,20
			C170,71.6,169.9,72.1,169.6,72.5z"/>
		<path class="st1" d="M130,0c4.2,0.3,8.3,0.5,12.5,1.2c4,0.7,8,1.5,12,2.6c0.2,0,0.3,0.2,0.4,0.2c4.6,5.9,8.4,12.2,11.2,19.1
			c0.5,1.4,1.1,2.7,1.5,4.2c0.1,0.5,0.5,1.1-0.2,1.5c-0.2,0.1-0.4,0.1-0.6,0c-1.3-0.6-2.7-0.6-4.1-0.8c-0.3,0-0.6-0.1-0.8-0.1
			c-1.9-0.2-3.8-0.2-5.8,0c-0.9,0.1-1.7,0.2-2.6,0.1c-2.2,0.1-4.5,0.3-6.7,0.5c-0.6,0-1.2,0-1.7,0.2c-0.6,0.1-1.2,0.1-1.7,0.1
			c-1.2-0.1-2.5,0.4-3.7,0.3c-0.7,0-1.3-0.1-1.9,0.2c-0.7,0.1-1.5,0.1-2.3,0.1c-2.1,0-4.2,0.4-6.2,0.2c-1.4,0-2.7,0-4.1,0
			c-1.4,0-2.8,0-4.2,0c-1.5,0-1.8-0.4-1.6-1.8c0.7-4.5,1.6-9,3-13.4c1.2-3.8,2.5-7.5,4.7-10.9C127.7,2,128.6,0.7,130,0z"/>
		<path class="st1" d="M176.2,184.5c1.7-6.2,3.3-12.5,5.8-18.5c2.2-5.3,4.6-10.4,8.9-14.4c3-2.7,6.8-3.2,9.9-1.1
			c3.3,7.2,5.2,14.7,6.4,22.4c0.8,5,1.2,10.1,1.2,15.2c0,3.8-0.2,7.6-0.8,11.3c-0.2,0.6-0.6,1-1.2,1c-0.8-0.2-0.6-0.9-0.6-1.5
			c-0.3-2.9-1-5.6-2.8-8c-3-4-7.9-4.7-11.9-1.6c-2.9,2.2-4.5,5.2-5.8,8.4c-0.2,0.5-0.2,1.1-0.9,1.2c-1.2-0.4-1.9-1.4-2.6-2.3
			c-2.8-3.5-4.7-7.4-5.3-11.9C176.4,184.8,176.3,184.7,176.2,184.5z"/>
		<path class="st2" d="M167.3,28.6c0.3-0.7-0.1-1.4-0.3-2c-2.2-6.4-5.2-12.3-9.1-17.8c-0.9-1.3-1.9-2.6-2.8-3.9
			c-0.2-0.2-0.5-0.5-0.2-0.9c6.4,2,12.2,5.2,17.4,9.4c3.8,3.2,7.2,6.9,10.2,10.8c0.1,0.2,0.1,0.3,0,0.5c-1.1,1.7-1.2,3.5-1.1,5.4
			c0,1.4,0.2,2.8,0.4,4.1c0.1,0.4,0.1,0.9,0.3,1.4c0.1,0.7,0.3,1.3,0.5,2c0.1,0.4,0.1,0.7,0.3,1.1c0.2,0.7,0.5,1.5,0.7,2.2
			c0.1,0.4,0.3,0.9,0.5,1.3c0.2,0.6,0.5,1.2,0.8,1.7c0.2,0.5,0.5,1,0.8,1.5c0.3,0.5,0.7,1.1,1.1,1.5c1,1.4,2.4,1.7,4,1.5
			c0.1,4.8-1.6,9.1-4.5,12.8c-4.2,5.5-10.1,8.8-16.5,11.1c0.3-3.3,0.7-6.6,1-9.8c0.4-3.9,0.3-7.8,0.3-11.7c0-0.5,0.2-1.1-0.3-1.5
			c-0.1-0.5,0.3-0.8,0.5-1.1c2.8-3.6,3.4-7.5,1.9-11.8c-0.8-2.3-1.9-4.4-3.7-6.1C168.8,29.6,167.6,29.7,167.3,28.6z"/>
		<path class="st1" d="M130.3,209.8c-4.4,1.4-8.5,0.8-12.5-1.5c-4.6-2.6-7.7-6.7-10.5-11c-1.1-1.7-2.1-3.3-3.1-5
			c0.6-1.6,1.9-2.7,3.2-3.7c4.6-3.7,10-5.3,15.9-5.5c4.9-0.2,9.5,0.6,13.9,2.6c2.8,1.3,5.4,2.8,7.4,5.1c0.2,0.6-0.2,1.1-0.5,1.5
			c-4,5.8-8.3,11.3-12.8,16.6C131.1,209.4,130.7,209.6,130.3,209.8z"/>
		<path class="st3" d="M168.6,142.2c-1.1-2.7-2-5.4-2.3-8.3c-0.4-3.2-0.5-6.4-0.2-9.7c0.4-5.2,1.6-10.3,3.4-15.2
			c2.4-6.6,5.5-12.8,10.6-17.9c0.2-0.2,0.5-0.4,0.8-0.6c1.9-0.4,3.8-0.5,5.6-0.3c1.8,0.1,3.6,0.7,5,1.8c0.2,0.2,0.3,0.3,0.5,0.5
			c-0.6,0.5-1.2,0.1-1.8,0c-0.9-0.2-1.7-0.3-2.6-0.1c-2.8,0.6-5,2.3-6.9,4.5c-4.4,5.3-6.7,11.7-8.3,18.3c-1.2,5-1.8,10.1-1.6,15.2
			c0.1,3.9,0.7,7.7,2.3,11.3c0.9,1.9,2,3.7,3.8,5c0.9-4.5,3.8-7.8,6.6-11.1c4.6-5.4,9.7-10.1,15.4-14.2c1.2-0.8,2.4-1.6,3.7-2.3
			c0.2-0.1,0.5-0.2,0.7-0.1c0.6,0.2,1.1,0.4,1.6,0.7c1.3,0.7,1.8,1.8,1.6,3.3c-0.5,3.1-2.4,5.6-4.3,7.9c-4.1,4.9-8.9,9.2-14.4,12.5
			c-0.3,0.2-0.8,0.4-1,0.8c-2,1.3-4.1,2.5-6.4,3.3c-1,0.4-1.7,0.9-2.2,1.9c-0.4,0.9-1,1.6-1.6,2.4c-0.3,0.2-0.6,0.1-0.8-0.1
			C172.6,149.2,170,146.2,168.6,142.2z"/>
		<path class="st1" d="M110,85.4c7.5,0.1,15-0.4,22.5-0.3c1.8,0,3.5,0,5.3,0c1.4,0,2.7-0.4,4.1-0.2c0.3,0.6-0.1,1-0.4,1.4
			c-3.7,5.9-6.4,12.1-7.9,18.9c-0.2,1-0.6,1.7-1.8,1.5c-4-0.4-7.9-0.1-11.9-0.2c-1.5,0-3,0-4.4,0c-0.9,0-1.3-0.4-1.3-1.3
			c-0.4-6.2-2.1-12-4-17.9C110.1,86.7,109.6,86.1,110,85.4z"/>
		<path class="st1" d="M189.6,226.6c-1.3-0.3-2.5-0.5-3.8-0.8c-2.7-0.6-4.6-2.1-6.1-4.3c-0.2-0.9-1-1.5-1.4-2.3
			c-0.7-1.3-1.3-2.7-1.9-4.1c-0.6-0.4-0.7-1-0.8-1.5c-0.7-2.7-1.2-5.5-1.3-8.3c0-0.9,0.1-1.7-0.1-2.6c-0.1-0.6-0.1-1.2-0.1-1.8
			c0.3-2.3,0-4.6,0.6-6.8c0.6-1.4,0.5-3,0.7-4.5c0.1-0.4,0-0.9,0.3-1.3c0.6,0,0.6,0.5,0.7,0.9c1.3,4.1,3.6,7.6,7,10.3
			c0.5,0.4,0.9,0.7,1.1,1.3c0,1.7-0.4,3.3-0.3,5c0.3,3.8,1.1,7.4,4,10.2c2.7,2.7,6.5,3.1,9.7,1.1c3.8-2.3,5.8-5.9,7.1-10
			c0.5-1.6,0.7-3.3,0.9-5c0-0.1,0.1-0.3,0.2-0.4c0.2-0.1,0.4-0.1,0.6-0.1c0.6,0.3,0.5,0.9,0.4,1.5c-1.2,6.7-3.1,13.2-6.1,19.3
			c-0.6,1.2-0.9,2.5-1.9,3.4c-1.2,0.6-2.5,0.6-3.8,0.9c-1.5,0.1-2.9,0.1-4.4,0.1C190.4,227,189.9,227,189.6,226.6z"/>
		<path class="st4" d="M110,85.4c1.6,4.8,3,9.5,3.9,14.5c0.3,1.7,0.7,3.4,0.6,5.1c0,1,0.3,1.2,1.2,1.2c3.9,0,7.8,0,11.7,0
			c1.5,0,2.9-0.1,4.4,0.2c0.8,0.2,1.3-0.1,1.4-0.9c1.5-7.4,4.4-14.1,8.6-20.3c0-0.1,0-0.2,0.1-0.2c0.5,0,1,0,1.5,0
			c-1.6,2.5-3.1,5.1-4.4,7.8c-1.9,4.2-3.5,8.5-4.5,13c-0.2,0.7-0.1,0.9,0.7,1c2.9,0.4,5.7,1.1,8.3,2.5c4,2.2,6,5.6,5.8,10.1
			c-0.1,2.8-1.1,5.4-2.3,8c-2.9,5.9-5.9,11.7-8.3,17.7c-0.7,1.7-1.4,3.4-1,5.3c0.2,1,0.8,1.8,1.6,2.5c5.7,5.2,12.1,9.5,17.3,15.1
			c0.3,0.3,0.6,0.7,0.9,1c0.2,0.1,0.4,0.3,0.3,0.5c-0.2,0.4-0.4,0.8-0.8,1c-3-3.5-6.4-6.5-10-9.4c-3.1-2.6-6.3-5.1-9.2-7.9
			c-1.7-1.7-1.9-3.6-1.5-5.7c0.4-2.2,1.4-4.3,2.4-6.4c2.3-4.8,4.8-9.5,7.1-14.3c1.2-2.4,2.1-4.9,2.2-7.6c0.3-4.7-2.1-8-6.8-9.8
			c-2.9-1.1-6-1.6-9.1-1.8c-5.6-0.5-11.2-0.2-16.8-0.2c-3.9,0-7.9,0.5-11.6,2c-3.1,1.3-5.6,3.3-6,6.9c-0.3,2.7,0,5.4,1.2,7.9
			c1.8,3.9,3.7,7.7,5.5,11.7c1.5,3.2,3,6.3,3.9,9.7c0.7,2.6,0.1,4.7-1.8,6.5c-2.4,2.3-4.9,4.5-7.3,6.8c-2.8,2.7-5.6,5.4-6.1,9.5
			c-0.2-0.7-0.6-1.4-0.5-2.2c0.4-2.3,1.7-4,3.2-5.6c2.9-3.2,6.3-5.9,9.5-8.9c1.9-1.8,2.4-3.9,1.6-6.4c-1-3.1-2.4-6.1-3.7-9.1
			c-2-4.6-4.5-9-6.2-13.7c-0.8-2.4-1.2-4.8-0.5-7.3c0.8-2.8,2.6-4.7,5.1-6.1c3.4-1.9,7-2.5,10.8-2.8c0.8-0.1,1.1-0.3,1.1-1.1
			c-0.2-3.6-1-7.1-1.9-10.5c-0.7-2.7-1.4-5.4-2.4-8.1c-0.1-0.3-0.2-0.7-0.2-1.1C109.2,85.4,109.6,85.4,110,85.4z"/>
		<path class="st2" d="M39.4,154.1c1.8-1.1,3.9-1.8,5.7-2.9c5.1-3.4,8.2-8.1,9-14.2c0.7-5.1,0.2-10-1.5-14.9c0,0,0-0.1,0-0.1
			c1.2-1.6,1.8-3.5,2.3-5.5c2.3,2.9,3.2,6.5,4.3,9.9c0.9,2.8,1.7,5.7,1.9,8.7c0.4,5.3,0.5,10.6-2.8,15.3c-2.5,3.5-5.9,5.2-10.1,5.4
			C45,156,42.1,155.3,39.4,154.1z"/>
		<path class="st2" d="M157.7,169.5c-0.1-0.2-0.2-0.3-0.3-0.5c0.4-0.2,0.7-0.6,0.9-1c3-6.3,5.8-12.6,8-19.1c0.8-2.2,1.5-4.5,2.2-6.7
			c1.2,2,2.2,4.1,3.8,5.9c1.3,1.4,2.5,2.9,4.3,3.8c-1.3,2.7-2.9,5.3-4.5,7.9c-3.2,5.4-6.5,10.8-9.9,16.1c-0.2,0.2-0.3,0.5-0.6,0.6
			c-0.3-0.1-0.4-0.3-0.5-0.5c-0.7-2.2-1.9-4-3.3-5.8C157.8,169.9,157.7,169.8,157.7,169.5z"/>
		<path class="st3" d="M31.7,102.4c-1-0.3-1.6-1.1-2.3-1.8c-3.7-4.8-5.8-10.3-7-16.1c-0.3-1.3-0.2-2.7,0-4c0.4-2.7,2.6-3.8,5.5-2.7
			c5.2,4.4,8.6,9.9,8.7,17c0,2.2-0.5,4.4-1.9,6.2C34,101.8,33.1,102.8,31.7,102.4z"/>
		<path class="st2" d="M207.3,199.7c0.2-3.1,0.5-6.2,0.7-9.3c0.1-1.8,0.2-3.6-0.1-5.4c-0.3-1.7-0.1-3.4-0.3-5.1
			c-0.4-4.6-1.2-9.2-2.2-13.7c-1.1-5.1-2.7-10-4.7-14.8c-0.1-0.3-0.4-0.5,0-0.8c2.8,1.7,4.4,4.4,5.8,7.1c3,5.6,4.6,11.8,5.8,18
			c0.9,4.6,1.6,9.3,1.8,14c0,0.6,0.3,1.2,0.2,1.9c-0.1,0.3-0.2-0.4-0.4,0.1c-1.1,3.1-3.2,5.5-5.5,7.7
			C208.1,199.7,207.8,200,207.3,199.7z"/>
		<path class="st3" d="M16.8,112.8c-3.3-1.3-6.5-2.8-9.2-5.1c-2.8-2.3-5.1-5-5.9-8.7C1.1,96.4,2,94.2,4,93.5c1.3-0.4,2.6-0.4,3.9,0
			c2.3,1.6,4.7,3.1,6.9,4.9c2.1,1.8,4.1,3.7,5.2,6.3c1.2,2.8,0.6,5.3-1.9,7.2C17.7,112.2,17.3,112.5,16.8,112.8z"/>
		<path class="st3" d="M144.5,191.1c-2.5-2.5-5.5-4.2-8.7-5.6c-4.5-1.9-9.3-2.4-14.1-2c-6.1,0.5-11.7,2.6-16.1,7.2
			c-0.5,0.5-0.7,1.3-1.4,1.6c-0.5-1.3-1.5-2.3-1.5-3.8c2.1-1.8,4.1-3.8,6.5-5.2c3.6-2.1,7.4-3.4,11.5-4c6.6-0.8,12.9,0.4,18.8,3.4
			c2.6,1.3,5,3,7.3,4.8c1.8,0.9,3.1,2.4,4.3,4.1c-0.8,1.2-1.7,2.4-2.5,3.5c-0.4,0.3-0.7,0-1-0.2
			C146.6,193.6,145.4,192.5,144.5,191.1z"/>
		<path class="st2" d="M199,225.8c3.9-7.1,6.3-14.8,7.8-22.8c0.1-0.4,0.2-0.8-0.2-1c-0.1-0.5,0.3-0.6,0.6-0.8
			c2.7-1.9,4.8-4.2,6.4-7.1c0.2-0.3,0.3-0.7,0.8-0.7c0,3.1,0.2,6.2,0,9.3c-0.4,5.8-1.5,11.4-5,16.2c-0.9,1.2-1.9,2.2-2.8,3.3
			c-0.6,0.6-1.3,1-2,1.5c-1.4,0.9-2.9,1.5-4.5,2C199.7,225.9,199.3,226.1,199,225.8z"/>
		<path class="st1" d="M72.8,128.7c-2.3-1-4.6-1.9-6.7-3.3c-4-2.7-5-6.3-3.6-11c1.4-4.4,3.9-8.2,6.6-11.9c3.5-4.8,7.8-8.6,12.8-11.5
			c0.3-0.2,0.6-0.2,0.9-0.4c0.2,0.3-0.1,0.4-0.3,0.5l0,0c-6.9,5.2-10.9,12-11.9,20.6c-0.6,5.2,0.3,10.1,1.8,15
			C72.8,127.4,73.3,128.1,72.8,128.7z"/>
		<path class="st3" d="M45.9,121.6c-3.7-2.6-5.6-6.3-6.4-10.7c-0.4-2.3,0-4.4,1.5-6.2c0.3-0.5,0.6-0.9,1.3-0.8
			c3.7-1.5,7.1,0.7,8.9,3.1c0.9,1.9,1.8,3.9,2.2,6c0.8,4.2-0.8,6.9-4.9,8.2C47.7,121.4,46.8,121.7,45.9,121.6z"/>
		<path class="st2" d="M187.3,92.2c1.3-0.6,2.5-0.1,3.7,0.1c0.3,0,0.6,0.1,0.8,0.2c5.3,2.3,8.9,6.5,12.1,11.1
			c2.9,4.1,5.3,8.4,7,13.1c0.2,0.5,0.4,0.9,0.4,1.5c0,0-0.1,0.1-0.1,0c-2.6-1.2-5-0.2-7.4,0.9c-0.2,0.1-0.4,0.1-0.6,0.1
			c-0.2,0.1-0.3,0.2-0.5,0.2c-0.6-1-0.8-2.1-1.2-3.2c-2.3-7.3-5.5-14.1-9.8-20.4c-0.5-0.7-1.2-1.3-1.6-2.1
			C189.5,92.6,188.2,92.8,187.3,92.2z"/>
		<path class="st3" d="M174.6,194.1c0,1.8,0.1,3.6-0.2,5.5c-0.1,0.4,0,0.9,0,1.4c-0.4,3.3-1.1,6.4-2.8,9.3c-2.3,4-5.6,6.6-10.2,7.6
			c-1.5,0.3-2.8-0.3-4.3-0.2c-0.6-1.2-0.2-2.4,0.4-3.5c1.4-2.9,3.5-5.2,5.5-7.6C166.8,202.3,170.7,198.2,174.6,194.1z"/>
		<path class="st3" d="M20.1,130.8c-4.4,3.2-11.5,3.9-16,0.5c-2.2-1.7-3.1-4.7-1.2-6.3c3.2-1.9,6.6-2.7,10.3-2
			c2.8,0.5,4.8,2.2,6,4.8C19.5,128.7,20,129.7,20.1,130.8z"/>
		<path class="st2" d="M151.1,191.6c-1.4-1.4-2.9-2.7-4.3-4.1c1.4-1.2,2.1-2.9,3.1-4.4c2.4-3.9,4.8-7.8,6.8-11.9
			c0.1-0.1,0.2-0.3,0.3-0.4c0.5-0.1,0.8,0.3,1,0.6c1.1,1.6,2.1,3.2,2.8,5c0.2,0.5,0.3,1,0,1.4c-0.8,2-2.2,3.5-3.4,5.2
			C155.3,186,153.2,188.8,151.1,191.6z"/>
		<path class="st2" d="M72.8,128.7c-0.6-2.5-1.4-4.8-1.9-7.3c-1.6-9-0.1-17.3,5.6-24.6c1.7-2.2,3.6-4.3,6.2-5.6c-1,1-2.1,2-3.1,3
			c-3.2,3.2-4.8,7.1-5.5,11.5c-1.2,7,0.1,13.8,1.9,20.5c0.4,1.4,0.8,2.7,1.2,4.1C75.7,129.8,74.2,129.2,72.8,128.7z"/>
		<path class="st0" d="M157.2,217.7c0.1-0.5,0.3-0.5,0.7-0.4c5.2,1.3,8.9-1.4,12-5c2.4-2.8,3.3-6.2,4-9.6c0.1-0.6,0.1-1.2,0.5-1.6
			c0,0.6,0,1.2,0,1.8c0.3,0.8-0.1,1.7,0.2,2.5c0.1,3.4,0.8,6.7,1.8,9.9c-3.8,1.9-7.6,3.7-11.9,4.4c-2.2,0.4-4.3,0.6-6.3-0.7
			C157.7,218.6,157.4,218.2,157.2,217.7z"/>
		<path class="st2" d="M144.5,191.1c1.2,0.9,2.1,2.1,3,3.3c0.3,0.4,0.5,0.8,1,0.8c-1.7,2-3.4,4.2-5.3,6.1c-3.6,3.7-7.6,6.9-12.6,8.6
			c-0.1,0-0.3,0-0.4,0c4.7-5.7,9.3-11.4,13.5-17.4C144.1,192,144.5,191.6,144.5,191.1z"/>
		<path class="st3" d="M179.7,221.5c1.8,1.8,3.7,3.3,6.1,4.3c-0.5,1.5-0.8,3-1.9,4.4c-1.8,2.3-4.1,3.3-7,3.2c-0.3,0-0.5,0-0.8,0
			c-2-1.6-2.4-3-1.3-5.4C176,225.5,177.8,223.5,179.7,221.5z"/>
		<path class="st0" d="M203.3,119.1c2-1.2,4-2,6.4-1.8c0.7,0.1,1.1,0.6,1.7,0.8c1,2.1,0.5,4.1-0.8,5.9c-2.3,3.6-5.5,6.5-8.7,9.2
			c-4.1,3.5-8.4,6.6-12.9,9.5c-0.7,0.5-1.5,0.9-2.3,1.4c-0.3-0.5,0.2-0.4,0.4-0.6c4.9-3.2,9.3-6.9,13.2-11.2c2-2.1,3.7-4.4,5-7
			c0.5-0.9,0.7-1.9,0.8-2.9c0.1-1.1-0.4-1.9-1.4-2.5C204.3,119.7,203.6,119.8,203.3,119.1z"/>
		<path class="st0" d="M31.7,102.4c2.7-0.4,3.9-3.1,4.3-5.5c0.9-5.5-0.9-10.2-4.1-14.5c-1.2-1.6-2.3-3.2-4-4.3
			c-0.1-0.1-0.1-0.2,0-0.3c2.5,0.9,4.2,2.8,5.8,4.8C37.4,87.4,39,93,39.5,99c0.1,0.9-0.4,1.6-0.7,2.4c-0.1,0.6-0.5,0.9-1,1
			C35.7,103.8,33.4,103.8,31.7,102.4z"/>
		<path class="st0" d="M16.8,112.8c0-0.6,0.6-0.8,0.9-1c2.7-1.7,3.4-4.7,1.6-7.8c-1.2-2.1-3-3.8-4.8-5.3c-2-1.7-4.2-3.3-6.5-4.6
			c-0.2-0.1-0.2-0.2-0.2-0.5c2.5,0.5,4.6,1.9,6.6,3.3c3.2,2.4,6.2,5,8.4,8.3c0.3,0.8,0.8,1.6,1,2.4c0.9,2.7-0.9,4.5-3.3,5.2
			c-0.4,0.1-0.9,0.2-1.4,0.3C18.5,113.1,17.6,112.9,16.8,112.8z"/>
		<path class="st0" d="M20.1,130.8c-0.4-0.2-0.4-0.5-0.6-0.9c-1.6-5-4.1-6.6-8.5-6.9c-2.2-0.2-4.5,0.5-6.6,1.4
			c-0.5,0.2-1.1,0.4-1.7,0.6c1.5-1.9,3.7-2.4,5.9-2.8c3.5-0.7,7.1-0.8,10.6,0c0.3,0.1,0.7,0.3,1,0.4c3,1.3,3.6,3.8,1.7,6.4
			c-0.3,0.4-0.6,0.9-1,1.3C20.7,130.2,20.5,130.6,20.1,130.8z"/>
		<path class="st5" d="M130,0c-5.7,5.9-7.5,13.5-9.3,21.1c-0.5,2.1-0.8,4.3-1.2,6.4c-0.3,1.4-0.1,1.6,1.2,1.6c1.3,0,2.7,0,4,0.1
			c0,0.2,0,0.3-0.2,0.4c-0.9,0.3-1.9,0.1-2.9,0.2c-1.3,0.1-2.6-0.1-3.9-0.1c-0.4,0-0.9,0.1-1-0.5c0.9,0,1.2-0.4,1.3-1.4
			c1.1-7.5,2.7-14.9,6-21.8c1.1-2.3,2.4-4.4,4.4-6.1C129,0,129.5,0,130,0z"/>
		<path class="st3" d="M189.6,226.6c1.9,0,3.9,0,5.8,0c0.4,0.5,0,1-0.3,1.4c-1.8,3-4.4,4.7-7.8,5.2c-1,0-1.9-0.5-2.8-0.8
			C186.5,230.7,188.2,228.8,189.6,226.6z"/>
		<path class="st0" d="M45.9,121.6c0.6-0.5,1.3-0.4,2-0.6c4.5-1.3,6.1-4,5-8.7c-0.4-1.5-0.9-3-1.5-4.4c-0.1-0.3-0.6-0.6-0.1-1
			c2.2,2.8,3.3,6.1,3.6,9.6c0,2.2-0.7,4.1-2.3,5.6C50.2,123.3,48,123.2,45.9,121.6z"/>
		<path class="st5" d="M117.9,57.8c0.1,5,1,9.8,3,14.4c1.2,2.8,3,5.2,5.7,6.8c-0.7,0-1.3,0-2,0c-4.6-3.5-6-8.7-7.1-14
			c-0.5-2.4-0.6-4.9-1-7.4C116.9,57.4,117.4,57.4,117.9,57.8z"/>
		<path class="st3" d="M200,225.6c1.6-0.5,3.1-1.3,4.6-2c0.3,0.3,0.2,0.7,0,1.1c-1.1,2.4-2.5,4.7-5.1,5.8c-1.5,0.8-3.1,1.6-4.8,0.5
			c-0.1-0.5,0.3-0.7,0.6-0.9C197,228.7,198.4,227,200,225.6z"/>
		<path class="st5" d="M184.3,200.7c-4.2-3.2-7.1-7.4-8.6-12.5c0.2-1.3,0.3-2.5,0.5-3.8c0.3,0.1,0.4,0.4,0.5,0.7
			c0.8,4.1,2.4,7.9,5,11.2c0.8,1,1.6,1.8,2.6,2.6c0.2,0.2,0.6,0.1,0.6,0.5c-0.1,0.4-0.3,0.8-0.5,1.2
			C184.4,200.7,184.3,200.7,184.3,200.7z"/>
		<path class="st6" d="M181.5,34.5c-0.4-1.4-0.6-2.9-0.5-4.4c1.4-1.2,2.9-2.3,4.4-3.3c0.5-0.3,1-0.7,1.6-0.5
			c0.6,0.7,1.1,1.4,1.3,2.3c-0.2,0.5-0.5,0.7-0.9,1c-1.6,1.1-3.1,2.3-4.8,3.3C182,33.3,181.9,34,181.5,34.5z"/>
		<path class="st7" d="M187.1,26.4c-1.9,0.6-3.1,2.3-4.8,3.2c-0.4,0.2-0.7,0.5-1.2,0.6c-0.1-2.1,0-4.1,1.5-5.8
			C184.3,23.4,185.5,24,187.1,26.4z"/>
		<path class="st0" d="M200,225.6c-0.8,1.6-2.4,2.6-3.6,3.9c-0.5,0.5-1.1,0.9-1.7,1.4c-2.2,1.5-4.6,2.5-7.3,2.3
			c1.6-0.7,3.4-1.1,4.8-2.3c1.5-1.2,2.7-2.5,3.3-4.3c1.2-0.3,2.4-0.5,3.5-0.8C199.3,225.7,199.6,225.6,200,225.6z"/>
		<path class="st8" d="M190.6,48.6c-1.8,0.7-2.9,0.4-4.3-1.5c-0.3-0.5,0-0.7,0.3-0.9c1.5-1,2.9-2.2,4.4-3.1c0.3-0.2,0.7-0.4,1.1-0.2
			C192.3,44.9,192.1,46.9,190.6,48.6z"/>
		<path class="st9" d="M181.5,34.5c-0.2-0.9,0.3-1.4,1-1.9c2-1.3,3.9-2.7,5.9-4c0.4,0.7,0.9,1.2,1,2c-1.3,1.3-2.9,2.1-4.3,3.2
			c-0.7,0.5-1.5,1-2.2,1.5c-0.3,0.2-0.6,0.6-1.1,0.4C181.4,35.4,181.5,34.9,181.5,34.5z"/>
		<path class="st10" d="M184.5,44.1c-0.4-0.5-0.7-1.1-0.8-1.7c-0.1-0.9,0.7-1.3,1.3-1.7c1.7-1.2,3.4-2.2,5-3.5
			c0.4-0.3,0.8-0.6,1.4-0.4c0.3,0.8,0.5,1.7,0.5,2.5c-2.4,1.1-4.4,2.8-6.5,4.3C185.1,43.8,184.9,44.1,184.5,44.1z"/>
		<path class="st11" d="M183.2,41.1c-0.4-0.7-0.7-1.5-0.8-2.3c-0.2-0.3,0.1-0.5,0.3-0.6c2.1-1.5,4.1-2.9,6.2-4.3
			c0.4-0.3,0.8-0.7,1.4-0.5c0.3,0.5,0.5,1,0.5,1.5c-0.6,1.1-1.7,1.7-2.7,2.4C186.5,38.5,184.7,39.6,183.2,41.1z"/>
		<path class="st12" d="M192.1,42.8c-2.1,0.9-3.6,2.6-5.6,3.7c-0.1,0.1-0.2,0.4-0.3,0.5c-0.4-0.4-0.8-0.9-1-1.5
			c-0.4-0.7,0-1.1,0.5-1.5c1.7-1.3,3.5-2.4,5.2-3.7c0.8-0.6,1,0,1.1,0.6C192.1,41.6,192.1,42.2,192.1,42.8z"/>
		<path class="st13" d="M75.4,25.9c-0.6,1.1-1.1,2.2-1.7,3.3c-1.4,1.1-2.9,2.1-4.3,3.2c-0.4,0.3-0.9,0.8-1.5,0.4
			c0.3-1.3,0.8-2.5,1.4-3.6c1.6-1.1,3.1-2.3,4.8-3.3C74.4,25.6,74.9,24.9,75.4,25.9z"/>
		<path class="st14" d="M214.4,193.4c-1.4,2.4-2.9,4.6-5,6.4c-0.9,0.8-2,1.4-2.9,2.2c-0.2,0-0.3,0-0.5,0c-0.4-0.3-0.3-0.7-0.2-1.2
			c0.1-0.2,0.3-0.3,0.5-0.4c0.4-0.2,0.8-0.3,1-0.8c1.8-1.1,3.1-2.7,4.3-4.3c0.9-1.2,1.6-2.5,2.1-3.9c0.4-1.1,0.4,0.2,0.6,0.1
			C214.4,192.2,214.4,192.8,214.4,193.4z"/>
		<path class="st15" d="M191.4,92c-2.6-1.2-5.3-1.7-8.1-1.5c-0.8,0-1.7,0.7-2.5,0c1.4-1.2,2.8-2.3,4.8-2.3
			C187.9,88.9,189.9,90.1,191.4,92z"/>
		<path class="st16" d="M183.2,41.1c-0.1-0.7,0.5-1.1,0.9-1.4c2.3-1.6,4.6-3.1,6.7-4.8c0.3,0.6,0.4,1.2,0.5,1.8
			c-2.6,1.9-5.5,3.2-7.6,5.7C183.4,42,183.3,41.6,183.2,41.1z"/>
		<path class="st17" d="M181.7,35.7c2.4-1.6,4.8-3.3,7.2-4.9c0.1-0.1,0.3-0.1,0.5-0.1c0.3,0.5,0.5,0.9,0.5,1.5
			c-1.9,1.4-3.8,2.8-5.7,4.1c-0.7,0.5-1.4,1-2,1.6C181.9,37.2,181.7,36.5,181.7,35.7z"/>
		<path class="st18" d="M75.4,25.9c-0.4-0.5-0.7-0.2-1,0.1c-1.2,0.8-2.4,1.6-3.6,2.5c-0.5,0.4-1,0.6-1.6,0.7
			c0.8-1.8,1.7-3.5,3.3-4.7c1.3-1,2.3-0.9,3.6,0.1C76,25.1,75.7,25.5,75.4,25.9z"/>
		<path class="st19" d="M71.3,35.3c-0.4,1-0.3,2.1-0.8,3c-1,0.9-2.1,1.5-3.2,2.4c-0.4,0.3-0.8,0.6-1.4,0.4C65.9,40,66.1,39,66.4,38
			c1.1-1.2,2.5-1.9,3.8-2.9C70.5,34.9,71,34.4,71.3,35.3z"/>
		<path class="st20" d="M182.2,37.8c0-1.1,1-1.3,1.6-1.7c1.7-1.1,3.3-2.4,4.9-3.5c0.4-0.3,0.7-0.5,1.1-0.4c0.2,0.4,0.3,0.8,0.5,1.3
			c-2.3,1.4-4.5,2.9-6.5,4.5c-0.4,0.3-1.1,0.3-1.3,0.9C182.2,38.5,182.2,38.2,182.2,37.8z"/>
		<path class="st21" d="M69.5,43.9c-0.1,1.5-0.2,2.9-0.2,4.4c0,0.3-0.1,0.5-0.3,0.6c-1.8-0.3-2.4-0.9-2.7-2.7
			c-0.3-0.7-0.1-1.2,0.5-1.6c0.6-0.4,1.2-0.9,1.9-1.2C69.1,43.1,69.7,42.9,69.5,43.9z"/>
		<path class="st22" d="M67.8,32.7c0.7,0,1.2-0.5,1.7-0.9c1.4-0.9,2.5-2.2,4.1-2.6c-0.8,0.9-0.6,2.1-1.3,3c-1.2,0.9-2.4,1.8-3.7,2.6
			c-0.5,0.3-1,0.6-1.6,0.4C67.1,34.3,67.4,33.5,67.8,32.7z"/>
		<path class="st23" d="M192.1,41c-0.3-0.2-0.2-1.1-0.9-0.4c-1.6,1.5-3.5,2.5-5.2,3.7c-0.4,0.3-0.8,0.7-0.7,1.2
			c-0.4-0.4-0.6-0.9-0.8-1.5c1-1.4,2.6-2.1,3.9-3.1c0.8-0.6,1.6-1.3,2.5-1.7c0.3-0.1,0.6-0.3,0.9-0.1
			C191.9,39.9,192.2,40.4,192.1,41z"/>
		<path class="st17" d="M67,35.2c1.8-0.5,3-2,4.6-2.8c0.2-0.1,0.5-0.2,0.7-0.3c-0.5,1-0.5,2.1-1,3.1c-0.6-0.5-0.9,0.1-1.3,0.3
			c-1.2,0.8-2.3,1.8-3.6,2.4C66.5,37,66.6,36.1,67,35.2z"/>
		<path class="st14" d="M160.7,177.9c-0.5-2.8-2-5-3.8-7.1c0-0.1,0-0.2,0-0.3c0.2-0.4,0.3-0.8,0.8-1c1.9,1.9,3.2,4.3,4,6.9
			C161.6,177,161.3,177.5,160.7,177.9z"/>
		<path class="st24" d="M199.5,230.4c2.1-1.4,3.7-3.4,4.7-5.7c0.2-0.4,0.4-0.7,0.3-1.2c0.6-0.5,1.2-1.1,2-1.3
			C205.9,226,202.8,229.7,199.5,230.4z"/>
		<path class="st25" d="M69.5,43.9c-0.1-0.3-0.2-0.7-0.5-0.5c-0.9,0.6-2,1.1-2.7,2c-0.1,0.2-0.1,0.5-0.1,0.7
			c-0.4-0.6-0.3-1.3-0.3-1.9c-0.4-1.2,0-2,1.1-2.5c0.6-0.3,1.2-0.8,1.8-1.2c0.4-0.2,0.8-0.6,1.2-0.2C69.6,41.5,70,42.8,69.5,43.9z"
			/>
		<path class="st26" d="M70.1,40.3c-1.5,0.5-2.6,1.6-3.9,2.4c-0.5,0.3-0.1,1-0.3,1.5c-0.3-1.1-0.1-2.1,0-3.1
			c1.2-0.5,2.2-1.5,3.3-2.2c0.4-0.2,0.7-0.5,1.2-0.6C70.1,38.9,70.5,39.7,70.1,40.3z"/>
		<path class="st2" d="M37.8,102.4c0.3-0.3,0.7-0.7,1-1c1,1.1,2.6,1.4,3.6,2.5c-0.4,0.3-0.8,0.5-1.3,0.8
			C40.3,103.6,39.1,102.9,37.8,102.4z"/>
		<path class="st2" d="M82.7,91.2c0.1-0.2,0.2-0.3,0.3-0.5c0.6-0.2,1.1-0.7,1.8-0.8C84.2,90.6,83.4,90.9,82.7,91.2z"/>
		<path class="st27" d="M116.9,29.2c1.6,0.1,3.2,0.1,4.8,0.2c0.8,0.4,1.7,0.3,2.6,0.2c1.8-0.1,3.6,0,5.4-0.1
			c1.2-0.1,2.3,0.3,3.5,0.4c1.3,0.2,1.6,1.5,1,2.6c-0.9,1.8-2.5,2.7-4,3.7c-1.1,0.8-2.1,1.7-3.1,2.5c-1.4,1.2-3,2.1-4.5,3.2
			c-1.4,0.2-2.8,0.2-4.2,0c-0.8-0.9,0-1.3,0.5-1.7c1.5-1.1,3.1-2.1,4.5-3.3c0.7-0.6,1.5-1.1,2.2-1.6c1.1-0.7,2.1-1.6,2.7-2.9
			c0.6-1.2,0.3-1.9-1-2.1c-0.7-0.1-1.4,0-2.1,0c-1.4,0-2.9,0-4.3,0c-4-0.1-8-0.6-12.1-0.9c-4.8-0.5-9.6-1.2-14.5-0.8
			c-0.1,0.1-0.3,0.1-0.4,0.1c-0.5,0.1-1.1,0-1.6,0.2c-1,0.4-2.2,0.4-3.2,1c-1.4,0.8-2.7,1.9-3.8,3.1c-0.3,0.2-0.4,0.6-0.8,0.8
			c-0.3,0.2-0.6,0.2-0.5-0.3c1.7-3.2,4.5-4.8,7.9-5.5c4.3-0.9,8.6-0.3,12.8,0.1C108.9,28.6,112.9,29.2,116.9,29.2z"/>
		<path class="st28" d="M94.3,54.8c-1.9-0.5-3.8-1.2-5.5-2.2c-0.3-0.7,0.2-0.6,0.6-0.6c1.6,0,3.2,0.2,4.8,0.3c2.5,0.1,5,0.2,7.5-0.5
			c2.5-0.7,4.9-1.6,7.3-2.4c0.6-0.2,1.2-0.6,1.7-1c1.1-0.8,2.2-1.6,3.2-2.4c1.1-0.9,2.3-1.4,3.7-1.2c0.8,0,1.5-0.1,2.2,0.2
			c0.5,0.6,0.1,0.9-0.3,1.2c-1.7,1.3-3.3,2.7-5.1,3.8c-1.4,0.9-3.1,1.4-4.7,2c-2.7,0.9-5.5,1.7-8.3,2.2c-2.1,0.4-4.2,0.4-6.3,0.5
			C94.9,54.7,94.6,54.7,94.3,54.8z"/>
		<path class="st29" d="M113.1,57.5c-1.3-0.1-2.7-0.2-4-0.3c-0.1-0.1-0.1-0.2-0.1-0.4c0.3-0.7,0.9-0.7,1.5-0.8
			c3.5-0.6,6.8-1.8,10.2-2.8c1.4-0.4,3-0.9,4.2-1.9c0.2-0.1,0.4-0.3,0.6-0.3c2.1-0.1,3.4-1.6,4.9-2.7c1.6-1.2,3.2-2.4,4.8-3.7
			c1.6-0.3,3.1-0.6,4.7-0.2c0.7,0.9-0.3,1.2-0.7,1.5c-1.9,1.4-3.8,2.8-5.7,4.2c-0.9,0.7-1.8,1.5-3.1,1.4c-0.2,0-0.4,0.1-0.6,0.2
			c-3.7,2.5-8.2,3.1-12.3,4.7c-1.1,0.4-2.2,0.7-3.4,0.7C113.6,57.1,113.3,57.2,113.1,57.5z"/>
		<path class="st30" d="M117.4,45.1c-2.2-0.4-3.6,1.2-4.9,2.3c-1.9,1.7-4.2,2.8-6.5,3.6c-2.8,1-5.8,2-8.9,1.9
			c-2.2-0.1-4.4,0-6.6-0.4c-0.4-0.1-1.3-0.6-1.7,0.2c-2.3-1.2-4.4-2.6-5.6-4.9c-0.1-0.3,0.1-0.4,0.3-0.3c0.4,0.1,0.7,0.4,1,0.7
			c2,2.1,4.5,3,7.4,3c1.2,0,2.3,0.4,3.5,0.2c0.6-0.1,1.2-0.1,1.8-0.2c0.5-0.1,0.9-0.4,1.4-0.4c1.4-0.2,2.8-0.5,4.2-0.9
			c3.1-0.9,5.5-2.9,7.9-4.8c0.6-0.5,1.3-0.5,2-0.6c1.6,0.1,3.1-0.2,4.7,0.2C117.4,44.8,117.5,44.9,117.4,45.1z"/>
		<path class="st31" d="M113.1,57.5c-0.3-0.5,0.2-0.6,0.5-0.6c2.7-0.1,5.1-1.3,7.7-1.9c1.3-0.3,2.4-0.9,3.7-1.3
			c0.8-0.2,1.4-0.7,2.3-0.6c0.9,0,1.2-0.9,1.9-1.2c0.3-0.1,0.5-0.5,0.7-0.5c2.7,0.3,3.9-2,5.7-3.2c1.5-1,3.2-1.9,4.4-3.5
			c0.1-0.4,0.4-0.5,0.8-0.5c1.2,0,2.3-0.3,3.5-0.2c0.7,0.4,0.1,0.7-0.1,0.9c-1.2,1.3-2.7,2.3-4.2,3.2c-1.5,1-2.9,2.2-4.3,3.3
			c-1.2,0.2-2.5,0.3-3.3,1.5c0,0.1-0.1,0.1-0.2,0.1c-2.5,0.4-4.6,1.8-7,2.5c-2.1,0.6-4.3,1-6.3,1.8c0.2,0.1,0.6,0,0.6,0.5
			c-0.5,0-1,0-1.5,0.1c-0.5,0-1,0-1.5,0C115.3,57.7,114.2,57.6,113.1,57.5z"/>
		<path class="st32" d="M94.3,54.8c1-0.8,2.1-0.6,3.2-0.6c1.5-0.1,3-0.4,4.4-0.6c1.8-0.2,3.5-0.8,5.2-1.2c1.6-0.4,3.2-1.3,4.8-1.8
			c3-0.9,5-3.4,7.6-4.9c0.2-0.1,0.3-0.4,0.3-0.6c1.3-0.7,2.7-0.3,4-0.3c0.8,0.6,0.1,1-0.2,1.3c-0.8,0.9-1.9,1.4-2.8,2.2
			c-0.6,0.5-1.2,0.9-1.8,1.4c-1.8,1.5-4,2-6.1,2.8c-2.3,0.9-4.6,1.7-7.1,2.1c-2.1,0.4-4.2,0.9-6.3,1c-0.3,0-0.5,0.1-0.7,0.3
			C97.3,55.7,95.8,55.4,94.3,54.8z"/>
		<path class="st33" d="M98.9,56c0.1-0.5,0.4-0.7,0.8-0.7c2.4,0,4.7-0.6,7.1-1.1c1.9-0.4,3.7-1.3,5.5-1.7c1.6-0.4,2.8-1.6,4.5-1.6
			c0.7,0,1.2-0.7,1.8-1.1c1.9-1.5,4-2.7,5.7-4.6c0.1-0.2,0.3-0.3,0.6-0.3c0.8-0.1,1.6,0,2.4,0c0.3,0,0.7,0,1,0.2
			c0.5,0.6,0,1-0.4,1.4c-2.1,1.5-4.2,3-6.2,4.6c-0.3,0.3-0.7,0.4-1.2,0.4c-0.3,0-0.6,0-0.9,0.2c-5.5,2.9-11.4,4.1-17.5,4.9
			c0,0-0.1,0-0.1,0.1C100.9,56.3,99.9,56.1,98.9,56z"/>
		<path class="st34" d="M134.9,44.9c-0.5,1.1-1.7,1.6-2.5,2.3c-1.3,1.1-2.7,2-4,3c-0.7,0.5-1.4,1.1-2.4,1c-0.3,0-0.6,0.1-0.8,0.3
			c-1.6,1.2-3.5,1.8-5.4,2.4c-2.5,0.7-4.9,1.4-7.4,2.1c-0.8,0.2-1.6,0.4-2.5,0.5c-0.4,0.1-0.6,0.2-0.8,0.5c-0.5,0.2-1.1,0.2-1.6,0
			c-0.4,0-0.8,0-1.2-0.1c-0.2-0.1-0.6-0.1-0.5-0.4c0.1-0.4,0.4-0.5,0.7-0.6c1.3-0.4,2.7-0.6,4.1-0.9c1.8-0.4,3.5-1,5.2-1.5
			c1.4-0.4,2.8-0.9,4.1-1.5c2.3-1,4.9-1.7,6.8-3.6c1.4-1.4,3.3-2.4,4.8-3.7C132.6,44.4,133.7,44.2,134.9,44.9z"/>
		<path class="st35" d="M131.3,45.1c-1,1.4-2.5,2.1-3.8,3c-0.8,0.5-1.5,1.2-2.2,1.8c-1.5,1.3-3.4,1.6-5,2.3c-2.3,1-4.8,1.9-7.4,2.6
			c-2.1,0.6-4.3,1-6.4,1.5c-0.6,0.1-0.8,0.3-0.3,0.7c-1.4-0.1-2.9-0.2-4.3-0.5c0.3-0.8,1.1-0.5,1.6-0.6c3.2-0.2,6.3-1.3,9.4-2
			c1-0.2,2.1-0.9,3-1c1.9-0.2,3-2,4.9-1.8c0.3,0,0.7-0.3,1-0.5c1.7-1.6,3.8-2.9,5.7-4.3c0.4-0.3,0.6-0.7,0.8-1.1
			C129.3,44.5,130.3,44.6,131.3,45.1z"/>
		<path class="st36" d="M95.6,51.7c-2.8-0.2-5.6,0-8.3-1.2c-1.3-0.6-2.3-1.4-3.3-2.3c-0.2-0.2-0.4-0.8-0.9-0.5
			c-1.6-2.2-1.8-4.8-1.4-7.3c0.3-2.4,1-4.7,2.4-6.8c0.8,0.4,0.5-0.7,1.1-0.7c0.4,0.5,0.1,0.9-0.2,1.2c-1,1.6-1.9,3.3-2.1,5.2
			c-0.4,2.9,0.7,5.5,2.6,7.7c1.5,1.7,3.2,2.7,5.5,2.9c1,0.1,2.2,0,3.2,0.5C94.4,51.2,95.5,50.9,95.6,51.7z"/>
		<path class="st35" d="M107.4,57c0.5,0,1.1,0,1.6,0c0,0.1,0,0.1,0,0.2C108.5,57.3,107.9,57.3,107.4,57z"/>
		<path class="st37" d="M99.9,117c0.1-2.2,1.3-3.7,3-4.8c2.1-1.4,4.5-2,6.9-2.2c8.3-0.6,16.6-0.6,24.9,0c2.5,0.2,4.9,0.7,7.2,1.9
			c3.4,1.8,4.7,4.7,3.8,8.5c-0.1,0.3-0.1,0.7-0.2,1c-0.7-0.2-0.5-0.8-0.4-1.3c0.1-1.2,0.3-2.5-0.3-3.6c-1.1-2.6-3.4-3.7-5.9-4.5
			c-2.4-0.7-4.8-0.9-7.2-1.1c-4.4-0.4-8.7-0.1-13.1-0.2c-4.3,0-8.6,0.2-12.7,1.5c-2.2,0.7-4,1.8-4.8,4.1c-0.6,1.2-0.5,2.4-0.3,3.7
			c0.1,0.4,0.7,1.2-0.5,1.2c-0.3-0.6-0.4-1.3-0.3-2C99.7,118.5,99.7,117.8,99.9,117z"/>
		<path class="st38" d="M111.8,145.5c-3-5-5.4-10.2-7.8-15.5c0.2-0.3-0.1-0.5,0-0.8c0-0.1,0.1-0.2,0.1-0.3c0.2-0.2,0.4-0.3,0.6-0.3
			c0.4,0.1,0.6,0.4,0.9,0.6c0.6,1,0.6,2.3,1.5,3.2c0.2,0.4,0.4,0.8,0.6,1.1c1.3,3.7,3,7.2,5.3,10.5c0.7,1,1.5,2,2,3.1
			c0.3,0.8,1.4,1.2,1.2,2.3c-0.6,0.3-0.9-0.3-1.2-0.6C113.7,147.9,113,146.5,111.8,145.5z"/>
		<path class="st39" d="M138.6,135.8c-1.4,2.9-3,5.7-4.7,8.4c-0.4,0.1-0.7,0.5-0.9,0.8c-1,1.7-2.4,3-3.9,4.3
			c-0.4,0.2-0.7,0.6-1.3,0.5c-0.3-0.4,0.2-0.8,0.1-1.2c1.1-1.4,2.5-2.6,3.5-4.1c0.6-1.3,1.8-2.2,2.5-3.5c1.4-2.2,2.4-4.5,3.5-6.8
			c0.5-1,0.7-2.1,1.3-3c0.4-0.6,0.7-1.2,1.3-1.6c0.2-0.1,0.4,0,0.5,0.1c0.2,1.7-0.7,3-1.3,4.5C139,134.8,138.7,135.2,138.6,135.8z"
			/>
		<path class="st40" d="M116.4,152.5c-1.1-1.2-2.1-2.5-2.8-4c0.5-0.3,0.5-0.3,0.9,0c0.6,0.5,1.2,1,1.8,1.6c3.7,3.5,8,3.3,11.7,0.2
			c0.3-0.3,0.6-0.6,1-0.7c0.4-0.1,0.6-0.5,1-0.6c0.3-0.1,0.7-0.3,0.7,0.3c-1,1.2-1.7,2.6-3,3.6c-1.6,0.7-3.2,1.3-4.9,1.4
			c-2,0.1-3.8-0.3-5.5-1.4C116.9,152.7,116.7,152.6,116.4,152.5z"/>
		<path class="st41" d="M116.4,152.5c0.2-0.7,0.5-0.2,0.7-0.1c3.1,2.1,6.2,1.9,9.5,0.5c0.3-0.1,0.6-0.6,1,0c-1.5,1.5-3,2.8-5.4,2.8
			C119.5,155.7,117.8,154.5,116.4,152.5z"/>
		<path class="st42" d="M129,149.8c-0.9,0.7-1.7,1.4-2.7,2c-2.2,1.4-4.6,1.6-7.1,0.7c-1.9-0.7-3.2-2.1-4.7-3.3
			c-0.3-0.3-0.4-0.8-1-0.6c-0.7-0.9-1.3-1.9-1.8-3c0.3-0.4,0.4-0.1,0.6,0.1c1.2,1.3,2.2,2.8,3.7,3.9c0.5-0.2,0.8,0.2,1.1,0.5
			c2.9,2.5,6.4,2.6,9.5,0.3c0.3-0.3,0.7-0.5,1.1-0.6c0.4-0.2,0.8-0.3,1.3-0.5C129.2,149.4,129.2,149.6,129,149.8z"/>
		<path class="st43" d="M104.2,129.2c0,0.3,0,0.6-0.2,0.8c-1.4-2.9-2.9-5.7-3.8-8.9c0.6-0.5,0.2-1,0.1-1.5c-0.2-1.2-0.2-2.4,0.4-3.5
			c0.5,0.4,0.5,1,0.5,1.5c0,1.6,0.5,3.1,1.3,4.4C103.1,124.4,103.7,126.8,104.2,129.2z"/>
		<path class="st44" d="M145,116.3c0.8,1.2,0.5,2.5,0.4,3.8c-0.1,0.5-0.3,0.9,0.1,1.3c-0.5,2.4-1.6,4.5-2.8,6.6
			c-0.8-0.1-0.8-0.6-0.5-1.1c0.2-0.5,0.4-1,0.4-1.5c0.3-1,0.2-2.1,0.7-3.1c0.8-1.3,1.2-2.8,1.1-4.3
			C144.4,117.3,144.1,116.6,145,116.3z"/>
		<path class="st45" d="M142.7,125.4c0.2,0.5,0,1-0.3,1.4c-0.4,0.5-0.3,0.8,0.2,1.1c-1.2,2.7-2.5,5.3-4.1,7.9
			c-0.3-1.2,0.6-2.1,0.9-3.1c0.3-1,0.7-2,0.9-3c-0.4-0.6,0.1-1.1,0.2-1.6c0.4-0.9,0.7-1.8,1.3-2.6
			C142.2,125.4,142.5,125.3,142.7,125.4z"/>
		<path class="st46" d="M129,149.8c0-0.2,0-0.3,0-0.5c1.3-1.6,3-2.8,3.9-4.7c0.1-0.3,0.5-0.6,0.9-0.3c-1,1.7-2,3.5-3.3,5
			C129.8,148.7,129.7,150,129,149.8z"/>
		<path class="st43" d="M99.9,117c0,0.7,0,1.4,0,2.1C99.6,118.5,99.6,117.8,99.9,117z"/>
		<path class="st47" d="M169.4,30.1c4.6,4.1,7.2,13.4,1.1,19.3c-3.9,3.4-8.5,5-13.4,6.2c-6.8,1.6-13.7,2.2-20.7,2.2
			c-0.8,0.2-1.6,0-2.4,0.1c-0.6-0.5,0-0.7,0.3-0.8c0.6-0.3,1.3-0.5,2-0.7c4.5-1.1,9.1-1.7,13.7-2.3c5.7-0.7,11.4-1.9,16.4-5
			c2.6-1.6,4.6-3.8,5.6-6.8c1.2-3.6,0.2-6.8-1.7-9.9c-0.4-0.6-0.8-1.1-1.2-1.7C169.1,30.6,168.7,30.1,169.4,30.1z"/>
		<path class="st48" d="M133.9,57.8c0.9,0,1.7,0,2.6,0.1c-4.2,0.4-8.3,0.2-12.5,0.1c-1.1,0-2.2-0.1-3.3-0.2c0.1-0.6,0.6-0.6,1-0.7
			c2-0.4,3.9-1.2,5.8-1.8c1.4-0.4,2.8-0.8,4-1.2c1.7-0.6,3.5-1.1,5.1-2.1c0.9-0.6,1.8-1.2,3-1.3c0.5,0,0.9-0.2,1.3-0.5
			c2.7-2,5.4-3.9,8.1-5.9c0.3-0.3,0.6-0.6,0.9-0.9c1.8-0.5,3.7-0.9,5.6-0.7c0.6,0.5,0.2,1-0.2,1.2c-1.9,1.1-3.3,2.9-5.3,3.8
			c-0.4,0.2-0.6,0.5-0.9,0.8c-1.4,1.3-2.9,2.3-4.8,2.5c-0.8,0.1-1.4,0.6-2,1c-1,0.7-2.1,1.3-3.4,1.3c-0.2,0-0.4,0-0.5,0.1
			c-1.4,1.5-3.6,0.9-5.2,2c-0.9,0.7-2.3,0.7-3.5,1c-1.3,0.3-2.5,0.9-3.8,1c1.2,0.1,2.5,0,3.7,0c1,0,2-0.1,3,0
			C133,57.4,133.5,57.4,133.9,57.8z"/>
		<path class="st49" d="M149.8,43.6c-0.1,0.9-1,1.1-1.5,1.6c-2.3,1.8-4.8,3.5-7.1,5.2c-0.1,0-0.1,0.2-0.2,0.2
			c-2.2,0.2-3.9,1.7-5.9,2.5c-0.9,0.3-1.9,0.4-2.6,1.2c-0.1,0.1-0.2,0.2-0.3,0.2c-1.5-0.3-2.6,1-4,1c-0.9,0-1.6,0.6-2.4,0.9
			c-1.6,0.6-3.4,0.8-5,1.5c-0.4,0-0.9,0-1.3,0c-0.4-0.5-1.2,0.1-1.7-0.5c1.8-0.4,3.4-1.3,5.2-1.2c0.2,0,0.4,0,0.6-0.2
			c1.2-1.1,2.8-0.9,4.2-1.5c0.6-0.3,1.3-0.2,1.7-0.9c0-0.1,0.1-0.2,0.2-0.2c2.3,0.2,3.7-2.6,6.1-2.1c3.7-1.4,6.6-4.2,9.7-6.5
			c0.6-0.5,1.2-0.9,1.9-1.1C148.1,43.4,149,42.9,149.8,43.6z"/>
		<path class="st50" d="M133.9,57.8c-1.5,0-3,0-4.6,0c0.4-0.9,1.2-0.9,1.9-1.2c2.4-0.9,5-1.3,7.5-2.3c1.3-0.5,2.7-0.5,3.8-1.5
			c0.3-0.2,0.6-0.2,1-0.2c1.1,0.1,2.2-0.2,3.1-0.9c2-1.5,4.4-1.7,6.8-2.2c3.8-0.7,7.5-1.7,10.9-3.6c2.1-1.2,3.7-2.9,4.3-5.3
			c0.3-1.2,0-2.4-0.2-3.6c-0.1-0.5,0-0.9,0.4-1.3c1.1-1.1,0.6-2.5,0.5-3.6c0-0.9-0.8-1.8-1.7-2.4c-0.5-0.3-1-0.6-0.7-1.3
			c0.2,0,0.3,0,0.5,0.1c0.7,0.5,1.6,0.8,2.1,1.5c0,1,0.9,1.6,1.4,2.3c3.5,5.5,2.8,11.7-2.7,16c-4,3.1-8.7,4.4-13.6,5.4
			c-3.8,0.8-7.6,1.1-11.4,1.6c-1.2,0.1-2.5,0.3-3.6,0.8c-1.3,0.6-2.9,0.4-4.2,0.9C134.7,57.3,134.2,57.4,133.9,57.8z"/>
		<path class="st12" d="M162.1,27.6c0.2,0,0.5,0,0.7,0c0.4,0.3,0.7,0.5,1.2,0.5c1.3,0,2.2,0.9,3.1,1.6c0.6,0.5,0.7,1.9,0.2,2.7
			c-0.3,0.4-0.5,0.8-0.5,1.4c0,0.6-0.4,0.9-0.8,1.2c-2.4,1.8-4.9,3.6-7.4,5.3c-0.4,0.3-0.7,0.6-1.1,0.9c-0.6,0.2-1.2,0.1-1.8,0.3
			c-0.7,0.1-1.4,0.1-2.2,0.1c-0.9-0.1-1.8,0.1-2.7-0.1c-1-0.8-0.1-1.2,0.4-1.6c1.3-1.1,2.8-2,4.1-3.1c1.8-1.5,3.8-2.7,5.7-4.1
			c1.1-0.8,1.3-2,1.5-3c0.2-1-0.8-0.9-1.5-1c-0.3,0-0.6,0-0.9-0.1c-0.5-0.2-0.9-0.1-1.4-0.1c-0.4,0-0.8,0-0.9-0.5
			c0-0.4,0.2-0.5,0.6-0.5C159.6,27.6,160.9,27.4,162.1,27.6z"/>
		<path class="st51" d="M129,29.2c2.1-0.1,4.2-0.2,6.3-0.3c0.6,0.4,1.4,0.3,2,0.2c2.6-0.4,5.2-0.3,7.8,0c0.5,0,1.1-0.1,1.4,0.4
			c0.3,0.6-0.1,1.2-0.3,1.8c-1,2.1-3,3.2-4.7,4.6c-2.7,2-5.5,3.9-8.2,5.9c-0.2,0.2-0.4,0.3-0.7,0.4c-1.6,0.1-3.2,0.2-4.8,0
			c-0.6-0.5-0.1-0.8,0.2-1.1c0.5-0.5,1.1-0.9,1.7-1.3c2.5-1.8,4.9-3.8,7.6-5.5c1-0.6,1.5-1.6,2-2.6c0.3-0.7,0.1-1.1-0.6-1.3
			c-0.5-0.1-1.1-0.2-1.6-0.2c-2.4,0.1-4.7-0.2-7.1-0.2c-0.3,0-0.5,0-0.7-0.2C129,29.4,129,29.3,129,29.2z"/>
		<path class="st52" d="M146.5,28.2c2.3-0.2,4.6-0.3,6.8-0.5c0,0.4-0.3,0.3-0.5,0.3c1.2,0.2,2.5,0.1,3.7,0c0.6,0,1.2,0.2,1.9,0.3
			c0.8,0.1,1.4,0.8,1.1,1.5c-0.5,1.1-0.9,2.3-2,3.1c-3.9,3.1-8.1,5.8-11.9,8.9c-0.8,0.2-1.5,0.1-2.3,0.1c-0.5,0-1,0-1.4-0.2
			c-0.6-0.7,0-1.1,0.4-1.4c1.4-1.3,3-2.3,4.5-3.4c2-1.4,4-2.9,6-4.4c0.9-0.7,1.3-1.7,1.8-2.7c0.3-0.8-0.3-0.8-0.8-0.8
			c-2.1,0-4.1,0-6.2-0.3c-0.3,0-0.7,0-1-0.2C146.5,28.4,146.5,28.3,146.5,28.2z"/>
		<path class="st26" d="M132.8,41.8c1-1.2,2.4-1.9,3.7-2.8c2.8-2,5.7-3.9,8.2-6.2c0.7-0.6,0.9-1.6,1.5-2.3c0.3-0.4,0.4-1.2-0.7-1.1
			c-1.9,0-3.8-0.2-5.8-0.2c-1.1,0-2.2,0.1-3.2,0.2c-0.5,0-0.8,0-1.1-0.4c0.7,0,1.5,0,2.2-0.1c0.6-0.2,1.2,0,1.8-0.2
			c1.3-0.1,2.5-0.2,3.8-0.3c0.5-0.1-0.6,0.3,0.1,0.3c1.8-0.1,3.6-0.2,5.4,0c0.4,0.1,0.8,0.1,1.3,0.1c1.4,0,1.5,0.3,1,1.7
			c-0.9,2.1-2.6,3.4-4.4,4.6c-3,2-5.8,4.2-8.7,6.3c-0.3,0.2-0.6,0.6-1.1,0.7C135.5,42.1,134.1,42.5,132.8,41.8z"/>
		<path class="st53" d="M137.1,41.8c1.3-1.3,2.8-2.3,4.3-3.4c2.5-1.8,4.9-3.6,7.4-5.4c1.1-0.8,1.5-2.2,2.1-3.3
			c0.3-0.5,0.2-0.7-0.5-0.7c-2.6,0.1-5.3,0-7.9-0.2c0.2-0.1,0.5-0.2,0.7-0.4c0.6,0,1.1,0,1.7-0.1c0.5-0.1,1.1-0.2,1.6,0
			c2.5,0.1,5,0.4,7.5,0.3c1.2,0,1.3,0.4,0.9,1.5c-0.7,1.9-2.4,3-3.9,4.1c-2.9,2.1-5.9,4-8.6,6.3c-0.3,0.3-0.7,0.5-0.7,1
			c-0.8,0.7-1.8,0.2-2.6,0.5C138.4,42.2,137.7,42.4,137.1,41.8z"/>
		<path class="st8" d="M157.7,41c0.3-1.3,1.7-1.5,2.5-2.1c1.9-1.5,3.9-2.8,5.9-4.3c0.1-0.1,0.4-0.2,0.4-0.3
			c-0.3-1.4,1.4-2.5,0.8-3.8c-0.5-1.1-1.7-1.8-3-2c-0.6-0.1-1.3-0.1-1.5-0.9c1.4,0.3,2.8,0.2,4.1,0.9c0.1,0.5,0.4,0.8,0.9,1
			c1.5,0.9,1.5,2.4,1.9,3.9c0.5,1.7-1,2.3-1,3.6c-1.2,0.3-2.1,0.9-3,1.7c-0.7,0.6-1.6,1.1-1.2,2.2c-2,0.3-3.9,0.4-5.9,0.4
			C158.1,41.4,157.9,41.3,157.7,41z"/>
		<path class="st23" d="M156.7,28.1c-1.1,0.5-2.2,0.2-3.4,0.2c-0.1,0-0.5,0-0.4-0.3c0-0.1,0.3-0.2,0.5-0.3c2.9-0.2,5.8-0.6,8.7-0.1
			c-1.1,0-2.1,0-3.2,0c-0.4,0-0.9-0.1-1,0.5C157.5,28.3,157.1,28.3,156.7,28.1z"/>
		<path class="st27" d="M129,29.2c0,0.1,0,0.1,0,0.2c-1.5,0.4-2.9,0.4-4.4,0c0-0.1,0.1-0.1,0.1-0.2C126.2,29.2,127.6,29.2,129,29.2z
			"/>
		<path class="st51" d="M139.4,28.7c-0.6,0.4-1.2,0.2-1.8,0.2C138.2,28.6,138.8,28.7,139.4,28.7z"/>
		<path class="st26" d="M146.5,28.4c-0.5,0-1.1,0-1.6,0c0.5-0.2,1.1-0.2,1.6-0.2C146.5,28.2,146.5,28.3,146.5,28.4z"/>
		<path class="st54" d="M206.3,200.5c-0.1,0.1-0.2,0.2-0.3,0.3c-1.1,0.9-2.1,1.9-3.7,1.4c-0.4-1.2-0.1-2.5-0.5-3.7
			c-0.1-1-0.5-1.8-0.9-2.7c-0.5-1-1-1.9-1.9-2.6c-3-2.4-6.2-0.8-8.1,1.6c-1.2,1.5-2.1,3.2-2.6,5.2c-0.1,0.3-0.2,0.6-0.4,0.9
			c-0.5,0.6-1.1,0.3-1.6,0c-0.6-0.4-1.3-0.6-1.6-1.3c-0.2-0.2-0.3-0.3-0.5-0.5c0.9-0.9,1-2.1,1.5-3.2c1.8-3.7,4.1-6.8,8.1-8.2
			c4-1.4,8.1,0.6,10.3,4.7c1.2,2.3,1.8,4.7,1.9,7.2C206.1,199.9,206,200.2,206.3,200.5z"/>
		<path class="st1" d="M187.3,92.2c2.5-0.5,3.4,1.5,4.5,3c3.8,5.3,6.6,11.2,8.9,17.3c0.8,2.2,1.6,4.5,2.1,6.8
			c-3.7,2.1-7,4.8-10.2,7.6c-2.1,1.8-4,3.7-5.9,5.7c-3.1,3.2-6,6.7-8.3,10.6c-0.7,1.2-1.2,2.6-0.9,4.2c-1-0.4-1.7-0.9-2.3-1.6
			c-2.5-2.9-3.6-6.4-4.3-10.1c-0.5-3.1-0.7-6.2-0.5-9.3c0.5-7.3,1.9-14.4,4.9-21.1c1.4-3.2,3.1-6.2,5.4-8.8
			C182.4,94.3,184.5,92.7,187.3,92.2z"/>
		<path class="st54" d="M206.1,202.2c-0.4,6-2.4,11.2-7.4,14.8c-4.4,3.1-9.5,2.1-12.3-2.5c-2.7-4.3-3.2-8.9-2.1-13.8c0,0,0,0,0,0
			c1.9,0.2,3.3,1.3,3.4,2.9c0,0.7-0.1,1.5,0.1,2.2c0.1,0.6,0.1,1.3,0.3,1.9c0.2,1.1,0.6,2.2,1.2,3.2c0.5,0.9,1.3,1.7,2.1,2.3
			c2.2,1.2,4.4,1,6.3-0.7c1.1-0.9,2-2,2.6-3.4c1.1-1.7,1.3-3.6,1.8-5.4c0.1-0.2,0.2-0.3,0.4-0.4C203.7,203,204.7,202.1,206.1,202.2z
			"/>
		<path class="st55" d="M206.1,202.2c-1.2,0.4-2.3,1.1-3.6,1.3c-0.4-0.4-0.4-0.9,0-1.3c1.3-0.2,2.3-1,3.5-1.5c0,0.4,0,0.9,0,1.3
			C206.1,202.1,206.1,202.2,206.1,202.2z"/>
		<path class="st3" d="M174.6,205.3c-0.5-0.8-0.1-1.7-0.2-2.5C174.9,203.5,174.5,204.4,174.6,205.3z"/>
		<path class="st56" d="M124.7,29.4c1.5,0,2.9,0,4.4,0c0.5,0.3,1.1,0.2,1.7,0.3c2.6,0.1,5.1-0.2,7.7,0.2c1.4,0.2,1.4,0.9,0.9,2.1
			c-1.2,2.7-4,3.5-5.9,5.2c-1.5,1.4-3.4,2.5-5,3.7c-0.3,0.2-0.6,0.6-0.8,0.9c-0.4,0.4-0.9,0.3-1.3,0.5c-0.3,0.1-0.7,0.1-1,0
			c-0.8-0.3-1.7,0.1-2.5-0.5c0.5-1,1.6-1.7,2.5-2.1c1.9-0.8,2.9-2.7,4.6-3.6c0.6-0.3,1.3-0.9,1.8-1.2c1.5-0.6,1.6-2.3,2.8-3
			c0.3-0.2,0-0.4-0.1-0.6c-0.3-0.6-0.6-1.1-1.4-1.2c-3.2-0.5-6.5-0.2-9.8-0.3c-0.6,0-1.1,0-1.5-0.5
			C122.7,29.4,123.7,29.4,124.7,29.4z"/>
		<path class="st57" d="M187.3,203.5c0.1-0.9-0.3-1.4-1.1-1.8c-0.7-0.3-1.3-0.7-1.9-1.1c0-0.5-0.1-1,0.5-1.3
			c0.6,0.4,1.2,0.8,1.8,1.1c0.4,0.2,0.8,0.5,1.2,0.1c0.4,0.7,0,1.5,0.1,2.2C187.8,203.2,187.7,203.5,187.3,203.5z"/>
		<path class="st58" d="M94.1,50.7c-1-0.2-2.1-0.4-3.1-0.4c-2.8-0.1-4.6-1.7-6.2-3.6c-1.4-1.6-1.9-3.6-2.3-5.5
			c-0.2-1.2,0-2.4,0.5-3.4c0.6-1.4,0.9-3,2.1-4.1c0.1-0.1,0.1-0.5,0.2-0.7c1.8-2.3,4.2-3.7,7.1-4.1c0.5-0.3,1.1,0.1,1.5-0.3
			c0.1,0,0.2,0,0.3,0c2.1-0.2,4.2-0.1,6.2-0.1c-0.2,0.7-0.2,0.8-1.1,0.7c-2.8-0.2-5.4,0.1-8.1,0.7c-2.2,0.5-3.6,2-4.7,3.7
			c-1.3,2.1-2,4.4-1.8,7c0.2,3.7,2.8,7.3,6.6,7.8c1.7,0.3,3.3-0.1,4.9-0.4c2.9-0.5,4.8-2.2,6.9-3.9c0.4-0.3,0.9-0.5,1.4-0.6
			c1.6,0.1,3.1,0,4.6,0.6c0.1,0.2,0.1,0.3-0.1,0.4c-2.2,0.7-3.8,2.5-5.6,3.7c-0.7,0.5-1.3,1-2.3,0.9c-0.6-0.1-1,0.3-1.5,0.5
			C97.7,50.6,95.9,50.7,94.1,50.7z"/>
		<path class="st58" d="M100.4,28.9c-0.9-0.5-2-0.2-2.9-0.2c-1.1-0.1-2.3,0-3.4,0c0.3-0.4,0.7-0.2,1.1-0.3c4.8-0.2,9.5,0.4,14.3,1
			c2.3,0.3,4.7,0.3,7,0.6c1.6,0.2,3.2,0.3,4.8,0.2c0.5,0.3,1,0.2,1.5,0.3c1.2,0.1,1.7,1,1.4,2.2c-0.3,1.3-1.1,2.2-2.3,3
			c-2.9,2-5.7,4.2-8.5,6.4c-0.2,0.1-0.4,0.1-0.6,0c-1.3-0.2-2.7,0-4-0.2c-0.1,0-0.3-0.1-0.4-0.2c-0.3-0.8,0.4-1,0.8-1.4
			c2.4-1.9,4.8-3.7,7.3-5.4c0.5-0.3,0.9-0.6,1-1.2c0.5-1.7,0.3-2.1-1.3-2.6c-1.5-0.5-3.1-0.6-4.6-0.7c-3.4-0.3-6.9-0.7-10.3-1.1
			C100.9,29.2,100.6,29.1,100.4,28.9z"/>
		<path class="st59" d="M113.3,41.8c1-1.2,2.3-2,3.5-2.9c1.9-1.4,3.7-2.9,5.7-4.1c1-0.6,1.1-1.8,1.3-2.8c0.1-0.6-0.6-1.2-1.3-1.2
			c-0.5,0-1-0.1-1.4-0.5c2.1,0,4.1,0,6.2,0c0.8,0,1.3,0.5,1.7,1.1c0.4,0.6-0.1,0.9-0.4,1.4c-2.1,3.5-5.9,4.9-8.8,7.4
			c-0.6,0.5-1.6,0.8-1.7,1.7C116.5,42.4,114.9,42.4,113.3,41.8z"/>
		<path class="st60" d="M113.3,41.8c1.6,0,3.2,0,4.8,0c1.5,0,3,0,4.6,0c0.8,0.2,1.7-0.1,2.5,0.2c0.2,0.2,0.1,0.4,0,0.6
			c-0.6,0.4-1.4,0.2-2,0.3c-2.2,0-4.4,0-6.6-0.3c-0.7-0.1-1.4-0.1-2.1,0.1c-0.4,0.1-0.8,0.1-1.2,0c-2.2-0.3-4.5-0.2-6.7-0.1
			c-3.6,0-7.2-0.1-10.8-0.3c-0.6,0-1.2-0.1-1.8,0.1c-1,0-2,0.1-2.7-0.8c0.3-0.6,0.8-0.5,1.3-0.5c1.2-0.1,2.4,0,3.6,0.1
			c1.8,0.1,3.7-0.2,5.5-0.1c0.9,0,1.7,0.1,2.6,0c1.3,0.1,2.7-0.4,4,0.4c0.1,0,0.1,0,0.2,0c1.4,0.3,2.9-0.1,4.4,0.2
			C113,41.8,113.2,41.8,113.3,41.8z"/>
		<path class="st58" d="M93.8,28.6c-0.4,0.5-1,0.2-1.5,0.3C92.7,28.4,93.3,28.7,93.8,28.6z"/>
		<path class="st61" d="M125.2,42.6c0-0.2,0-0.3,0-0.5c0.3,0,0.6,0,1,0c0.9-0.2,1.7,0,2.6-0.1c0.2,0.1,0,0,0.1,0
			c0.5,0.2,1.3,0.3,1.4,1c0.1,0.7-0.7,0.9-1.3,1.2c-1.3,0.7-2.8,0.8-4.3,0.9c-0.2,0-0.3,0.1-0.5,0.1c-1.4,0-2.9,0-4.3,0
			c-0.8,0-1.7,0-2.5-0.1c0-0.1-0.1-0.1-0.1-0.2c0.5-0.5,1.2-0.4,1.8-0.4c2.4,0.2,4.8,0.1,7-1.4C126,42.8,125.5,42.9,125.2,42.6z"/>
		<path class="st62" d="M149.8,43.6c-1-0.1-1.9,0.2-2.8,0.3c-0.9-0.2-1.6,1-2.5,0.3c-1.5,0.2-3.1,0.1-4.6,0.5
			c-1.7-0.1-3.4,0.2-5.1,0.3c-1.2,0-2.4-0.1-3.5,0.2c-1,0-2,0-3,0.1c-0.3,0-0.7-0.1-1-0.1c0.3-0.7,1-0.5,1.5-0.5
			c1.4,0.1,2.6-0.7,3.8-1.1c0.4-0.1,0.5-0.4,0.1-0.7c-0.3-0.3-0.5-0.7,0.2-0.8c1.9,0.1,3.8,0.4,5.7,0.2c4.5-0.4,8.9-0.1,13.4-0.3
			c1.6-0.1,3.2-0.2,4.8-0.2c0.5,0,1,0,1.4,0.4c-0.6,1.1-1.6,0.9-2.5,0.7C153.7,43,151.7,43.2,149.8,43.6z"/>
		<path class="st63" d="M119.4,44.8c-0.7,0-1.4,0-2.1,0c-1.6,0-3.3,0-4.9-0.1c-0.5-0.2-1-0.1-1.6,0c-0.6,0.2-1.2,0.2-1.7-0.3
			c-1.6-0.3-3.2-0.4-4.9-0.5c-1.9,0.1-3.7-0.2-5.5-0.5c-1.1-0.2-2.3-0.4-3.5-0.6c-0.5-0.1-1.1-0.1-1.4-0.7c0.2-0.3,0.5-0.2,0.8-0.2
			c6,0.3,12,0.2,18,0.3c0.3,0,0.5,0,0.7,0.3c-0.4,0.4-1,0.3-1.6,0.4c-1.5,0-2.9,0-4.6,0c4.5,0.4,8.8,0.9,13.2,0.4
			c-1.5-0.1-2.9-0.3-4.4-0.3c-0.6,0-1.2,0.1-1.6-0.5c0.9-0.5,2-0.4,2.9-0.2c2,0.3,3.9,0.1,5.9,0.2c0.7,0.5,0.7,0.9-0.1,1.3
			C122,44.4,120.7,44.6,119.4,44.8z"/>
		<path class="st64" d="M109.1,44.6c1.1,0.1,2.2-0.1,3.3,0.3c-0.9-0.1-1.4,0.3-2.1,0.9c-1.5,1.2-2.9,2.7-4.6,3.4
			c-1.6,0.6-3.2,1.6-5,1.6c-0.7,0-1.4,0.8-2.2,0.2c-0.4,0.2-0.9,0.1-1.3,0.5c-0.5,0.1-1,0.2-1.5,0.3c-0.4-0.5-1.5,0.1-1.5-1
			c1.3-0.4,2.6-0.6,4-0.6c0.3,0,0.6-0.2,0.9-0.3c0.9-0.3,1.6-1.1,2.7-0.7c0.2,0.1,0.7-0.3,1-0.5c1.4-1.4,3.3-2.2,4.7-3.6
			C107.8,44.4,108.5,44.7,109.1,44.6z"/>
		<path class="st36" d="M97.1,51.4c0.3-0.6,0.8-0.5,1.3-0.5C98,51.3,97.6,51.3,97.1,51.4z"/>
		<path class="st21" d="M144.5,44.1c0.8-0.1,1.7-0.2,2.5-0.3c-1,0.2-1.5,1.2-2.2,1.7c-2.4,1.7-4.8,3.5-7.2,5.3
			c-0.6,0.5-1.3,0.2-1.9,0.3c0.7-1.4,2.1-2.1,3.3-2.9C140.9,47,142.7,45.7,144.5,44.1z"/>
		<path class="st41" d="M132.6,42.1c0,0.1,0.1,0.3,0.1,0.3c0.3,0.3,1,0.2,1,0.6c-0.1,0.5-0.8,0.5-1.2,0.8c-1.6,1-3.4,0.9-5.2,1.2
			c-0.8,0-1.7,0-2.5,0c1.3-0.2,2.7-0.5,3.9-1.1c1.6-0.8,1.7-0.7,0.4-1.8C130.2,41.8,131.4,41.9,132.6,42.1z"/>
		<path class="st65" d="M145,116.3c-0.5,0.7-0.2,1.5-0.2,2.3c-0.1,1.4-0.4,2.7-1.3,3.8c-0.6-0.2-0.5-0.8-0.4-1.1
			c0.4-3.5-1.7-5.5-4-7.6c-2.5-2.3-5.5-2.5-8.6-2.6c-0.2,0-0.4,0-0.6-0.1c-3.2-0.3-6.5,0-9.7-0.1c-0.5,0-1.1,0.1-1.6-0.2
			c-0.1-0.1-0.2-0.2-0.1-0.4c3.6,0,7.2-0.1,10.7,0c3.7,0.2,7.5,0.4,11.1,1.8C142.4,112.8,144.2,114.1,145,116.3z"/>
		<path class="st65" d="M118.4,110.2c0,0.1,0,0.2,0,0.3c-0.3,0.4-0.8,0.3-1.2,0.3c-2.2,0-4.3,0.3-6.5,0.6c-1.8,0.2-3.1,1.5-4.4,2.5
			c-0.4,0.3-0.7,0.8-1.1,1c-2.2,1.5-2.6,3.8-2.6,6.2c0,0.4,0.3,0.9-0.4,1c-1.3-1.8-1.3-4-1.5-6.1c0.7-2.2,2.4-3.4,4.3-4.1
			c2.6-0.9,5.3-1.5,8.1-1.6C114.9,110.4,116.6,110.2,118.4,110.2z"/>
		<path class="st66" d="M138.9,131.3c-0.4,1-0.6,2.1-1.3,3c-0.5-0.7-0.1-1.4,0.1-2.1c0.2-0.9,0.4-1.8,0.2-2.7c0-0.1,0-0.2,0.1-0.4
			c0.2-1.1,0-2.1-0.6-3.1c-1.7-3-3.8-5.6-6.8-7.3c-2-1.1-4.3-1.7-6.6-1.9c-4.3-0.4-8,1-11.3,3.6c-1.9,1.6-3.6,3.5-4.4,6
			c-0.5,1.5-0.9,3-0.6,4.6c-0.3,0.8,0.3,1.7-0.2,2.5c-0.3-0.3-0.5-0.6-0.5-1c-1.6-3.7-1.9-7.3,0.9-10.8c3.6-4.4,8.1-7.2,13.8-7.5
			c6-0.2,11.2,1.8,15.3,6.4C139.8,123.9,140.7,127.3,138.9,131.3z"/>
		<path class="st67" d="M138.9,131.3c0.1-0.7,0.1-1.5,0.3-2.2c1-2.9-0.2-5.1-1.8-7.3c-1.8-2.4-4.1-4.3-6.8-5.5
			c-4-1.7-8.2-2.3-12.6-1.1c-3,0.8-5.6,2.5-7.9,4.5c-1.6,1.4-2.9,3.1-3.7,5c-0.6,1.4-0.5,3.1-0.1,4.7c0.3,1,0.4,2,0.7,3.1
			c-1.1-0.8-1.1-2.1-1.5-3.3c-1-2.9-1.2-5.6,0.7-8.3c6-8.2,16.9-10.9,25.9-6.3c3.2,1.6,5.8,3.9,7.7,6.9c1.4,2.3,1.5,6.1,0.1,8.2
			C139.9,130.4,139.3,130.8,138.9,131.3z"/>
		<path class="st68" d="M139.9,129.8c0.6-2.6,1.3-5.2-0.2-7.7c-1.3-2.2-3-4-5-5.4c-2.7-1.9-5.7-3.2-9.1-3.7
			c-3.4-0.5-6.7-0.1-9.9,1.1c-3.8,1.4-6.8,3.9-9.3,7.1c-1.6,2.1-1.4,4.4-1.1,6.7c0.1,0.5,0.1,0.9,0.1,1.4c-0.4,0-0.5-0.4-0.8-0.5
			c-1-2.5-1.2-7.1,0.6-9.2c4-4.7,8.9-7.7,14.9-8.5c4.6-0.6,9,0.3,13.1,2.5c2.6,1.4,4.9,3.3,6.8,5.6c1.9,2.2,2.1,4.7,1.3,7.4
			c-0.2,0.6-0.3,1.1-0.5,1.7c-0.2,0.5-0.3,1-0.5,1.5C140.3,129.8,140.1,129.8,139.9,129.8z"/>
		<path class="st69" d="M140.9,128.2c0-1.7,0.7-3.4,0.5-5.1c-0.1-1-0.4-2-1-2.8c-2.3-3.3-5.4-5.7-9.1-7.3c-3.4-1.4-7-2.1-10.6-1.7
			c-4.5,0.5-8.6,2.1-12.1,5.2c-1.3,1.1-2.4,2.4-3.5,3.8c-1.1,1.4-1.2,3-1,4.6c0.2,1.3,0.3,2.6,0.5,3.9c-0.2,0.1-0.3,0.2-0.5,0.3
			c-0.4-1.8-1-3.6-1.2-5.5c-0.3-2.8,0.8-5,2.7-6.9c2.6-2.7,5.7-4.8,9.3-5.8c1.7-0.5,3.5-0.1,5.3-0.2c2.8,0,5.7,0,8.5,0
			c0.4,0,0.8-0.1,1.2,0.1c0.2,0,0.3,0,0.5,0c3,0.7,5.5,2.4,7.8,4.5c0.9,0.8,1.7,1.6,2.5,2.5c2.2,2.4,2.4,5.1,1.3,8
			C141.8,126.5,141.4,127.4,140.9,128.2z"/>
		<path class="st70" d="M119.9,110.7c-5.9-0.6-10.2,2.5-14.2,6.2c-2.4,2.3-2.8,5.2-2.2,8.4c0.2,1.2,0.8,2.4,0.7,3.7
			c0,0.1,0,0.2,0,0.3c-0.7-1.6-1.3-3.3-1.5-5.1c-0.1-0.7-0.3-1.4-0.6-2c0.1-1.5,0.2-3,0.5-4.5c0.1-0.6,0.4-1,0.7-1.4
			c1.5-1.5,3-3,4.8-4.3c1.4-0.9,2.9-1,4.4-1.1c1.9-0.2,3.8-0.5,5.8-0.3c0.5,0,1,0,1.5,0C120,110.6,120,110.6,119.9,110.7
			C120,110.7,119.9,110.7,119.9,110.7z"/>
		<path class="st71" d="M131.6,144.7c-0.9,1.6-2.2,2.8-3.5,4.1c-1.7,2.7-6.3,3.8-9.1,2.2c-1.6-1-2.9-2.3-4.1-3.7c-0.7-1-1.4-2-2-3
			c0.3-0.2,0.6,0,0.9,0.1c1.2,1.2,2.3,2.6,3.9,3.5c4,2.3,6.3,1.9,10.4-0.5c0.9-0.6,1.6-1.4,2.4-2.1C130.7,145,131,144.5,131.6,144.7
			z"/>
		<path class="st72" d="M113.6,144.5c-0.3-0.1-0.5-0.2-0.8-0.3c-2.4-3.2-4.2-6.8-5.3-10.6c0-0.8-0.6-1.7,0-2.5
			c0.8,0.2,0.5,1.1,1,1.5c0.7,2.5,1.8,4.8,2.9,7.1c0.5,0.9,1.3,1.7,1.5,2.7C112.8,143.1,114,143.5,113.6,144.5z"/>
		<path class="st73" d="M114.9,147.2c0.4,0,0.6,0.4,0.9,0.6c1.6,1.7,3.4,3.3,5.8,3.6c2.2,0.2,4-0.8,5.7-2c0.3-0.2,0.5-0.4,0.8-0.6
			c0.3,0.4-0.1,0.7-0.3,1c-2,2.1-4.5,2.9-7.2,2.4c-1.2-0.2-2.5-0.8-3.4-1.8c-0.3-0.3-0.7-0.6-1-0.9
			C116.1,148.6,114.9,148.2,114.9,147.2z"/>
		<path class="st74" d="M113.6,144.5c-0.1-0.8-1-1.2-1-2c0.8-0.1,1.1,0.6,1.5,1.1c1.3,1.9,3,3.5,5.1,4.5c0.9,0.5,1.9,0.2,2.8,0.4
			c2.9,0.4,5.1-1,7.1-2.9c1.5-1.4,2.9-2.9,3.7-4.9c0.2-0.7,0.6-1.2,1.1-1.7c1.2-1.5,1.9-3.3,2.5-5.1c0.2-0.7,0.5-1.3,0.7-2
			c0.2-0.6,0.3-1.1,0.4-1.7c0-0.3,0.1-0.7,0.6-0.7c0.8,1.4-0.3,2.6-0.4,4c0,0.3-0.1,0.6-0.2,0.8c-0.4,1.3-1.3,2.4-1.7,3.7
			c-0.6,1.7-1.7,3-2.6,4.4c-0.5,0.8-1.3,1.4-1.8,2.3c-1.3,0.8-2.1,2.1-3.3,2.9c-2.5,1.5-5.1,2.8-8.1,1.8
			C117.5,148.5,115.1,147,113.6,144.5z"/>
		<path class="st70" d="M142.2,125.7c0-1.3,0.3-2.6,0.2-3.9c-0.1-1.5-0.7-2.7-1.7-3.8c-2.8-3.1-6-5.6-10-7.1c-0.1,0-0.1-0.1-0.2-0.2
			c2.1,0,4.2,0,6,0.9c1.7,0.8,3.1,1.9,4.3,3.4c0.1,0.1,0.1,0.2,0.2,0.3c2.4,1.8,2.4,4.3,2.3,6.9c0,0.1,0.1,0.1,0.1,0.2
			c-0.5,1-0.2,2.1-0.8,3C142.6,125.5,142.4,125.6,142.2,125.7z"/>
		<path class="st8" d="M155.6,42.8c0.8-0.2,1.7-0.4,2.5-0.5c1.4-0.8,3-0.7,4.5-1.1c1.5-0.1,2.9-0.5,4.4-0.6c0.3-0.1,0.7-0.2,1-0.2
			c0.2,0,0-0.1,0-0.1c-0.4,0.3-0.9,0.2-1.3,0.4c-0.7,0-1.5,0.4-2.2-0.1c-0.3-0.1-0.8,0.1-0.9-0.2c-0.2-0.4,0.2-0.6,0.5-0.8
			c1-0.8,2-1.7,3-2.5c0.5-0.4,1,0.1,1.4-0.1c1.1,3.9-0.3,7.1-4.2,9.3c-3.9,2.2-8.1,3.3-12.4,3.8c-2.3,0.3-4.1,1.4-6,2.4
			c-0.1,0-0.1,0.1-0.2,0.1c-2.2-0.1-3.9,1.5-6,1.7c-0.9,0.1-1.6,0.7-2.4,0.9c-2.7,0.8-5.4,1.3-7.9,2.5c-1.4,0-2.9,0-4.6,0
			c1.1-1.1,2.3-1.1,3.3-1.3c1.5-0.2,2.9-0.8,4.3-1.2c1.5-0.4,3.1-0.8,4.4-1.4c1-0.5,2-0.8,3.1-1.1c1.1-0.2,1.9-1.1,2.9-1.6
			c0.2-0.1,0.3-0.4,0.5-0.4c2.6-0.2,4.3-1.8,6.3-3.3c1.8-1.3,3.4-2.8,5.4-3.9C155.3,43.5,155.6,43.3,155.6,42.8z"/>
		<path class="st23" d="M156.7,28.1c0.4,0,0.8,0,1.3,0c0.3,0,0.7,0,1,0c0.4,0.3,0.9,0,1.3,0.3c0.3,0,0.7,0,1,0c0.5,1.2,0.1,3-1,3.9
			c-1.7,1.6-3.7,2.8-5.5,4.2c-1.6,1.2-3.2,2.4-4.9,3.6c-0.3,0.2-0.7,0.4-0.9,0.8c0.4,0.4,1.3-0.1,1.5,0.7c-0.1,0.1-0.2,0.2-0.3,0.3
			c-1.5,0.1-2.9,0.5-4.3-0.2c0.1-0.9,1-1.2,1.5-1.6c3.5-2.4,6.9-5,10.3-7.6c1-0.7,0.9-2,1.7-2.8c0.3-0.3-0.4-1.2-1.2-1.3
			C157.6,28.3,157.1,28.6,156.7,28.1z"/>
		<path class="st23" d="M150.4,41.3c-0.7-0.1-1.9,0.3-2.1-0.3c-0.2-0.7,1-1.1,1.6-1.5c3-1.9,5.7-4.3,8.7-6.2c1.8-1.1,2.9-2.7,2.7-5
			c2,0.2,2,0.2,1.4,2.4c-0.6,2.6-3,3.1-4.6,4.5c-2.2,1.9-4.6,3.4-6.9,5.2c-0.3,0.2-0.6,0.5-0.6,0.9l-0.1,0.1L150.4,41.3z"/>
		<path class="st75" d="M145.8,41.5c1.5,0,3,0,4.5,0c1.1-0.3,2.2,0.1,3.3-0.2c0.7,0,1.5,0,2.2-0.1c0.4-0.2,0.7-0.1,1.1-0.1
			c1.4-0.1,2.8,0.2,4.3-0.1c0.5-0.1,1.2-0.4,1.5,0.4c-1.5,0.3-3,0.7-4.6,0.8c-1.5-0.5-3.1-0.3-4.6-0.2c-2.4,0.3-4.7,0.2-7,0.2
			c-2.9,0-5.9,0.1-8.8,0.3c-1.8,0.1-3.4-0.6-5.1-0.5c-1.2,0-2.4,0-3.6,0c-0.9,0-1.9,0-2.8-0.1c0.4-0.3,0.9-0.1,1.3-0.2
			c1.8,0,3.5,0,5.3,0c1.4,0,2.9,0,4.3,0c0.7,0,1.4,0,2,0c1.4-0.2,2.7,0.1,4.1-0.2C144.1,41.6,144.9,41.6,145.8,41.5z"/>
		<path class="st76" d="M162.7,41.5c-0.5-0.4-1.1-0.3-1.6-0.2c-1.8,0.2-3.5-0.1-5.3,0c0.6-0.4,1.2-0.1,1.8-0.3
			c2.3,0,4.6-0.1,6.9-0.5c0.8,0,1.7,0,2.5,0c0.3-0.1,0.3,0,0.2,0.2C165.7,41,164.2,41.3,162.7,41.5z"/>
		<path class="st76" d="M153.6,41.3c-1.1,0.5-2.2,0.1-3.3,0.2c0-0.1,0.1-0.1,0.1-0.2c0.1,0,0.1,0,0.2,0
			C151.6,41.3,152.6,41.3,153.6,41.3z"/>
		<path class="st23" d="M160.2,28.4c-0.4-0.1-0.9,0.2-1.3-0.3C159.4,28.2,159.9,28,160.2,28.4z"/>
		<path class="st26" d="M143.3,41.6c-1.3,0.4-2.7,0.2-4.1,0.2c0.8-0.4,1.7-0.1,2.5-0.2C142.2,41.6,142.8,41.6,143.3,41.6z"/>
		<path class="st77" d="M202.6,202.2c0,0.4,0,0.9,0,1.3c-0.1,0.1-0.1,0.2-0.2,0.3c-0.9,2.6-2.4,4.7-4.4,6.6c-2.6,2.3-5.3,2.1-8.2,1
			c-0.2-0.1-0.4-0.2-0.6-0.2c-0.7-1-1.1-2.1-1.3-3.3c0.5-0.1,0.7,0.3,1,0.6c2.2,1.7,3.8,1.9,6.1,0.5c2-1.2,3.8-2.7,5.2-4.6
			c1.1-1.5,1.7-3.1,1.5-4.9c0.1-0.4-0.1-1,0.5-1.2C202.6,199.5,202.5,200.9,202.6,202.2z"/>
		<path class="st78" d="M202.2,198.2c-0.3,0.4-0.1,0.8-0.2,1.2c-0.4,3.1-2.5,4.9-4.9,6.4c-1.3,0.8-2.6,1.5-3.9,2.3
			c-1.9,1-3.4,0.8-4.9-0.7c-0.5-0.5-0.4-1.1-0.7-1.7c-0.3-0.7-0.1-1.5-0.2-2.3c0.1-0.2,0.2-0.4,0.2-0.5c0.1-0.1,0.2-0.1,0.3,0
			c0.4,0.9,0.2,2,1.1,2.7c0.9,0.7,1.7,1,2.8,0.4c2.3-1.2,4.5-2.6,6.7-4.1c2-1.3,2.9-3.1,2.3-5.5c-0.1-0.3-0.1-0.6,0-0.9
			c0.1-0.1,0.2-0.1,0.3-0.1C201.8,196.4,202,197.3,202.2,198.2z"/>
		<path class="st79" d="M201.2,195.7c-0.1,0-0.2,0-0.2,0c-0.2,0.2-0.4,0-0.6-0.1c-0.1-0.1-0.3-0.2-0.4-0.3c-0.5-0.5-0.8-1.1-1.4-1.4
			c-0.6-0.5-1.2-0.8-2-0.8c-1.1-0.2-2.1,0-3.1,0.5c-1.9,1.2-3.4,2.7-4,4.9c-0.5,0.9-0.8,1.9-1,2.9c-0.2,0.5-0.2,1.1-0.5,1.6
			c-0.1,0.1-0.1,0.2-0.3,0.3c-0.1,0-0.2,0-0.2,0c-0.1-0.8,0.1-1.5,0.2-2.3c0.8-3,2-5.8,4.6-7.8C195.7,190.5,199.8,191.7,201.2,195.7
			z"/>
		<path class="st80" d="M187.5,205.8c0.4,0.9,1,1.6,1.8,2.1c1.2,0.7,2.4,0.8,3.6,0c1.8-1.1,3.9-2.1,5.6-3.4c1.7-1.3,2.9-3,3.5-5.1
			c0.3,3.9-2.2,6.1-4.8,8.3c-0.8,0.7-1.7,1.2-2.6,1.8c-2.4,1.6-4.8,0.2-6.5-1.5c-0.1-0.1-0.2-0.1-0.3-0.2
			C187.4,207.2,187.6,206.5,187.5,205.8z"/>
		<path class="st81" d="M189.1,211.1c1.1-0.3,2,0.4,2.9,0.6c2.9,0.7,4.8-0.8,6.7-2.6c1.6-1.5,2.4-3.6,3.6-5.3
			c-0.3,2-0.7,3.9-1.8,5.6c-1,1.3-2.2,2.4-3.7,3.1c-1.8,0.9-3.7,1.2-5.7,0.9C190.2,212.8,189.5,212.1,189.1,211.1z"/>
		<path class="st82" d="M191.1,213.4c0.9-0.5,2-0.1,3-0.3c2.2-0.5,4.1-1.5,5.6-3.1c0.3-0.3,0.4-0.7,0.9-0.6
			c-1.2,2.4-2.8,4.2-5.6,4.8C193.6,214.5,192.3,214.3,191.1,213.4z"/>
		<path class="st83" d="M98.6,43.3c1.9,0.2,3.7,0.4,5.6,0.8c-1.2,0.3-1.9,1.2-2.8,1.9c-1.4,1-2.7,2.2-4.6,2.2c-1,0-1.9,0.7-3,0.8
			c-3.4,0.3-6-0.7-8.1-3.4c-0.9-1.1-1.3-2.4-1.5-3.7c-0.6-3.2,0.3-6.1,2-8.8c1.6-2.6,4.3-3.7,7.3-4c2-0.2,4-0.3,6-0.1
			c0.3,0,0.6-0.1,0.9-0.2c3.1,0.2,6.2,0.7,9.4,0.9c1.8,0.1,3.6,0.5,5.4,0.6c0.8,0,1.4,0.5,2.1,0.7c0.6,0.2,0.7,0.8,0.7,1.7
			c-0.1,1.8-1.5,2.3-2.6,3.2c-2.1,1.6-4.3,3.2-6.5,4.8c-0.3,0.2-0.5,0.6-0.7,0.8c-1.4,0-2.7,0-4.1-0.1c-0.5-0.3-1.5,0.3-1.7-0.4
			c-0.2-0.8,0.8-0.9,1.3-1.3c2.5-1.8,4.7-4,7.4-5.4c0.3-0.2,0.6-0.5,0.4-0.8c-0.3-0.6-0.3-1.5-1.3-1.5c-2.7-0.1-5.4-0.5-8-0.8
			c-2.9-0.3-5.9-0.3-8.8,0.2c-6.3,1.1-8,9-5.5,12.7c0.6,0.9,1.4,1.7,2.4,2.2c0.6,0.4,4.3,0.1,4.8-0.4C96.2,45,97.5,44.2,98.6,43.3z"
			/>
		<path class="st83" d="M112.8,41.8c-1.5,0-2.9,0.2-4.4-0.2C109.9,41.7,111.4,41.3,112.8,41.8z"/>
		<path class="st84" d="M98.6,43.3c0,0.6-0.5,0.9-0.9,1.1c-0.8,0.4-1.5,1-2.2,1.7c-0.2,0.2-0.4,0.4-0.7,0.5c-1.3,0.6-2.7,0.1-4,0.3
			c-1.2,0.1-2.3-1.2-3.1-2.3c-2.5-3.6-1-9.2,1.5-11.4c1.5-1.4,3.4-1.9,5.4-2.2c3.8-0.6,7.5,0.1,11.2,0.3c1.6,0.1,3.2,0.3,4.8,0.4
			c0.6,0,1,0.2,1,0.8c0,0.3,0,0.5,0.3,0.7c0.8,0.7,0.3,1.1-0.3,1.4c-2.7,1.3-4.8,3.5-7.2,5.2c-0.6,0.4-1.4,0.5-1.7,1.2
			c0.4,0.6,1.2,0,1.6,0.5c-0.8,0-1.6,0-2.5,0c-0.4-0.2-0.9-0.1-1.4-0.1c-3.7,0-7.5-0.1-11.2-0.4c-0.5-0.1-1-0.3-1.3-0.3
			c-0.4-0.1-0.3-0.1-0.2-0.1c0.2,0.2,0.5,0.1,0.8,0.2c0.9,0.4,2.1,0.1,2.9,0.9c0.8,0.3,1.7,0.5,2.5,0.5
			C95.4,42.9,97.1,42.8,98.6,43.3z"/>
		<path class="st85" d="M114.3,42.6c2,0.1,3.9,0.2,5.9,0.3c0.4,0,1-0.1,1.1,0.4c0,0.6-0.7,0.6-1.1,0.6c-2.8,0.3-5.6,0.1-8.4-0.2
			c-1.5-0.1-2.9-0.2-4.4-0.3c-0.5,0-1,0-1.3-0.8c2.5,0,4.8,0,7.2,0C113.7,42.6,114,42.6,114.3,42.6z"/>
		<path class="st86" d="M119.4,44.8c1.1-0.6,2.4-0.9,3.5-1.2c0.7-0.2,0.7-0.5,0.3-1c0.7,0,1.4,0,2,0c0.7,0,1.3,0.2,2,0.5
			C124.7,44.5,122.2,45.2,119.4,44.8z"/>
		<path class="st87" d="M88.8,40.8c4.1,0.2,8.1,0.4,12.2,0.6c0.2,0,0.5,0.1,0.7,0.2c-3,0.1-6.1,0.1-9.1,0c-0.4,0-0.9-0.2-1.3,0.2
			c-1-0.2-2-0.5-3-0.7C88.2,40.6,88.5,40.7,88.8,40.8z"/>
		<path class="st70" d="M119.9,110.7c0-0.1,0-0.2,0-0.3c2.9,0,5.9,0,8.8,0c0.4,0,0.9-0.2,1.3,0.2
			C126.7,110.7,123.3,110.7,119.9,110.7z"/>
		<path class="st88" d="M138.2,129.5c-0.5,0.8-0.2,1.8-0.8,2.5c-0.4-0.3-0.3-0.8-0.3-1.2c0.2-3.5-1.6-6.2-3.9-8.5
			c-4.8-4.9-12.3-5.4-17.3-2.5c-4,2.3-6.8,5.6-7.5,10.4c-0.1,0.8,0.4,1.6-0.1,2.3c-0.8-0.2-0.3-1.1-0.8-1.5
			c-0.6-1.6-0.1-3.1,0.5-4.6c1.9-4,4.8-6.9,9-8.6c3.8-1.5,7.6-1.4,11.3-0.1c4.5,1.5,7.4,4.7,9.4,8.9c0.4,0.8,0.3,1.7,0.4,2.6
			C138.2,129.3,138.2,129.4,138.2,129.5z"/>
		<path class="st74" d="M138.2,129.3c-0.5-2.8-1.8-5.1-3.7-7.2c-2-2.2-4.5-3.6-7.3-4.5c-2.2-0.7-4.4-0.6-6.6-0.5
			c-3,0.3-5.7,1.6-7.9,3.6c-1.7,1.5-3.2,3.1-4.1,5.2c-0.1,0.2-0.3,0.4-0.5,0.5c0-1,0.7-1.8,1.2-2.6c2.6-4,6.4-6.4,11-7.2
			c2.9-0.5,5.8,0,8.6,1.1c4.5,1.7,7.2,5.1,9.3,9.2C138.5,127.6,138.7,128.5,138.2,129.3z"/>
		<path class="st88" d="M108.3,132.5c-0.7-5.1,1.8-8.7,5.6-11.7c4.7-3.7,9.9-3.9,15.1-1.8c4.3,1.8,7.3,5.2,8.4,9.9
			c0.2,1,0.1,2,0.1,3c-0.6,2.3-1.5,4.5-2.8,6.6c-0.1,0.2-0.3,0.4-0.5,0.5c-0.4-0.6,0-1.2,0.3-1.6c0.9-1.5,1.3-3.2,1.8-4.9
			c0.7-2.3,0-4.4-1.2-6.4c-2.4-4.1-6-6.6-10.8-7.1c-7.8-0.7-13.9,4.8-14.9,11.1c-0.2,1.3,0,2.6,0.4,3.7c1.1,3.4,2.5,6.6,5,9.3
			c1.7,1.8,3.5,3,6,3.3c2.7,0.3,5.3,0.3,7.6-1.4c1.4-1,2.5-2.4,3.6-3.7c0.3-0.4,0.5-1,1.1-0.8c0,1-0.8,1.7-1.3,2.4
			c-1.5,2-3.2,3.6-5.3,5c-1.2,0.8-2.5,0.7-3.9,0.8c-4.1,0.4-6.6-2.1-8.8-5c-0.4-0.5-0.8-1-1.3-1.3c-0.7-1.8-1.8-3.3-2.6-5.1
			C109.2,135.8,108.7,134.2,108.3,132.5z"/>
		<path class="st89" d="M133.1,140.7c-1,1.2-1.9,2.4-3.1,3.5c-1.6,1.5-3.3,2.7-5.7,2.9c-1.7,0.1-3.4-0.1-5.1-0.3
			c-1.5-0.2-2.8-1.1-3.8-2.1c-2.2-2.2-4-4.8-5-7.8c-0.5-1.4-1.1-2.8-1.4-4.3c-0.5-2.5,0.3-4.8,1.6-6.8c1.9-3.1,4.6-5.4,8.2-6.4
			c5.3-1.5,10-0.4,13.9,3.4c2.1,2,3.7,4.4,4,7.4c0.1,1.2-0.1,2.4-0.4,3.6c-0.6,1.9-1.4,3.6-2.1,5.5
			C133.8,139.6,133.4,140.1,133.1,140.7z"/>
		<path class="st90" d="M167.3,40.8c-0.1-0.1-0.1-0.2-0.2-0.2c0.4-0.4,0.8-0.2,1.4-0.3C168,40.7,167.7,40.8,167.3,40.8z"/>
		<path class="st88" d="M187.8,203c0-0.1,0-0.2,0-0.3c0.6,0,0.6,0.6,0.9,0.9c0.8,1,1.6,1.2,2.7,0.6c2.4-1.4,4.7-2.9,7.1-4.4
			c1.3-0.7,1.8-2.1,1.8-3.5c0-0.3-0.2-0.7,0.1-1c0.2,0.1,0.3,0.2,0.5,0.3c0.4,1.7,0.6,3.3-0.4,4.9c-0.6,0.9-1.4,1.5-2.2,2
			c-2.1,1.4-4.3,2.7-6.6,3.9c-1.6,0.9-4-0.5-4-2.4C187.8,203.8,187.8,203.4,187.8,203z"/>
		<path class="st91" d="M188.3,201.2c0-1.1,0.3-2.2,1-3c0,0,0.1,0.1,0.1,0.1c0.5,2.2,0.8,2.3,2.7,1.2c1.7-0.9,3.3-2,5-3
			c1-0.6,1.9-1.5,1.6-2.9c0.9,0.1,1,1,1.5,1.5c0.2,1.4-0.3,2.6-1.5,3.3c-2.4,1.5-4.7,3-7.1,4.3C190,203.6,188.8,203,188.3,201.2z"/>
		<path class="st92" d="M198.7,193.6c0.7,0.8,0.5,1.4-0.2,2.1c-1.7,1.7-4,2.6-6,3.9c-0.2,0.1-0.4,0.2-0.6,0.3
			c-0.7,0.5-1.4,0.9-2.2,0.3c-0.8-0.5-0.6-1.3-0.4-2.1c0.5-2.4,2.2-3.8,4.1-5.1c0.1,0.7-0.5,1-0.9,1.4c-0.5,0.6-1.2,1.1-1.5,1.9
			c-0.1,0.3-0.2,0.7,0.1,0.9c0.3,0.2,0.6,0.1,0.8-0.1c1.5-0.9,3-1.9,4.5-2.8c1.1-0.6,0.3-1.2,0.2-1.9
			C197.5,192.7,198.3,192.8,198.7,193.6z"/>
		<path class="st93" d="M188.3,201.2c1.7,2.2,2,2.2,4.7,0.4c1.6-1,3.2-2.1,4.9-3c1.4-0.8,2-2,2.3-3.5c0.1,0.1,0.2,0.2,0.3,0.3
			c0.5,2-0.3,3.9-2.1,5c-2.2,1.3-4.4,2.5-6.4,4c-1.7,1.2-3.1,0.5-3.9-1.1c-0.1-0.2-0.2-0.4-0.3-0.5C188,202.2,188,201.7,188.3,201.2
			z"/>
		<path class="st94" d="M196.7,192.6c1.2,1,1.2,1.4-0.2,2.2c-1.5,0.9-3,1.9-4.6,2.9c-0.8,0.5-1.3,0.2-1.4-0.7c0-0.8,0.5-1.4,1-1.9
			c0.6-0.7,1.2-1.3,1.8-1.9C194.4,192.6,195.5,192.4,196.7,192.6z"/>
		<path class="st95" d="M88.8,40.8c-0.2,0.1-0.4,0.2-0.5,0.3c-0.4-0.1-0.7-0.2-1.1-0.3C87.8,40.5,88.3,40.4,88.8,40.8z"/>
		<path class="st96" d="M124,145.7c-3.5,0.1-6.3-0.4-8.4-2.4c-2.4-2.4-4.2-5.2-5.1-8.5c-1.3-5.4,1-9.4,5.2-12.3
			c7-5,16.7-1.4,19.3,6.4c1.3,3.8,0,6.8-1.7,10c-1,1.9-2.3,3.4-4,4.8C127.5,145,125.5,145.5,124,145.7z"/>
		<path class="st91" d="M122.9,121.4c7.1-0.1,12.2,6.2,11.4,13c-0.1,1.1-0.4,2.1-1.1,3c-1.1,1.5-1.7,3.2-3.1,4.6
			c-1.5,1.4-3.4,2.1-5.3,2.4c-3.6,0.5-7.1-0.2-9.8-3c-3.3-3.3-4.6-7.3-3.2-11.9C113.3,124.6,118,121.1,122.9,121.4z"/>
		<path class="st97" d="M122.8,142.9c-5.6-0.2-10-4.4-10-10.1c0.1-5.7,4.3-9.8,9.9-9.9c5.8-0.1,10.1,4.4,10,10
			C132.7,138.7,128.4,142.8,122.8,142.9z"/>
		<path class="st98" d="M131.1,132.9c0,4.8-3.5,8.2-8.3,8.2c-4.5,0-8.1-3.7-8.2-8.2c0-5,4-8.5,8.6-8.3
			C127.1,124.8,131.2,128.3,131.1,132.9z"/>
		<path class="st99" d="M130.1,132.6c0.1,4.8-3.5,7.5-7.3,7.6c-3.9,0-7.1-3.3-7.1-7.1c0-4.1,3.3-7.3,7.4-7.3
			C126.7,125.6,130.2,129.5,130.1,132.6z"/>
		<path class="st100" d="M129,132.9c0,3.5-2.8,6.2-6.4,6.2c-3.2,0-6.1-2.9-6-6.1c0.1-4.1,2.7-6.1,6.5-6.4
			C126,126.3,129,129.7,129,132.9z"/>
		<path class="st101" d="M119.2,132.9c0-2,1.7-3.7,3.7-3.6c1.9,0,3.6,1.7,3.6,3.6c0,1.7-2,3.8-3.6,3.7
			C120.9,136.5,119.1,134.8,119.2,132.9z"/>
	</g>
</g>
</svg>
