<?xml version="1.0" encoding="utf-8"?>
<!-- Generator: Adobe Illustrator 24.2.1, SVG Export Plug-In . SVG Version: 6.00 Build 0)  -->
<svg version="1.1" id="Layer_1" xmlns="http://www.w3.org/2000/svg" xmlns:xlink="http://www.w3.org/1999/xlink" x="0px" y="0px"
	 viewBox="0 0 87.5 100" style="enable-background:new 0 0 87.5 100;" xml:space="preserve">
<style type="text/css">
	.st0{fill:#7289DA;}
</style>
<g>
	<path class="st0" d="M34.7,42c-2.9,0-5.1,2.5-5.1,5.5s2.3,5.5,5.1,5.5c2.8,0,5.1-2.5,5.1-5.5C39.9,44.5,37.6,42,34.7,42z M53,42
		c-2.8,0-5.1,2.5-5.1,5.5s2.3,5.5,5.1,5.5c2.8,0,5.1-2.5,5.1-5.5S55.8,42,53,42z"/>
	<path class="st0" d="M77.3,0h-67C4.6,0,0,4.6,0,10.3v67.6c0,5.7,4.6,10.3,10.3,10.3H67L64.3,79l6.4,5.9l6.1,5.6l10.8,9.5V10.3
		C87.5,4.6,82.9,0,77.3,0z M58,65.3c0,0-1.8-2.2-3.3-4.1c6.6-1.8,9.1-5.9,9.1-5.9c-2.1,1.3-4,2.3-5.8,2.9c-2.5,1.1-4.9,1.8-7.2,2.2
		c-4.8,0.9-9.2,0.7-13-0.1c-2.8-0.6-5.3-1.3-7.4-2.2c-1.2-0.4-2.4-1-3.7-1.7c-0.2-0.1-0.3-0.2-0.5-0.2c-0.1-0.1-0.2-0.1-0.2-0.2
		c-0.9-0.5-1.4-0.8-1.4-0.8s2.4,4,8.8,5.9c-1.5,1.9-3.4,4.2-3.4,4.2c-11-0.3-15.3-7.6-15.3-7.6c0-16.1,7.2-29.2,7.2-29.2
		c7.2-5.4,14.1-5.2,14.1-5.2l0.5,0.6c-9,2.6-13.1,6.5-13.1,6.5s1.1-0.6,3-1.5c5.3-2.3,9.6-3,11.4-3.2c0.3,0,0.5-0.1,0.8-0.1
		c3-0.4,6.5-0.5,10.1-0.1c4.8,0.5,9.8,2,15.1,4.8c0,0-3.9-3.8-12.4-6.3l0.7-0.8c0,0,6.8-0.2,14.1,5.2c0,0,7.2,13.1,7.2,29.2
		C73.3,57.7,69,65,58,65.3z"/>
</g>
</svg>
