<?xml version="1.0" encoding="utf-8"?>
<!-- Generator: Adobe Illustrator 24.2.1, SVG Export Plug-In . SVG Version: 6.00 Build 0)  -->
<svg version="1.1" id="layer" xmlns="http://www.w3.org/2000/svg" xmlns:xlink="http://www.w3.org/1999/xlink" x="0px" y="0px"
	 viewBox="0 0 139.4 100" style="enable-background:new 0 0 139.4 100;" xml:space="preserve">
<style type="text/css">
	.st0{fill:#0091E2;}
</style>
<g>
	<path class="st0" d="M138,37.8c-0.4-0.3-3.9-3-11.4-3c-1.9,0-3.9,0.2-5.9,0.5c-1.4-9.9-9.6-14.7-10-14.9l-2-1.2l-1.3,1.9
		c-1.6,2.5-2.8,5.4-3.6,8.3c-1.4,5.6-0.5,10.9,2.3,15.4c-3.4,1.9-9,2.4-10.1,2.5H4.3c-2.4,0-4.3,1.9-4.3,4.3c-0.1,8,1.2,16,4,23.6
		c3.2,8.3,7.9,14.4,14,18.2c6.9,4.2,18,6.6,30.6,6.6c5.7,0,11.4-0.5,17-1.6c7.8-1.4,15.3-4.1,22.2-8.1c5.7-3.3,10.8-7.5,15.1-12.4
		c7.3-8.2,11.6-17.4,14.8-25.5c0.5,0,0.8,0,1.3,0c8,0,12.9-3.2,15.6-5.9c1.8-1.7,3.2-3.7,4.1-6.1l0.6-1.7L138,37.8z"/>
	<path class="st0" d="M12.9,44.7h12.3c0.6,0,1.1-0.5,1.1-1.1l0,0v-11c0-0.6-0.5-1.1-1.1-1.1l0,0H12.9c-0.6,0-1.1,0.5-1.1,1.1l0,0v11
		C11.8,44.2,12.3,44.7,12.9,44.7L12.9,44.7"/>
	<path class="st0" d="M29.8,44.7h12.3c0.6,0,1.1-0.5,1.1-1.1l0,0v-11c0-0.6-0.5-1.1-1.1-1.1l0,0H29.8c-0.6,0-1.1,0.5-1.1,1.1v11
		C28.8,44.2,29.2,44.7,29.8,44.7"/>
	<path class="st0" d="M47.1,44.7h12.3c0.6,0,1.1-0.5,1.1-1.1l0,0v-11c0-0.6-0.5-1.1-1.1-1.1l0,0H47.1c-0.6,0-1.1,0.5-1.1,1.1l0,0v11
		C46,44.2,46.4,44.7,47.1,44.7L47.1,44.7"/>
	<path class="st0" d="M64.1,44.7h12.3c0.6,0,1.1-0.5,1.1-1.1v-11c0-0.6-0.5-1.1-1.1-1.1l0,0H64.1c-0.6,0-1.1,0.5-1.1,1.1l0,0v11
		C63,44.2,63.5,44.7,64.1,44.7L64.1,44.7"/>
	<path class="st0" d="M29.8,29h12.3c0.6,0,1.1-0.5,1.1-1.1v-11c0-0.6-0.5-1.1-1.1-1.1l0,0H29.8c-0.6,0-1.1,0.5-1.1,1.1v11
		C28.8,28.4,29.2,29,29.8,29"/>
	<path class="st0" d="M47.1,29h12.3c0.6,0,1.1-0.5,1.1-1.1v-11c0-0.6-0.5-1.1-1.1-1.1l0,0H47.1c-0.6,0-1.1,0.5-1.1,1.1l0,0v11
		C46,28.4,46.4,29,47.1,29"/>
	<path class="st0" d="M64.1,29h12.3c0.6,0,1.1-0.5,1.1-1.1v-11c0-0.6-0.5-1.1-1.1-1.1H64.1c-0.6,0-1.1,0.5-1.1,1.1l0,0v11
		C63,28.4,63.5,29,64.1,29"/>
	<path class="st0" d="M64.1,13.2h12.3c0.6,0,1.1-0.5,1.1-1.1v-11c0-0.6-0.5-1.1-1.1-1.1H64.1C63.5,0,63,0.5,63,1.1l0,0v11
		C63,12.7,63.5,13.2,64.1,13.2"/>
	<path class="st0" d="M81.2,44.7h12.3c0.6,0,1.1-0.5,1.1-1.1v-11c0-0.6-0.5-1.1-1.1-1.1l0,0H81.2c-0.6,0-1.1,0.5-1.1,1.1l0,0v11
		C80.2,44.2,80.6,44.7,81.2,44.7"/>
</g>
</svg>
