<svg width="160" height="80" viewBox="0 0 160 80" fill="none" xmlns="http://www.w3.org/2000/svg">
<path d="M31.4961 25.1367L41.4152 30.7029C42.7994 31.4796 43.6553 32.9364 43.6553 34.5155V45.4846C43.6553 47.0636 42.7994 48.5204 41.4152 49.2971L31.4961 54.8633C30.1504 55.6185 28.505 55.6185 27.1592 54.8633L17.2402 49.2971C15.856 48.5204 15.0001 47.0636 15.0001 45.4846V34.5155C15.0001 32.9364 15.856 31.4796 17.2402 30.7029L27.1592 25.1367C28.505 24.3815 30.1504 24.3815 31.4961 25.1367ZM16.6533 34.5599V45.4846C16.6533 46.4649 17.1856 47.3709 18.0492 47.8555L27.8274 53.3426C27.954 53.3917 28.089 53.4171 28.2256 53.4171C28.8343 53.4171 29.3277 52.9236 29.3277 52.315V43.4849C29.3277 42.0458 28.5267 40.7263 27.2499 40.0625L26.5221 39.684C26.3504 39.6109 26.1809 39.5308 26.014 39.4437L16.6533 34.5599ZM26.9083 38.4666C28.6653 39.3832 29.9949 39.3832 31.7518 38.4666L41.2481 33.1354C41.0143 32.6 40.6087 32.1431 40.0781 31.8453L30.6872 26.5784C29.844 26.1052 28.8114 26.1052 27.9682 26.5784L18.5952 31.8453C18.0645 32.1431 17.659 32.6 17.4251 33.1354L26.9083 38.4666ZM29.3277 28.4277C31.3942 28.4277 33.0811 29.4433 33.1805 30.7195L33.1851 32.9051C33.1851 34.2366 31.4581 35.316 29.3277 35.316C27.1973 35.316 25.4703 34.2366 25.4703 32.9051V30.7195C25.5743 29.4433 27.2613 28.4277 29.3277 28.4277ZM29.3281 32.2852C31.1177 32.2852 32.5684 31.5598 32.5684 30.665C32.5684 29.7703 31.1177 29.0449 29.3281 29.0449C27.5386 29.0449 26.0879 29.7703 26.0879 30.665C26.0879 31.5598 27.5386 32.2852 29.3281 32.2852Z" fill="#06225D"/>
<path fill-rule="evenodd" clip-rule="evenodd" d="M58.8511 40.8284C58.8511 42.0644 59.1689 43.0577 59.8046 43.8081C60.4402 44.5586 61.279 44.9337 62.3208 44.9337C63.3272 44.9337 64.1483 44.5542 64.784 43.7949C65.4197 43.0356 65.7375 42.038 65.7375 40.802C65.7375 39.5835 65.4285 38.6124 64.8105 37.8884C64.1925 37.1645 63.3714 36.8025 62.3472 36.8025C61.3231 36.8025 60.4844 37.1689 59.831 37.9017C59.1777 38.6345 58.8511 39.6101 58.8511 40.8284ZM68.7039 28.1415V47.3175H66.968C66.5084 47.3175 66.0876 47.0596 65.8789 46.6501C65.767 46.4305 65.711 46.217 65.711 46.0095C65.3545 46.417 65.071 46.7593 64.4 47.1301C63.7289 47.5009 62.8417 47.6354 61.9765 47.6354C60.14 47.6354 58.648 46.9909 57.5002 45.7019C56.3526 44.4128 55.7787 42.7884 55.7787 40.8284C55.7787 38.9391 56.357 37.3411 57.5135 36.0344C58.6701 34.7278 60.14 34.0744 61.9235 34.0744C62.9476 34.0744 63.7731 34.2598 64.4 34.6306C65.0267 35.0014 65.4638 35.4341 65.711 35.9285V28.1415H68.7039ZM79.6672 34.2598V37.3852H79.272C76.9588 37.3852 75.8022 38.6477 75.8022 41.1727V47.3175H72.7299V34.4187H74.7224C75.0758 34.4187 75.389 34.6466 75.4977 34.9829L75.8022 35.9244C75.9489 35.6188 76.3565 34.9403 77.0695 34.6001C77.7826 34.2598 78.6098 34.2598 79.4573 34.2598H79.6672ZM81.3888 43.8214C81.3888 42.7266 81.7464 41.8481 82.4615 41.186C83.1766 40.5238 84.1169 40.1044 85.2823 39.9279L88.593 39.4246C89.2287 39.3364 89.5466 39.0274 89.5466 38.4976C89.5466 37.915 89.3435 37.4426 88.9374 37.0806C88.5313 36.7187 87.922 36.5376 87.1098 36.5376C86.3329 36.5376 85.7149 36.7539 85.2558 37.1866C84.7967 37.6191 84.5318 38.1797 84.4613 38.8684L81.6924 38.842C81.816 37.6765 82.3335 36.0741 83.3224 35.253C84.3111 34.432 85.5648 34.0215 87.0834 34.0215C88.955 34.0215 90.3367 34.4717 91.2284 35.3723C92.1202 36.2727 92.566 37.4293 92.566 38.842V45.2516C92.566 46.0992 92.619 46.7878 92.7249 47.3175H91.0728C90.8981 47.3175 90.725 47.2854 90.562 47.223C90.0141 47.0128 89.7401 46.6708 89.7401 46.197C89.129 47.2157 87.5601 47.7148 85.759 47.7148C84.4524 47.7148 83.3973 47.3308 82.594 46.5627C81.7905 45.7946 81.3888 44.8808 81.3888 43.8214ZM86.3417 45.3046C87.2953 45.3046 88.0678 45.0441 88.6593 44.5232C89.2509 44.0023 89.5466 43.1504 89.5466 41.9673V41.3846L86.1828 41.8879C85.035 42.0821 84.4613 42.6648 84.4613 43.636C84.4613 44.0951 84.6289 44.4879 84.9645 44.8146C85.2999 45.1412 85.759 45.3046 86.3417 45.3046ZM101.995 31.1711C101.483 31.1711 101.037 31.3168 100.658 31.6082C100.278 31.8995 100.088 32.4071 100.088 33.1311V34.4187H103.081V37.0939H100.088V47.3175H96.9892V37.0939H94.7379V34.4187H95.6221C96.3771 34.4187 96.9892 33.8067 96.9892 33.0517C96.9892 31.6214 97.4041 30.4913 98.234 29.6614C99.0639 28.8315 100.15 28.4166 101.492 28.4166H103.081V31.1711H101.995ZM110.31 30.5253V34.4717H112.985V37.1998H110.31V43.1857C110.31 43.7507 110.442 44.1612 110.707 44.4173C110.972 44.6733 111.387 44.8014 111.952 44.8014H112.374V47.5294H111.131C109.93 47.5294 108.985 47.1896 108.297 46.5097C107.608 45.8299 107.264 44.8896 107.264 43.689V37.1998H104.88V34.4717H105.542C106.196 34.4717 106.69 34.2863 107.025 33.9155C107.361 33.5447 107.529 33.0591 107.529 32.4588V30.5253H110.31ZM115.475 28.0804H118.467V35.9733C118.715 35.4788 119.228 35.0727 119.855 34.7019C120.482 34.3311 121.479 34.0907 122.504 34.0907C124.287 34.0907 125.712 34.6666 126.869 35.9733C128.025 37.28 128.412 38.9248 128.412 40.8141C128.412 42.7742 128.029 44.3517 126.882 45.6407C125.735 46.9297 124.136 47.6395 122.3 47.6395C121.435 47.6395 120.653 47.4398 119.982 47.069C119.312 46.6982 118.824 46.3558 118.467 45.9484C118.467 46.1559 118.412 46.3694 118.3 46.589C118.091 46.9985 117.67 47.2564 117.211 47.2564H115.475V28.0804ZM124.368 43.8214C125.021 43.0797 125.348 42.0821 125.348 40.8284C125.348 39.5747 125.03 38.5904 124.394 37.8752C123.759 37.1601 122.92 36.8025 121.878 36.8025C120.871 36.8025 120.042 37.1601 119.389 37.8752C118.735 38.5904 118.409 39.5747 118.409 40.8284C118.409 42.0644 118.735 43.0533 119.389 43.7949C120.042 44.5365 120.871 44.9073 121.878 44.9073C122.903 44.9073 123.732 44.5453 124.368 43.8214ZM131.413 37.4524H130.143V34.3963H133.199V34.4187H134.46V47.3175H131.413V37.4524ZM131.519 31.2934C131.131 30.9049 130.936 30.437 130.936 29.8896C130.936 29.3422 131.131 28.8699 131.519 28.4726C131.908 28.0753 132.376 27.8766 132.923 27.8766C133.488 27.8766 133.965 28.0709 134.354 28.4593C134.741 28.8478 134.936 29.3246 134.936 29.8896C134.936 30.437 134.741 30.9049 134.354 31.2934C133.965 31.6818 133.488 31.8761 132.923 31.8761C132.376 31.8761 131.908 31.6818 131.519 31.2934ZM142.326 30.4723V34.4187H145V37.1468H142.326V43.1327C142.326 43.6977 142.458 44.1083 142.723 44.3643C142.988 44.6204 143.403 44.7484 143.967 44.7484H144.389V47.4765H143.147C141.946 47.4765 141.001 47.1366 140.313 46.4568C139.623 45.7769 139.28 44.8366 139.28 43.636V37.1468H136.895V34.4187H137.558C138.211 34.4187 138.706 34.2333 139.041 33.8625C139.377 33.4917 139.544 33.0061 139.544 32.4058V30.4723H142.326Z" fill="#06225D"/>
</svg>
