<svg width="47" height="41" viewBox="0 0 47 41" fill="none" xmlns="http://www.w3.org/2000/svg">
<g clip-path="url(#clip0)">
<path d="M20.3281 25.584C23.0895 25.584 25.3281 23.3454 25.3281 20.584C25.3281 17.8226 23.0895 15.584 20.3281 15.584C17.5667 15.584 15.3281 17.8226 15.3281 20.584C15.3281 23.3454 17.5667 25.584 20.3281 25.584Z" stroke="#B7B7C0" stroke-width="2" stroke-linecap="round" stroke-linejoin="round"/>
<path d="M32.6618 25.5843C32.4399 26.087 32.3737 26.6446 32.4718 27.1853C32.5698 27.7259 32.8276 28.2248 33.2118 28.6176L33.3118 28.7176C33.6217 29.0272 33.8676 29.3948 34.0353 29.7995C34.2031 30.2042 34.2894 30.6379 34.2894 31.076C34.2894 31.514 34.2031 31.9478 34.0353 32.3524C33.8676 32.7571 33.6217 33.1247 33.3118 33.4343C33.0022 33.7442 32.6346 33.9901 32.2299 34.1578C31.8253 34.3256 31.3915 34.4119 30.9534 34.4119C30.5154 34.4119 30.0816 34.3256 29.677 34.1578C29.2723 33.9901 28.9047 33.7442 28.5951 33.4343L28.4951 33.3343C28.1023 32.9501 27.6034 32.6923 27.0628 32.5943C26.5221 32.4963 25.9645 32.5624 25.4618 32.7843C24.9688 32.9956 24.5484 33.3464 24.2523 33.7935C23.9562 34.2407 23.7973 34.7647 23.7951 35.301V35.5843C23.7951 36.4684 23.4439 37.3162 22.8188 37.9413C22.1937 38.5664 21.3458 38.9176 20.4618 38.9176C19.5777 38.9176 18.7299 38.5664 18.1048 37.9413C17.4796 37.3162 17.1284 36.4684 17.1284 35.5843V35.4343C17.1155 34.8826 16.937 34.3476 16.616 33.8988C16.295 33.45 15.8463 33.1081 15.3284 32.9176C14.8258 32.6958 14.2681 32.6296 13.7275 32.7276C13.1868 32.8257 12.6879 33.0834 12.2951 33.4676L12.1951 33.5676C11.8855 33.8776 11.5179 34.1234 11.1133 34.2912C10.7086 34.4589 10.2748 34.5453 9.83678 34.5453C9.39873 34.5453 8.96498 34.4589 8.56032 34.2912C8.15566 34.1234 7.78803 33.8776 7.47845 33.5676C7.16853 33.2581 6.92267 32.8904 6.75492 32.4858C6.58717 32.0811 6.50083 31.6474 6.50083 31.2093C6.50083 30.7713 6.58717 30.3375 6.75492 29.9328C6.92267 29.5282 7.16853 29.1605 7.47845 28.851L7.57845 28.751C7.96268 28.3582 8.22043 27.8593 8.31846 27.3186C8.41649 26.778 8.35031 26.2203 8.12845 25.7176C7.91718 25.2247 7.56638 24.8043 7.11923 24.5082C6.67208 24.212 6.14809 24.0531 5.61178 24.051H5.32845C4.4444 24.051 3.59655 23.6998 2.97143 23.0747C2.34631 22.4495 1.99512 21.6017 1.99512 20.7176C1.99512 19.8336 2.34631 18.9857 2.97143 18.3606C3.59655 17.7355 4.4444 17.3843 5.32845 17.3843H5.47845C6.03011 17.3714 6.56512 17.1928 7.01395 16.8718C7.46277 16.5508 7.80464 16.1022 7.99512 15.5843C8.21698 15.0816 8.28316 14.524 8.18512 13.9833C8.08709 13.4427 7.82934 12.9438 7.44512 12.551L7.34512 12.451C7.0352 12.1414 6.78933 11.7738 6.62158 11.3691C6.45384 10.9644 6.36749 10.5307 6.36749 10.0926C6.36749 9.65459 6.45384 9.22084 6.62158 8.81617C6.78933 8.41151 7.0352 8.04389 7.34512 7.73431C7.65469 7.42439 8.02232 7.17852 8.42698 7.01078C8.83164 6.84303 9.2654 6.75669 9.70345 6.75669C10.1415 6.75669 10.5753 6.84303 10.9799 7.01078C11.3846 7.17852 11.7522 7.42439 12.0618 7.73431L12.1618 7.83431C12.5546 8.21854 13.0535 8.47629 13.5941 8.57432C14.1348 8.67235 14.6924 8.60617 15.1951 8.38431H15.3284C15.8214 8.17304 16.2418 7.82224 16.5379 7.37508C16.8341 6.92793 16.993 6.40395 16.9951 5.86764V5.58431C16.9951 4.70025 17.3463 3.85241 17.9714 3.22729C18.5965 2.60217 19.4444 2.25098 20.3284 2.25098C21.2125 2.25098 22.0603 2.60217 22.6855 3.22729C23.3106 3.85241 23.6618 4.70025 23.6618 5.58431V5.73431C23.6639 6.27062 23.8228 6.7946 24.119 7.24175C24.4151 7.6889 24.8355 8.0397 25.3284 8.25098C25.8311 8.47283 26.3888 8.53901 26.9294 8.44098C27.4701 8.34295 27.969 8.0852 28.3618 7.70098L28.4618 7.60098C28.7714 7.29105 29.139 7.04519 29.5436 6.87744C29.9483 6.7097 30.3821 6.62335 30.8201 6.62335C31.2582 6.62335 31.6919 6.7097 32.0966 6.87744C32.5012 7.04519 32.8689 7.29105 33.1784 7.60098C33.4884 7.91055 33.7342 8.27818 33.902 8.68284C34.0697 9.0875 34.1561 9.52126 34.1561 9.95931C34.1561 10.3974 34.0697 10.8311 33.902 11.2358C33.7342 11.6404 33.4884 12.0081 33.1784 12.3176L33.0784 12.4176C32.6942 12.8104 32.4365 13.3093 32.3384 13.85C32.2404 14.3907 32.3066 14.9483 32.5284 15.451V15.5843C32.7397 16.0773 33.0905 16.4977 33.5377 16.7938C33.9848 17.0899 34.5088 17.2488 35.0451 17.251H35.3284C36.2125 17.251 37.0603 17.6022 37.6855 18.2273C38.3106 18.8524 38.6618 19.7003 38.6618 20.5843C38.6618 21.4684 38.3106 22.3162 37.6855 22.9413C37.0603 23.5665 36.2125 23.9176 35.3284 23.9176H35.1784C34.6421 23.9198 34.1182 24.0787 33.671 24.3748C33.2239 24.6709 32.8731 25.0914 32.6618 25.5843V25.5843Z" stroke="#B7B7C0" stroke-width="2" stroke-linecap="round" stroke-linejoin="round"/>
</g>
<ellipse cx="38.6611" cy="28.584" rx="8" ry="8" fill="#00CCFF"/>
<path d="M42.1201 25.7822L37.1114 30.791L34.5742 28.2538" stroke="white" stroke-width="2" stroke-linecap="round"/>
<defs>
<clipPath id="clip0">
<rect width="40" height="40" fill="white" transform="translate(0.328125 0.583984)"/>
</clipPath>
</defs>
</svg>
