<?xml version="1.0" encoding="utf-8"?>
<!-- Generator: Adobe Illustrator 24.2.1, SVG Export Plug-In . SVG Version: 6.00 Build 0)  -->
<svg version="1.1" id="Layer_1" xmlns="http://www.w3.org/2000/svg" xmlns:xlink="http://www.w3.org/1999/xlink" x="0px" y="0px"
	 viewBox="0 0 60 60" style="enable-background:new 0 0 60 60;" xml:space="preserve">
<style type="text/css">
	.st0{fill:url(#SVGID_1_);}
	.st1{fill-rule:evenodd;clip-rule:evenodd;fill:#00CCFF;}
	.st2{fill:url(#SVGID_2_);}
</style>
<g>
	
		<linearGradient id="SVGID_1_" gradientUnits="userSpaceOnUse" x1="20.8339" y1="270.7584" x2="32.5262" y2="247.6908" gradientTransform="matrix(1 0 0 1 0 -222)">
		<stop  offset="0" style="stop-color:#33CCFF"/>
		<stop  offset="1" style="stop-color:#3888EC"/>
	</linearGradient>
	<path class="st0" d="M10.9,15.1h35.8c2.5,0,4.4,2,4.4,4.4v26.8c0,2.5-2,4.4-4.4,4.4H10.9c-2.5,0-4.4-2-4.4-4.4V19.5
		C6.5,17.1,8.5,15.1,10.9,15.1z"/>
	<path class="st1" d="M6.5,19l22.4,16.3l22.3-15.5v-0.3c0-2.5-2-4.4-4.4-4.4H10.9C8.7,15.1,6.8,16.8,6.5,19z"/>
	
		<linearGradient id="SVGID_2_" gradientUnits="userSpaceOnUse" x1="40.8905" y1="242.0696" x2="53.1468" y2="237.9333" gradientTransform="matrix(1 0 0 1 0 -222)">
		<stop  offset="0" style="stop-color:#FF9100"/>
		<stop  offset="1" style="stop-color:#FE19FF"/>
	</linearGradient>
	<circle class="st2" cx="47.4" cy="17.9" r="6.1"/>
</g>
</svg>
