<?xml version="1.0" encoding="utf-8"?>
<!-- Generator: Adobe Illustrator 24.2.1, SVG Export Plug-In . SVG Version: 6.00 Build 0)  -->
<svg version="1.1" id="Layer_1" xmlns="http://www.w3.org/2000/svg" xmlns:xlink="http://www.w3.org/1999/xlink" x="0px" y="0px"
	 viewBox="0 0 86.7 100" style="enable-background:new 0 0 86.7 100;" xml:space="preserve">
<style type="text/css">
	.st0{fill:#D9D9D9;}
	.st1{fill:#C9C9C9;}
	.st2{fill:#9B6C55;}
	.st3{fill:#85553E;}
	.st4{fill:#9C6E58;}
</style>
<g id="logcso.tif">
	<g>
		<path class="st0" d="M38.9,100c-1.6,0-3.2,0-4.8,0c-0.1-0.3-0.3-0.3-0.5-0.3c-2.8-0.3-5.5-1.1-8.1-2.3c-4.7-2.2-8.6-5.6-11.9-9.6
			c-4.2-5.2-7.3-11-9.4-17.3c-1.7-5-2.9-10.1-3.5-15.4C0.2,52.1,0,49,0,45.9c0-0.6,0.2-0.7,0.8-0.7c21.8,0,43.5,0,65.3,0
			c0.1,2.6-0.1,5.2-0.3,7.8c-0.2,2.5-0.5,5-1,7.5c-0.5,3.1-1.2,6.2-2.1,9.2c-1,3.6-2.3,7-3.8,10.4c-2.7,5.9-6.1,11.3-11.2,15.4
			c-1.8,1.5-3.8,2.7-6.1,3.4c-0.6,0.2-1.3,0.3-1.8,0.6C39.5,99.9,39,99.5,38.9,100z"/>
		<path class="st0" d="M86.7,72.1c-0.3,0-0.3,0.2-0.3,0.4c-1,6.5-4.4,11.4-10.3,14.4c-2.9,1.6-6.1,2.1-9.5,2c-0.3,0-0.5-0.1-0.8-0.1
			c0.1-1,0.2-2,0.4-3c0.2-1.4,0.4-2.7,0.6-4.1c0.2,0,0.5,0,0.7,0c3.6,0,6.6-1.3,9-4.1c3.5-4,3.7-10.2,0.5-14.5
			c-0.8-1-1.7-1.8-2.6-2.7c0.6-1.3,1.4-2.6,2.1-3.8c0.5-0.8,1.1-1.5,1.3-2.4c2.9,2,5.2,4.5,6.7,7.6c0.9,1.8,1.5,3.7,1.7,5.7
			c0,0.2,0,0.5,0.3,0.5C86.7,69.4,86.7,70.7,86.7,72.1z"/>
		<path class="st1" d="M66.9,81.7c-0.2,1.4-0.4,2.7-0.6,4.1c-0.1,1-0.3,2-0.4,3c-1.9-0.1-3.6-0.5-5.3-1.3c-0.7-0.3-1-0.2-1.5,0.4
			c-4,4.8-8.7,8.6-14.6,10.7c-1.5,0.5-3.1,1-4.7,1.1c0.6-0.3,1.2-0.4,1.8-0.6c2.3-0.8,4.2-2,6.1-3.4c5.1-4.1,8.5-9.5,11.2-15.4
			c1.6-3.4,2.8-6.8,3.8-10.4c0.9-3,1.5-6.1,2.1-9.2c0.4-2.5,0.8-5,1-7.5c0.2-2.6,0.4-5.2,0.3-7.8c2,0,4,0,6,0c0.6,0,0.7,0.2,0.7,0.7
			c0,1.7,0,3.5-0.2,5.2c-0.1,0.5,0.2,0.8,0.7,0.9c1.7,0.5,3.2,1.3,4.7,2.2c-0.2,0.9-0.9,1.6-1.3,2.4c-0.7,1.3-1.5,2.5-2.1,3.8
			c-0.7-0.4-1.4-0.8-2.1-1.1c-0.7-0.3-0.8-0.2-0.9,0.5c-0.8,4.5-2,8.8-3.7,13c-1,2.6-2.2,5.2-3.6,7.6c-0.3,0.5-0.2,0.7,0.4,0.9
			C65.3,81.5,66.1,81.7,66.9,81.7z"/>
		<path class="st2" d="M66.1,41c-0.3,0-0.5,0-0.8,0c-21.4,0-42.9,0-64.3,0c-0.9,0-1,0-0.9-0.9C0.3,31,4.1,23.5,10.7,17.3
			c2.2-2.1,4.7-3.8,7.4-5.2c0.4-0.2,0.4-0.4,0.2-0.8c-1.7-3.1-3.4-6.2-5.1-9.3C13,2,13,1.9,12.9,1.8c-0.3-0.7-0.1-1.3,0.5-1.6
			C14-0.2,14.6,0,15,0.6c0.6,1.1,1.2,2.2,1.8,3.3c1.2,2.2,2.4,4.3,3.6,6.5c0.2,0.3,0.3,0.4,0.7,0.2c5.9-2.6,12.2-3.5,18.6-3
			c0.8,0.1,1.7,0.1,2.5,0.4c0.5,0.3,1,0.4,1.6,0.6c6,1.7,10.8,5.2,14.7,10c2.8,3.4,4.8,7.3,6.1,11.6C65.6,33.6,66.1,37.3,66.1,41z
			 M22.9,24.8c0-1.7-1.3-3.1-3.1-3.1c-1.7,0-3,1.4-3.1,3c0,1.7,1.3,3.1,3,3.1C21.5,27.9,22.9,26.6,22.9,24.8z M52.9,27.9
			c1.7,0,3-1.4,3.1-3c0-1.7-1.4-3.1-3.1-3.1c-1.7,0-3,1.4-3,3.1C49.9,26.6,51.2,27.9,52.9,27.9z"/>
		<path class="st3" d="M66.1,41c0-3.7-0.5-7.4-1.6-10.9c-1.3-4.2-3.3-8.1-6.1-11.6c-3.9-4.8-8.7-8.3-14.7-10
			c-0.5-0.1-1.1-0.2-1.6-0.6c2.8,0.3,5.5,1.1,8.1,2.1c0.6,0.2,1.2,0.5,1.8,0.7c0.8,0.2,1.4,0.8,2.2,0.9c0.3,0.5,0.9,0.6,1.4,0.9
			c7.6,4.4,13,10.7,15.7,19.1c0.9,2.8,1.4,5.8,1.4,8.8c0,0.3,0,0.6-0.5,0.6C70.2,41,68.1,41,66.1,41z"/>
		<path class="st4" d="M54.2,11.7c-0.8-0.1-1.4-0.7-2.2-0.9c1.5-2.6,2.9-5.2,4.4-7.8c0.4-0.8,0.9-1.6,1.3-2.4c0.4-0.6,1-0.8,1.6-0.5
			c0.6,0.3,0.8,1,0.4,1.6c-1.8,3.3-3.6,6.5-5.4,9.8C54.4,11.6,54.3,11.7,54.2,11.7z"/>
	</g>
</g>
</svg>
