<?xml version="1.0" encoding="utf-8"?>
<!-- Generator: Adobe Illustrator 24.2.1, SVG Export Plug-In . SVG Version: 6.00 Build 0)  -->
<svg version="1.1" id="Layer_1" xmlns="http://www.w3.org/2000/svg" xmlns:xlink="http://www.w3.org/1999/xlink" x="0px" y="0px"
	 viewBox="0 0 103.5 100" style="enable-background:new 0 0 103.5 100;" xml:space="preserve">
<style type="text/css">
	.st0{fill:#0A7BFF;}
	.st1{fill:#EB3D00;}
	.st2{fill:#00BCD4;}
	.st3{fill:#86C351;}
	.st4{fill:#9032E9;}
</style>
<g>
	<path class="st0" d="M87.5,26.7c-4.3,0-8.2,1.7-11.1,4.5L58.1,18.1c0.1-0.5,0.2-1,0.2-1.5c0-3.5-2.9-6.4-6.4-6.4
		c-3.5,0-6.4,2.9-6.4,6.4s2.9,6.4,6.4,6.4c1.3,0,2.4-0.4,3.4-1l22.4,16.2c1.7-3.6,5.6-6.5,9.9-6.5c6,0,10.8,4.9,10.8,10.8
		c0,4.8-3.1,8.8-7.4,10.3l1.5,5c6.4-2.1,11.1-8.1,11.1-15.2C103.5,33.8,96.3,26.7,87.5,26.7"/>
	<path class="st1" d="M36.2,11.1c-1.3,4.1-0.8,8.4,0.9,11.9L19.2,36.4c-0.4-0.2-0.9-0.5-1.4-0.6c-3.4-1.1-7,0.8-8,4.2
		c-1.1,3.4,0.8,7,4.2,8c3.4,1.1,7-0.8,8-4.2c0.4-1.2,0.4-2.4,0.1-3.5L44.3,24c-2.9-2.7-4.4-7.3-3.2-11.4c1.8-5.7,7.9-8.8,13.5-7
		c4.5,1.5,7.4,5.6,7.5,10.1l5.2,0.1c0-6.8-4.4-13-11.1-15.2C47.9-1.9,38.9,2.7,36.2,11.1"/>
	<path class="st2" d="M6.6,54.4c3.5,2.5,7.6,3.5,11.6,3l7.1,21.1c-0.4,0.3-0.7,0.7-1,1.1c-2.1,2.8-1.4,6.8,1.4,8.9
		c2.8,2.1,6.8,1.5,8.9-1.3c2.1-2.8,1.4-6.8-1.4-8.9c-1-0.7-2.1-1.1-3.3-1.2l-8.5-26.1c-3.5,1.9-8.2,1.9-11.7-0.6
		c-4.8-3.5-5.9-10.2-2.4-15c2.8-3.8,7.6-5.2,11.9-3.8l1.7-4.9c-6.4-2.1-13.7,0-17.8,5.7C-2.1,39.2-0.5,49.2,6.6,54.4"/>
	<path class="st3" d="M88.4,79.2c-1.3-4.1-4.1-7.2-7.7-9.1l6.8-21.2c0.5,0,1-0.1,1.5-0.3c3.4-1.1,5.2-4.6,4.1-8
		c-1.1-3.3-4.6-5.2-8-4.1c-3.4,1.1-5.2,4.6-4.1,8c0.4,1.2,1.1,2.1,1.9,2.9l-8.6,26.1c4,0.5,7.8,3.3,9.1,7.4c1.8,5.6-1.3,11.7-7,13.5
		c-4.5,1.5-9.3-0.2-12-3.8l-4.3,2.9c3.9,5.4,11.1,8,17.8,5.8C86.5,96.5,91.2,87.5,88.4,79.2"/>
	<path class="st4" d="M38.9,96.3c3.5-2.5,5.6-6.2,6.3-10.1l22.3-0.2c0.2,0.4,0.4,0.9,0.7,1.3c2.1,2.8,6.1,3.4,8.9,1.4
		c2.8-2.1,3.4-6.1,1.4-8.9s-6.1-3.4-8.9-1.4c-1,0.7-1.7,1.7-2.1,2.7L40,81.2c0.7,3.9-0.7,8.4-4.1,11c-4.8,3.5-11.5,2.5-15-2.3
		c-2.8-3.8-2.7-8.9-0.1-12.6l-4.1-3.1c-4,5.5-4.2,13,0,18.7C21.9,99.9,31.8,101.5,38.9,96.3"/>
</g>
</svg>
