<svg width="47" height="41" viewBox="0 0 47 41" fill="none" xmlns="http://www.w3.org/2000/svg">
<path d="M25.6128 28.8285C25.6128 29.7146 25.3348 30.4446 24.7787 31.0185C24.2317 31.5924 23.4705 31.9146 22.495 31.985V32.9516H21.2506V31.9397C20.029 31.7786 18.967 31.24 18.0645 30.3237L19.049 28.9796C19.7236 29.6542 20.4575 30.0871 21.2506 30.2784V27.3334C20.3116 27.0615 19.6051 26.7142 19.1311 26.2913C18.6661 25.8583 18.4337 25.229 18.4337 24.4034C18.4337 23.5879 18.6935 22.8931 19.2131 22.3192C19.7328 21.7453 20.4119 21.403 21.2506 21.2922V20.371H22.495V21.3073C23.5525 21.4282 24.5098 21.8964 25.3667 22.7119L24.4368 24.1014C23.8169 23.5073 23.1696 23.1298 22.495 22.9687V25.808C23.5252 26.0698 24.3001 26.4222 24.8197 26.8652C25.3485 27.3082 25.6128 27.9627 25.6128 28.8285ZM20.1567 24.2373C20.1567 24.5293 20.2433 24.7659 20.4165 24.9471C20.5897 25.1284 20.8677 25.2945 21.2506 25.4455V22.9385C20.9224 23.0291 20.6581 23.1952 20.4575 23.4368C20.257 23.6684 20.1567 23.9352 20.1567 24.2373ZM22.495 30.369C22.9417 30.3086 23.2882 30.1526 23.5343 29.9008C23.7804 29.6491 23.9035 29.3521 23.9035 29.0098C23.9035 28.6775 23.7941 28.4157 23.5753 28.2244C23.3656 28.0231 23.0055 27.8418 22.495 27.6807V30.369Z" fill="#BDBDC5"/>
<circle cx="21.8387" cy="26.6613" r="12.8387" stroke="#B7B7C0" stroke-width="2"/>
<path d="M13.0322 17.8548C13.0322 17.8548 13.0322 17.6032 13.0322 10.2226C13.0322 2.84194 16.975 1.5 21.8387 1.5C26.7023 1.5 30.6451 2.84194 30.6451 10.2226C30.6451 16.9323 30.6451 17.8548 30.6451 17.8548" stroke="#B7B7C0" stroke-width="2"/>
<path d="M38.6611 36.584C43.0794 36.584 46.6611 33.0023 46.6611 28.584C46.6611 24.1657 43.0794 20.584 38.6611 20.584C34.2429 20.584 30.6611 24.1657 30.6611 28.584C30.6611 33.0023 34.2429 36.584 38.6611 36.584Z" fill="#00CCFF"/>
<path d="M42.1201 25.7822L37.1114 30.791L34.5742 28.2538" stroke="white" stroke-width="2" stroke-linecap="round"/>
</svg>
