<svg width="160" height="80" viewBox="0 0 160 80" fill="none" xmlns="http://www.w3.org/2000/svg">
<path fill-rule="evenodd" clip-rule="evenodd" d="M18.4862 34.4312H3.47229L6.07576 40.7859H21.0897L18.4862 34.4312Z" fill="#00113C"/>
<path fill-rule="evenodd" clip-rule="evenodd" d="M11.1014 48.5043H2.14429L4.15666 53.4159C4.43757 54.1019 5.32644 54.2804 5.85049 53.7562L11.1014 48.5043Z" fill="#00113C"/>
<path fill-rule="evenodd" clip-rule="evenodd" d="M7.41537 26.6802L3.56629 33.0142C2.94241 34.0408 3.68138 35.3549 4.88287 35.3549H24.4532C24.9914 35.3549 25.4905 35.0742 25.7699 34.6143L29.6188 28.2804C30.2427 27.2536 29.5037 25.9396 28.3022 25.9396H8.73195C8.19388 25.9396 7.69466 26.2204 7.41537 26.6802Z" fill="#06225D"/>
<path fill-rule="evenodd" clip-rule="evenodd" d="M6.07553 40.7856L2.22645 47.1195C1.60256 48.1462 2.34154 49.4604 3.54302 49.4604H15.9246C16.4627 49.4604 16.9619 49.1796 17.2413 48.7198L21.0903 42.3858C21.7142 41.3591 20.9752 40.045 19.7736 40.045H7.3921C6.85403 40.045 6.35482 40.3258 6.07553 40.7856Z" fill="#06225D"/>
<path d="M42.3287 46.7377V40.2796H48.8094V37.3892H42.3287V33.4601H49.532V30.5698H39.2803V46.7377H42.3287ZM54.7495 46.7377V30.5698H51.7914V46.7377H54.7495ZM61.6155 47.099C62.3682 47.099 63.0381 46.9372 63.6252 46.6135C64.2123 46.2899 64.6789 45.8495 65.0252 45.2925H65.2058V46.7377H67.9833V35.6731H65.0252V41.0925C65.0252 41.5441 64.9687 41.9694 64.8558 42.3683C64.7429 42.7672 64.5773 43.1135 64.359 43.407C64.1408 43.7006 63.8773 43.9339 63.5687 44.107C63.2601 44.2802 62.9026 44.3667 62.4961 44.3667C61.8187 44.3667 61.3031 44.1748 60.9493 43.7909C60.5956 43.407 60.4187 42.8162 60.4187 42.0183V35.6731H57.4606V42.3796C57.4606 43.8097 57.8031 44.9538 58.488 45.8119C59.173 46.67 60.2155 47.099 61.6155 47.099ZM83.0009 46.9184C83.4827 46.9184 83.923 46.877 84.3219 46.7942C84.7208 46.7114 85.0934 46.5872 85.4397 46.4216L84.6042 43.8248C84.4687 43.9151 84.3257 43.9866 84.1751 44.0393C84.0246 44.092 83.8214 44.1183 83.5655 44.1183C83.1741 44.1183 82.873 43.9979 82.6622 43.757C82.5117 43.6065 82.4101 43.4221 82.3574 43.2038C82.3047 42.9855 82.2783 42.7484 82.2783 42.4925V38.2021H84.9881V35.6731H82.2783V32.2859H79.3202V35.6731H75.075V32.2859H72.1169V35.6731H70.175V38.2021H72.1169V43.057C72.1169 44.3065 72.4707 45.2699 73.1782 45.9474C73.4793 46.2485 73.8519 46.4856 74.296 46.6587C74.7401 46.8318 75.2406 46.9184 75.7976 46.9184C76.174 46.9184 76.4939 46.8995 76.7573 46.8619C77.0208 46.8243 77.303 46.7528 77.6041 46.6474L77.4009 43.8699C77.2202 43.9452 77.0546 44.0054 76.9041 44.0506C76.7535 44.0957 76.5729 44.1183 76.3621 44.1183C75.9707 44.1183 75.6697 43.9979 75.4589 43.757C75.3084 43.6065 75.2067 43.4221 75.1541 43.2038C75.1014 42.9855 75.075 42.7484 75.075 42.4925V38.2021H79.3202V43.057C79.3202 44.3065 79.674 45.2699 80.3815 45.9474C80.6826 46.2485 81.0552 46.4856 81.4993 46.6587C81.9434 46.8318 82.4439 46.9184 83.0009 46.9184ZM92.554 47.099C93.8035 47.099 94.861 46.8205 95.7266 46.2635C96.5922 45.7065 97.2809 44.9764 97.7928 44.0732L95.3315 42.8538C95.0755 43.3205 94.7255 43.7081 94.2814 44.0167C93.8373 44.3253 93.2766 44.4796 92.5992 44.4796C92.2529 44.4796 91.9142 44.4307 91.583 44.3328C91.2518 44.235 90.947 44.0769 90.6685 43.8586C90.39 43.6404 90.1567 43.3694 89.9685 43.0457C89.7803 42.7221 89.6561 42.3344 89.5959 41.8828H97.9283C97.9283 41.7925 97.9358 41.7097 97.9508 41.6344C97.9508 41.5591 97.9584 41.4764 97.9734 41.386V41.1151C97.9734 40.2871 97.853 39.5193 97.6121 38.8118C97.3713 38.1043 97.0175 37.4908 96.5508 36.9715C96.0841 36.4521 95.5046 36.0456 94.8121 35.7521C94.1196 35.4585 93.3293 35.3118 92.4411 35.3118C91.5981 35.3118 90.8266 35.4698 90.1265 35.786C89.4265 36.1021 88.8206 36.5274 88.3088 37.0618C87.7969 37.5962 87.398 38.2209 87.112 38.936C86.826 39.6511 86.683 40.4075 86.683 41.2054C86.683 42.0635 86.8297 42.85 87.1233 43.5651C87.4168 44.2802 87.8271 44.9011 88.3539 45.428C88.8808 45.9549 89.5018 46.3651 90.2169 46.6587C90.9319 46.9522 91.711 47.099 92.554 47.099ZM95.1056 39.7828H89.754C89.9497 39.1355 90.2884 38.6312 90.7701 38.2699C91.2518 37.9086 91.8088 37.7279 92.4411 37.7279C92.8927 37.7279 93.2803 37.7957 93.604 37.9311C93.9277 38.0666 94.1986 38.2398 94.4169 38.4505C94.6352 38.6613 94.8008 38.8871 94.9137 39.1279C95.0266 39.3688 95.0906 39.5871 95.1056 39.7828ZM103.101 46.7377V41.3183C103.101 40.8667 103.165 40.4489 103.293 40.065C103.421 39.6812 103.601 39.3462 103.834 39.0602C104.068 38.7742 104.35 38.5521 104.681 38.3941C105.012 38.236 105.381 38.157 105.788 38.157C106.104 38.157 106.371 38.1833 106.589 38.236C106.808 38.2887 107.007 38.3602 107.188 38.4505L107.978 35.7634C107.782 35.6429 107.545 35.5451 107.267 35.4698C106.988 35.3946 106.653 35.3569 106.262 35.3569C105.946 35.3569 105.626 35.4021 105.302 35.4924C104.979 35.5827 104.678 35.7107 104.399 35.8763C104.121 36.0419 103.868 36.2376 103.643 36.4634C103.417 36.6892 103.236 36.9376 103.101 37.2086H102.92V35.6731H100.143V46.7377H103.101ZM113.015 46.7377V40.2796H119.496V37.3892H113.015V33.4601H120.218V30.5698H109.967V46.7377H113.015ZM125.436 46.7377V30.5698H122.478V46.7377H125.436ZM133.363 47.099C134.221 47.099 135.008 46.9522 135.723 46.6587C136.438 46.3651 137.055 45.9587 137.574 45.4393C138.094 44.9199 138.5 44.299 138.794 43.5764C139.087 42.8538 139.234 42.0635 139.234 41.2054C139.234 40.3473 139.087 39.557 138.794 38.8344C138.5 38.1118 138.094 37.4908 137.574 36.9715C137.055 36.4521 136.438 36.0456 135.723 35.7521C135.008 35.4585 134.221 35.3118 133.363 35.3118C132.505 35.3118 131.718 35.4585 131.003 35.7521C130.288 36.0456 129.671 36.4521 129.152 36.9715C128.632 37.4908 128.226 38.1118 127.932 38.8344C127.639 39.557 127.492 40.3473 127.492 41.2054C127.492 42.0635 127.639 42.8538 127.932 43.5764C128.226 44.299 128.632 44.9199 129.152 45.4393C129.671 45.9587 130.288 46.3651 131.003 46.6587C131.718 46.9522 132.505 47.099 133.363 47.099ZM133.363 44.3667C132.972 44.3667 132.603 44.2952 132.257 44.1522C131.91 44.0092 131.602 43.8022 131.331 43.5312C131.06 43.2602 130.845 42.9291 130.687 42.5377C130.529 42.1463 130.45 41.7022 130.45 41.2054C130.45 40.7086 130.529 40.2645 130.687 39.8731C130.845 39.4817 131.06 39.1505 131.331 38.8795C131.602 38.6086 131.91 38.4016 132.257 38.2586C132.603 38.1156 132.972 38.0441 133.363 38.0441C133.739 38.0441 134.104 38.1156 134.458 38.2586C134.812 38.4016 135.124 38.6086 135.395 38.8795C135.666 39.1505 135.881 39.4817 136.039 39.8731C136.197 40.2645 136.276 40.7086 136.276 41.2054C136.276 41.7022 136.197 42.1463 136.039 42.5377C135.881 42.9291 135.666 43.2602 135.395 43.5312C135.124 43.8022 134.812 44.0092 134.458 44.1522C134.104 44.2952 133.739 44.3667 133.363 44.3667ZM146.687 46.7377L148.9 39.7602H149.058L151.271 46.7377H154.455L158 35.6731H154.726L152.919 42.6054H152.761L150.548 35.6731H147.5L145.31 42.6054H145.152L143.323 35.6731H140.003L143.548 46.7377H146.687Z" fill="#06225D"/>
</svg>
