<?xml version="1.0" encoding="utf-8"?>
<!-- Generator: Adobe Illustrator 24.2.1, SVG Export Plug-In . SVG Version: 6.00 Build 0)  -->
<svg version="1.1" id="Layer_2" xmlns="http://www.w3.org/2000/svg" xmlns:xlink="http://www.w3.org/1999/xlink" x="0px" y="0px"
	 viewBox="0 0 96.6 100" style="enable-background:new 0 0 96.6 100;" xml:space="preserve">
<style type="text/css">
	.st0{fill:#FFFFFF;}
	.st1{fill:#FEFF00;}
	.st2{fill:#E34A00;}
	.st3{fill:#1B00FF;}
	.st4{fill:#0C008B;}
	.st5{fill:#FF0000;}
</style>
<g>
	<g>
		<path id="headband-back_1_" class="st0" d="M28.7,11.6c0,0,0.7-4.8,6.5-5.9s11.3,1.5,13.9,1.8c1,0.1,8.5-4.3,10.2-7.2l6.1,4.9
			l-5.1,4.4L36.8,9.1c-1.8,0-3.6,0.4-5.2,1.4c-0.6,0.4-1.2,0.8-1.7,1.4L28.7,11.6z"/>
		<path d="M30,12.1l-1.6-0.3l0-0.3c0-0.1,0.2-1.3,1.1-2.6c0.9-1.3,2.5-2.9,5.6-3.4c4.2-0.8,8.2,0.3,11.1,1.1
			c1.2,0.3,2.1,0.6,2.9,0.7c0.3,0,2.3-0.9,4.6-2.4c2.6-1.7,4.6-3.4,5.3-4.6L59.2,0l6.6,5.3L60.4,10L36.8,9.3c-1.8,0-3.6,0.4-5.1,1.3
			c-0.6,0.4-1.2,0.8-1.6,1.3L30,12.1z M29,11.4l0.7,0.1c0.5-0.5,1-0.9,1.7-1.3c1.6-1,3.4-1.5,5.4-1.4l23.4,0.6L65,5.3l-5.6-4.5
			c-2,2.9-9.1,7.2-10.3,7c-0.8-0.1-1.8-0.4-3-0.7C43.3,6.4,39.3,5.3,35.3,6c-2.3,0.4-4.1,1.5-5.2,3.2C29.4,10.1,29.1,11,29,11.4z"/>
	</g>
	<g>
		<path id="right-claw_3_" class="st1" d="M39.2,40.8l0.4,3.5c0,0-7-1.8-13.7,5.4h1.5c0,0,4.2-3.6,9.3-3.5c0,0-4.8,1.2-7.9,3.5h2.5
			c0,0,5.7-2.8,9.3-2.4c2.7,0.3,6.6,3.2,6.6,3.2l-0.9-2.2L44.7,47c-1.4-0.9-2.1-2.4-1.9-4l0-0.9L39.2,40.8z"/>
		<path id="right-claw_1_" d="M39.6,41.3l2.8,1l0,0.7c-0.2,1.7,0.6,3.4,2.1,4.3l1.6,1.2l0.5,1.2c-1.3-0.9-4-2.5-5.9-2.7
			c-0.3,0-0.5,0-0.8,0c-3.5,0-7.9,2.1-8.6,2.4h-1.4c3-1.9,6.9-2.9,7-2.9l2.4-0.6l-2.4-0.1c-0.1,0-0.2,0-0.2,0c-2.7,0-5.1,1-6.6,1.8
			c-1.4,0.7-2.3,1.5-2.6,1.7h-0.6c1.8-1.8,3.8-3.1,5.9-3.9c2-0.8,3.8-1,5-1c1.2,0,2,0.2,2,0.2l0.5,0.1L40,44.3L39.6,41.3 M39.2,40.8
			l0.4,3.5c0,0-0.8-0.2-2.1-0.2c-2.6,0-7.1,0.8-11.6,5.6h1.5c0,0,4.1-3.5,9.1-3.5c0.1,0,0.1,0,0.2,0c0,0-4.8,1.2-7.9,3.5h2.5
			c0,0,4.9-2.4,8.5-2.4c0.3,0,0.5,0,0.8,0c2.7,0.3,6.6,3.2,6.6,3.2l-0.9-2.2L44.7,47c-1.4-0.9-2.1-2.4-1.9-4l0-0.9L39.2,40.8
			L39.2,40.8z"/>
	</g>
	<g>
		<path id="left-claw_3_" class="st1" d="M52.9,46.4l-1.1,5.1c0,0-6.3,0.4-13.4,7.6l2.1-0.4c0,0,3.5-3.5,7.5-4c0,0-4.1,1.8-6.4,4.2
			l2.4-0.3c0,0,8.8-6.3,16.3-4c0,0-0.9-2.2-4.5-2.4l0.7-3.5L52.9,46.4z"/>
		<path id="left-claw_1_" d="M53.1,46.9l3.1,2l-0.7,3.3l-0.1,0.4l0.4,0c1.4,0,2.6,0.4,3.4,1.1c0.2,0.1,0.3,0.3,0.4,0.4
			c-0.9-0.2-1.9-0.3-2.9-0.3c-3.4,0-6.7,1.2-8.9,2.3c-2.1,1-3.6,2-3.9,2.2l-1.3,0.2c2.3-2,5.5-3.4,5.6-3.4l1.9-0.8l-2,0.2
			c-3.8,0.4-7.1,3.5-7.6,4l-1,0.2c3.3-3.2,6.4-4.8,8.4-5.7c2.4-1,4-1.1,4-1.1l0.2,0l0-0.2L53.1,46.9 M52.9,46.4l-1.1,5.1
			c0,0-6.3,0.4-13.4,7.6l2.1-0.4c0,0,3.5-3.5,7.5-4c0,0-4.1,1.8-6.4,4.2l2.4-0.3c0,0,6.2-4.5,12.7-4.5c1.2,0,2.4,0.2,3.6,0.5
			c0,0-0.9-2.2-4.5-2.4l0.7-3.5L52.9,46.4L52.9,46.4z"/>
	</g>
	<g>
		<path id="torso_3_" class="st2" d="M52.2,46c0,0-9.6-3.9-12.9-4.8s-9-3.2-13.8-3.3c-5.6-0.1-9.7-1.9-9.7-1.9l11.3-3.5l6.1-5.9
			l5.8-2.2L52.2,46z"/>
		<path id="torso_1_" d="M38.8,25.1l12.1,19.8c-2.8-1.1-8.9-3.5-11.5-4.2c-0.9-0.2-2-0.6-3.1-0.9c-3.2-1-7.2-2.3-10.8-2.3
			c-3.5,0-6.4-0.8-8.1-1.3l9.8-3l0.1,0l0.1-0.1l6-5.8L38.8,25.1 M39.1,24.5l-5.8,2.2l-6.1,5.9l-11.3,3.5c0,0,4.1,1.9,9.7,1.9
			c4.7,0,10.4,2.4,13.8,3.3S52.2,46,52.2,46L39.1,24.5L39.1,24.5z"/>
	</g>
	<g>
		<path id="head-back_3_" class="st3" d="M17,36.3c0,0-3.6-0.5-6.2-3.6C8.2,29.6,9,23.8,9,23.8s0.7-8.1,9.5-11.3
			c6.7-2.5,12.6-0.2,12.6-0.2s0.2,0.1,0.4-0.1c0.3-0.3,2.9-3.9,8.6-5c4.5-0.9,18.5-1.1,26,6.9S38.9,25.5,38.9,25.5s-3.5,0.3-7.1,3.9
			S29.4,33.9,17,36.3z"/>
		<path id="head-back_1_" d="M45.5,7.2c4.1,0,14.2,0.7,20.3,7.1c0.8,0.9,1.1,1.7,0.8,2.4c-0.5,1.5-3,2.7-5,3.5
			c-2.4,0.9-5.6,1.8-9.5,2.7C45.5,24.3,39,25,38.9,25c-0.2,0-3.8,0.4-7.4,4c-0.6,0.6-1,1.1-1.4,1.5c-2.1,2.3-2.9,3.2-13.1,5.3
			c-0.5-0.1-3.5-0.7-5.7-3.4c-2.4-2.9-1.6-8.4-1.6-8.5l0,0l0,0c0,0,0.2-2,1.4-4.3c0.7-1.4,1.6-2.6,2.8-3.6c1.4-1.3,3.1-2.3,5-3
			c2-0.7,4.2-1.1,6.4-1.1c3.3,0,5.6,0.8,5.8,0.9c0.1,0,0.2,0.1,0.3,0.1c0.2,0,0.5-0.1,0.7-0.3c0,0,0.1-0.1,0.1-0.2
			c2.6-3,5.9-4.2,8.1-4.7C41.6,7.3,43.5,7.2,45.5,7.2L45.5,7.2 M45.5,6.7c-2.2,0-4.1,0.2-5.3,0.4c-5.7,1.2-8.3,4.8-8.6,5
			c-0.1,0.1-0.2,0.1-0.3,0.1c-0.1,0-0.1,0-0.1,0s-2.5-0.9-6-0.9c-1.9,0-4.2,0.3-6.6,1.2C9.7,15.7,9,23.8,9,23.8s-0.9,5.8,1.8,8.9
			s6.2,3.6,6.2,3.6c12.4-2.5,11.3-3.4,14.9-7s7.1-3.9,7.1-3.9s34.8-3.6,27.3-11.6C60.7,8.1,51.7,6.7,45.5,6.7L45.5,6.7z"/>
	</g>
	<g>
		<path id="tail_1_" class="st3" d="M85.4,99.5l5.1-5.6l-7.7-15.8l8.8,13.8l4.6-6.5c0,0-20.6-21.3-21.2-45.6l-7.8,1L69,56.7
			C69,56.7,68.9,66.3,85.4,99.5z"/>
		<path d="M85.4,100l-0.2-0.3c-4.7-9.5-11-23-14.4-33.9c-2-6.3-2-8.8-2-9l-1.8-16.2l8.4-1l0,0.3c0.1,5.5,1.3,11.3,3.6,17.3
			c1.8,4.8,4.2,9.6,7.2,14.5c5.1,8.2,10.3,13.6,10.3,13.6l0.2,0.2l-5,7l-6.5-10.2L90.9,94L85.4,100z M67.5,41l1.7,15.7l0,0
			c0,0,0,2.5,2.1,9c3.3,10.7,9.5,24,14.2,33.4l4.8-5.1l-7.6-15.7l0.5-0.3l8.6,13.5l4.2-6c-0.9-1-5.6-6.1-10.2-13.6
			c-3-4.9-5.5-9.8-7.3-14.6c-2.2-5.9-3.4-11.7-3.6-17.2L67.5,41z"/>
	</g>
	<g>
		<path id="wing_4_" class="st4" d="M81.6,48.7c0.4-2,0.6-4,0.7-6c-1.1-2-5-5.4-5-5.4c2.6,1.3,4.6,3.3,4.9,3.7c0,0,0-0.1,0-0.1
			c-0.7-9-8.5-20.6-14.3-25.4S55.6,8.2,48.1,9.3S37.1,16,37.1,18.8c0,3.7,5.3,12.6,7.5,15.9c2.6,3.8,7.2,11.1,7.5,11.3
			c14.3,10.4,25.4,14.8,25.4,14.8s0.6-1.3,1.4-3.3c-2.1-4.5-8.4-11.1-8.4-11.1c5.9,2.8,9.1,9.2,9.1,9.2c0.5-1.6,1.1-3.4,1.6-5.3
			c-0.6-1.7-7.8-9.7-7.8-9.7C78.1,43.4,81.6,48.6,81.6,48.7z"/>
		<path id="wing_2_" d="M51.6,9.6L51.6,9.6c5.6,0,10.8,2,16,6.2c3,2.4,6.3,6.5,9,11c2.7,4.5,4.4,8.9,5,12.7c-0.9-0.8-2.3-1.9-4-2.7
			L74,35l3,2.6c0,0,3.7,3.2,4.8,5.2c0,1.4-0.2,2.9-0.4,4.5c-1.3-1.7-4.1-5-7.6-7l-2.9-1.6l2.2,2.5c2.8,3.1,7,8,7.6,9.4
			c-0.3,1.3-0.7,2.6-1.1,4c-0.4-0.7-1-1.6-1.8-2.6c-1.4-1.8-3.8-4.3-7-5.8l-2.7-1.3l2,2.1c0.1,0.1,6.1,6.3,8.3,10.7
			c-0.5,1.2-0.8,2.1-1.1,2.6c-1-0.4-3.4-1.5-6.8-3.3c-7.5-3.9-13.9-8.3-18-11.3c-0.3-0.3-1.8-2.6-3.2-4.9c-1.4-2.2-3-4.6-4.2-6.4
			c-2.3-3.4-7.4-12.1-7.5-15.6c0-1.1,0.6-3.1,2.5-5c1.4-1.5,3.9-3.4,8-4C49.3,9.7,50.4,9.6,51.6,9.6 M51.6,9c-1.1,0-2.3,0.1-3.5,0.3
			c-7.5,1.1-10.9,6.7-10.9,9.5c0,3.7,5.3,12.6,7.5,15.9c2.6,3.8,7.2,11.1,7.5,11.3c14.3,10.4,25.4,14.8,25.4,14.8s0.6-1.3,1.4-3.3
			c-2.1-4.5-8.4-11.1-8.4-11.1c5.9,2.8,9.1,9.2,9.1,9.2c0.5-1.6,1.1-3.4,1.6-5.3c-0.6-1.7-7.8-9.7-7.8-9.7c4.7,2.7,8.2,7.8,8.2,7.9
			c0.4-2,0.6-4,0.7-6c-1.1-2-5-5.4-5-5.4c2.6,1.3,4.6,3.3,4.9,3.7c0,0,0-0.1,0-0.1c-0.7-9-8.5-20.6-14.3-25.4
			C62.9,11.3,57.6,9,51.6,9L51.6,9z"/>
	</g>
	<g id="eye">
		<g>
			<path class="st5" d="M15.5,24.5c0,0,0.5-6.2,6.5-7s11.1,4.4,11.1,4.4s-6.6,7.5-12.8,5.6C16.2,26.2,15.5,24.5,15.5,24.5z"/>
			<path d="M22.4,28.1c-0.8,0-1.5-0.1-2.2-0.3c-4.3-1.3-5-3.1-5-3.2l0-0.1l0-0.1c0-0.1,0.1-1.6,1-3.3c0.8-1.6,2.5-3.5,5.7-3.9
				c3.2-0.4,6.1,0.8,8,1.9c2,1.2,3.3,2.5,3.4,2.5l0.2,0.2l-0.2,0.2c-0.1,0.1-1.7,1.9-4.1,3.5C26.8,27.2,24.5,28.1,22.4,28.1z
				 M15.8,24.4c0.2,0.3,1.1,1.7,4.6,2.8c5.4,1.7,11.3-4.2,12.4-5.3c-1-0.9-5.6-4.8-10.7-4.1c-2.4,0.3-4.2,1.5-5.3,3.6
				C16,22.8,15.8,24.1,15.8,24.4z"/>
		</g>
		<g>
			<path class="st1" d="M27.6,22.1c0-2.1-1.1-3.5-3.5-4.1c0,0-2.1,1.6-4.8,3.3c0,0-0.1,0.5-0.1,0.8c0,2.3,1.9,4.2,4.2,4.2
				S27.6,24.4,27.6,22.1z"/>
			<path d="M24.2,18.6c1.9,0.6,2.8,1.7,2.8,3.5c0,2-1.6,3.6-3.6,3.6c-2,0-3.6-1.6-3.6-3.6c0-0.1,0-0.3,0-0.5
				C21.3,20.7,22.7,19.7,24.2,18.6 M24.1,18c0,0-2.1,1.6-4.8,3.3c0,0-0.1,0.5-0.1,0.8c0,2.3,1.9,4.2,4.2,4.2s4.2-1.9,4.2-4.2
				C27.6,20.1,26.5,18.7,24.1,18C24.1,18,24.1,18,24.1,18L24.1,18z"/>
		</g>
		<circle cx="22.2" cy="23.1" r="2.2"/>
	</g>
	<g>
		<path id="peak_3_" class="st1" d="M13.8,24c-1-0.6-4.8-0.5-7.1-0.1c-4.9,0.9-8,9-6.2,11.2c0.7,0.9,4.3-1.4,7.6-2
			c1.6-0.3,4.3-0.6,6-0.2c0.5,0.1,1-2.4,0.9-5C14.9,26.2,15,24.8,13.8,24z"/>
		<path id="peak_1_" d="M10.8,24c1.6,0,2.4,0.2,2.7,0.4c0.8,0.5,0.9,1.4,0.9,2.9c0,0.2,0,0.3,0,0.5c0.1,2.3-0.2,4-0.4,4.4
			c-0.5-0.1-1.2-0.1-1.9-0.1c-1.5,0-3.1,0.2-4.1,0.4c-1.4,0.3-2.9,0.9-4.2,1.4c-1.1,0.4-2.2,0.9-2.8,0.9c-0.1,0-0.1,0-0.1,0
			c-0.6-0.8-0.5-2.6,0.2-4.6c0.5-1.4,1.3-2.7,2.3-3.8c1-1.1,2.2-1.8,3.4-2C8,24.2,9.5,24,10.8,24 M10.8,23.5c-1.4,0-2.9,0.1-4.1,0.3
			c-4.9,0.9-8,9-6.2,11.2c0.1,0.1,0.3,0.2,0.6,0.2c1.3,0,4.3-1.7,7-2.2c1-0.2,2.6-0.4,3.9-0.4c0.7,0,1.5,0,2,0.2c0,0,0,0,0,0
			c0.5,0,0.9-2.4,0.8-5c-0.1-1.7,0-3-1.2-3.9C13.3,23.6,12.2,23.5,10.8,23.5L10.8,23.5z"/>
	</g>
	<g>
		<path id="headband_3_" class="st0" d="M9.5,21.5l21.3-9.4c0,0-4.3-1.5-8.7,0s-10.8,5.2-10.8,5.2S9.5,20.4,9.5,21.5z"/>
		<path id="headband_1_" d="M26.3,12c1.2,0,2.2,0.1,3,0.3l-18.9,8.3c0.3-0.8,0.9-2,1.4-2.9c0.9-0.5,6.6-3.8,10.6-5.1
			C23.5,12.2,24.9,12,26.3,12 M26.3,11.4c-1.3,0-2.7,0.2-4.1,0.7c-4.4,1.5-10.8,5.2-10.8,5.2s-1.8,3.1-1.8,4.2l21.3-9.4
			C30.9,12.1,28.9,11.4,26.3,11.4L26.3,11.4z"/>
	</g>
	<g>
		<path id="headband-front_1_" class="st0" d="M30,12.5c0,0,2,3,10,4.7c8,1.7,17-3.3,21.7-6.4l7.2,6.7c0,0-17.3,4.4-26.1,3.7
			c-5.7-0.4-13.5-8.5-13.5-8.5L30,12.5z"/>
		<path d="M44.7,21.6c-0.7,0-1.3,0-1.9-0.1c-5.7-0.4-13.4-8.2-13.7-8.5l-0.3-0.3l1.2-0.5l0.1,0.2c0,0,0.5,0.7,2,1.7
			c1.4,0.9,3.8,2.1,7.9,2.9c4.1,0.9,11.1,0.5,21.5-6.4l0.2-0.1l7.7,7.2L69,17.8C68.8,17.8,53.9,21.6,44.7,21.6z M29.8,12.9
			c0.6,0.6,2.3,2.2,4.3,3.8c3.5,2.7,6.5,4.2,8.7,4.3c7.8,0.6,22.7-2.9,25.6-3.6l-6.7-6.3c-4.9,3.2-11.8,6.7-18.3,6.7
			c-1.2,0-2.3-0.1-3.5-0.4c-7-1.5-9.5-3.9-10.1-4.6L29.8,12.9z"/>
	</g>
</g>
</svg>
