<?xml version="1.0" encoding="utf-8"?>
<!-- Generator: Adobe Illustrator 24.2.1, SVG Export Plug-In . SVG Version: 6.00 Build 0)  -->
<svg version="1.1" id="Layer_1" xmlns="http://www.w3.org/2000/svg" xmlns:xlink="http://www.w3.org/1999/xlink" x="0px" y="0px"
	 viewBox="0 0 102.5 100" style="enable-background:new 0 0 102.5 100;" xml:space="preserve">
<style type="text/css">
	.st0{fill-rule:evenodd;clip-rule:evenodd;fill:#191717;}
	.st1{fill:#191717;}
</style>
<g>
	<path class="st0" d="M51.3,0C22.9,0,0,22.9,0,51.3c0,22.7,14.7,41.8,35.1,48.6c2.5,0.5,3.5-1.1,3.5-2.5c0-1.2-0.1-5.3-0.1-9.5
		c-14.3,3.1-17.2-6.1-17.2-6.1c-2.3-5.9-5.7-7.5-5.7-7.5c-4.7-3.1,0.3-3.1,0.3-3.1c5.2,0.3,7.9,5.3,7.9,5.3c4.6,7.8,12,5.6,14.9,4.2
		c0.4-3.3,1.8-5.6,3.2-6.9c-11.4-1.2-23.3-5.6-23.3-25.3c0-5.6,2-10.2,5.3-13.8c-0.5-1.3-2.3-6.5,0.5-13.6c0,0,4.3-1.4,14.1,5.3
		c4.1-1.1,8.5-1.7,12.8-1.7s8.7,0.6,12.8,1.7c9.8-6.6,14.1-5.3,14.1-5.3c2.8,7,1,12.3,0.5,13.6c3.3,3.6,5.3,8.1,5.3,13.8
		c0,19.7-12,24-23.4,25.3c1.9,1.6,3.5,4.7,3.5,9.5c0,6.9-0.1,12.4-0.1,14.1c0,1.4,0.9,3,3.5,2.5c20.4-6.8,35.1-26,35.1-48.6
		C102.5,22.9,79.5,0,51.3,0z"/>
	<path class="st1" d="M19.4,73.6c-0.1,0.3-0.5,0.3-0.8,0.2c-0.3-0.2-0.6-0.5-0.4-0.8c0.1-0.3,0.5-0.3,0.8-0.2S19.5,73.3,19.4,73.6
		L19.4,73.6z"/>
	<path class="st1" d="M21.5,75.9c-0.3,0.3-0.8,0.1-1-0.3c-0.3-0.3-0.4-0.8-0.2-1.1c0.3-0.3,0.7-0.1,1,0.3
		C21.6,75.2,21.7,75.7,21.5,75.9L21.5,75.9z"/>
	<path class="st1" d="M23.5,78.9c-0.3,0.3-0.8,0-1.1-0.4c-0.3-0.4-0.3-1,0-1.2c0.3-0.3,0.8,0,1.1,0.4C23.9,78.1,23.9,78.6,23.5,78.9
		L23.5,78.9z"/>
	<path class="st1" d="M26.3,81.7c-0.3,0.3-0.8,0.3-1.4-0.2c-0.4-0.4-0.6-1-0.3-1.3c0.3-0.3,0.8-0.3,1.4,0.2
		C26.5,80.8,26.6,81.4,26.3,81.7L26.3,81.7z"/>
	<path class="st1" d="M30.1,83.4c-0.1,0.4-0.7,0.6-1.3,0.4c-0.6-0.2-0.9-0.7-0.8-1c0.1-0.4,0.7-0.6,1.3-0.4
		C29.9,82.5,30.2,82.9,30.1,83.4L30.1,83.4z"/>
	<path class="st1" d="M34.3,83.7c0,0.4-0.5,0.8-1.1,0.8c-0.6,0-1.1-0.3-1.1-0.8s0.5-0.8,1.1-0.8S34.3,83.3,34.3,83.7L34.3,83.7z"/>
	<path class="st1" d="M38.2,83c0.1,0.4-0.3,0.8-0.9,0.9c-0.6,0.1-1.1-0.2-1.2-0.6c-0.1-0.4,0.3-0.8,0.9-0.9
		C37.6,82.3,38.1,82.6,38.2,83L38.2,83z"/>
</g>
</svg>
