<?xml version="1.0" encoding="utf-8"?>
<!-- Generator: Adobe Illustrator 24.2.1, SVG Export Plug-In . SVG Version: 6.00 Build 0)  -->
<svg version="1.1" id="Layer_1" xmlns:sketch="http://www.bohemiancoding.com/sketch/ns"
	 xmlns="http://www.w3.org/2000/svg" xmlns:xlink="http://www.w3.org/1999/xlink" x="0px" y="0px" viewBox="0 0 108.4 100"
	 style="enable-background:new 0 0 108.4 100;" xml:space="preserve">
<style type="text/css">
	.st0{fill-rule:evenodd;clip-rule:evenodd;fill:#E24329;}
	.st1{fill-rule:evenodd;clip-rule:evenodd;fill:#FC6D26;}
	.st2{fill-rule:evenodd;clip-rule:evenodd;fill:#FCA326;}
</style>
<desc>Created with Sketch.</desc>
<g id="Group">
	<path id="Fill-4" class="st0" d="M54.3,100L54.3,100l19.9-61.4H34.3L54.3,100L54.3,100z"/>
	<path id="Fill-6" class="st0" d="M0,0"/>
	<path id="Fill-8" class="st1" d="M54.3,100l-20-61.4H6.4L54.3,100z"/>
	<path id="Fill-10" class="st1" d="M0,0"/>
	<path id="Fill-12" class="st2" d="M6.4,38.6L6.4,38.6L0.3,57.3c-0.6,1.7,0.1,3.6,1.5,4.6l52.5,38.1L6.4,38.6z"/>
	<path id="Fill-14" class="st2" d="M0,0"/>
	<path id="Fill-16" class="st0" d="M6.4,38.6h28l-12.1-37c-0.6-1.9-3.3-1.9-3.9,0L6.4,38.6z"/>
	<path id="Fill-18" class="st1" d="M54.3,100l19.9-61.4h28L54.3,100z"/>
	<path id="Fill-20" class="st2" d="M102.2,38.6L102.2,38.6l6,18.6c0.6,1.7-0.1,3.6-1.5,4.6L54.3,99.9L102.2,38.6z"/>
	<path id="Fill-22" class="st0" d="M102.2,38.6h-28l12-37c0.6-1.9,3.3-1.9,3.9,0L102.2,38.6z"/>
</g>
</svg>
