<?xml version="1.0" encoding="utf-8"?>
<!-- Generator: Adobe Illustrator 24.2.1, SVG Export Plug-In . SVG Version: 6.00 Build 0)  -->
<svg version="1.1" id="Layer_1" xmlns="http://www.w3.org/2000/svg" xmlns:xlink="http://www.w3.org/1999/xlink" x="0px" y="0px"
	 viewBox="0 0 100 100" style="enable-background:new 0 0 100 100;" xml:space="preserve">
<style type="text/css">
	.st0{fill:#478AFF;}
</style>
<g>
	<path class="st0" d="M50,27.2c-12.6,0-22.8,10.2-22.8,22.8S37.4,72.8,50,72.8S72.8,62.6,72.8,50l0,0C72.8,37.4,62.6,27.2,50,27.2z"
		/>
	<circle class="st0" cx="82.7" cy="18.9" r="10.4"/>
	<path class="st0" d="M95.5,29.3l-0.4-1l-0.7,0.8c-1.7,1.9-3.9,3.4-6.3,4.3l-0.7,0.2l0.3,0.7c8.7,20.8-1.2,44.8-22,53.4
		c-20.8,8.7-44.8-1.2-53.4-22c-8.7-20.8,1.2-44.8,22-53.4C45,7.9,57,8.2,67.5,13.2l0.6,0.3l0.3-0.7c1-2.4,2.6-4.4,4.6-6l0.8-0.7
		l-0.9-0.5C65.8,1.9,58,0,50,0C22.4,0,0,22.4,0,50s22.4,50,50,50s50-22.4,50-50C100,42.8,98.5,35.8,95.5,29.3L95.5,29.3z"/>
</g>
</svg>
