<?xml version="1.0" encoding="utf-8"?>
<!-- Generator: Adobe Illustrator 26.3.1, SVG Export Plug-In . SVG Version: 6.00 Build 0)  -->
<svg version="1.1" id="Layer_1" xmlns="http://www.w3.org/2000/svg" xmlns:xlink="http://www.w3.org/1999/xlink" x="0px" y="0px"
	 viewBox="0 0 160 80" style="enable-background:new 0 0 160 80;" xml:space="preserve">
<style type="text/css">
	.st0{fill-rule:evenodd;clip-rule:evenodd;fill:#06225D;}
</style>
<g>
	<path class="st0" d="M70.7,27.4c-0.9,1-0.8,2.5,0.2,3.4s2.5,0.8,3.4-0.2l3.9-4.5c0.9-1,0.8-2.5-0.2-3.4s-2.5-0.8-3.4,0.2L70.7,27.4
		z M35.6,25.1c-1.3,0.1-2.1,1.3-2.1,2.5v23.7c0,1.3,0.9,2.3,2.1,2.5c1.4,0.2,2.6-1,2.6-2.4V27.5C38.3,26.1,37.1,25,35.6,25.1z
		 M51.8,48.7c-3.7,0.6-6.9-2.6-6.3-6.3c0.4-2.2,2.1-4,4.4-4.4c3.7-0.6,6.9,2.6,6.3,6.3C55.8,46.6,54,48.4,51.8,48.7z M51.9,33.3
		c-6.4-0.6-11.8,4.7-11.2,11.2c0.4,4.7,4.4,8.7,9.1,9.1c6.4,0.6,11.8-4.7,11.2-11.2C60.5,37.6,56.7,33.7,51.9,33.3z M67.2,42.5
		c-0.6,3.7,2.6,6.9,6.3,6.3c2.2-0.4,4-2.1,4.4-4.4c0.6-3.7-2.6-6.9-6.3-6.3C69.5,38.4,67.7,40.2,67.2,42.5z M62.4,44.4
		c-0.6-6.4,4.7-11.8,11.3-11.2c4.7,0.4,8.7,4.3,9.1,9.1c0.6,6.4-4.7,11.8-11.2,11.2C66.8,53.1,62.9,49.2,62.4,44.4z M89.9,34.2
		c1.3-0.7,2.9-1.1,4.5-1.1c5.4,0,9.9,4.3,10.2,9.6l0,0V51c0,1.4-1.2,2.5-2.6,2.4c-1.3-0.1-2.1-1.3-2.1-2.5v-7.6
		c0-2.9-2.4-5.4-5.4-5.4c-2.9,0-5.4,2.4-5.4,5.4v7.8c0,1.4-1.2,2.5-2.6,2.4c-1.3-0.1-2.1-1.3-2.1-2.5V35.9c0-1.3,1-2.4,2.2-2.5
		c0.7,0,1.4,0.3,1.9,0.7C88.8,34.4,89.4,34.5,89.9,34.2z M110.9,42.5c-0.6,3.7,2.6,6.9,6.3,6.3c2.2-0.4,4-2.1,4.4-4.4
		c0.6-3.7-2.6-6.9-6.3-6.3C113.1,38.4,111.3,40.2,110.9,42.5z M122.4,34.1c0.4-0.4,1.2-0.8,1.9-0.7c1.3,0.1,2.2,1.3,2.2,2.5V51
		c0,1.3-1,2.4-2.2,2.5c-0.7,0-1.4-0.3-1.9-0.7c-0.4-0.4-1.1-0.5-1.6-0.3c-1.5,0.7-3.2,1.2-5,1.1c-5.2-0.3-9.5-4.5-9.7-9.6
		c-0.4-5.9,4.4-10.7,10.2-10.7c1.6,0,3.2,0.4,4.6,1.1C121.3,34.5,122,34.4,122.4,34.1z"/>
</g>
</svg>
