<?xml version="1.0" encoding="UTF-8"?><svg id="Layer_2" xmlns="http://www.w3.org/2000/svg" viewBox="0 0 112.86 100"><defs><style>.cls-1{fill:#a213ec;}</style></defs><g id="Layer_1-2"><path class="cls-1" d="m111.32,45.76L87.34,4.24c-1.05-2.62-3.85-4.24-6.88-4.24h-47.94c-3.03,0-5.83,1.62-7.81,4.24L.74,45.76c-1.05,2.62-1.05,5.86.46,8.48l23.97,41.52c1.51,2.63,4.31,4.24,7.35,4.24h47.94c3.03,0,5.83-1.62,7.35-4.24l23.97-41.52c1.51-2.62,1.51-5.86-.46-8.48h0Zm-18.84,23.69h-8.29c-.54,0-1.03-.29-1.3-.75l-15.49-26.82-4.61,8.29,8.5,14.72c.58,1-.14,2.25-1.3,2.25h-8.29c-.54,0-1.03-.29-1.3-.75l-3.37-5.85-3.25,5.83c-.26.48-.77.77-1.31.77h-8.22c-1.15,0-1.87-1.23-1.31-2.23l8.15-14.65-4.67-8.09-14.76,26.51c-.26.48-.77.77-1.31.77h-8.22c-1.15,0-1.87-1.23-1.31-2.23l19.67-35.33,3.29-5.91,1.1-1.97c.56-1.01,2-1.03,2.6-.05l4.96,8.24,4.44,7.69,4.61-8.29,4.49-8.06c.57-1.02,2.03-1.03,2.62-.02l4.61,7.98,20.61,35.69c.58,1-.14,2.25-1.3,2.25h0Z"/></g></svg>