<?xml version="1.0" encoding="utf-8"?>
<!-- Generator: Adobe Illustrator 26.3.1, SVG Export Plug-In . SVG Version: 6.00 Build 0)  -->
<svg version="1.1" id="Layer_1" xmlns="http://www.w3.org/2000/svg" xmlns:xlink="http://www.w3.org/1999/xlink" x="0px" y="0px"
	 viewBox="0 0 160 80" style="enable-background:new 0 0 160 80;" xml:space="preserve">
<style type="text/css">
	.st0{fill:#06225D;}
</style>
<g>
	<path class="st0" d="M41.6,40c0,1.1-0.1,2.2-0.3,3.3c-0.2,1.1-0.6,2.2-1.1,3.3c-0.6,1.3-1.4,2.5-2.3,3.7c-0.6,0.8-1.3,1.4-2.1,2.1
		c-1,0.8-2.1,1.5-3.3,2.1c-1.3,0.6-2.7,1.1-4.2,1.4c-0.7,0.1-1.3,0.2-2,0.2c-0.4,0-0.8,0-1.2,0c-1,0-2-0.1-3-0.3
		c-1.4-0.3-2.8-0.8-4-1.4c-1.1-0.6-2.1-1.3-3.1-2.1c-1.2-1-2.2-2.1-3-3.4c-0.9-1.4-1.6-2.9-2.1-4.5c-0.2-0.8-0.4-1.6-0.5-2.5
		c-0.1-0.9-0.1-1.7-0.1-2.6c0.1-1.5,0.4-3,0.9-4.5c0.4-1.2,1-2.4,1.7-3.4c0.7-1.1,1.6-2.2,2.6-3.1c1-1,2.2-1.8,3.4-2.4
		c1.1-0.6,2.3-1.1,3.5-1.4c0.8-0.2,1.6-0.3,2.4-0.4c0.7-0.1,1.4-0.1,2.2-0.1c0.9,0,1.7,0.1,2.6,0.3c0.6,0.1,1.1,0.3,1.7,0.4
		c0.1,0,0.2,0.1,0.2,0.2c0,0.9-0.1,1.7-0.2,2.6c-0.1,1.1-0.3,2.1-0.6,3.1c-0.2,0.7-0.4,1.3-0.6,2c-0.2,0.7-0.5,1.4-0.8,2.1
		c-0.6,1.3-1.3,2.5-2,3.7c-0.5,0.8-1,1.5-1.7,2.2c-0.8,0.8-2.2,0.8-3,0.1c-0.5-0.4-0.7-1-0.8-1.6c-0.1-0.7-0.2-1.4-0.2-2.1
		c0-0.6,0-1.1,0-1.7c0-0.5,0-0.9-0.1-1.4c-0.2-0.4-0.6-0.5-0.9-0.2c-0.3,0.3-0.6,0.7-0.9,1.1c-0.7,1-1.3,2.1-1.9,3.2
		c-0.9,1.8-1.6,3.8-2.1,5.7c-0.2,1-0.4,2-0.5,3c-0.1,0.6-0.1,1.2-0.1,1.9c0,0.6,0,1.3,0,1.9c0,0.2,0,0.4,0,0.6c0,0.1,0,0.1,0.1,0.1
		c0.1,0,0.3,0,0.4,0c0.9,0,1.7,0,2.6,0c0.8-0.1,1.7-0.2,2.5-0.3c0.9-0.1,1.8-0.3,2.7-0.6c1.4-0.4,2.8-0.9,4.1-1.5
		c1.2-0.6,2.4-1.2,3.5-1.9c0.5-0.4,1.1-0.7,1.6-1.2c0.4-0.3,0.2-0.8-0.2-0.9c-0.1,0-0.3-0.1-0.4-0.1c-0.8,0-1.6,0-2.3-0.1
		c-0.9,0-1.9-0.1-2.8-0.3c-0.9-0.2-1.5-0.8-1.7-1.8c-0.1-0.7,0-1.3,0.5-1.8c0.8-0.8,1.7-1.4,2.6-2c0.6-0.4,1.3-0.8,2-1.2
		c0.7-0.4,1.4-0.7,2.1-0.9c0.3-0.1,0.6-0.3,0.9-0.4c0.3-0.1,0.7-0.2,1-0.3c0.6-0.2,1.2-0.4,1.9-0.5c0.8-0.2,1.6-0.3,2.4-0.4
		c0.7-0.1,1.5-0.2,2.3-0.2c0.2,0,0.4,0,0.6,0c0.2,0,0.2,0.1,0.3,0.2c0.2,0.8,0.4,1.5,0.5,2.3C41.5,38.3,41.6,39.2,41.6,40z"/>
	<path class="st0" d="M64.5,49.4c-0.4-0.4-0.9-0.8-1.2-1.2c-0.3-0.3-0.6-0.6-0.8-0.9c-0.7-0.7-1.3-1.4-2-2.1c-0.7-0.7-1.3-1.4-2-2.1
		c-0.7-0.7-1.4-1.5-2.1-2.2c-0.6-0.6-1.1-1.2-1.7-1.8c-0.8-0.8-1.5-1.6-2.3-2.4c0,0,0-0.1-0.1-0.1c-0.1,0,0,0.1,0,0.1
		c0,0.5,0,0.9,0,1.4c0,3.3,0,6.6,0,9.9c0,0.3,0,0.3-0.3,0.3c-0.7,0-1.3,0-2,0c-0.2,0-0.3-0.1-0.3-0.3c0-4.1,0-8.2,0-12.2
		c0-1.7,0-3.5,0-5.2c0-0.1,0-0.2,0-0.3c0.2,0.2,0.3,0.3,0.4,0.5c0.6,0.6,1.2,1.2,1.7,1.8c0.7,0.8,1.4,1.5,2.1,2.2
		c0,0,0.1,0.1,0.1,0.1c0.5,0.6,1.1,1.1,1.6,1.7c0.6,0.7,1.3,1.4,2,2.1c0.6,0.6,1.2,1.3,1.8,1.9c0.6,0.6,1.2,1.3,1.8,1.9
		c0.1,0.1,0.2,0.3,0.4,0.4c0,0,0.1,0.1,0.1,0.1c0.1,0,0.1-0.1,0.1-0.1c0-0.1,0-0.1,0-0.2c0-3.6,0-7.3,0-10.9c0-0.3,0-0.3,0.3-0.3
		c0.7,0,1.3,0,2,0c0.2,0,0.3,0,0.3,0.3c0,1.1,0,2.2,0,3.3c0,1.4,0,2.8,0,4.2c0,1.8,0,3.7,0,5.5c0,1.5,0,2.9,0,4.4
		C64.5,49.3,64.5,49.4,64.5,49.4z"/>
	<path class="st0" d="M103.7,48.8c-0.9,0-1.8-0.1-2.6-0.5c-0.9-0.4-1.6-1.1-2.1-1.9c-0.4-0.7-0.7-1.5-0.8-2.3c0-0.1,0-0.2,0.2-0.2
		c0.7-0.2,1.5-0.3,2.2-0.5c0.2,0,0.2,0,0.2,0.2c0.1,0.5,0.1,1,0.4,1.4c0.4,0.8,1.1,1.3,2,1.5c0.6,0.1,1.1,0,1.6-0.2
		c0.7-0.3,1.2-0.8,1.4-1.5c0.1-0.4,0.2-0.8,0.2-1.2c0-0.5-0.2-0.9-0.4-1.3c-0.3-0.5-0.8-0.8-1.3-1.1c-0.7-0.4-1.5-0.6-2.2-1
		c-0.9-0.4-1.7-0.8-2.4-1.5c-0.7-0.7-1.1-1.5-1.2-2.4c-0.1-1.2,0.2-2.2,0.9-3.1c0.8-0.9,1.8-1.5,3-1.7c1-0.2,1.9-0.2,2.9,0.2
		c1,0.4,1.8,1,2.5,1.9c0.1,0.2,0.2,0.4,0.4,0.5c0.1,0.1,0,0.1-0.1,0.2c-0.6,0.3-1.2,0.7-1.8,1c-0.1,0.1-0.2,0.1-0.3-0.1
		c-0.2-0.4-0.5-0.8-0.8-1c-0.3-0.3-0.7-0.4-1.1-0.4c-0.6,0-1.1,0-1.6,0.2c-0.6,0.3-1.1,0.8-1.3,1.5c-0.1,0.7,0.2,1.3,0.8,1.8
		c0.5,0.4,1.2,0.6,1.8,0.9c1,0.4,2,0.8,2.8,1.4c1,0.7,1.7,1.6,1.9,2.7c0.2,0.7,0.2,1.5,0.1,2.2c-0.1,0.8-0.4,1.6-1,2.3
		c-0.7,0.9-1.6,1.6-2.7,1.9C104.8,48.7,104.2,48.8,103.7,48.8z"/>
	<path class="st0" d="M88.8,49.3c-1-2.3-2-4.6-3-6.8c-0.2,0.3-0.3,0.7-0.4,1c-0.5,1.1-0.9,2.2-1.4,3.2c-0.4,0.8-0.7,1.6-1.1,2.4
		c0,0,0,0.1-0.1,0.1c-0.1,0-0.1-0.1-0.1-0.1c-0.3-0.7-0.7-1.4-1-2.1c-0.5-1-1-1.9-1.4-2.9c-0.8-1.7-1.6-3.4-2.5-5.1
		c-0.2-0.4-0.3-0.7-0.5-1.1c-0.1-0.1-0.1-0.2,0.1-0.2c0.8,0,1.6,0,2.4,0c0.1,0,0.2,0,0.2,0.1c0.7,1.5,1.4,3,2,4.4
		c0.2,0.4,0.4,0.9,0.6,1.3c0,0.1,0,0.1,0.1,0.2c1-2.3,2-4.6,3-7c1,2.4,2,4.7,3,7.1c0.2-0.5,0.4-1,0.7-1.4c0.3-0.7,0.6-1.4,0.9-2.1
		c0.4-0.8,0.7-1.6,1.1-2.4c0.1-0.2,0.2-0.2,0.3-0.2c0.8,0,1.5,0,2.3,0c0.2,0,0.2,0,0.1,0.2c-0.5,1.1-1.1,2.2-1.6,3.3
		c-0.5,1.1-1,2.2-1.6,3.2c-0.6,1.2-1.2,2.4-1.8,3.6C89.2,48.6,89,48.9,88.8,49.3z"/>
	<path class="st0" d="M72.9,43.7c-1.2,0-2.4,0-3.6,0c-0.3,0-0.3,0-0.2,0.3c0.1,0.7,0.4,1.4,0.9,1.9c0.5,0.4,1,0.6,1.6,0.7
		c0.7,0,1.3,0,1.9-0.5c0.3-0.3,0.6-0.6,0.8-0.9c0.1-0.1,0.1-0.1,0.2-0.1c0.6,0,1.3,0,1.9,0c0.1,0,0.2,0,0.2,0.2
		c-0.2,0.6-0.4,1.2-0.7,1.7c-0.3,0.5-0.8,0.9-1.2,1.2c-0.8,0.5-1.7,0.7-2.7,0.7c-0.8,0-1.6-0.1-2.3-0.4c-0.5-0.2-1-0.5-1.4-0.9
		c-1-0.9-1.5-2-1.7-3.2c-0.2-1.2-0.1-2.4,0.3-3.6c0.3-0.9,0.9-1.7,1.6-2.2c0.8-0.6,1.8-0.9,2.9-0.9c0.7,0,1.4,0,2.1,0.3
		c0.6,0.2,1.1,0.5,1.5,0.8c1,0.9,1.5,2,1.7,3.4c0.1,0.5,0.1,1,0.1,1.5c0,0.2-0.1,0.2-0.2,0.2C75.3,43.7,74.1,43.7,72.9,43.7z"/>
	<path class="st0" d="M117.2,43.1c0-1.1,0.2-2.1,0.9-3c0.8-1.2,1.9-2,3.3-2.4c0.7-0.2,1.5-0.2,2.2-0.1c1,0.1,1.9,0.4,2.7,1
		c0.9,0.7,1.6,1.6,2,2.7c0.2,0.7,0.3,1.5,0.3,2.2c-0.1,1.4-0.6,2.7-1.7,3.7c-0.9,0.9-2,1.4-3.2,1.5c-1.3,0.2-2.6,0-3.8-0.7
		c-0.8-0.5-1.5-1.2-2-2.1C117.3,45,117.1,44.1,117.2,43.1z M126,43.1c0-0.3,0-0.7-0.1-1.1c-0.3-1-0.9-1.7-1.8-2.1
		c-0.5-0.2-1-0.2-1.5-0.2c-1.2,0-2.2,0.8-2.6,1.8c-0.4,0.9-0.4,1.9-0.1,2.9c0.2,0.8,0.7,1.5,1.5,1.8c0.6,0.3,1.3,0.4,2,0.3
		c0.9-0.1,1.7-0.6,2.2-1.4C125.9,44.6,126,43.9,126,43.1z"/>
	<path class="st0" d="M140.1,37.8c0.4,0,0.8,0,1.2,0c0.2,0,0.2,0.1,0.3,0.2c0.6,1.2,1.3,2.4,1.9,3.6c0.3,0.6,0.6,1.3,1,1.9
		c0.1,0.1,0.1,0.2,0.2,0.3c0.1,0.1,0.1,0.1,0.2,0c0.1-0.2,0.2-0.4,0.3-0.6c0.5-1.1,1.1-2.1,1.6-3.2c0.3-0.7,0.7-1.3,1-2
		c0.1-0.2,0.2-0.3,0.4-0.2c0.7,0,1.5,0,2.2,0c0.2,0,0.2,0,0.1,0.2c-0.6,1.2-1.3,2.4-1.9,3.7c-0.7,1.3-1.4,2.7-2.1,4
		c-0.4,0.8-0.8,1.6-1.3,2.4c-0.7,1.4-1.5,2.9-2.2,4.3c-0.3,0.6-0.6,1.1-0.9,1.7c-0.1,0.1-0.2,0.2-0.3,0.2c-0.5,0-1,0-1.5,0
		c-0.3,0-0.6,0-0.9,0c-0.2,0-0.2,0-0.1-0.2c0.5-1,1-1.9,1.5-2.9c0.3-0.5,0.5-1,0.8-1.5c0.5-1,1.1-2,1.6-3c0.1-0.1,0.1-0.3,0-0.4
		c-0.8-1.4-1.6-2.9-2.4-4.3c-0.4-0.7-0.8-1.5-1.2-2.2c-0.2-0.4-0.4-0.8-0.7-1.2c-0.1-0.2-0.2-0.4-0.3-0.7c-0.1-0.2,0.1-0.1,0.1-0.1
		C139.3,37.8,139.7,37.8,140.1,37.8z"/>
	<path class="st0" d="M114.2,44.3c0,1.3,0,2.6,0,3.9c0,0.2-0.1,0.2-0.2,0.2c-0.7,0-1.3,0-2,0c-0.2,0-0.2-0.1-0.2-0.2
		c0-2.6,0-5.2,0-7.8c0-0.3,0-0.3-0.3-0.3c-0.2,0-0.4,0-0.5,0c-0.1,0-0.2-0.1-0.2-0.2c0-0.7,0-1.3,0-2c0-0.1,0.1-0.2,0.2-0.2
		c0.2,0,0.4,0,0.6,0c0.2,0,0.3,0,0.3-0.2c0-1.1,0-2.2,0-3.4c0-0.3,0-0.3,0.3-0.3c0.6,0,1.2,0,1.9,0c0.3,0,0.3,0,0.3,0.3
		c0,1.1,0,2.2,0,3.3c0,0.2,0.1,0.3,0.3,0.3c0.5,0,1,0,1.4,0c0.1,0,0.2,0,0.2,0.2c0,0.6,0,1.3,0,1.9c0,0.1,0,0.2-0.2,0.2
		c-0.5,0-1,0-1.5,0c-0.2,0-0.2,0.1-0.2,0.2C114.2,41.7,114.2,43,114.2,44.3z"/>
	<path class="st0" d="M130.5,43.1c0-1.7,0-3.4,0-5.1c0-0.2,0-0.3,0.2-0.3c0.7,0,1.3,0,2,0c0.2,0,0.3,0.1,0.2,0.2c0,0.2,0,0.3,0,0.5
		c0,0.1,0,0.1,0,0.2c0.1,0,0.1,0,0.1-0.1c0.3-0.3,0.7-0.6,1.1-0.8c0.5-0.3,1.1-0.3,1.7-0.2c0.5,0.1,0.9,0.2,1.3,0.5
		c0.2,0.1,0.2,0.2,0.1,0.4c-0.3,0.6-0.6,1.2-0.9,1.8c-0.1,0.2-0.1,0.2-0.3,0.1c-0.4-0.2-0.8-0.4-1.2-0.4c-0.8,0-1.4,0.3-1.7,1.2
		c-0.2,0.5-0.3,1-0.3,1.5c0,1.9,0,3.7,0,5.6c0,0.2-0.1,0.3-0.3,0.3c-0.7,0-1.3,0-2,0c-0.2,0-0.3-0.1-0.3-0.3
		C130.5,46.5,130.5,44.8,130.5,43.1z"/>
</g>
</svg>
