<svg width="160" height="80" viewBox="0 0 160 80" fill="none" xmlns="http://www.w3.org/2000/svg">
<path d="M36.2131 34.5769C36.5046 34.9568 36.8066 35.3545 37.1139 35.7496C38.3599 37.3551 39.6057 38.9609 40.8513 40.5673C41.2733 41.1136 41.2047 41.7347 40.6989 42.1456C40.5851 42.2381 40.4539 42.3068 40.3131 42.3475C40.1723 42.3883 40.0248 42.4003 39.8793 42.3828C39.7337 42.3654 39.5932 42.3189 39.466 42.246C39.3387 42.1731 39.2274 42.0754 39.1386 41.9587C38.2601 40.8613 37.4068 39.7427 36.5488 38.6288C35.6433 37.4542 34.7477 36.2715 33.835 35.1028C33.7335 34.9935 33.5928 34.9291 33.4439 34.9238C31.8512 34.9112 30.2586 34.9238 28.6659 34.9105C28.3698 34.9105 28.3256 35.0513 28.3263 35.2984C28.3324 37.2804 28.3324 39.2602 28.3263 41.2379C28.3263 41.9547 27.8337 42.4125 27.1273 42.3722C26.9118 42.3594 26.7058 42.2784 26.5391 42.141C26.3724 42.0035 26.2535 41.8166 26.1994 41.6072C26.1535 41.4039 26.1324 41.1958 26.1368 40.9875C26.1333 35.5536 26.1333 30.1195 26.1368 24.6852C26.1368 23.6909 26.545 23.2819 27.5375 23.2813C29.8457 23.2813 32.1539 23.2641 34.4575 23.2886C35.8326 23.3031 37.168 23.5489 38.3894 24.232C40.1337 25.2085 41.0564 26.6877 41.1216 28.6995C41.152 29.6363 41.0557 30.5448 40.6402 31.399C40.1446 32.454 39.2897 33.2973 38.2291 33.7775C37.5934 34.0688 36.9286 34.2948 36.2131 34.5769ZM28.3296 29.0933C28.3296 30.2263 28.3408 31.3594 28.323 32.4918C28.3177 32.8281 28.4285 32.9252 28.7576 32.9232C30.5699 32.9093 32.3848 32.9378 34.1944 32.9041C34.8084 32.8954 35.4188 32.808 36.0106 32.6438C37.6409 32.1813 38.7198 31.1678 38.8906 29.3985C39.004 28.2271 38.6776 27.1912 37.7517 26.4142C36.8257 25.6373 35.6967 25.373 34.5274 25.3512C32.5945 25.3142 30.6609 25.3472 28.7279 25.3347C28.3982 25.3347 28.3203 25.4562 28.3243 25.7608C28.3382 26.8741 28.3296 27.9847 28.3296 29.0959V29.0933Z" fill="#06225D"/>
<path d="M50.5944 32.7409C50.5944 30.0903 50.5944 27.4392 50.5944 24.7877C50.5902 24.6331 50.5984 24.4784 50.6188 24.3252C50.7257 23.6599 51.1392 23.2965 51.8118 23.282C52.2623 23.2727 52.7127 23.282 53.1631 23.282C56.5133 23.282 59.8642 23.2754 63.2144 23.2945C63.5267 23.3056 63.8298 23.4038 64.0895 23.578C64.4107 23.7927 64.5063 24.1627 64.4014 24.5505C64.2966 24.9383 64.0466 25.2065 63.6404 25.2865C63.4571 25.3204 63.2709 25.3366 63.0845 25.3347C59.831 25.3373 56.5795 25.3373 53.33 25.3347C52.84 25.3347 52.8393 25.3347 52.8387 25.8355V31.1493C52.8387 31.666 52.8387 31.6673 53.3458 31.6673C56.1908 31.6673 59.0359 31.6673 61.8809 31.6673C62.0673 31.6626 62.2536 31.6777 62.4368 31.7122C62.6444 31.7495 62.8329 31.8568 62.9711 32.0163C63.1093 32.1758 63.1889 32.3779 63.1966 32.5889C63.2276 33.1175 63.0284 33.465 62.5628 33.6216C62.3535 33.6861 62.1354 33.7168 61.9165 33.7128C59.0587 33.718 56.2027 33.7191 53.3484 33.7161C52.84 33.7161 52.8387 33.7161 52.8387 34.2314C52.8387 36.0813 52.8387 37.9296 52.8387 39.7765C52.8387 40.2336 52.8439 40.2389 53.3003 40.2389C56.7059 40.2389 60.1113 40.2389 63.5164 40.2389C63.9781 40.2389 64.3019 40.4325 64.4878 40.8408C64.6652 41.2293 64.5828 41.5953 64.315 41.9184C64.1007 42.176 63.8119 42.2434 63.4881 42.2428C61.5215 42.2384 59.5551 42.2384 57.5889 42.2428H51.8877C51.0693 42.2428 50.6307 41.8219 50.5997 40.9928C50.5852 40.5858 50.5957 40.1788 50.5957 39.7718L50.5944 32.7409Z" fill="#06225D"/>
<path d="M102.7 25.9102C102.442 26.4632 102.172 27.0122 101.929 27.5691C101.565 28.3904 101.223 29.2208 100.857 30.0414C100.4 31.0641 99.9255 32.0789 99.4645 33.0997C98.9084 34.3329 98.3562 35.5662 97.8079 36.7995C97.2144 38.132 96.6367 39.4686 96.0471 40.8012C95.9007 41.1315 95.7404 41.4619 95.5789 41.783C95.3619 42.219 94.9853 42.4317 94.5527 42.4093C94.0462 42.3835 93.7237 42.1146 93.6037 41.6475C93.5536 41.4149 93.5698 41.1729 93.6505 40.9492C93.8147 40.4867 94.0277 40.0381 94.2335 39.5895C94.9319 38.0633 95.6375 36.5398 96.3373 35.0143C96.8728 33.8471 97.4065 32.6786 97.9385 31.5088C98.3474 30.6116 98.7565 29.7141 99.1658 28.8165C99.9024 27.2031 100.662 25.6003 101.362 23.9711C101.44 23.7751 101.561 23.5988 101.715 23.455C101.87 23.3112 102.054 23.2034 102.255 23.1393C102.707 22.9741 103.19 22.9893 103.581 23.2569C103.845 23.4366 104.059 23.7405 104.199 24.0345C104.889 25.482 105.548 26.9448 106.216 28.4029C106.855 29.7983 107.492 31.1938 108.128 32.5896C108.194 32.7389 108.293 32.8757 108.359 33.0257C108.601 33.582 108.598 33.5833 109.185 33.5833C110.372 33.5833 111.56 33.5833 112.747 33.5833C112.889 33.5774 113.032 33.5901 113.171 33.6209C113.617 33.7451 113.905 34.2043 113.868 34.7038C113.836 35.1286 113.472 35.5455 113.015 35.5686C112.073 35.6149 111.129 35.6168 110.185 35.6287C109.559 35.6367 109.558 35.6287 109.814 36.1976C110.509 37.7392 111.206 39.2792 111.903 40.8177C112.173 41.4123 111.986 41.9917 111.424 42.2712C110.839 42.5652 110.214 42.3703 109.93 41.7671C109.462 40.7761 109.017 39.7685 108.567 38.7656C108.149 37.8341 107.736 36.9005 107.327 35.965C107.221 35.7212 107.063 35.6201 106.795 35.6235C105.774 35.6347 104.751 35.6327 103.731 35.6235C103.489 35.6226 103.249 35.5947 103.014 35.5402C102.814 35.4927 102.636 35.3815 102.505 35.2233C102.374 35.0652 102.298 34.8687 102.288 34.6635C102.269 34.201 102.504 33.7848 102.89 33.6599C103.08 33.6051 103.276 33.5788 103.474 33.582C104.253 33.5734 105.033 33.582 105.813 33.5767C106.168 33.5767 106.209 33.5053 106.071 33.1875C105.176 31.172 104.279 29.1572 103.381 27.143C103.195 26.7268 102.995 26.3171 102.802 25.9049L102.7 25.9102Z" fill="#06225D"/>
<path d="M74.6504 32.8512C74.6504 30.1111 74.6504 27.3718 74.6504 24.633C74.6504 23.7081 75.0758 23.2833 76.0037 23.2833C77.992 23.2833 79.9811 23.2575 81.9688 23.2912C83.6663 23.3196 85.2853 23.6783 86.6808 24.7262C88.0235 25.7337 88.6942 27.1152 88.8254 28.7609C88.9362 30.1536 88.7008 31.4836 87.9054 32.6682C86.9327 34.1217 85.5181 34.9251 83.8602 35.2917C83.0312 35.4747 82.1673 35.5402 81.3159 35.5679C79.9771 35.6122 78.6357 35.5791 77.293 35.5798C76.8432 35.5798 76.8426 35.5798 76.8419 36.0423C76.8419 37.7473 76.8419 39.4525 76.8419 41.1579C76.8419 41.8992 76.4152 42.3696 75.7518 42.3722C75.0883 42.3749 74.6498 41.9012 74.6498 41.1658C74.6485 38.3941 74.6487 35.6225 74.6504 32.8512ZM76.8445 29.45V33.0778C76.8445 33.5753 76.8445 33.5766 77.3279 33.5766C78.7221 33.5766 80.1163 33.5892 81.5104 33.5707C81.9927 33.5642 82.4735 33.5158 82.9474 33.426C84.0026 33.2238 84.9674 32.803 85.6896 31.9725C86.5713 30.9584 86.7487 29.7506 86.5093 28.4709C86.3115 27.3947 85.7021 26.5814 84.7425 26.0528C83.8786 25.5771 82.9362 25.3631 81.9602 25.3492C80.3906 25.3261 78.8204 25.3492 77.2508 25.3366C76.9316 25.3366 76.8353 25.441 76.8386 25.7542C76.8531 26.9864 76.8445 28.2172 76.8445 29.4487V29.45Z" fill="#06225D"/>
<path d="M125.77 32.7323C126.297 31.9765 126.783 31.2854 127.266 30.5937C128.84 28.3412 130.413 26.089 131.986 23.8369C132.459 23.1604 132.996 22.9853 133.579 23.3084C133.791 23.4192 133.956 23.6021 134.045 23.824C134.133 24.0459 134.14 24.2923 134.064 24.5188C133.978 24.7677 133.856 25.0031 133.704 25.2178C131.58 28.1851 129.45 31.148 127.315 34.1065C127.005 34.534 126.849 34.9601 126.857 35.4999C126.886 37.3914 126.871 39.2829 126.866 41.1744C126.866 41.8695 126.433 42.3498 125.811 42.3762C125.103 42.406 124.624 41.9514 124.624 41.2266C124.618 39.863 124.624 38.4994 124.624 37.1357C124.624 36.4645 124.637 35.7932 124.615 35.1233C124.606 34.9185 124.541 34.7202 124.426 34.5505C122.257 31.4951 120.082 28.4432 117.902 25.3948C117.725 25.1471 117.547 24.8835 117.447 24.602C117.262 24.0827 117.486 23.574 117.955 23.3064C118.413 23.0454 118.995 23.1175 119.331 23.5416C119.781 24.1091 120.195 24.7057 120.608 25.301C122.218 27.6213 123.825 29.9436 125.428 32.2679C125.519 32.4046 125.626 32.5401 125.77 32.7323Z" fill="#06225D"/>
<path d="M121.636 54.4634C121.636 54.7488 121.647 55.0356 121.636 55.3223C121.626 55.472 121.561 55.6128 121.454 55.7173C121.346 55.8218 121.204 55.8826 121.054 55.8878C120.985 55.8866 120.917 55.8718 120.854 55.8442C120.791 55.8167 120.734 55.7769 120.686 55.7272C120.638 55.6774 120.601 55.6188 120.576 55.5545C120.551 55.4902 120.539 55.4217 120.54 55.3527C120.528 54.4205 120.536 53.4883 120.537 52.556C120.534 52.449 120.572 52.3449 120.643 52.265C120.714 52.1851 120.813 52.1353 120.919 52.1259C121.088 52.1028 121.32 52.1537 121.441 52.264C121.623 52.4285 121.715 52.4292 121.899 52.2733C122.267 51.9614 122.918 51.9727 123.372 52.2997C123.602 52.4655 123.768 52.4814 124.008 52.3155C124.454 52.011 124.938 51.9812 125.446 52.2079C125.836 52.381 126.034 52.6822 126.061 53.0733C126.115 53.774 126.135 54.477 126.119 55.1796C126.112 55.395 125.961 55.6896 125.784 55.7986C125.382 56.0464 124.977 55.7663 124.96 55.2701C124.944 54.7739 124.96 54.2579 124.953 53.7505C124.949 53.366 124.812 53.1672 124.541 53.1381C124.22 53.1037 123.933 53.3277 123.894 53.6891C123.865 53.9474 123.904 54.2117 123.894 54.4733C123.885 54.7581 123.864 55.0435 123.835 55.3269C123.797 55.6949 123.611 55.8918 123.317 55.8944C123.009 55.8944 122.723 55.6176 122.717 55.2681C122.703 54.7515 122.717 54.2342 122.707 53.7175C122.699 53.331 122.509 53.1315 122.184 53.1315C121.886 53.1315 121.68 53.3072 121.663 53.6098C121.648 53.8946 121.663 54.1813 121.663 54.4687L121.636 54.4634Z" fill="#06225D"/>
<path d="M41.0398 53.9611C41.0398 53.5429 41.0081 53.1221 41.053 52.7091C41.0754 52.5063 41.1934 52.2579 41.3504 52.1396C41.5608 51.9797 41.8002 52.1198 42.0099 52.2685C42.1111 52.3222 42.2286 52.3363 42.3396 52.3081C42.6252 52.242 42.9002 52.1139 43.1884 52.0769C43.3359 52.0544 43.4866 52.0687 43.6273 52.1185C43.768 52.1682 43.8942 52.252 43.9949 52.3623C44.1552 52.538 44.2884 52.5109 44.4711 52.3676C44.9578 51.9863 45.5302 51.9619 46.0637 52.1879C46.4594 52.357 46.5999 52.8062 46.6243 53.2119C46.6659 53.9023 46.6448 54.5993 46.6322 55.2897C46.6263 55.626 46.3645 55.8843 46.0855 55.8797C45.736 55.8711 45.5401 55.6729 45.5197 55.2851C45.4913 54.7367 45.4794 54.1884 45.4484 53.6407C45.432 53.3467 45.3106 53.1306 44.9697 53.13C44.6716 53.13 44.4704 53.2859 44.4421 53.6374C44.4005 54.162 44.4236 54.6912 44.3893 55.2171C44.3781 55.3888 44.3188 55.6135 44.1987 55.7079C44.1206 55.7686 44.0312 55.8131 43.9358 55.8388C43.8403 55.8644 43.7407 55.8707 43.6428 55.8573C43.5109 55.8275 43.3559 55.6188 43.313 55.4609C43.2524 55.2217 43.2774 54.9601 43.2728 54.7077C43.2669 54.3886 43.2814 54.0688 43.2609 53.751C43.2339 53.3348 43.0631 53.1366 42.7643 53.1313C42.5098 53.1267 42.1754 53.4616 42.1655 53.7774C42.151 54.2161 42.182 54.6561 42.18 55.0988C42.18 55.2475 42.1728 55.4153 42.1062 55.5401C41.9743 55.7846 41.7698 55.959 41.4619 55.8817C41.177 55.8097 41.0517 55.5837 41.0404 55.3162C41.022 54.8656 41.0352 54.4143 41.0352 53.9638L41.0398 53.9611Z" fill="#06225D"/>
<path d="M14.9999 53.4392C14.9999 52.879 14.9999 52.3161 14.9999 51.7578C14.9999 51.1995 15.2248 50.9961 15.7735 51.0086C16.2674 51.0205 16.7627 50.9875 17.2547 51.0198C17.8172 51.0575 18.354 51.1711 18.7418 51.6633C19.1448 52.1734 19.1619 53.4472 18.4741 53.8925C18.1377 54.1125 18.1509 54.1567 18.4187 54.4646C18.5703 54.6384 18.726 54.8095 18.8651 54.9932C19.063 55.2574 19.0346 55.5343 18.8078 55.7292C18.5565 55.9452 18.2571 55.965 18.0421 55.7351C17.7427 55.4153 17.473 55.0678 17.1907 54.7322C17.1346 54.6661 17.0898 54.5611 17.0192 54.538C16.7864 54.4633 16.5451 54.4177 16.3063 54.3609C16.2583 54.5318 16.2196 54.7051 16.1903 54.8802C16.1599 55.1445 16.2707 55.4596 16.0017 55.6433C15.8374 55.7556 15.6059 55.8679 15.4285 55.8415C15.1707 55.8018 15.0045 55.5772 15.0032 55.2872C15.0032 54.6714 15.0032 54.0563 15.0032 53.4373L14.9999 53.4392ZM16.1916 52.698C16.1916 52.8301 16.1672 52.9675 16.2001 53.0897C16.2226 53.175 16.3261 53.3031 16.3894 53.3012C16.7455 53.2899 17.1148 53.2972 17.4532 53.1974C17.899 53.0653 17.9808 52.7779 17.7334 52.3815C17.6604 52.262 17.5442 52.1754 17.409 52.1397C17.0857 52.0928 16.7587 52.0762 16.4323 52.0901C16.3485 52.0901 16.2391 52.2381 16.2001 52.3405C16.1612 52.4429 16.1916 52.5777 16.1916 52.698Z" fill="#06225D"/>
<path d="M56.858 53.3984C56.858 52.8487 56.854 52.299 56.858 51.7467C56.8639 51.1779 57.0268 51.0147 57.5834 51.0127C58.3748 51.0127 59.1662 51.0127 59.9576 51.0127C60.3341 51.0127 60.5511 51.2268 60.5439 51.5696C60.5379 51.8729 60.2517 52.0942 59.8995 52.0856C59.3944 52.0731 58.8892 52.081 58.3827 52.0645C58.0879 52.0546 58.0391 52.2145 58.0411 52.4609C58.0431 52.7073 58.0734 52.8718 58.3748 52.8639C58.7804 52.8533 59.1886 52.8481 59.5935 52.8725C60.0637 52.9016 60.2675 53.1216 60.2174 53.4962C60.1818 53.7605 60.0453 53.9184 59.7624 53.9184C59.3119 53.9184 58.8622 53.9223 58.4117 53.9184C58.1756 53.9184 58.0002 53.9772 57.9864 54.2573C57.9725 54.5374 57.9923 54.7858 58.3484 54.7964C58.876 54.8129 59.4036 54.8182 59.9272 54.8202C60.3157 54.8202 60.5142 54.9569 60.5478 55.2628C60.5841 55.5932 60.4575 55.7993 60.1337 55.8079C59.1899 55.8317 58.2449 55.8304 57.2979 55.8178C57.0341 55.8178 56.8646 55.5535 56.8586 55.1769C56.8488 54.5823 56.8586 53.9877 56.8586 53.3931L56.858 53.3984Z" fill="#06225D"/>
<path d="M105.111 53.3383C105.111 52.8217 105.106 52.305 105.111 51.7884C105.119 51.2208 105.33 51.0061 105.886 51.0154C106.48 51.0246 107.073 51.0246 107.659 51.0814C108.419 51.1541 109.076 52.0586 108.96 52.817C108.795 53.8999 108.301 54.3333 107.114 54.439C106.866 54.4615 106.533 54.3974 106.394 54.5328C106.255 54.6682 106.315 55.0006 106.291 55.247C106.254 55.6434 106.085 55.8416 105.75 55.8806C105.414 55.9196 105.182 55.7425 105.175 55.4122C105.159 54.7211 105.17 54.03 105.17 53.339L105.111 53.3383ZM106.831 53.3806C106.908 53.3806 106.985 53.3872 107.061 53.3806C107.478 53.337 107.817 53.0317 107.797 52.7199C107.775 52.3539 107.456 52.0909 107.013 52.0711C106.259 52.0381 106.248 52.0487 106.294 52.825C106.324 53.3489 106.361 53.3872 106.831 53.3806Z" fill="#06225D"/>
<path d="M86.9836 53.9076C86.9467 55.3201 86.0848 55.8936 84.8917 55.9465C83.9533 55.9881 82.9614 55.007 82.9792 54.1349C83.0023 52.7878 83.7845 52.0954 84.988 52.0703C86.156 52.0458 86.9632 52.9272 86.9836 53.9076ZM84.1478 53.9459C84.1478 54.5022 84.4815 54.898 84.961 54.9059C85.4048 54.9132 85.8348 54.4745 85.8526 54.0212C85.8704 53.568 85.3719 53.0474 84.9953 53.0586C84.8814 53.0608 84.7691 53.0855 84.6648 53.1313C84.5604 53.1771 84.4662 53.2432 84.3875 53.3257C84.3088 53.4081 84.2471 53.5054 84.2061 53.6119C84.1651 53.7183 84.1455 53.8319 84.1485 53.9459H84.1478Z" fill="#06225D"/>
<path d="M27.9397 53.5154C27.8315 53.1712 27.5282 53.0179 27.1001 53.0873C26.9168 53.117 26.7348 53.1758 26.5515 53.1818C26.2877 53.1903 26.0654 53.1031 26.0324 52.7959C26.0028 52.5171 26.1294 52.3434 26.4011 52.2535C27.0085 52.0553 27.6093 51.984 28.2338 52.1967C28.5748 52.3136 29.1439 52.8838 29.1195 53.3198C29.0826 53.9766 29.1353 54.6372 29.1076 55.2946C29.0846 55.8641 28.7304 56.026 28.2305 55.7657C28.0805 55.6977 27.91 55.6908 27.755 55.7465C27.3617 55.9236 26.9172 55.9497 26.5059 55.8198C25.8801 55.6216 25.7344 55.2444 25.7198 54.6306C25.708 54.1067 26.1366 53.6641 26.6853 53.5821C27.0903 53.526 27.5064 53.5372 27.9397 53.5154ZM27.4213 55.062C27.6719 55.0713 28.0419 54.7601 28.028 54.5441C28.0089 54.2303 27.7293 54.2943 27.5493 54.2752C27.2043 54.2375 26.9214 54.4622 26.9135 54.7416C26.903 55.1466 27.2459 54.9841 27.4213 55.062Z" fill="#06225D"/>
<path d="M22.884 54.3841C22.6202 54.3841 22.3564 54.3749 22.0927 54.3894C22.0049 54.394 21.9212 54.4555 21.8355 54.4958C21.877 54.5896 21.8974 54.7039 21.9674 54.7746C22.1942 55.0151 22.6822 55.0501 23.0463 54.8697C23.1637 54.8116 23.2771 54.7118 23.3984 54.7019C23.5336 54.69 23.715 54.7171 23.8047 54.803C23.8944 54.8889 23.9735 55.0944 23.9366 55.2034C23.8515 55.4432 23.715 55.6473 23.4202 55.7445C22.8267 55.9427 22.2529 56.0001 21.6613 55.7385C21.1469 55.5106 20.7737 55.1617 20.6629 54.6021C20.4703 53.6257 20.6484 52.745 21.5815 52.2574C22.4752 51.7916 23.6919 52.231 24.0005 52.932C24.1324 53.2339 24.1852 53.586 24.2089 53.923C24.2151 53.9787 24.2093 54.0352 24.1918 54.0884C24.1742 54.1417 24.1455 54.1906 24.1074 54.2318C24.0694 54.273 24.023 54.3055 23.9713 54.3271C23.9196 54.3487 23.8639 54.3589 23.808 54.357C23.5013 54.3676 23.1947 54.357 22.888 54.357L22.884 54.3841ZM22.5352 53.6475C22.948 53.6534 23.0918 53.5352 22.9843 53.3251C22.8201 53.004 22.2028 52.9154 21.9693 53.1876C21.9034 53.2649 21.8763 53.3753 21.8315 53.4704C21.9192 53.518 22.0113 53.557 22.1065 53.5867C22.2654 53.621 22.429 53.6336 22.5352 53.6475Z" fill="#06225D"/>
<path d="M50.585 54.3894C50.3212 54.3894 50.0574 54.3808 49.7975 54.3947C49.7237 54.3987 49.6129 54.4608 49.5944 54.515C49.576 54.5691 49.6333 54.6788 49.6874 54.7336C49.9156 54.9636 50.1899 55.0376 50.5012 54.9318C50.6687 54.8795 50.8325 54.8164 50.9919 54.7429C51.2266 54.6246 51.441 54.6649 51.5795 54.8605C51.7259 55.0679 51.6922 55.3084 51.4997 55.4881C51.1736 55.7929 50.742 55.9587 50.2961 55.9506C48.4496 55.9215 47.9048 54.1707 48.5815 52.9333C48.9771 52.2065 49.7619 51.931 50.6259 52.1127C51.3876 52.2733 51.9593 53.0833 51.9191 53.8464C51.902 54.1694 51.7371 54.3564 51.41 54.3749C51.137 54.3927 50.862 54.3749 50.5876 54.3749L50.585 54.3894ZM50.1444 53.6528V53.6581C50.2968 53.6515 50.4577 53.67 50.5995 53.6263C50.6608 53.6072 50.7413 53.4229 50.7122 53.3759C50.5599 53.1302 50.3304 52.9848 50.027 53.0086C49.8167 53.0251 49.5595 53.292 49.5891 53.4711C49.6314 53.7393 49.8589 53.6184 50.0125 53.6488C50.0564 53.6533 50.1005 53.6537 50.1444 53.6501V53.6528Z" fill="#06225D"/>
<path d="M113.742 54.752C113.742 54.9277 113.753 55.1041 113.742 55.2805C113.699 55.8368 113.25 56.0674 112.806 55.747C112.626 55.6148 112.502 55.6148 112.312 55.7278C111.784 56.0443 111.018 55.9392 110.569 55.5177C110.174 55.1464 110.244 54.1963 110.697 53.866C111.138 53.539 111.639 53.4841 112.169 53.5357C112.286 53.5476 112.411 53.4815 112.533 53.4518C112.437 53.3454 112.349 53.1578 112.245 53.1478C111.911 53.1215 111.575 53.1273 111.242 53.165C110.97 53.1915 110.74 53.1961 110.622 52.8875C110.513 52.6035 110.606 52.398 110.87 52.3022C111.533 52.061 112.209 51.9718 112.896 52.2249C113.383 52.4066 113.621 52.7884 113.674 53.2747C113.726 53.761 113.729 54.2591 113.754 54.752H113.742ZM112.027 54.2399C111.926 54.2743 111.75 54.2948 111.631 54.3873C111.524 54.4699 111.411 54.6423 111.428 54.7566C111.445 54.8709 111.611 54.9753 111.735 55.0394C112.032 55.1907 112.263 55.0169 112.461 54.826C112.548 54.7427 112.659 54.5815 112.63 54.5069C112.59 54.4038 112.433 54.3384 112.315 54.2776C112.249 54.2452 112.163 54.2571 112.026 54.2399H112.027Z" fill="#06225D"/>
<path d="M129.675 55.897C128.924 55.9452 128.391 55.6181 128.045 55.0381C127.649 54.3774 127.692 53.6738 128.03 52.99C128.558 51.9131 129.772 51.8219 130.62 52.357C131.131 52.6801 131.405 53.2159 131.403 53.8403C131.403 54.2439 131.058 54.4567 130.575 54.4217C130.151 54.3893 129.721 54.3893 129.294 54.3893C129.2 54.3893 129.107 54.4666 129.014 54.5089C129.06 54.6014 129.087 54.715 129.157 54.7831C129.393 55.0136 129.887 55.0381 130.243 54.8623C130.37 54.7996 130.507 54.7018 130.634 54.7117C130.783 54.7229 130.989 54.7963 131.053 54.9099C131.117 55.0235 131.101 55.2647 131.02 55.3796C130.779 55.7232 130.398 55.8474 129.994 55.8956C129.888 55.9029 129.782 55.9034 129.675 55.897ZM129.294 53.6625L129.969 53.6183C130.208 53.6024 130.202 53.4604 130.125 53.2978C129.975 52.986 129.501 52.8895 129.221 53.1353C129.113 53.2298 129.072 53.3996 129.001 53.537L129.294 53.6625Z" fill="#06225D"/>
<path d="M67.5702 54.384C67.3064 54.384 67.0426 54.3748 66.7788 54.39C66.6944 54.3946 66.5599 54.4514 66.546 54.5082C66.5282 54.5809 66.5909 54.6959 66.6515 54.7613C66.8896 55.0156 67.373 55.048 67.7588 54.8584C67.8848 54.7963 68.0279 54.7038 68.1545 54.7203C68.3055 54.7395 68.5119 54.8253 68.5687 54.9436C68.6254 55.0619 68.5891 55.3222 68.4935 55.4061C68.2772 55.5977 68.016 55.8025 67.7443 55.8553C66.9371 56.0205 66.1668 55.8917 65.6339 55.1947C65.4743 54.9899 65.3579 54.7548 65.2918 54.5035C65.2257 54.2523 65.2113 53.9902 65.2495 53.7332C65.3675 52.9556 65.7639 52.3782 66.5361 52.1476C67.7641 51.7803 68.8595 52.5883 68.8496 53.8614C68.8496 54.1825 68.6458 54.3662 68.3266 54.3787C68.0747 54.388 67.8221 54.3787 67.5695 54.3787L67.5702 54.384ZM67.0762 53.6302V53.646C67.2081 53.646 67.34 53.6513 67.4719 53.646C67.6909 53.6348 67.7298 53.5397 67.6249 53.3448C67.4073 52.9385 66.9582 52.8578 66.6561 53.1968C66.581 53.2813 66.5678 53.4221 66.5242 53.537C66.6324 53.5687 66.7386 53.6077 66.8481 53.6289C66.9239 53.6362 67.0003 53.6367 67.0762 53.6302Z" fill="#06225D"/>
<path d="M136.574 54.2877C136.574 54.5731 136.574 54.8585 136.574 55.1466C136.58 55.5496 136.318 55.8839 135.981 55.8931C135.644 55.9024 135.387 55.613 135.37 55.2054C135.357 54.9094 135.366 54.6107 135.365 54.3154C135.365 54.0961 135.365 53.8761 135.365 53.6547C135.359 53.3621 135.215 53.1758 134.921 53.1328C134.614 53.0872 134.36 53.2431 134.322 53.5556C134.268 53.9778 134.269 54.4079 134.25 54.8347C134.243 54.988 134.255 55.1426 134.244 55.2972C134.223 55.6051 133.957 55.9096 133.708 55.9229C133.46 55.9361 133.146 55.6057 133.131 55.3018C133.116 54.9979 133.125 54.7072 133.125 54.4119C133.125 53.9177 133.125 53.4209 133.125 52.9287C133.122 52.797 133.134 52.6656 133.162 52.5369C133.279 52.0837 133.572 51.9423 133.967 52.1867C134.216 52.34 134.393 52.3605 134.674 52.2197C135.583 51.7639 136.479 52.3116 136.545 53.3343C136.565 53.6514 136.548 53.9712 136.548 54.2897L136.574 54.2877Z" fill="#06225D"/>
<path d="M88.6948 53.9228C88.6948 53.4941 88.7021 53.064 88.6915 52.6365C88.6849 52.398 88.7667 52.2401 88.9929 52.1483C89.2191 52.0564 89.4546 52.0406 89.628 52.2368C89.7744 52.4033 89.8872 52.4158 90.0699 52.2936C90.2324 52.1791 90.4187 52.1029 90.6147 52.0706C90.8108 52.0384 91.0116 52.0509 91.2022 52.1073C91.6243 52.2295 91.9705 52.4799 92.0094 52.949C92.0721 53.7134 92.1024 54.4811 92.1116 55.2482C92.115 55.3316 92.1013 55.4149 92.0713 55.4928C92.0414 55.5708 91.9959 55.6418 91.9376 55.7014C91.8793 55.7611 91.8095 55.8083 91.7323 55.84C91.6552 55.8717 91.5724 55.8872 91.4891 55.8857C91.2009 55.8712 90.9305 55.5356 90.9285 55.1735C90.9285 54.711 90.9391 54.2486 90.9364 53.7861C90.9331 53.3897 90.6891 53.1195 90.3587 53.1254C90.0283 53.1314 89.8245 53.3844 89.8199 53.7861C89.8146 54.2591 89.8199 54.7315 89.816 55.2046C89.8087 55.6241 89.5865 55.8877 89.258 55.8857C88.9197 55.8857 88.7034 55.63 88.6961 55.2072C88.6889 54.7844 88.6948 54.351 88.6948 53.9228Z" fill="#06225D"/>
<path d="M117.152 54.2571C117.354 53.6916 117.561 53.1267 117.758 52.5599C117.897 52.1634 118.092 52.0201 118.43 52.0888C118.738 52.1549 118.891 52.3392 118.842 52.6563C118.805 52.917 118.737 53.1724 118.639 53.4168C118.256 54.3258 117.842 55.2217 117.461 56.1315C117.149 56.8774 116.395 57.18 115.676 56.8107C115.478 56.7076 115.287 56.5735 115.368 56.2993C115.449 56.0251 115.632 55.8917 115.932 55.8989C116.1 55.9029 116.357 55.8804 116.414 55.7793C116.48 55.6604 116.408 55.4305 116.342 55.27C116.012 54.4692 115.653 53.679 115.327 52.8763C115.176 52.5057 115.321 52.2156 115.657 52.1086C115.947 52.0155 116.257 52.1925 116.376 52.5235C116.547 52.9992 116.714 53.4762 116.889 53.9512C116.928 54.0596 116.987 54.16 117.038 54.2644L117.152 54.2571Z" fill="#06225D"/>
<path d="M143.565 51.9983C143.924 52.1185 144.29 52.2183 144.642 52.3643C144.7 52.3905 144.751 52.4284 144.794 52.4755C144.836 52.5227 144.869 52.578 144.889 52.6382C144.909 52.6984 144.917 52.7621 144.911 52.8253C144.906 52.8886 144.887 52.95 144.857 53.0058C144.752 53.204 144.461 53.2701 144.222 53.1869C143.987 53.1047 143.745 53.0428 143.5 53.0019C143.428 52.9893 143.34 53.0765 143.258 53.1175C143.309 53.2054 143.339 53.3236 143.414 53.3745C143.529 53.4524 143.678 53.4822 143.81 53.535C144.032 53.6249 144.271 53.6923 144.473 53.8145C144.906 54.0735 145.076 54.4699 144.969 54.9694C144.856 55.4979 144.473 55.7873 143.988 55.8752C143.333 55.9941 142.697 55.8752 142.154 55.447C142 55.3268 141.824 55.192 141.963 54.9542C142.095 54.7269 142.282 54.5829 142.562 54.6674C142.694 54.7091 142.818 54.7996 142.954 54.8366C143.172 54.9 143.396 54.9412 143.622 54.9595C143.712 54.9647 143.809 54.8597 143.903 54.8042C143.832 54.7315 143.774 54.6304 143.688 54.5901C143.458 54.4861 143.223 54.3946 142.983 54.316C142.235 54.0636 142.086 53.5707 142.171 53.0032C142.249 52.4799 142.798 52.0782 143.412 52.0663C143.456 52.0663 143.5 52.0663 143.544 52.0663C143.549 52.0452 143.557 52.0214 143.565 51.9983Z" fill="#06225D"/>
<path d="M70.4381 53.9268C70.4744 52.6021 71.5592 51.8972 72.7859 52.1105C73.0846 52.1627 73.3794 52.3239 73.6393 52.4878C73.8371 52.6127 73.9261 52.8789 73.7626 53.0652C73.6071 53.2211 73.4048 53.3214 73.1868 53.3506C73.0385 53.3718 72.8571 53.2502 72.7081 53.1657C72.4337 53.0117 72.1864 53.0335 71.9496 53.2317C71.585 53.5416 71.4537 54.1217 71.6753 54.4454C72.005 54.9283 72.4337 55.0288 72.9639 54.7652C73.115 54.6898 73.2937 54.5907 73.4454 54.6086C73.8338 54.6542 73.973 55.1014 73.7184 55.41C73.3517 55.8546 72.3994 56.0495 71.761 55.8355C70.7652 55.5005 70.4955 54.7691 70.4381 53.9268Z" fill="#06225D"/>
<path d="M98.9144 55.9003C97.3758 55.9003 96.5171 54.641 97.0091 53.2496C97.4622 51.9686 99.1439 51.7406 100.051 52.472C100.178 52.5744 100.219 52.8757 100.183 53.0666C100.141 53.2979 99.9115 53.4055 99.6668 53.3712C99.5481 53.3537 99.4351 53.3084 99.3371 53.2391C99.0621 53.0409 98.7495 52.953 98.4798 53.1591C98.1428 53.4194 97.8704 53.8099 97.9911 54.2334C98.0285 54.3598 98.0922 54.4769 98.178 54.577C98.2638 54.677 98.3697 54.7578 98.4889 54.814C98.608 54.8701 98.7376 54.9004 98.8693 54.9028C99.0009 54.9052 99.1316 54.8797 99.2527 54.828C99.3523 54.7831 99.4426 54.7183 99.5389 54.6655C99.7737 54.5333 99.9808 54.5551 100.145 54.785C100.319 55.0282 100.316 55.2687 100.079 55.4556C99.7229 55.7377 99.345 55.9895 98.9144 55.9003Z" fill="#06225D"/>
<path d="M75.6299 54.4402C75.6497 54.242 75.6721 54.0477 75.6886 53.8509C75.7169 53.508 75.74 53.1829 75.3872 52.9464C75.1735 52.8024 75.2164 52.4661 75.3872 52.2329C75.515 52.0646 75.6154 51.877 75.6846 51.6772C75.7934 51.3469 75.9998 51.1355 76.2669 51.1526C76.5466 51.1705 76.7945 51.4169 76.8242 51.7473C76.8479 52.0003 76.9561 52.1298 77.2126 52.1344C77.5325 52.1404 77.6644 52.3564 77.6743 52.6299C77.6796 52.6914 77.6719 52.7534 77.6517 52.8117C77.6316 52.8701 77.5994 52.9235 77.5573 52.9686C77.5152 53.0137 77.4641 53.0495 77.4074 53.0735C77.3506 53.0976 77.2894 53.1094 77.2278 53.1083C76.9033 53.1228 76.8143 53.278 76.8321 53.5707C76.8466 53.8779 76.8387 54.1865 76.8321 54.4957C76.8321 54.7223 76.9178 54.863 77.1619 54.8392C77.4672 54.8088 77.6169 54.9912 77.671 55.2422C77.729 55.5065 77.5793 55.7107 77.3412 55.8309C76.873 56.0721 76.0355 55.8686 75.806 55.4041C75.6668 55.1213 75.6615 54.7732 75.5956 54.4541L75.6299 54.4402Z" fill="#06225D"/>
<path d="M138.53 54.1575C138.53 53.9818 138.525 53.806 138.53 53.629C138.54 53.3574 138.53 53.1255 138.234 52.9643C137.996 52.8322 138.056 52.49 138.278 52.2112C138.396 52.0633 138.481 51.8922 138.528 51.709C138.605 51.4038 138.852 51.1547 139.14 51.1547C139.378 51.1547 139.627 51.4038 139.65 51.7097C139.671 52.0044 139.781 52.1596 140.096 52.1345C140.436 52.1068 140.522 52.3439 140.558 52.6155C140.593 52.887 140.422 53.0185 140.197 53.0932C140.105 53.1235 139.989 53.0978 139.907 53.1414C139.814 53.1916 139.682 53.2894 139.681 53.368C139.664 53.7502 139.684 54.1332 139.74 54.5116C139.765 54.655 139.95 54.8195 140.099 54.8796C140.354 54.9827 140.573 55.0818 140.557 55.3943C140.544 55.6506 140.26 55.8687 139.943 55.8938C138.91 55.9764 138.532 55.6295 138.532 54.5856L138.53 54.1575Z" fill="#06225D"/>
<path d="M34.2474 54.2096C34.2474 53.9895 34.2435 53.7695 34.2474 53.5489C34.2514 53.3282 34.2309 53.1379 33.9942 52.9952C33.7304 52.834 33.7245 52.4753 33.9724 52.2566C34.1492 52.1007 34.2501 51.9461 34.26 51.7016C34.2732 51.3984 34.5284 51.1632 34.7836 51.1605C35.0982 51.1605 35.3224 51.3343 35.356 51.6745C35.3877 51.9917 35.4978 52.1529 35.8434 52.1443C36.0861 52.1383 36.2101 52.3127 36.2272 52.5546C36.247 52.8393 36.1092 53.017 35.8454 53.0956C35.3719 53.2397 35.3712 53.237 35.3712 53.751C35.3712 53.8937 35.3765 54.0371 35.3712 54.1798C35.3547 54.5346 35.3791 54.8319 35.8487 54.8848C36.0663 54.9092 36.2266 55.0869 36.2312 55.3545C36.2358 55.6082 36.1045 55.7463 35.8869 55.817C35.4424 55.957 35.0032 55.9663 34.5877 55.7166C34.3318 55.5626 34.2692 55.3043 34.258 55.0347C34.2468 54.7652 34.258 54.4851 34.258 54.2102L34.2474 54.2096Z" fill="#06225D"/>
<path d="M63.5145 53.3652C63.5145 53.9915 63.5264 54.6205 63.5145 55.2448C63.502 55.7476 63.0944 56.0251 62.6948 55.7905C62.6171 55.7373 62.5519 55.6679 62.5035 55.587C62.4551 55.5062 62.4248 55.4158 62.4145 55.3221C62.3921 53.9922 62.3934 52.6616 62.4059 51.3316C62.4099 50.9392 62.5609 50.8183 62.9335 50.8123C63.2831 50.8064 63.4888 50.9914 63.5106 51.3865C63.533 51.8139 63.5192 52.2453 63.5205 52.6721C63.5205 52.9034 63.5205 53.1346 63.5205 53.3652H63.5145Z" fill="#06225D"/>
<path d="M31.02 53.2834C31.02 52.7667 31.0148 52.2501 31.02 51.7334C31.0223 51.558 31.0429 51.3833 31.0814 51.2121C31.1618 50.8613 31.3293 50.7642 31.7145 50.8157C31.847 50.8305 31.969 50.895 32.056 50.9962C32.143 51.0975 32.1885 51.228 32.1834 51.3614C32.1702 52.6577 32.1552 53.9535 32.1385 55.2489C32.1319 55.7113 31.7428 56.0146 31.3828 55.8131C31.2436 55.7358 31.0952 55.5356 31.0886 55.3856C31.0576 54.6847 31.0748 53.9823 31.0748 53.2807L31.02 53.2834Z" fill="#06225D"/>
<path d="M80.5002 52.4172L80.9434 52.1443C81.2072 51.9831 81.4051 52.0934 81.5673 52.3055C81.713 52.4991 81.6801 52.8684 81.4961 53.0323C81.391 53.1285 81.2688 53.2042 81.136 53.2556C80.6915 53.4227 80.5345 53.7676 80.5253 54.2069C80.518 54.5584 80.5253 54.9099 80.5213 55.264C80.5161 55.5726 80.2391 55.895 79.9779 55.9088C79.7168 55.9227 79.4081 55.6333 79.4028 55.3023C79.3897 54.4481 79.3976 53.5932 79.4028 52.7383C79.4028 52.4555 79.482 52.2097 79.7768 52.106C80.0485 52.0095 80.2384 52.1542 80.4092 52.3438C80.4371 52.3711 80.4676 52.3957 80.5002 52.4172Z" fill="#06225D"/>
<path d="M95.0917 53.9823C95.0917 54.4216 95.099 54.861 95.0917 55.2997C95.0831 55.6828 94.8721 55.8943 94.5292 55.8863C94.381 55.8761 94.242 55.8106 94.1397 55.7027C94.0374 55.5948 93.9791 55.4524 93.9765 55.3036C93.9693 54.4361 93.968 53.5687 93.9765 52.7012C93.9805 52.3504 94.2601 52.0729 94.5701 52.0762C94.88 52.0795 95.0924 52.3246 95.0976 52.6979C95.0976 53.126 95.0976 53.5568 95.0976 53.9823H95.0917Z" fill="#06225D"/>
<path d="M39.1256 53.9717C39.1256 54.378 39.1256 54.785 39.1256 55.192C39.1256 55.4754 39.0247 55.7066 38.751 55.8361C38.6879 55.87 38.618 55.8894 38.5465 55.8929C38.475 55.8964 38.4036 55.884 38.3375 55.8565C38.2713 55.829 38.2121 55.7871 38.1641 55.7339C38.1161 55.6807 38.0805 55.6174 38.0599 55.5487C38.0271 55.4555 38.0096 55.3575 38.0078 55.2587C38.0038 54.4117 37.9992 53.5654 38.0078 52.7184C38.0117 52.3081 38.2234 52.0769 38.5584 52.0729C38.8717 52.0696 39.1131 52.3332 39.1236 52.7177C39.1342 53.134 39.1256 53.5535 39.1256 53.9717Z" fill="#06225D"/>
<path d="M136.68 23.2747C137.362 23.2747 137.878 23.7794 137.876 24.4494C137.874 24.7662 137.749 25.0698 137.527 25.2958C137.306 25.5217 137.005 25.652 136.688 25.6591C136.531 25.6593 136.376 25.6285 136.23 25.5684C136.085 25.5082 135.953 25.4199 135.842 25.3086C135.731 25.1972 135.643 25.065 135.583 24.9195C135.523 24.774 135.492 24.618 135.493 24.4606C135.499 23.7748 135.996 23.2773 136.68 23.2747ZM136.689 23.4881C136.559 23.4846 136.43 23.5077 136.31 23.556C136.189 23.6042 136.08 23.6766 135.988 23.7687C135.897 23.8608 135.825 23.9707 135.777 24.0916C135.73 24.2125 135.707 24.3419 135.711 24.4718C135.711 24.9825 136.173 25.443 136.686 25.4424C137.213 25.4424 137.664 24.9766 137.661 24.4368C137.657 23.897 137.24 23.4887 136.689 23.4881Z" fill="#06225D"/>
<path d="M38.5668 50.8118C38.9229 50.8118 39.1643 50.9842 39.1643 51.2379C39.1643 51.6621 38.9605 51.8676 38.541 51.8689C38.2008 51.8689 37.8967 51.6258 37.8888 51.345C37.8809 51.0642 38.2047 50.8118 38.5668 50.8118Z" fill="#06225D"/>
<path d="M94.5387 51.8675C94.1819 51.8675 93.961 51.6474 93.9669 51.2986C93.9728 50.9498 94.1694 50.8057 94.5981 50.8124C94.939 50.817 95.1527 51.0271 95.1566 51.3614C95.1606 51.6957 94.9581 51.8675 94.5387 51.8675Z" fill="#06225D"/>
<path d="M136.638 24.6886C136.506 24.8274 136.413 24.9298 136.318 25.0328C136.282 24.8815 136.24 24.7316 136.213 24.579C136.206 24.5023 136.206 24.4251 136.213 24.3484C136.213 23.8093 136.285 23.7465 136.83 23.8119C137.187 23.8549 137.313 24.0762 137.207 24.4184C137.17 24.5393 137.207 24.6827 137.197 24.8148C137.188 24.8818 137.174 24.9481 137.156 25.013C137.087 24.9985 137.003 25.0031 136.951 24.9648C136.841 24.8786 136.737 24.7864 136.638 24.6886ZM136.672 24.4481L136.905 24.24C136.845 24.1918 136.782 24.1013 136.725 24.1079C136.652 24.1132 136.583 24.1931 136.513 24.24L136.672 24.4481Z" fill="#06225D"/>
</svg>
