<svg width="100" height="100" viewBox="0 0 100 100" fill="none" xmlns="http://www.w3.org/2000/svg">
<g clip-path="url(#clip0_72_294)">
<path d="M100 49.9998L100 87.6021C100 94.443 94.4549 99.9998 87.6026 99.9998C82.614 99.9998 78.4549 96.4657 77.489 91.7726C77.3526 91.0907 77.2731 90.3862 77.2731 89.6703V49.9998C77.2731 48.4203 77.1367 46.8635 76.8754 45.3407C75.9322 39.8294 73.3185 34.7498 69.2845 30.7157C64.1367 25.568 57.2845 22.7271 50.0004 22.7271C42.7163 22.7271 35.864 25.568 30.7163 30.7157C26.6822 34.7498 24.0685 39.8294 23.1254 45.3407C24.9549 30.0794 35.7049 17.568 50.0004 13.1362C53.614 12.0226 57.4435 11.4203 61.4208 11.4203C82.6481 11.4203 99.8754 28.568 100 49.7726C100 49.8067 100 49.8521 100 49.8862C100 49.9203 100 49.9657 100 49.9998Z" fill="url(#paint0_linear_72_294)"/>
<path d="M100 49.7727C99.875 28.5682 82.6477 11.4205 61.4205 11.4205C57.4432 11.4205 53.6136 12.0227 50 13.1364C35.7045 17.5682 24.9545 30.0795 23.125 45.3409C22.8636 46.8636 22.7273 48.4205 22.7273 50C22.7273 51.5795 22.8636 53.1364 23.125 54.6591C24.0682 60.1705 26.6818 65.25 30.7159 69.2841C35.8636 74.4318 42.7159 77.2727 50 77.2727C57.2841 77.2727 64.1364 74.4318 69.2841 69.2841C73.3182 65.25 75.9318 60.1705 76.875 54.6591C75.0455 69.9205 64.2955 82.4318 50 86.8636C46.3864 87.9773 42.5568 88.5795 38.5795 88.5795C17.2727 88.5795 0 71.3068 0 50C0 43.25 1.32955 36.7045 3.93182 30.5341C6.45455 24.5795 10.0568 19.2273 14.6364 14.6477C19.2273 10.0568 24.5682 6.45455 30.5227 3.94318C36.7045 1.32955 43.25 0 50 0C56.75 0 63.2955 1.32955 69.4659 3.93182C75.4205 6.45455 80.7727 10.0568 85.3523 14.6364C89.9432 19.2273 93.5455 24.5682 96.0568 30.5227C98.6477 36.6364 99.9659 43.1023 100 49.7727Z" fill="url(#paint1_linear_72_294)"/>
<path d="M77.4886 91.7726C74.9659 93.4431 72.2841 94.8749 69.4659 96.0681C63.2954 98.6703 56.75 99.9999 50 99.9999C43.25 99.9999 36.7045 98.6703 30.5341 96.0681C24.5795 93.5453 19.2273 89.9431 14.6477 85.3635C10.0568 80.7726 6.45454 75.4317 3.94318 69.4772C1.32955 63.2953 0 56.7499 0 49.9999C0 71.3067 17.2727 88.5794 38.5795 88.5794C42.5568 88.5794 46.3864 87.9772 50 86.8635C64.2954 82.4317 75.0454 69.9203 76.875 54.659C77.1364 53.1362 77.2727 51.5794 77.2727 49.9999V89.6703C77.2727 90.3862 77.3523 91.0908 77.4886 91.7726Z" fill="url(#paint2_linear_72_294)"/>
</g>
<defs>
<linearGradient id="paint0_linear_72_294" x1="44.7354" y1="15.3242" x2="108.111" y2="121.392" gradientUnits="userSpaceOnUse">
<stop stop-color="#0B9363"/>
<stop offset="0.218" stop-color="#16B67B"/>
<stop offset="0.5304" stop-color="#36CE94"/>
<stop offset="0.8019" stop-color="#6CE5B4"/>
<stop offset="1" stop-color="#6CE5B4"/>
</linearGradient>
<linearGradient id="paint1_linear_72_294" x1="35.9375" y1="3.125" x2="59.0487" y2="85.3002" gradientUnits="userSpaceOnUse">
<stop stop-color="#6CE5B4"/>
<stop offset="0.139197" stop-color="#36CE94"/>
<stop offset="0.4911" stop-color="#36CE94"/>
<stop offset="0.8259" stop-color="#6CE5B4"/>
<stop offset="1" stop-color="#A6F2CF"/>
</linearGradient>
<linearGradient id="paint2_linear_72_294" x1="6.19577" y1="81.0971" x2="80.5901" y2="62.2604" gradientUnits="userSpaceOnUse">
<stop stop-color="#6CE5B4"/>
<stop offset="0.2803" stop-color="#6CE5B4"/>
<stop offset="0.4913" stop-color="#36CE94"/>
<stop offset="0.6796" stop-color="#16B67B"/>
<stop offset="1" stop-color="#0B9363"/>
</linearGradient>
<clipPath id="clip0_72_294">
<rect width="100" height="100" fill="white"/>
</clipPath>
</defs>
</svg>
