<?xml version="1.0" encoding="utf-8"?>
<!-- Generator: Adobe Illustrator 26.3.1, SVG Export Plug-In . SVG Version: 6.00 Build 0)  -->
<svg version="1.1" id="Layer_1" xmlns="http://www.w3.org/2000/svg" xmlns:xlink="http://www.w3.org/1999/xlink" x="0px" y="0px"
	 viewBox="0 0 100 50" style="enable-background:new 0 0 100 50;" xml:space="preserve">
<style type="text/css">
	.st0{fill:#06225D;}
</style>
<g id="Layer_1_00000106127291287685444990000007063105734004050324_">
	<path class="st0" d="M36,16.2c-0.5,0-1,0-1.6,0l-0.1-0.7c0,0,0.2-0.4,0.9-0.4c0.8,0,1,0.4,1,0.4L36,16.2L36,16.2z"/>
	<path class="st0" d="M36.7,16.4c-0.4-0.5-0.9-0.8-1.5-0.8c-0.9,0.1-1.3,0.7-1.3,0.8l0.4,6.8l2.1,0.1"/>
	<path class="st0" d="M37.1,23.5h-3.7c-0.1,0-0.1-0.1-0.1-0.1V23c0-0.1,0.1-0.1,0.1-0.1h3.7c0.1,0,0.1,0.1,0.1,0.1v0.4
		C37.3,23.4,37.2,23.5,37.1,23.5z"/>
	<path class="st0" d="M37.4,24.2h-4.3c-0.1,0-0.1-0.1-0.1-0.1v-0.4c0-0.1,0.1-0.1,0.1-0.1h4.3c0.1,0,0.1,0.1,0.1,0.1v0.4
		C37.6,24.1,37.5,24.2,37.4,24.2z"/>
	<path class="st0" d="M41.4,31.4l-12.2-0.1l-1.9-1.5v3.6l1.9,1.5c4,0,8.1,0,12.1,0c0.6-0.5,1.2-1,1.7-1.5v-3.6L41.4,31.4z M35.4,34
		c-0.7,0-1.5-0.5-1.5-0.8c0-0.2,0.9-0.4,1.4-0.4c0.4,0,1.6,0,1.6,0.4C36.8,33.5,36,34,35.4,34z"/>
	<polyline class="st0" points="41.3,24.2 29.3,24.2 27.4,26 27.4,30 29.4,31.5 41.4,31.4 43.1,29.8 43.1,25.9 	"/>
	<g>
		<g>
			<path class="st0" d="M54.4,18.1c0,1.6-0.1,3.2-0.3,4.6c-0.1,0.7-0.4,1.2-1,1.6c-0.6,0.4-1.4,0.7-2.3,0.7l0,0c-0.2,0-0.4,0-0.6,0
				c-0.7,0-1.5-0.1-2.1-0.3c-0.7-0.1-1.2-0.4-1.7-0.8c-0.4-0.4-0.7-0.8-0.7-1.3c0-0.7,0-1.7,0.1-3.1v-0.9c0-1,0.1-1.7,0.1-2.3
				c0-0.7,0-1.1,0-1.4h0.4h1.1c0.6,0,1.2,0.1,1.6,0.1c-0.1,1.1-0.1,1.9-0.1,2.4c0,1.4,0.1,2.9,0.2,4.5l0,0c0.1,0.2,0.2,0.4,0.4,0.4
				c0.1,0.1,0.3,0.1,0.5,0.1c0.2,0,0.4-0.1,0.6-0.2s0.3-0.3,0.4-0.4l0,0c0.1-0.9,0.1-2.3,0.1-4.1v-0.9c0-0.4,0-1.1,0.1-1.9l0.4-0.1
				c0.1,0,0.4,0,0.7-0.1c0.5-0.1,0.8-0.1,0.9-0.1c0.5,0,0.9,0.1,1.1,0.1h0.1C54.4,16.3,54.4,17.3,54.4,18.1z"/>
			<path class="st0" d="M63.5,18.2L63.5,18.2c0.1,0.2,0.1,0.5,0.2,0.9c0,0.3-0.1,0.5-0.1,0.7V20c0,0.1,0,0.3-0.1,0.7
				c0,0.4-0.1,0.7-0.2,1.1c-0.2,0.5-0.6,1-1,1.5c-0.4,0.5-0.9,1-1.5,1.5c-1,0-1.9,0-2.6,0h-1.4h-1.5C55.1,23.5,55,22,55,20.1
				c0-0.8,0-1.5,0-1.8c0-0.4,0-1,0-1.9c0-0.2,0-0.6-0.1-1v-0.4H55c0.7-0.1,1.5-0.2,2.3-0.2h0.5h0.5c0.1,0,0.4,0,0.7,0
				c0.4,0,0.6,0,0.7,0c0.4,0.1,0.9,0.3,1.3,0.5c0.4,0.2,0.7,0.5,1,0.8L62,15.9C62.9,16.7,63.3,17.5,63.5,18.2z M60.6,19.5
				c-0.1-0.4-0.2-0.7-0.4-0.9c-0.1-0.2-0.4-0.4-0.7-0.5h0.1c-0.3,0-0.5,0-0.7,0c-0.2,0-0.4,0-0.5,0c0,0.4,0.1,0.7,0.1,0.9v0.4v0.4
				c0,0.2,0,0.5,0,0.9c0,0.4,0,0.7,0,0.9c0.2,0.1,0.3,0.1,0.4,0.1h0.2c0.2,0,0.4,0,0.4-0.1c0.2-0.1,0.4-0.2,0.7-0.5
				c0.3-0.4,0.4-0.7,0.4-1.2C60.6,19.8,60.6,19.7,60.6,19.5z"/>
			<path class="st0" d="M72.6,18.2v0.2v0.2c0,0.3-0.1,0.8-0.1,1.4c0,0.7,0,1.2-0.1,1.5L72.4,22c-0.1,0.7-0.3,1.4-0.8,2
				c-0.2,0.2-0.4,0.4-0.9,0.5c-0.4,0.1-0.8,0.3-1.2,0.4c-0.4,0.1-1,0.1-1.6,0.1c-0.3,0-0.5,0-0.6,0c-0.6-0.1-1.2-0.1-1.7-0.3
				c-0.5-0.1-0.8-0.4-1.1-0.7c-0.3-0.4-0.4-0.9-0.5-1.6l0.1-0.4c0-0.1,0-0.2,0-0.4C64,20.8,64,20,64,19.3c0-0.4,0-0.9,0.1-1.3
				s0.1-0.9,0.4-1.4c0.1-0.4,0.4-0.9,0.8-1.2l0.4-0.1c0.8-0.3,1.7-0.4,2.6-0.4c0.6,0,1.2,0.1,1.7,0.1c0.5,0.1,1,0.3,1.4,0.5
				c0.4,0.3,0.7,0.6,0.9,0.9c0.1,0.3,0.3,0.6,0.3,0.9C72.6,17.6,72.6,17.9,72.6,18.2z M69.7,18.9l-0.1-0.7c0-0.3-0.1-0.5-0.2-0.7
				C69.2,17.2,69,17,68.8,17c-0.1,0-0.2-0.1-0.3-0.1c-0.3,0-0.6,0.1-0.9,0.2c-0.1,0.1-0.3,0.2-0.4,0.4c-0.1,0.1-0.2,0.4-0.4,0.5
				c-0.1,0.4-0.2,0.9-0.2,1.6c0,0.3,0,0.6,0,0.7l0,0c0.1,0.2,0.1,0.4,0.1,0.7v0.2c0.1,0.4,0.1,0.8,0.2,1l0,0
				c0.1,0.2,0.3,0.4,0.5,0.4c0.2,0.1,0.4,0.1,0.7,0.1c0.2,0,0.4-0.1,0.6-0.1c0.2-0.1,0.4-0.1,0.5-0.3c0.1-0.1,0.2-0.2,0.2-0.3
				c0-0.1,0.1-0.2,0.1-0.4c0-0.1,0-0.3,0-0.4v-0.2V21v-0.2v-0.3v-0.7L69.7,18.9L69.7,18.9z"/>
		</g>
	</g>
	<g>
		<g>
			<path class="st0" d="M49.9,30.7h0.4h0.2v0.2c0,0.1,0,0.3,0.1,0.5c0,0.3,0,0.5,0,0.7c0,0.4,0,0.7-0.1,1.1
				c-0.1,0.4-0.1,0.6-0.4,0.9c-0.2,0.2-0.4,0.4-0.8,0.5c-0.5,0.1-1,0.2-1.5,0.2c-0.4,0-0.7-0.1-0.9-0.1c-0.6-0.3-0.9-0.7-1.2-1.4
				c-0.1-0.2-0.1-0.4-0.1-0.8c0,0.1-0.1-0.6-0.1-2c0-0.2,0-0.4,0-0.6c0-0.7,0.1-1.2,0.1-1.5c0.1-0.6,0.4-1,0.7-1.3
				c0.3-0.2,0.7-0.4,1.2-0.4c0.1,0,0.4,0,0.5,0c0.7,0,1.3,0.2,1.8,0.6c0.4,0.4,0.7,0.9,0.7,1.6v0.4v0.1c-0.1,0-0.1,0-0.2,0
				c-0.1,0-0.1,0-0.2,0h-0.5c-0.3,0-0.6,0-0.8-0.1c-0.2-0.5-0.4-0.9-0.7-0.9c-0.1,0-0.1,0-0.1,0s-0.1,0-0.1,0
				c-0.1,0-0.2,0.1-0.3,0.1c0,0,0,0.1-0.1,0.3c-0.1,0.4-0.2,1.2-0.2,2c0,0.4,0,0.8,0.1,1.1c0.1,0.5,0.1,0.8,0.3,0.9
				c0.1,0.1,0.1,0.1,0.1,0.1c0.1,0,0.1,0,0.3,0c0.1,0,0.2-0.1,0.3-0.1c0.1-0.1,0.2-0.1,0.2-0.4c0-0.1,0.1-0.2,0.1-0.4
				c0-0.1,0-0.2,0-0.2h-0.3c-0.3,0-0.5,0-0.7-0.1c0-0.1,0-0.4,0-0.6v-0.1c0,0,0-0.1,0-0.1c0-0.1,0-0.2,0-0.4c0.1,0,0.2,0,0.4-0.1
				c0.3-0.1,0.5-0.1,0.7-0.1C49.1,30.6,49.4,30.6,49.9,30.7z"/>
			<path class="st0" d="M55.1,34.8c-0.3,0-0.7-0.1-1.1-0.1c-0.1-0.1-0.1-0.4-0.2-0.9c-0.1-0.4-0.2-0.7-0.3-0.9h-0.2l-0.1,0
				c0,0.1-0.1,0.3-0.1,0.7c-0.1,0.3-0.1,0.5-0.1,0.7c-0.1,0.1-0.1,0.4-0.2,0.5c-0.1,0-0.2,0-0.4,0c-0.1,0-0.2,0-0.4,0
				c-0.7,0-1-0.1-1.1-0.1c0-0.1,0-0.1,0-0.3c0-0.1,0.1-0.3,0.1-0.4l0.2-1.4c0.2-1.2,0.4-2.1,0.6-3c0.1-0.9,0.4-1.7,0.7-2.7
				c0.1,0,0.2,0,0.4,0h0.1c0.5,0,0.9,0,1.4-0.1c0.1,0.4,0.1,0.7,0.2,1c0.1,0.4,0.1,0.7,0.2,0.9c0.2,1,0.4,1.7,0.5,2l0.7,3.9
				C55.7,34.7,55.4,34.8,55.1,34.8z M53.4,29.3L53.4,29.3v-0.1v0.3c0,0.6-0.1,1-0.1,1.3l-0.1,0.7h0.4C53.4,30,53.4,29.3,53.4,29.3z"
				/>
			<path class="st0" d="M60.5,34.7c0,0-0.1,0-0.2,0c-0.1,0-0.4,0-0.8,0c0-0.4,0-0.7,0-1l-0.1-2.4l-0.1,0.2C59.1,31.7,59,31.9,59,32
				c-0.1,0.1-0.1,0.1-0.2,0.1c-0.1,0-0.4-0.3-0.6-0.8c0,0.1,0,0.1,0,0.3s0,0.2,0,0.3v0.3c0,0.7,0,1.6,0.1,2.6
				c-0.3,0.1-0.7,0.1-0.9,0.1h-0.7h-0.1h-0.1l0,0v-0.1c0-0.3,0-0.9,0-1.7c0-1,0-2.9,0-5.7c0.1-0.1,0.2-0.1,0.4-0.1
				c0.1,0,0.3,0,0.5,0h0.5c0.1,0,0.3,0,0.4,0c0.1,0.1,0.1,0.2,0.2,0.4c0.1,0.1,0.2,0.5,0.4,1c0,0,0-0.1,0.1-0.2
				c0.1-0.1,0.2-0.6,0.5-1.3c0.1,0,0.2,0,0.4,0c0.1,0,0.3,0,0.6,0h0.9l-0.1,7.9C61.1,34.7,60.8,34.7,60.5,34.7z"/>
			<path class="st0" d="M67.2,34.7c-0.3,0-0.8,0-1.5,0h-1.5c-0.7,0-1.3,0-2-0.1c0-0.2,0-1.2,0-2.8c0-0.9,0-1.6,0-2.1
				c0-1,0-2,0.1-2.8h0.9c1.1-0.1,1.9-0.1,2.5-0.1c0.5,0,0.9,0,1.5,0.1c0,0.1,0.1,0.4,0.1,0.5s0,0.3,0,0.5s0,0.4,0,0.6
				c-0.4,0.1-0.9,0.1-1.5,0.1h-1.5c-0.1,0.4-0.1,0.7-0.1,0.9c0,0.1,0,0.4,0.1,0.4l0.7-0.1c0.1,0,0.3,0,0.4,0h0.1
				c0.1,0.2,0.1,0.4,0.1,0.7v0.9c-0.2,0.1-0.6,0.1-0.9,0.1h-0.3c-0.1,0-0.1,0-0.1,0l-0.1,0.6c0,0.3,0,0.6,0.1,0.7c0.4,0,0.7,0,1.1,0
				c0.1,0,0.3,0,0.4,0c0.2,0,0.4,0,0.7,0h0.7c0,0.4,0,0.5,0,0.6C67.3,34.1,67.3,34.4,67.2,34.7z"/>
			<path class="st0" d="M72.4,29.6c0,0-0.1,0-0.4,0c-0.4,0-0.7-0.1-0.9-0.1c0-0.1,0-0.1,0-0.1c0-0.1-0.1-0.3-0.2-0.4
				c-0.1-0.1-0.3-0.1-0.4-0.1c-0.1,0-0.2,0.1-0.3,0.1c-0.1,0.1-0.1,0.1-0.1,0.3c0,0.1,0,0.1,0,0.1v0.1l0,0c0.1,0.1,0.1,0.3,0.2,0.3
				s0.2,0.1,0.4,0.1c0.4,0.1,0.7,0.2,1.1,0.4c0.4,0.2,0.7,0.5,0.9,0.8c0.1,0.2,0.2,0.4,0.4,0.7S73,32,73,32.2c0,0.4-0.1,0.7-0.2,1.1
				c-0.2,0.4-0.5,0.7-0.9,0.9c-0.4,0.2-0.8,0.4-1.3,0.4s-0.9-0.1-1.4-0.3c-0.4-0.2-0.8-0.4-1.1-0.8c-0.3-0.4-0.4-0.7-0.4-1.2v-0.1
				c0.2-0.1,0.4-0.1,0.7-0.1c0.2,0,0.4,0,0.6,0s0.4,0,0.7,0c0,0.2,0.1,0.4,0.2,0.5c0.1,0.1,0.3,0.2,0.4,0.2c0.1,0,0.3-0.1,0.4-0.1
				s0.1-0.2,0.1-0.4c0-0.1,0-0.1,0-0.1c-0.1-0.3-0.1-0.4-0.4-0.6s-0.5-0.2-0.9-0.3h-0.1c-0.3-0.1-0.6-0.2-0.8-0.4
				c-0.3-0.3-0.4-0.5-0.6-0.8c-0.1-0.3-0.2-0.6-0.2-0.9c0-0.5,0.1-0.9,0.4-1.4c0.3-0.4,0.7-0.7,1.2-0.9c0.3-0.1,0.7-0.1,1.1-0.1
				c0.6,0,1.1,0.1,1.5,0.3c0.4,0.1,0.6,0.4,0.8,0.7s0.3,0.7,0.3,1c0,0.1,0,0.4-0.1,0.6h-0.1C72.6,29.6,72.4,29.6,72.4,29.6z"/>
		</g>
	</g>
</g>
</svg>
