<svg width="47" height="41" viewBox="0 0 47 41" fill="none" xmlns="http://www.w3.org/2000/svg">
<path d="M21.3158 37.604C21.7485 37.604 22.1635 37.4321 22.4695 37.1262C22.7755 36.8202 22.9474 36.4052 22.9474 35.9725C22.9474 35.5397 22.7755 35.1247 22.4695 34.8187C22.1635 34.5128 21.7485 34.3409 21.3158 34.3409C20.8831 34.3409 20.4681 34.5128 20.1621 34.8187C19.8561 35.1247 19.6842 35.5397 19.6842 35.9725C19.6842 36.4052 19.8561 36.8202 20.1621 37.1262C20.4681 37.4321 20.8831 37.604 21.3158 37.604V37.604ZM6.63158 13.1303C7.0643 13.1303 7.4793 12.9584 7.78528 12.6525C8.09126 12.3465 8.26316 11.9315 8.26316 11.4988C8.26316 11.066 8.09126 10.651 7.78528 10.3451C7.4793 10.0391 7.0643 9.86719 6.63158 9.86719C6.19886 9.86719 5.78386 10.0391 5.47788 10.3451C5.1719 10.651 5 11.066 5 11.4988C5 11.9315 5.1719 12.3465 5.47788 12.6525C5.78386 12.9584 6.19886 13.1303 6.63158 13.1303V13.1303ZM6.63158 29.4461C7.0643 29.4461 7.4793 29.2742 7.78528 28.9683C8.09126 28.6623 8.26316 28.2473 8.26316 27.8146C8.26316 27.3818 8.09126 26.9668 7.78528 26.6609C7.4793 26.3549 7.0643 26.183 6.63158 26.183C6.19886 26.183 5.78386 26.3549 5.47788 26.6609C5.1719 26.9668 5 27.3818 5 27.8146C5 28.2473 5.1719 28.6623 5.47788 28.9683C5.78386 29.2742 6.19886 29.4461 6.63158 29.4461V29.4461Z" stroke="#B7B7C0" stroke-width="2" stroke-linecap="round" stroke-linejoin="round"/>
<path d="M35.9993 12.0753V27.2392C35.9994 27.414 35.9527 27.5856 35.864 27.7362C35.7753 27.8868 35.648 28.011 35.4951 28.0958L21.7899 35.7087C21.6446 35.7893 21.4812 35.8315 21.3151 35.8315C21.1489 35.8315 20.9856 35.7893 20.8403 35.7087L7.13502 28.0958C6.98217 28.011 6.8548 27.8868 6.76614 27.7362C6.67749 27.5856 6.63077 27.414 6.63086 27.2392V12.0753C6.63107 11.9008 6.67791 11.7295 6.76656 11.5792C6.8552 11.4289 6.98241 11.305 7.13502 11.2203L20.8403 3.60575C20.9856 3.52518 21.1489 3.48291 21.3151 3.48291C21.4812 3.48291 21.6446 3.52518 21.7899 3.60575L35.4951 11.2203C35.6477 11.305 35.7749 11.4289 35.8636 11.5792C35.9522 11.7295 35.9991 11.9008 35.9993 12.0753V12.0753Z" stroke="#B7B7C0" stroke-width="2" stroke-linecap="round" stroke-linejoin="round"/>
<path d="M7.49219 11.9792L20.8385 19.3931C20.984 19.474 21.1477 19.5164 21.3141 19.5164C21.4805 19.5164 21.6442 19.474 21.7897 19.3931L35.1833 11.9531M21.3149 34.3417V19.6574" stroke="#B7B7C0" stroke-width="2" stroke-linecap="round" stroke-linejoin="round"/>
<path d="M38.8184 36.584C43.2366 36.584 46.8184 33.0023 46.8184 28.584C46.8184 24.1657 43.2366 20.584 38.8184 20.584C34.4001 20.584 30.8184 24.1657 30.8184 28.584C30.8184 33.0023 34.4001 36.584 38.8184 36.584Z" fill="#00CCFF"/>
<path d="M42.2763 25.7822L37.2677 30.791L34.7305 28.2538" stroke="white" stroke-width="2" stroke-linecap="round"/>
</svg>
